<?xml version="1.0" standalone="no"?>
<!DOCTYPE svg PUBLIC "-//W3C//DTD SVG 1.1//EN" "http://www.w3.org/Graphics/SVG/1.1/DTD/svg11.dtd" >
<svg xmlns="http://www.w3.org/2000/svg" xmlns:xlink="http://www.w3.org/1999/xlink" version="1.1">
<metadata></metadata>
<defs>
<font id="encode_sansregular" horiz-adv-x="1239" >
<font-face units-per-em="2048" ascent="1638" descent="-410" />
<missing-glyph horiz-adv-x="481" />
<glyph unicode="&#xfb01;" horiz-adv-x="1296" d="M33 950v156h239v55q0 145 23.5 240.5t82 152t158 81t250.5 30.5l11 -135q-106 -6 -174 -22.5t-106 -51.5t-52 -95.5t-14 -156.5v-98h292v-156h-292v-950h-181v950h-237zM940 1444q0 111 111 110q115 0 114 -110q1 -109 -114 -109q-111 0 -111 109zM963 0v1106h178v-1106 h-178z" />
<glyph unicode="&#xfb02;" horiz-adv-x="1300" d="M33 950v156h239v55q0 145 23.5 240.5t82 152t158 81t250.5 30.5l11 -135q-106 -6 -174 -22.5t-106 -51.5t-52 -95.5t-14 -156.5v-98h292v-156h-292v-950h-181v950h-237zM961 0v1655h180v-1655h-180z" />
<glyph unicode="&#xfb03;" horiz-adv-x="2072" d="M33 950v156h239v55q0 145 23.5 240.5t82 152t158 81t250.5 30.5l11 -135q-106 -6 -174 -22.5t-106 -51.5t-52 -95.5t-14 -156.5v-98h292v-156h-292v-950h-181v950h-237zM811 950v156h240v55q0 145 23.5 240.5t81.5 152t157.5 81t251.5 30.5l10 -135q-106 -6 -174 -22.5 t-106 -51.5t-52 -95.5t-14 -156.5v-98h293v-156h-293v-950h-180v950h-238zM1714 1444q0 111 111 110q115 0 114 -110q1 -109 -114 -109q-111 0 -111 109zM1737 0v1106h178v-1106h-178z" />
<glyph unicode="&#xfb04;" horiz-adv-x="2074" d="M33 950v156h239v55q0 145 23.5 240.5t82 152t158 81t250.5 30.5l11 -135q-106 -6 -174 -22.5t-106 -51.5t-52 -95.5t-14 -156.5v-98h292v-156h-292v-950h-181v950h-237zM811 950v156h240v55q0 145 23.5 240.5t81.5 152t157.5 81t251.5 30.5l10 -135q-106 -6 -174 -22.5 t-106 -51.5t-52 -95.5t-14 -156.5v-98h293v-156h-293v-950h-180v950h-238zM1737 0v1655h180v-1655h-180z" />
<glyph horiz-adv-x="0" />
<glyph unicode="&#xd;" horiz-adv-x="598" />
<glyph horiz-adv-x="0" />
<glyph horiz-adv-x="0" />
<glyph unicode=" "  horiz-adv-x="481" />
<glyph unicode="&#x09;" horiz-adv-x="481" />
<glyph unicode="&#xa0;" horiz-adv-x="481" />
<glyph unicode="!" horiz-adv-x="520" d="M160 104q0 49 27.5 77t78.5 28q49 0 78 -28.5t29 -76.5q0 -47 -29 -74.5t-78 -27.5q-51 0 -78.5 27.5t-27.5 74.5zM170 1495v21h180v-21l-35 -1089v-27h-112v27z" />
<glyph unicode="&#x22;" horiz-adv-x="778" d="M139 983v672h158v-8l-64 -664h-94zM510 983v672h158v-8l-64 -664h-94z" />
<glyph unicode="#" horiz-adv-x="1173" d="M102 459v129h193l27 338h-220v129h230l39 461h135l-39 -461h270l39 461h135l-39 -461h197v-129h-207l-26 -338h233v-129h-244l-37 -459h-137l37 459h-268l-37 -459h-135l37 459h-183zM430 588h268l29 338h-270z" />
<glyph unicode="$" horiz-adv-x="1189" d="M92 41v156q123 -31 248 -48.5t221 -17.5q178 0 271.5 65.5t93.5 188.5q0 70 -27 118t-73 81.5t-111.5 57.5t-141.5 44q-121 33 -206.5 72t-141 91t-82 120.5t-26.5 158.5q0 166 107.5 273.5t293.5 136.5v283h172v-277q76 -4 162 -16t190 -35l-6 -154q-98 27 -198.5 40.5 t-182.5 13.5q-162 0 -255 -70t-93 -190q0 -57 18.5 -100.5t59.5 -77t106.5 -62.5t161.5 -55q100 -29 185.5 -62t147 -83t95 -121.5t33.5 -176.5q0 -174 -103.5 -277.5t-301.5 -129.5v-293h-172v282q-98 4 -217 19.5t-228 44.5z" />
<glyph unicode="%" horiz-adv-x="1980" d="M84 1055q0 240 94 360.5t277 120.5q182 0 276 -121t94 -360q0 -242 -94 -363t-276 -121t-276.5 121t-94.5 363zM225 1055q0 -182 56.5 -269.5t173.5 -87.5t173 87t56 270q0 354 -229 354t-230 -354zM555 0l705 1516h165l-706 -1516h-164zM1157 461q0 240 95.5 361.5 t277.5 121.5q180 0 275.5 -122t95.5 -361q0 -242 -95.5 -363t-275.5 -121q-182 0 -277.5 121t-95.5 363zM1298 461q0 -182 57.5 -269.5t174.5 -87.5q115 0 172 87.5t57 269.5t-57 269t-172 87q-231 0 -232 -356z" />
<glyph unicode="&#x26;" horiz-adv-x="1495" d="M104 422q0 141 70 242.5t205 154.5q-61 74 -87 152t-26 172q0 195 124 297t355 102q86 0 176.5 -17.5t200.5 -56.5l2 -10l-32 -121h-15q-182 68 -317 68q-311 0 -311 -275q0 -72 24.5 -134t77.5 -122.5t138 -121t206 -125.5l240 -133q18 92 18 206v156h168v-154 q0 -164 -37 -292l176 -97v-16l-71 -123h-17l-147 84q-158 -281 -557 -281q-131 0 -235.5 31t-177.5 88.5t-112 140t-39 185.5zM289 430q0 -147 103.5 -231t283.5 -84q299 0 409 223l-274 160q-104 59 -186 112.5t-142 106.5q-195 -92 -194 -287z" />
<glyph unicode="'" horiz-adv-x="405" d="M139 983v672h158v-8l-64 -664h-94z" />
<glyph unicode="(" horiz-adv-x="612" d="M92 725q0 287 82 556t238 497h163v-9q-158 -223 -243.5 -490t-85.5 -554q0 -289 86 -555t243 -489v-9h-163q-156 227 -238 496.5t-82 556.5z" />
<glyph unicode=")" horiz-adv-x="610" d="M39 -319q158 223 243 489t85 555q0 287 -85 554t-243 490v9h162q156 -227 236.5 -496.5t80.5 -556.5t-81 -556t-236 -497h-162v9z" />
<glyph unicode="*" horiz-adv-x="1013" d="M94 1356l37 112l158 -49l192 -98l-32 217v164h118v-164l-35 -217l193 98l160 49l35 -112l-156 -49l-215 -35l153 -154l99 -135l-96 -68l-97 134l-100 198l-100 -198l-99 -134l-94 68l96 135l154 154l-215 35z" />
<glyph unicode="+" horiz-adv-x="1001" d="M96 694v127h340v348h129v-348h342v-127h-342v-348h-129v348h-340z" />
<glyph unicode="," horiz-adv-x="477" d="M68 -297l92 508h186l-141 -528z" />
<glyph unicode="-" horiz-adv-x="940" d="M137 500v147h666v-147h-666z" />
<glyph unicode="." horiz-adv-x="483" d="M125 104q0 57 31.5 84t85.5 27q53 0 84.5 -27.5t31.5 -83.5q0 -55 -31.5 -83.5t-84.5 -28.5t-85 28.5t-32 83.5z" />
<glyph unicode="/" horiz-adv-x="792" d="M63 -246l504 1762h162l-504 -1762h-162z" />
<glyph unicode="0" horiz-adv-x="1357" d="M113 756q0 387 144 583.5t423 196.5q276 0 420.5 -196.5t144.5 -583.5t-144.5 -583t-420.5 -196q-279 0 -423 196t-144 583zM293 756q0 -319 95 -472t292 -153q193 0 288 152.5t95 472.5q0 322 -95.5 474t-287.5 152q-195 0 -291 -152.5t-96 -473.5z" />
<glyph unicode="1" horiz-adv-x="829" d="M45 1239v12l449 265h137v-1516h-182v1305h-9l-352 -175h-16z" />
<glyph unicode="2" horiz-adv-x="1128" d="M94 4v199q0 100 28 179t82 144.5t135 124t187 117.5q162 88 233.5 168t71.5 184q0 254 -309 254q-84 0 -176 -14t-186 -39l-21 158q123 29 222.5 41t191.5 12q459 0 459 -399q0 -80 -21.5 -144.5t-66.5 -121t-114 -108.5t-163 -106q-186 -109 -274 -201t-88 -206v-90h733 v-152h-924z" />
<glyph unicode="3" horiz-adv-x="1079" d="M113 1503q70 16 156.5 24.5t162.5 8.5q242 0 370 -103.5t128 -302.5q0 -133 -62.5 -222t-181.5 -124v-10q137 -29 211 -123t74 -241q0 -209 -139.5 -319.5t-405.5 -110.5q-78 0 -162 7t-149 21v146h8q25 -6 59.5 -10.5t73.5 -8.5t77 -6t68 -2q383 0 383 297 q0 141 -89 208.5t-283 67.5h-136v142h134q172 0 252.5 67.5t80.5 204.5t-80.5 204.5t-250.5 67.5q-51 0 -126 -8t-161 -20h-10z" />
<glyph unicode="4" d="M47 461v14l508 1061h8l168 -25l4 -18l-489 -981v-8h530l51 504h127v-504h226v-148h-226v-356h-180v356h-690z" />
<glyph unicode="5" horiz-adv-x="1089" d="M106 8v148h37q72 -14 137.5 -21.5t127.5 -7.5q201 0 301 73.5t100 248.5q0 80 -28.5 134t-89 86.5t-154 48t-224.5 17.5l-155 4l-17 17l56 760h733v-152h-592l-31 -477q178 -2 309.5 -24.5t215 -75t124.5 -136.5t41 -207q0 -127 -41 -215t-116.5 -144t-180 -82 t-233.5 -26q-154 0 -320 31z" />
<glyph unicode="6" horiz-adv-x="1265" d="M111 672q0 207 46 368.5t135 272t220 168t301 57.5q63 0 130 -8t142 -27l-14 -145q-76 18 -135 26.5t-119 8.5q-236 0 -367 -155t-153 -454q84 70 188.5 109t208.5 39q113 0 204 -31t154.5 -88t97.5 -140t34 -186q0 -117 -37 -211t-105.5 -160.5t-164.5 -102.5t-215 -36 q-272 0 -411.5 173.5t-139.5 521.5zM293 647q4 -272 93 -399t276 -127q156 0 245.5 97t89.5 267q0 152 -87.5 234t-247.5 82q-96 0 -195.5 -42t-173.5 -112z" />
<glyph unicode="7" horiz-adv-x="1005" d="M49 1499l14 17h869l35 -97v-51l-543 -1370l-43 -27l-152 29v29l543 1325h-711z" />
<glyph unicode="8" horiz-adv-x="1261" d="M106 389q0 88 26 153.5t66 114t88 81t93 53.5q-49 25 -90 56.5t-72 74.5t-47 99t-16 128q0 94 35.5 167t100 122t153.5 73.5t196 24.5q106 0 192.5 -24.5t147.5 -73.5t94 -122t33 -169q0 -78 -20.5 -138.5t-54.5 -105.5t-76 -76.5t-85 -54.5q61 -25 113.5 -56.5 t90.5 -76.5t60.5 -104.5t22.5 -137.5q0 -197 -136 -302t-388 -105q-256 0 -391.5 100t-135.5 299zM281 403q0 -141 96 -209.5t256 -68.5q158 0 254 67.5t96 196.5q0 74 -28.5 125t-79 86t-117 59.5t-142.5 45.5l-96 28q-33 -14 -73.5 -38.5t-77.5 -63.5t-62.5 -94.5 t-25.5 -133.5zM322 1141q0 -74 29.5 -123t79.5 -85t117.5 -60.5t143.5 -45.5l29 -8q31 16 69.5 42t71.5 65t55.5 91t22.5 122q0 131 -86 195.5t-221 64.5q-137 0 -224 -64.5t-87 -193.5z" />
<glyph unicode="9" horiz-adv-x="1267" d="M84 1028q0 117 37 211t105.5 160.5t164.5 102.5t215 36q272 0 411.5 -173t139.5 -521q0 -416 -181 -641.5t-521 -225.5q-63 0 -130 8.5t-143 26.5l15 146q76 -18 135 -26.5t119 -8.5q236 0 366.5 154.5t153.5 453.5q-84 -70 -188.5 -108.5t-209.5 -38.5 q-113 0 -203.5 30.5t-154 88t-97.5 140.5t-34 185zM270 1030q0 -152 88 -233.5t248 -81.5q96 0 195.5 42t173.5 111q-4 272 -93 399.5t-276 127.5q-156 0 -246 -97.5t-90 -267.5z" />
<glyph unicode=":" horiz-adv-x="499" d="M133 104q0 57 32 84t85 27t85 -27.5t32 -83.5q0 -55 -32 -83.5t-85 -28.5t-85 28.5t-32 83.5zM133 1004q0 57 32 83.5t85 26.5t85 -27.5t32 -82.5t-32 -84t-85 -29t-85 28.5t-32 84.5z" />
<glyph unicode=";" horiz-adv-x="550" d="M111 -297l92 508h186l-141 -528zM170 1004q0 57 31.5 83.5t85.5 26.5q53 0 84.5 -27.5t31.5 -82.5t-31.5 -84t-84.5 -29t-85 28.5t-32 84.5z" />
<glyph unicode="&#x3c;" horiz-adv-x="1054" d="M92 690v121l819 360v-143l-641 -280l637 -279v-141z" />
<glyph unicode="=" horiz-adv-x="1077" d="M143 442v133h793v-133h-793zM143 883v131h793v-131h-793z" />
<glyph unicode="&#x3e;" horiz-adv-x="1054" d="M145 1028v143l818 -360v-121l-813 -362v141l632 279z" />
<glyph unicode="?" horiz-adv-x="921" d="M66 1483q78 23 164.5 38t179.5 15q86 0 165.5 -21.5t140 -68.5t96.5 -124t36 -187q0 -104 -37 -178t-95.5 -125.5t-131 -82t-144.5 -49.5l-4 -294v-37h-133v37l-10 387q63 16 132 38.5t126 59.5t93 92t36 137q0 76 -25.5 128t-66.5 83t-95.5 44.5t-109.5 13.5 q-78 0 -151.5 -13.5t-145.5 -34.5zM268 98q0 49 28 77t77 28q51 0 79.5 -28t28.5 -77q0 -47 -28.5 -74.5t-79.5 -27.5q-49 0 -77 27.5t-28 74.5z" />
<glyph unicode="@" horiz-adv-x="1812" d="M102 535q0 199 58.5 356.5t167 266t263 165.5t345.5 57q186 0 327.5 -51t237.5 -148.5t145.5 -237.5t49.5 -316q0 -248 -94.5 -383t-276.5 -135q-109 0 -163 51t-64 131h-11q-29 -41 -67.5 -73t-82.5 -53.5t-92 -33.5t-93 -12q-135 0 -208 96t-73 260q0 117 37 215 t103.5 169t160.5 111t209 40q66 0 142.5 -17.5t162.5 -50.5l-80 -430q-8 -43 -13 -79t-5 -66q0 -72 31.5 -110t109.5 -38q117 0 178.5 106.5t61.5 301.5q0 301 -159 467t-474 166q-162 0 -293 -49.5t-223 -142.5t-142.5 -227t-50.5 -306t47.5 -301.5t133.5 -215.5 t205.5 -130t265.5 -44q90 0 193.5 17.5t213.5 52.5l41 -115q-123 -35 -236.5 -55t-211.5 -20q-172 0 -314.5 52t-246 153.5t-160 253t-56.5 352.5zM594 475q0 -111 44 -178.5t134 -67.5q53 0 104.5 20.5t95.5 59.5t75.5 95.5t44.5 127.5l59 338q-47 14 -90 22.5t-78 8.5 q-86 0 -157.5 -32.5t-123 -89t-80 -134.5t-28.5 -170z" />
<glyph unicode="A" horiz-adv-x="1394" d="M14 0v14l545 1502h277l544 -1502v-14h-180l-166 451h-678l-161 -451h-181zM408 604h577l-186 512l-94 264h-17l-94 -264z" />
<glyph unicode="B" horiz-adv-x="1361" d="M182 10v1495q147 16 255 22.5t210 6.5q301 0 434 -96.5t133 -313.5q0 -135 -67.5 -228t-190.5 -120v-8q150 -29 230 -122t80 -247q0 -419 -594 -419q-231 0 -490 30zM356 139q95 -18 314 -18q211 0 311 70.5t100 220.5q0 147 -94 217.5t-293 70.5h-338v-561zM356 836h328 q188 0 268 64.5t80 215.5q0 150 -86 213.5t-291 63.5q-92 0 -163.5 -3.5t-135.5 -13.5v-540z" />
<glyph unicode="C" horiz-adv-x="1206" d="M104 754q0 397 170 589.5t514 192.5q70 0 159 -9t179 -26v-155q-98 16 -177 24t-140 8q-268 0 -393 -148.5t-125 -473.5q0 -319 122 -469t382 -150q33 0 76.5 3t90 8.5t90.5 12.5t74 15v-153q-72 -16 -165.5 -28.5t-169.5 -12.5q-686 0 -687 772z" />
<glyph unicode="D" horiz-adv-x="1492" d="M182 6v1505q53 4 111.5 8.5t115 7.5t107.5 5t92 2q403 0 592 -187.5t189 -588.5q0 -203 -48.5 -350.5t-148.5 -242.5t-256 -141.5t-371 -46.5q-119 0 -222 7.5t-161 21.5zM365 150q74 -10 131 -14.5t125 -4.5q152 0 261 36t180 112.5t104.5 195.5t33.5 283t-32.5 281.5 t-103.5 192.5t-179.5 110.5t-257.5 35.5q-53 0 -127 -4t-135 -10v-1214z" />
<glyph unicode="E" horiz-adv-x="1261" d="M182 0v1516h963v-152h-780v-520h727v-152h-727v-540h798v-152h-981z" />
<glyph unicode="F" horiz-adv-x="1204" d="M182 0v1516h953v-152h-770v-537h702v-151h-702v-676h-183z" />
<glyph unicode="G" horiz-adv-x="1355" d="M104 754q0 782 723 782q90 0 188.5 -12.5t196.5 -36.5v-156q-123 29 -206.5 38t-163.5 9q-287 0 -419 -150.5t-132 -471.5q0 -317 125 -468t393 -151q47 0 113.5 7.5t130.5 17.5v608h172v-725q-51 -14 -106.5 -26.5t-111 -20.5t-106.5 -12t-94 -4q-702 0 -703 772z" />
<glyph unicode="H" horiz-adv-x="1570" d="M182 0v1516h183v-664h841v664h183v-1516h-183v700h-841v-700h-183z" />
<glyph unicode="I" horiz-adv-x="546" d="M182 0v1516h183v-1516h-183z" />
<glyph unicode="J" horiz-adv-x="544" d="M25 -328q45 100 76.5 184.5t50 166t26.5 167.5t8 191v1135h183v-1145q0 -102 -11.5 -191.5t-37 -177.5t-67.5 -182t-103 -207z" />
<glyph unicode="K" horiz-adv-x="1368" d="M182 0v1516h183v-668h288l461 668h207l-471 -676l-70 -54v-12l74 -51l504 -723h-207l-479 694h-307v-694h-183z" />
<glyph unicode="L" horiz-adv-x="1083" d="M182 0v1516h183v-1364h692v-152h-875z" />
<glyph unicode="M" horiz-adv-x="1906" d="M182 0v1516h250l387 -926l125 -328h14l127 328l388 926h251v-1516h-170v1282h-12l-170 -426l-336 -795h-168l-336 795l-170 426h-12v-1282h-168z" />
<glyph unicode="N" horiz-adv-x="1597" d="M182 0v1516h158l778 -1057l119 -180h14v1237h166v-1516h-160l-780 1057l-117 178l-12 -2v-1233h-166z" />
<glyph unicode="O" horiz-adv-x="1529" d="M104 756q0 385 171 582.5t489 197.5q319 0 490 -197.5t171 -582.5q0 -383 -171 -579.5t-490 -196.5q-317 0 -488.5 195.5t-171.5 580.5zM291 756q0 -317 116.5 -469t356.5 -152t357.5 152.5t117.5 468.5q0 626 -473 626h-2q-238 0 -355.5 -153.5t-117.5 -472.5z" />
<glyph unicode="P" horiz-adv-x="1320" d="M182 0v1505q199 31 379 31q358 0 524 -126t166 -398q0 -274 -163.5 -400.5t-516.5 -126.5q-47 0 -97 2t-109 7v-494h-183zM365 653q16 -4 43.5 -7t59.5 -5t64.5 -4t63.5 -2q127 0 216 20.5t145.5 65.5t82 116.5t25.5 174.5q0 98 -26.5 168.5t-83 115.5t-146.5 66.5 t-217 21.5q-55 0 -117.5 -5t-109.5 -11v-715z" />
<glyph unicode="Q" horiz-adv-x="1523" d="M100 756q0 379 170 579.5t490 200.5q322 0 492.5 -200.5t170.5 -579.5q0 -356 -159.5 -544.5t-464.5 -188.5v-15q90 -20 165.5 -34.5t145.5 -25.5t139.5 -19.5t149.5 -14.5l-37 -160q-360 61 -602 139t-388.5 193t-209 276.5t-62.5 393.5zM285 756q0 -623 475 -623 q477 0 477 623q0 626 -475 626h-2q-475 0 -475 -626z" />
<glyph unicode="R" horiz-adv-x="1359" d="M182 0v1505q197 31 379 31q360 0 525 -116.5t165 -372.5q0 -180 -80.5 -291t-250.5 -158l380 -598h-202l-346 565q-41 -4 -86 -6t-93 -2q-41 0 -98 3t-110 9v-569h-183zM365 725q31 -8 96 -13t135 -5q127 0 216 18t145.5 59t82 105.5t25.5 157.5q0 180 -109.5 258.5 t-363.5 78.5q-53 0 -116.5 -5t-110.5 -11v-643z" />
<glyph unicode="S" horiz-adv-x="1187" d="M88 41v156q123 -31 248 -48.5t221 -17.5q178 0 271.5 65.5t93.5 188.5q0 70 -27 118t-73 81.5t-111.5 57.5t-141.5 44q-121 33 -207 72t-141 91t-81.5 120.5t-26.5 158.5q0 94 36.5 172t105.5 132.5t165 84t217 29.5q86 0 183.5 -13t217.5 -40l-6 -154 q-98 27 -198.5 40.5t-182.5 13.5q-162 0 -255 -70t-93 -190q0 -57 18.5 -100.5t59.5 -77t106.5 -62.5t161.5 -55q100 -29 185.5 -62t146.5 -83t95 -121.5t34 -176.5q0 -203 -139.5 -310.5t-403.5 -107.5q-51 0 -110.5 4.5t-122 12.5t-126 20.5t-120.5 26.5z" />
<glyph unicode="T" horiz-adv-x="1228" d="M35 1362v154h1161v-154h-489v-1362h-185v1362h-487z" />
<glyph unicode="U" horiz-adv-x="1546" d="M166 612v904h182v-900q0 -258 106.5 -369.5t319.5 -111.5t318.5 110.5t105.5 370.5v900h184v-904q0 -166 -34.5 -285.5t-108.5 -196.5t-189.5 -113.5t-275.5 -36.5q-162 0 -276.5 36.5t-188 113.5t-108.5 196.5t-35 285.5z" />
<glyph unicode="V" horiz-adv-x="1390" d="M16 1516h191l381 -1043l100 -295h17l100 295l381 1043h188l-555 -1516h-246z" />
<glyph unicode="W" horiz-adv-x="2078" d="M39 1516h192l269 -1033l69 -286h13l75 286l289 1033h191l282 -1033l74 -286h16l70 286l272 1033h193l-418 -1516h-244l-276 997l-59 273h-13l-59 -273l-281 -997h-243z" />
<glyph unicode="X" horiz-adv-x="1374" d="M8 0l561 782l-530 734h211l401 -570l29 -53h16l29 53l403 570h207l-534 -742l567 -774h-209l-440 612l-27 50h-14l-27 -50l-434 -612h-209z" />
<glyph unicode="Y" horiz-adv-x="1298" d="M6 1516h197l377 -701l59 -135h18l60 135l377 701h196l-549 -1004v-512h-182v506z" />
<glyph unicode="Z" horiz-adv-x="1200" d="M68 0v137l815 1211v10h-789v158h1014v-134l-813 -1214v-12h835v-156h-1062z" />
<glyph unicode="[" horiz-adv-x="661" d="M180 -328v2106h416v-131h-268v-1844h268v-131h-416z" />
<glyph unicode="\" horiz-adv-x="790" d="M63 1516h158l504 -1762h-158z" />
<glyph unicode="]" horiz-adv-x="659" d="M66 -197h268v1844h-268v131h415v-2106h-415v131z" />
<glyph unicode="^" horiz-adv-x="976" d="M94 985l318 631h151l320 -631h-135l-256 496h-9l-254 -496h-135z" />
<glyph unicode="_" horiz-adv-x="1208" d="M109 -121h993v-147h-993v147z" />
<glyph unicode="`" horiz-adv-x="528" d="M74 1651h194l146 -371l-135 -20z" />
<glyph unicode="a" horiz-adv-x="1091" d="M80 281q0 160 100.5 243.5t321.5 100.5l264 20v80q0 72 -13.5 120t-45 77.5t-85 42t-133.5 12.5q-70 0 -150.5 -8t-174.5 -27l-14 137q109 20 197.5 29.5t178.5 9.5q215 0 317.5 -88t102.5 -274v-756h-149l-19 139h-12q-100 -72 -196.5 -110.5t-194.5 -38.5 q-143 0 -219 74.5t-76 216.5zM262 295q0 -166 178 -166q74 0 159 35t167 88v278l-215 -18q-160 -14 -224.5 -62.5t-64.5 -154.5z" />
<glyph unicode="b" horiz-adv-x="1236" d="M154 25v1630h180v-672q61 70 148 106.5t200 36.5q223 0 340 -137t117 -424t-143.5 -435.5t-405.5 -152.5q-94 0 -200.5 11.5t-235.5 36.5zM334 135q51 -8 116.5 -14t137.5 -6q186 0 277 101t91 339q0 229 -75.5 326.5t-239.5 97.5q-61 0 -116.5 -16.5t-97.5 -46 t-67.5 -73.5t-25.5 -100v-608z" />
<glyph unicode="c" horiz-adv-x="972" d="M96 551q0 573 527 573q63 0 132.5 -7t129.5 -21v-152q-61 14 -123 20.5t-121 6.5q-186 0 -274 -101.5t-88 -316.5q0 -219 85 -318.5t273 -99.5q68 0 124 5t124 20v-150q-49 -12 -120.5 -20t-141.5 -8q-526 0 -527 569z" />
<glyph unicode="d" horiz-adv-x="1236" d="M96 545q0 147 39 255.5t110.5 181.5t173 108.5t224.5 35.5q72 0 137.5 -7t122.5 -13v549h178v-1655h-155l-17 135h-12q-115 -155 -342 -155q-225 0 -342 137t-117 428zM281 553q0 -231 75.5 -330.5t239.5 -99.5q61 0 116.5 17.5t98.5 49t67.5 77.5t24.5 106v592 q-55 10 -121.5 16t-140.5 6q-180 0 -270 -100.5t-90 -333.5z" />
<glyph unicode="e" horiz-adv-x="1114" d="M98 539q0 285 128 435t372 150q424 0 424 -493q0 -94 -14 -144h-729q10 -193 95 -276.5t259 -83.5q78 0 166 14.5t174 42.5l10 -137q-82 -31 -181.5 -48t-191.5 -17q-254 0 -383 140t-129 417zM279 614h577q0 201 -63.5 286t-198.5 85q-295 0 -315 -371z" />
<glyph unicode="f" horiz-adv-x="774" d="M35 950v156h239v55q0 145 24 240.5t82 152t157.5 81t250.5 30.5l11 -135q-106 -6 -174 -22.5t-106 -51.5t-52 -95.5t-14 -156.5v-98h292v-156h-292v-950h-181v950h-237z" />
<glyph unicode="g" horiz-adv-x="1236" d="M96 551q0 145 39 252.5t110.5 179.5t173 107.5t224.5 35.5q98 0 208 -12t232 -47v-958q0 -164 -43 -270.5t-115.5 -171t-170.5 -90.5t-209 -26q-98 0 -194.5 12.5t-174.5 35.5l12 141q76 -20 162 -33.5t172 -13.5t158 19.5t123 65.5t79.5 121.5t28.5 188.5v72h-10 q-117 -160 -346 -160q-223 0 -341 133t-118 418zM281 561q0 -225 75.5 -322.5t239.5 -97.5q61 0 117.5 17.5t98.5 49.5t66.5 78t24.5 105v574q-55 10 -121.5 16t-140.5 6q-180 0 -270 -98t-90 -328z" />
<glyph unicode="h" d="M156 0v1655h178v-676q158 76 265.5 111.5t201.5 35.5q141 0 216 -74.5t75 -228.5v-823h-181v764q0 115 -43 163t-135 48q-78 0 -180 -33t-219 -88v-854h-178z" />
<glyph unicode="i" horiz-adv-x="493" d="M135 1444q0 110 109 110h2q115 0 114 -110q1 -109 -114 -109q-111 0 -111 109zM158 0v1106h178v-1106h-178z" />
<glyph unicode="j" horiz-adv-x="487" d="M18 -408q37 74 62.5 148t43 153.5t26 170t8.5 198.5v67.5v145.5v186.5v191.5t-1 160.5t-1 92.5h178v-930q-4 -170 -51 -328.5t-133 -298.5zM129 1444q0 57 25.5 83.5t85.5 26.5q113 0 112 -110q1 -109 -112 -109q-59 0 -85 27t-26 82z" />
<glyph unicode="k" horiz-adv-x="1130" d="M156 0v1655h178v-1024h190l371 475h203l-412 -518l-37 -17v-8l39 -18l442 -545h-202l-408 506h-186v-506h-178z" />
<glyph unicode="l" horiz-adv-x="497" d="M160 0v1655h180v-1655h-180z" />
<glyph unicode="m" horiz-adv-x="1843" d="M156 0v1106h147l12 -129h11q131 78 223 113.5t178 35.5q199 0 264 -151h8q133 82 227.5 116.5t178.5 34.5q141 0 216 -74.5t75 -228.5v-823h-178v762q0 115 -44 163t-137 48q-63 0 -144 -31t-175 -84v-858h-180v762q0 115 -44 163t-137 48q-66 0 -148.5 -33t-174.5 -86 v-854h-178z" />
<glyph unicode="n" d="M156 0v1106h149l12 -129h11q82 39 148.5 67.5t122.5 47t105.5 26.5t96.5 8q141 0 216 -74.5t75 -228.5v-823h-181v764q0 115 -43 163t-135 48q-78 0 -181 -33t-216 -88v-854h-180z" />
<glyph unicode="o" horiz-adv-x="1216" d="M96 553q0 281 131 427t381 146t381 -146t131 -427t-131 -427t-381 -146t-381 147t-131 426zM279 553q0 -223 79.5 -324.5t249.5 -101.5q172 0 251 101.5t79 324.5t-79 324.5t-251 101.5q-170 0 -249.5 -101.5t-79.5 -324.5z" />
<glyph unicode="p" d="M156 -451v1557h155l15 -131h12q120 151 343 151h3q223 0 340 -136t117 -425q0 -287 -144.5 -436t-404.5 -149q-72 0 -137.5 6t-118.5 12v-449h-180zM336 139q51 -8 119.5 -15t140.5 -7q180 0 271 101t91 337q0 231 -75.5 329.5t-241.5 98.5q-61 0 -116.5 -17.5t-97.5 -49 t-66.5 -77.5t-24.5 -104v-596z" />
<glyph unicode="q" horiz-adv-x="1236" d="M96 545q0 283 143.5 432t405.5 149q117 0 235.5 -13t202.5 -30v-1534h-174v586q-63 -78 -153 -116.5t-201 -38.5q-459 0 -459 565zM279 555q0 -227 74.5 -329.5t242.5 -102.5q66 0 122 18.5t97 52t64.5 79.5t23.5 104v590q-76 10 -139.5 15t-122.5 5q-188 0 -275 -102.5 t-87 -329.5z" />
<glyph unicode="r" horiz-adv-x="800" d="M156 0v1106h149l12 -152h9q115 63 211 108.5t182 61.5h57v-170h-63q-92 -12 -189.5 -48t-187.5 -83v-823h-180z" />
<glyph unicode="s" horiz-adv-x="964" d="M92 25v147q102 -25 193.5 -40t173.5 -15q123 0 185.5 47t62.5 133q0 47 -16.5 79t-47.5 54.5t-74 35.5t-94 23q-63 12 -128.5 27.5t-119 49.5t-87.5 92.5t-34 156.5q0 150 108 234t300 84q35 0 67.5 -2.5t69.5 -7.5t82 -12t107 -19l-9 -150q-104 23 -173.5 34t-129.5 11 q-247 0 -247 -167q0 -50 19 -81.5t54 -52t82 -33t103 -22.5q74 -14 136 -36t108 -58.5t72 -93t26 -138.5q0 -154 -107.5 -241t-306.5 -87q-74 0 -160 11.5t-215 36.5z" />
<glyph unicode="t" horiz-adv-x="817" d="M33 948v158h239l27 276l141 19v-295h328v-158h-326v-616q0 -104 46.5 -153.5t144.5 -49.5q31 0 67.5 5t77.5 18v-144q-47 -12 -98 -19t-98 -7q-158 0 -239 79.5t-81 233.5v653h-229z" />
<glyph unicode="u" d="M147 283v823h181v-766q0 -111 39 -159t131 -48q98 0 202.5 42t202.5 91v840h180v-1106h-149l-12 135h-9q-84 -41 -147.5 -70.5t-117.5 -48t-106.5 -27.5t-113.5 -9q-281 0 -281 303z" />
<glyph unicode="v" horiz-adv-x="1140" d="M39 1081v25h186l287 -795l49 -168h21l49 168l289 795h184v-25l-418 -1081h-233z" />
<glyph unicode="w" horiz-adv-x="1628" d="M47 1094v12h176l199 -762l35 -162h14l39 162l215 762h174l223 -762l41 -162h15l36 162l189 762h174v-12l-297 -1094h-205l-221 743l-35 148h-12l-35 -148l-213 -743h-203z" />
<glyph unicode="x" horiz-adv-x="1132" d="M27 0v25l417 548l-395 519v14h191l254 -340l69 -98h10l70 98l248 340h192v-14l-395 -525l418 -542v-25h-188l-271 362l-78 111h-12l-74 -111l-268 -362h-188z" />
<glyph unicode="y" horiz-adv-x="1157" d="M33 1085v21h192l297 -754l49 -155h13l49 155l309 754h186v-21l-647 -1536l-164 31l-2 19l170 411z" />
<glyph unicode="z" horiz-adv-x="1007" d="M76 2v119l606 825v10h-586v150h817v-113l-602 -829v-14h623v-148h-858z" />
<glyph unicode="{" horiz-adv-x="733" d="M68 655v148q74 0 113.5 54t39.5 159v512q0 137 49 193.5t172 56.5q20 0 53 -1t67 -3t61.5 -3.5t38.5 -3.5v-120h-191q-53 0 -75.5 -21.5t-22.5 -71.5v-575q0 -96 -41 -166t-113 -86q72 -14 113 -83t41 -163v-581q0 -49 22.5 -71t75.5 -22h191v-120q-10 -2 -37 -4 t-61 -3.5t-66.5 -2.5t-51.5 -1q-123 0 -174 56.5t-51 195.5v516q0 104 -40 157.5t-113 53.5z" />
<glyph unicode="|" horiz-adv-x="528" d="M180 -451v2106h170v-2106h-170z" />
<glyph unicode="}" horiz-adv-x="733" d="M72 -193h192q53 0 75.5 21.5t22.5 71.5v581q0 94 40 163t112 83q-72 16 -112 86t-40 166v575q0 49 -22.5 71t-75.5 22h-192v120q8 2 36.5 3.5t62.5 3.5t67.5 3t52.5 1q123 0 173 -56.5t50 -193.5v-512q0 -213 152 -213v-148q-152 0 -152 -211v-516q0 -139 -51 -195.5 t-174 -56.5q-18 0 -51 1t-67 2.5t-62.5 3.5t-36.5 4v120z" />
<glyph unicode="~" horiz-adv-x="1318" d="M127 584q55 57 98 97t83 62.5t79 32.5t82 10q61 0 109.5 -23.5t92.5 -53t87 -53t94 -23.5q66 0 130.5 39t98.5 100l113 -63q-25 -41 -60.5 -81t-78.5 -73t-91.5 -52.5t-99.5 -19.5q-68 0 -119 24.5t-95 53.5t-84 53.5t-83 24.5q-63 0 -120.5 -33t-135.5 -110z" />
<glyph unicode="&#xa1;" horiz-adv-x="489" d="M143 1001q0 47 28 75t79 28q49 0 77.5 -27.5t28.5 -75.5q0 -47 -28.5 -75.5t-77.5 -28.5q-51 0 -79 27.5t-28 76.5zM154 -389l32 1089v27h113v-27l35 -1089v-21h-180v21z" />
<glyph unicode="&#xa2;" horiz-adv-x="1011" d="M98 551q0 522 443 569v232h129v-230q53 -2 110.5 -9t106.5 -17v-152q-61 14 -123 20.5t-121 6.5q-186 0 -274 -101.5t-88 -316.5q0 -219 85 -318.5t273 -99.5q68 0 124 5t124 20v-150q-41 -10 -99.5 -17t-117.5 -9v-230h-129v232q-442 43 -443 565z" />
<glyph unicode="&#xa3;" horiz-adv-x="1308" d="M102 0v162h312v520h-312v147h312v242q0 231 106.5 344t345.5 113q76 0 158 -13.5t186 -44.5l-18 -149q-90 25 -168 37t-139 12q-160 0 -224.5 -68.5t-64.5 -230.5v-242h434v-147h-434v-520h586v-162h-1080z" />
<glyph unicode="&#xa4;" horiz-adv-x="1265" d="M119 334l112 110l101 72q-76 98 -76 242q0 141 76 239l-101 74l-112 111l90 88l110 -111l74 -102q96 74 240 73q72 0 131 -19t106 -54l76 102l111 111l90 -88l-113 -111l-104 -74q37 -47 57.5 -107.5t20.5 -131.5q0 -72 -20.5 -132.5t-55.5 -107.5l102 -74l113 -110 l-90 -88l-111 110l-76 101q-96 -74 -237 -74q-143 0 -240 74l-74 -101l-110 -110zM381 758q0 -125 68.5 -192.5t183.5 -67.5t181.5 66.5t66.5 193.5q0 123 -65.5 190.5t-182.5 67.5q-115 0 -183.5 -66.5t-68.5 -191.5z" />
<glyph unicode="&#xa5;" horiz-adv-x="1404" d="M66 1516h196l377 -701l59 -135h19l59 135l377 701h197l-486 -887h305v-123h-368v-178h368v-125h-368v-203h-183v203h-419v125h419v178h-419v123h352z" />
<glyph unicode="&#xa6;" horiz-adv-x="526" d="M178 416h172v-867h-172v867zM178 788v867h172v-867h-172z" />
<glyph unicode="&#xa7;" horiz-adv-x="1024" d="M121 25v137q199 -49 364 -49q123 0 185.5 47t62.5 137q0 94 -63.5 134t-167.5 61q-61 12 -127 26t-120 48t-88 92.5t-34 156.5q0 129 84 209q-37 35 -60.5 85t-23.5 128q0 150 108.5 233.5t299.5 83.5q35 0 67.5 -2t69.5 -7t83 -12t105 -20l-6 -143q-104 23 -175 33 t-130 10q-246 0 -246 -172q0 -49 19.5 -82t54.5 -53.5t82 -32.5t102 -22q72 -14 134.5 -35t108.5 -57.5t71.5 -93t25.5 -138.5q0 -133 -80 -215q80 -68 80 -207q0 -154 -107 -241t-306 -87q-74 0 -160 11.5t-213 36.5zM307 825q0 -53 18.5 -86.5t50.5 -55t74 -35t89 -25.5 q35 -8 75.5 -21t69.5 -27q51 51 51 134q0 51 -15 86.5t-44 60.5t-68 39t-86 25q-35 10 -78 18t-73 25q-63 -49 -64 -138z" />
<glyph unicode="&#xa8;" horiz-adv-x="983" d="M127 1434q0 102 106 102q104 0 105 -102q-1 -105 -105 -105q-106 0 -106 105zM616 1434q0 102 105 102q106 0 106 -102q0 -105 -106 -105q-104 0 -105 105z" />
<glyph unicode="&#xa9;" horiz-adv-x="1730" d="M104 758q0 174 54.5 318.5t155 246.5t240.5 158.5t312 56.5t311.5 -56.5t240 -158.5t154.5 -246.5t54 -318.5q0 -176 -54 -319.5t-154.5 -246t-240 -159t-311.5 -56.5t-312 56.5t-240.5 159t-155 246t-54.5 319.5zM217 758q0 -152 45 -276t130 -212t204.5 -136t269.5 -48 q147 0 267 48t204 136t130 212t46 276t-46 275.5t-130 212.5t-203.5 137.5t-267.5 48.5q-150 0 -269.5 -48.5t-204.5 -137.5t-130 -213t-45 -275zM518 750q0 213 101.5 318.5t277.5 105.5q47 0 91 -5.5t85 -15.5v-111q-41 8 -83 13.5t-81 5.5q-129 0 -196.5 -77t-67.5 -232 q0 -158 69.5 -232t192.5 -74q37 0 80 5.5t90 13.5v-109q-84 -22 -180 -22q-176 0 -277.5 103.5t-101.5 312.5z" />
<glyph unicode="&#xaa;" horiz-adv-x="907" d="M94 932q0 104 81 166.5t241 72.5l200 15v55q0 47 -9 79t-31.5 50.5t-61.5 26.5t-98 8q-39 0 -95.5 -4t-138.5 -17l-16 117q90 14 158.5 20.5t121.5 6.5q172 0 247 -61.5t75 -192.5v-553h-129l-10 96h-8q-82 -51 -150.5 -77.5t-134.5 -26.5q-111 0 -176.5 60.5 t-65.5 158.5zM248 944q0 -115 133 -115q47 0 100.5 16.5t134.5 57.5v182l-106 -6q-76 -4 -126 -13t-81 -25.5t-43 -40t-12 -56.5z" />
<glyph unicode="&#xab;" horiz-adv-x="1255" d="M70 549v8l368 487h191l-369 -487v-8l369 -488h-191zM604 549v8l369 487h190l-368 -487v-8l368 -488h-190z" />
<glyph unicode="&#xac;" horiz-adv-x="1665" d="M131 723v154h1380v-648h-176v494h-1204z" />
<glyph unicode="&#xad;" horiz-adv-x="940" d="M137 500v147h666v-147h-666z" />
<glyph unicode="&#xae;" horiz-adv-x="1480" d="M113 913q0 137 46 252t129 199t198.5 131t252.5 47t254 -47t200 -131t130 -198.5t47 -252.5q0 -137 -47 -251.5t-130 -197.5t-200 -130t-254 -47t-252.5 47t-198.5 130t-129 197.5t-46 251.5zM211 913q0 -117 39 -215t108.5 -168.5t166.5 -109.5t214 -39t215.5 39 t168 109.5t108.5 169t39 214.5q0 117 -39 214.5t-108.5 168t-168 110.5t-215.5 40t-214 -40t-166.5 -110.5t-108.5 -168t-39 -214.5zM512 582v684q53 6 102.5 10t90.5 4q160 0 234.5 -53t74.5 -166q0 -156 -146 -201l-2 -6l170 -272h-108l-156 254h-164v-254h-96zM608 922 q16 -2 46 -2h57q203 0 202 139q0 72 -46 104.5t-152 32.5q-23 0 -50.5 -1t-56.5 -5v-268z" />
<glyph unicode="&#xaf;" horiz-adv-x="964" d="M129 1327v133h668v-133h-668z" />
<glyph unicode="&#xb0;" horiz-adv-x="948" d="M90 1149q0 80 30 148.5t81 119.5t121.5 80t152.5 29t151.5 -29t121 -80t80 -119.5t28.5 -148.5t-28.5 -149.5t-80 -121t-121 -80t-151.5 -28.5t-152.5 28.5t-121.5 80t-81 121t-30 149.5zM217 1149q0 -57 18.5 -105.5t52.5 -84t81 -55t106 -19.5q117 0 186.5 73.5 t69.5 190.5q0 115 -69.5 189.5t-186.5 74.5q-59 0 -106 -20.5t-81 -55t-52.5 -83t-18.5 -105.5z" />
<glyph unicode="&#xb1;" horiz-adv-x="1095" d="M147 813v129h336v346h129v-346h334v-129h-334v-342h-129v342h-336zM150 184v129h798v-129h-798z" />
<glyph unicode="&#xb2;" horiz-adv-x="884" d="M82 618v156q0 68 18.5 126t57.5 108.5t101.5 96.5t150.5 93q63 33 106 62.5t68.5 57.5t36 55.5t10.5 60.5q0 172 -221 172q-106 0 -277 -39l-20 135q96 23 174 33t147 10q356 0 357 -301q0 -109 -66 -189.5t-217 -162.5q-66 -37 -112 -70t-73.5 -66.5t-40 -68.5 t-12.5 -76v-57h523v-136h-711z" />
<glyph unicode="&#xb3;" horiz-adv-x="841" d="M92 1722q55 12 124 19.5t126 7.5q188 0 286.5 -80t98.5 -229q0 -90 -41 -154.5t-117 -93.5q182 -59 183 -270q0 -156 -103.5 -239t-300.5 -83q-66 0 -133.5 6t-120.5 17v139h15q41 -8 103 -14.5t107 -6.5q141 0 209 50.5t68 148.5q0 92 -64.5 137t-205.5 45h-109v121h107 q242 0 241 182q0 92 -57 137.5t-182 45.5q-37 0 -93.5 -5.5t-121.5 -15.5h-15z" />
<glyph unicode="&#xb4;" horiz-adv-x="509" d="M96 1262l144 378h186l-203 -393z" />
<glyph unicode="&#xb5;" horiz-adv-x="1296" d="M176 -451v1557h178v-791q0 -98 43 -144t125 -46q98 0 194.5 36t215.5 91v854h180v-1106h-149l-15 135h-8q-84 -41 -146.5 -70.5t-116.5 -48t-106.5 -27.5t-113.5 -9q-29 0 -54.5 4t-48.5 10v-445h-178z" />
<glyph unicode="&#xb6;" horiz-adv-x="1226" d="M80 1034q0 137 35 231.5t98 152t153.5 83t200.5 25.5q53 0 104.5 -5t110.5 -16v-1505h-106v545q-27 -2 -55.5 -2h-53.5q-111 0 -201 25.5t-153 83t-98 151.5t-35 231zM901 0v1505h125v-1505h-125z" />
<glyph unicode="&#xb7;" horiz-adv-x="491" d="M127 758q0 115 117 114q117 0 116 -114q1 -113 -116 -113q-57 0 -87 26.5t-30 86.5z" />
<glyph unicode="&#xb8;" horiz-adv-x="630" d="M74 -303q61 -23 141 -23q78 0 112.5 28t34.5 93q0 51 -23.5 106.5t-82.5 141.5h133q33 -49 53.5 -86t32.5 -66.5t17.5 -56.5t5.5 -55q0 -111 -63.5 -170.5t-180.5 -59.5q-41 0 -89 7.5t-91 17.5v123z" />
<glyph unicode="&#xb9;" horiz-adv-x="665" d="M43 1518l2 20l344 195h115v-1119h-158v940l-262 -122h-16z" />
<glyph unicode="&#xba;" horiz-adv-x="970" d="M98 1118q0 209 102.5 310.5t284.5 101.5t284.5 -101.5t102.5 -310.5t-102.5 -310t-284.5 -101t-284.5 101t-102.5 310zM250 1118q0 -84 17.5 -139t48 -89t73.5 -48.5t96 -14.5t96.5 14.5t74 48.5t47 89t16.5 139t-16.5 140.5t-47 90t-73.5 47t-97 13.5q-53 0 -96 -13.5 t-73.5 -47t-48 -90t-17.5 -140.5z" />
<glyph unicode="&#xbb;" horiz-adv-x="1255" d="M96 61l367 488v8l-367 487h189l366 -487v-8l-366 -488h-189zM631 61l366 488v8l-366 487h188l367 -487v-8l-367 -488h-188z" />
<glyph unicode="&#xbc;" horiz-adv-x="2019" d="M57 1313l2 20l344 195h115v-1118h-158v940l-262 -123h-16zM469 0l707 1516h163l-706 -1516h-164zM1094 356l383 772l18 5l127 -19l8 -31l-362 -696h370l39 369h111v-369h168v-129h-168v-258h-158v258h-504z" />
<glyph unicode="&#xbd;" horiz-adv-x="2082" d="M57 1313l2 20l344 195h115v-1118h-158v940l-262 -123h-16zM469 0l707 1516h163l-706 -1516h-164zM1266 4v156q0 68 17 124t57 107t101.5 98.5t151.5 94.5q63 35 106.5 63.5t69 56t36 55t10.5 60.5q0 172 -220 172q-59 0 -128.5 -10t-149.5 -29l-21 135q96 23 173 33 t149 10q356 0 356 -301q0 -55 -15 -100t-49 -87t-87.5 -82t-130.5 -83q-68 -39 -113 -71.5t-72.5 -65.5t-40 -67.5t-12.5 -75.5v-58h522v-135h-710z" />
<glyph unicode="&#xbe;" horiz-adv-x="2170" d="M117 1518q55 12 123.5 19t126.5 7q188 0 286.5 -80t98.5 -229q0 -90 -41 -154.5t-117 -93.5q182 -59 182 -270q0 -156 -103 -239t-300 -83q-66 0 -133.5 6.5t-120.5 16.5v139h14q41 -8 103.5 -14t107.5 -6q141 0 209 50t68 148q0 92 -64.5 137.5t-206.5 45.5h-108v120 h106q242 0 242 183q0 92 -57.5 137t-182.5 45q-37 0 -93 -5t-122 -16h-14zM618 0l707 1516h164l-707 -1516h-164zM1247 356l383 772l19 5l127 -19l8 -31l-363 -696h371l39 369h111v-369h167v-129h-167v-258h-158v258h-504z" />
<glyph unicode="&#xbf;" horiz-adv-x="909" d="M70 -20q0 104 36.5 177.5t95 125t131.5 82t144 49.5l4 295v36h133v-36l11 -387q-66 -16 -133.5 -39t-125 -60t-93 -92t-35.5 -137q0 -78 25.5 -129t66.5 -82t95 -44t110 -13q78 0 151.5 13t144.5 34l21 -142q-78 -23 -165 -38t-179 -15q-86 0 -166 21.5t-140.5 68.5 t-96 124t-35.5 188zM436 1016q0 47 29 74.5t80 27.5q49 0 76.5 -27.5t27.5 -74.5q0 -49 -27.5 -77t-76.5 -28q-51 0 -80 28t-29 77z" />
<glyph unicode="&#xc0;" horiz-adv-x="1394" d="M14 0v14l545 1502h277l544 -1502v-14h-180l-166 451h-678l-161 -451h-181zM408 604h577l-186 512l-94 264h-17l-94 -264zM422 1939h188l152 -274l-141 -27z" />
<glyph unicode="&#xc1;" horiz-adv-x="1394" d="M14 0v14l545 1502h277l544 -1502v-14h-180l-166 451h-678l-161 -451h-181zM408 604h577l-186 512l-94 264h-17l-94 -264zM618 1653l152 286h188l-200 -301z" />
<glyph unicode="&#xc2;" horiz-adv-x="1394" d="M14 0v14l545 1502h277l544 -1502v-14h-180l-166 451h-678l-161 -451h-181zM360 1663v143l338 154l340 -154v-143l-340 152zM408 604h577l-186 512l-94 264h-17l-94 -264z" />
<glyph unicode="&#xc3;" horiz-adv-x="1394" d="M14 0v14l545 1502h277l544 -1502v-14h-180l-166 451h-678l-161 -451h-181zM299 1763q57 76 125 115t133 39q49 0 92 -13.5t84 -28.5t82 -28.5t88 -13.5q92 0 182 78l50 -56q-53 -74 -124 -114.5t-143 -40.5q-45 0 -88 13t-85 28.5t-83 29t-84 13.5q-47 0 -90 -17.5 t-90 -58.5zM408 604h577l-186 512l-94 264h-17l-94 -264z" />
<glyph unicode="&#xc4;" horiz-adv-x="1394" d="M14 0v14l545 1502h277l544 -1502v-14h-180l-166 451h-678l-161 -451h-181zM315 1792q0 113 115 113q117 0 117 -113q0 -115 -117 -115q-115 0 -115 115zM408 604h577l-186 512l-94 264h-17l-94 -264zM848 1792q0 113 117 113q55 0 85.5 -27t30.5 -86t-30.5 -87t-85.5 -28 q-117 0 -117 115z" />
<glyph unicode="&#xc5;" horiz-adv-x="1394" d="M14 0v14l545 1502h277l544 -1502v-14h-180l-166 451h-678l-161 -451h-181zM408 604h577l-186 512l-94 264h-17l-94 -264zM453 1817q0 98 69.5 161.5t177.5 63.5q106 0 175 -63.5t69 -161.5q0 -94 -69 -157t-175 -63q-109 0 -178 62.5t-69 157.5zM551 1817q0 -61 37.5 -95 t111.5 -34q72 0 109 33.5t37 95.5q0 63 -37 99t-109 36q-74 0 -111.5 -36t-37.5 -99z" />
<glyph unicode="&#xc6;" horiz-adv-x="1816" d="M12 0v14l615 1502h1071v-152h-678l27 -520h598v-154h-590l26 -538h639v-152h-821l-18 449h-506l-185 -449h-178zM440 606h434l-30 766h-88z" />
<glyph unicode="&#xc7;" horiz-adv-x="1206" d="M104 754q0 397 170 589.5t514 192.5q70 0 159 -9t179 -26v-155q-98 16 -177 24t-140 8q-268 0 -393 -148.5t-125 -473.5q0 -319 122 -469t382 -150q33 0 76.5 3t90 8.5t90.5 12.5t74 15v-153q-66 -16 -151.5 -26.5t-159.5 -14.5q41 -68 55.5 -112t14.5 -91 q0 -111 -63.5 -170.5t-180.5 -59.5q-41 0 -89 7.5t-91 17.5v123q61 -23 141 -23q78 0 113 28t35 93q0 43 -15.5 87t-54.5 106q-575 59 -576 766z" />
<glyph unicode="&#xc8;" horiz-adv-x="1261" d="M182 0v1516h963v-152h-780v-520h727v-152h-727v-540h798v-152h-981zM414 1939h188l152 -274l-142 -27z" />
<glyph unicode="&#xc9;" horiz-adv-x="1261" d="M182 0v1516h963v-152h-780v-520h727v-152h-727v-540h798v-152h-981zM582 1653l151 286h189l-201 -301z" />
<glyph unicode="&#xca;" horiz-adv-x="1261" d="M182 0v1516h963v-152h-780v-520h727v-152h-727v-540h798v-152h-981zM338 1663v143l338 154l340 -154v-143l-340 152z" />
<glyph unicode="&#xcb;" horiz-adv-x="1261" d="M182 0v1516h963v-152h-780v-520h727v-152h-727v-540h798v-152h-981zM289 1792q0 113 114 113q117 0 117 -113q0 -115 -117 -115q-115 0 -114 115zM821 1792q0 113 117 113q55 0 86 -27t31 -86t-31 -87t-86 -28q-117 0 -117 115z" />
<glyph unicode="&#xcc;" horiz-adv-x="546" d="M18 1939h189l151 -274l-141 -27zM182 0v1516h183v-1516h-183z" />
<glyph unicode="&#xcd;" horiz-adv-x="546" d="M182 0v1516h183v-1516h-183zM195 1653l151 286h189l-201 -301z" />
<glyph unicode="&#xce;" horiz-adv-x="546" d="M-61 1663v143l337 154l340 -154v-143l-340 152zM182 0v1516h183v-1516h-183z" />
<glyph unicode="&#xcf;" horiz-adv-x="546" d="M-104 1792q0 113 114 113q117 0 117 -113q0 -115 -117 -115q-115 0 -114 115zM182 0v1516h183v-1516h-183zM428 1792q0 113 117 113q55 0 86 -27t31 -86t-31 -87t-86 -28q-117 0 -117 115z" />
<glyph unicode="&#xd0;" horiz-adv-x="1515" d="M8 684v147h199v680q53 4 111.5 8.5t114.5 7.5t107.5 5t92.5 2q403 0 591.5 -187.5t188.5 -588.5q0 -203 -48 -350.5t-148.5 -242.5t-256 -141.5t-370.5 -46.5q-119 0 -222.5 7.5t-160.5 21.5v678h-199zM389 150q74 -10 131 -14.5t125 -4.5q152 0 261.5 36t180 112.5 t104.5 195.5t34 283t-33 281.5t-103.5 192.5t-179 110.5t-258.5 35.5q-53 0 -126.5 -4t-135.5 -10v-533h369v-147h-369v-534z" />
<glyph unicode="&#xd1;" horiz-adv-x="1597" d="M182 0v1516h158l778 -1057l119 -180h14v1237h166v-1516h-160l-780 1057l-117 178l-12 -2v-1233h-166zM399 1763q57 76 125 115t133 39q49 0 92.5 -13.5t84 -28.5t81.5 -28.5t89 -13.5q92 0 182 78l49 -56q-53 -74 -124 -114.5t-142 -40.5q-45 0 -88 13t-85 28.5t-83 29 t-84 13.5q-47 0 -90 -17.5t-90 -58.5z" />
<glyph unicode="&#xd2;" horiz-adv-x="1529" d="M104 756q0 385 171 582.5t489 197.5q319 0 490 -197.5t171 -582.5q0 -383 -171 -579.5t-490 -196.5q-317 0 -488.5 195.5t-171.5 580.5zM291 756q0 -317 116.5 -469t356.5 -152t357.5 152.5t117.5 468.5q0 627 -475 626q-238 0 -355.5 -153.5t-117.5 -472.5zM489 1939 h189l151 -274l-141 -27z" />
<glyph unicode="&#xd3;" horiz-adv-x="1529" d="M104 756q0 385 171 582.5t489 197.5q319 0 490 -197.5t171 -582.5q0 -383 -171 -579.5t-490 -196.5q-317 0 -488.5 195.5t-171.5 580.5zM291 756q0 -317 116.5 -469t356.5 -152t357.5 152.5t117.5 468.5q0 627 -475 626q-238 0 -355.5 -153.5t-117.5 -472.5zM684 1653 l152 286h188l-201 -301z" />
<glyph unicode="&#xd4;" horiz-adv-x="1529" d="M104 756q0 385 171 582.5t489 197.5q319 0 490 -197.5t171 -582.5q0 -383 -171 -579.5t-490 -196.5q-317 0 -488.5 195.5t-171.5 580.5zM291 756q0 -317 116.5 -469t356.5 -152t357.5 152.5t117.5 468.5q0 627 -475 626q-238 0 -355.5 -153.5t-117.5 -472.5zM426 1663 v143l338 154l340 -154v-143l-340 152z" />
<glyph unicode="&#xd5;" horiz-adv-x="1529" d="M104 756q0 385 171 582.5t489 197.5q319 0 490 -197.5t171 -582.5q0 -383 -171 -579.5t-490 -196.5q-317 0 -488.5 195.5t-171.5 580.5zM291 756q0 -317 116.5 -469t356.5 -152t357.5 152.5t117.5 468.5q0 627 -475 626q-238 0 -355.5 -153.5t-117.5 -472.5zM365 1763 q57 76 124.5 115t133.5 39q49 0 92 -13.5t84 -28.5t82 -28.5t88 -13.5q92 0 182 78l49 -56q-53 -74 -123.5 -114.5t-142.5 -40.5q-45 0 -88 13t-85 28.5t-83 29t-84 13.5q-47 0 -90 -17.5t-90 -58.5z" />
<glyph unicode="&#xd6;" horiz-adv-x="1529" d="M104 756q0 385 171 582.5t489 197.5q319 0 490 -197.5t171 -582.5q0 -383 -171 -579.5t-490 -196.5q-317 0 -488.5 195.5t-171.5 580.5zM291 756q0 -317 116.5 -469t356.5 -152t357.5 152.5t117.5 468.5q0 627 -475 626q-238 0 -355.5 -153.5t-117.5 -472.5zM379 1792 q0 113 115 113q117 0 116 -113q1 -115 -116 -115q-115 0 -115 115zM911 1792q0 113 117 113q55 0 86 -27t31 -86t-31 -87t-86 -28q-117 0 -117 115z" />
<glyph unicode="&#xd7;" horiz-adv-x="968" d="M119 485l274 275l-274 272l92 92l272 -274l275 274l92 -92l-275 -274l275 -273l-90 -90l-275 273l-274 -273z" />
<glyph unicode="&#xd8;" horiz-adv-x="1533" d="M78 0l172 213q-141 193 -141 543q0 385 170 582.5t489 197.5q266 0 432 -143l98 123h156l-172 -213q72 -98 108.5 -234.5t36.5 -312.5q0 -383 -170 -579.5t-489 -196.5q-270 0 -436 143l-101 -123h-153zM293 756q0 -248 74 -396l727 902q-117 121 -326 120 q-238 0 -356.5 -153.5t-118.5 -472.5zM438 256q119 -121 330 -121q240 0 357.5 152.5t117.5 468.5q0 250 -78 401z" />
<glyph unicode="&#xd9;" horiz-adv-x="1546" d="M166 612v904h182v-900q0 -258 106.5 -369.5t319.5 -111.5t318.5 110.5t105.5 370.5v900h184v-904q0 -166 -34.5 -285.5t-108.5 -196.5t-189.5 -113.5t-275.5 -36.5q-162 0 -276.5 36.5t-188 113.5t-108.5 196.5t-35 285.5zM500 1939h188l152 -274l-142 -27z" />
<glyph unicode="&#xda;" horiz-adv-x="1546" d="M166 612v904h182v-900q0 -258 106.5 -369.5t319.5 -111.5t318.5 110.5t105.5 370.5v900h184v-904q0 -166 -34.5 -285.5t-108.5 -196.5t-189.5 -113.5t-275.5 -36.5q-162 0 -276.5 36.5t-188 113.5t-108.5 196.5t-35 285.5zM678 1653l151 286h189l-201 -301z" />
<glyph unicode="&#xdb;" horiz-adv-x="1546" d="M166 612v904h182v-900q0 -258 106.5 -369.5t319.5 -111.5t318.5 110.5t105.5 370.5v900h184v-904q0 -166 -34.5 -285.5t-108.5 -196.5t-189.5 -113.5t-275.5 -36.5q-162 0 -276.5 36.5t-188 113.5t-108.5 196.5t-35 285.5zM430 1663v143l338 154l340 -154v-143l-340 152z " />
<glyph unicode="&#xdc;" horiz-adv-x="1546" d="M166 612v904h182v-900q0 -258 106.5 -369.5t319.5 -111.5t318.5 110.5t105.5 370.5v900h184v-904q0 -166 -34.5 -285.5t-108.5 -196.5t-189.5 -113.5t-275.5 -36.5q-162 0 -276.5 36.5t-188 113.5t-108.5 196.5t-35 285.5zM387 1792q0 113 115 113q117 0 116 -113 q1 -115 -116 -115q-115 0 -115 115zM920 1792q0 113 116 113q55 0 86 -27t31 -86t-31 -87t-86 -28q-117 0 -116 115z" />
<glyph unicode="&#xdd;" horiz-adv-x="1298" d="M6 1516h197l377 -701l59 -135h18l60 135l377 701h196l-549 -1004v-512h-182v506zM571 1653l152 286h188l-200 -301z" />
<glyph unicode="&#xde;" horiz-adv-x="1329" d="M182 0v1518h183v-252q53 4 103 7t99 3q356 0 520 -124t164 -392q0 -135 -38.5 -233.5t-120.5 -162t-210 -93t-307 -29.5q-49 0 -101 2t-109 8v-252h-183zM365 416q12 -4 39.5 -6t59.5 -5.5t65.5 -4.5t58.5 -1q133 0 225 18.5t148.5 61.5t82 111.5t25.5 169.5 q0 98 -26.5 165.5t-85 110.5t-151.5 62.5t-226 19.5q-47 0 -112 -4t-103 -12v-686z" />
<glyph unicode="&#xdf;" horiz-adv-x="1345" d="M156 0v1208q0 240 121.5 346.5t369.5 106.5q250 0 374 -108.5t124 -344.5v-217h-213q-123 0 -186.5 -44t-63.5 -128q0 -49 19.5 -81.5t54.5 -53t82 -33t102 -22.5q72 -14 134.5 -35t108.5 -57.5t72.5 -93t26.5 -138.5q0 -154 -108.5 -241t-305.5 -87q-74 0 -160.5 11.5 t-211.5 36.5v137q203 -49 364 -49q123 0 184.5 47t61.5 137q0 47 -16.5 80t-47 54.5t-72.5 35.5t-93 25q-63 12 -129 26t-119.5 48t-87 92.5t-33.5 156.5q0 147 108.5 232.5t301.5 85.5h45v75q0 164 -76 233.5t-238 69.5q-164 0 -238.5 -68.5t-74.5 -234.5v-1208h-180z" />
<glyph unicode="&#xe0;" horiz-adv-x="1091" d="M80 281q0 160 100.5 243.5t321.5 100.5l264 20v80q0 72 -13.5 120t-45 77.5t-85 42t-133.5 12.5q-70 0 -150.5 -8t-174.5 -27l-14 137q109 20 197.5 29.5t178.5 9.5q215 0 317.5 -88t102.5 -274v-756h-149l-19 139h-12q-100 -72 -196.5 -110.5t-194.5 -38.5 q-143 0 -219 74.5t-76 216.5zM262 295q0 -166 178 -166q74 0 159 35t167 88v278l-215 -18q-160 -14 -224.5 -62.5t-64.5 -154.5zM281 1651h194l146 -371l-136 -20z" />
<glyph unicode="&#xe1;" horiz-adv-x="1091" d="M80 281q0 160 100.5 243.5t321.5 100.5l264 20v80q0 72 -13.5 120t-45 77.5t-85 42t-133.5 12.5q-70 0 -150.5 -8t-174.5 -27l-14 137q109 20 197.5 29.5t178.5 9.5q215 0 317.5 -88t102.5 -274v-756h-149l-19 139h-12q-100 -72 -196.5 -110.5t-194.5 -38.5 q-143 0 -219 74.5t-76 216.5zM262 295q0 -166 178 -166q74 0 159 35t167 88v278l-215 -18q-160 -14 -224.5 -62.5t-64.5 -154.5zM485 1262l144 378h186l-203 -393z" />
<glyph unicode="&#xe2;" horiz-adv-x="1091" d="M80 281q0 160 100.5 243.5t321.5 100.5l264 20v80q0 72 -13.5 120t-45 77.5t-85 42t-133.5 12.5q-70 0 -150.5 -8t-174.5 -27l-14 137q109 20 197.5 29.5t178.5 9.5q215 0 317.5 -88t102.5 -274v-756h-149l-19 139h-12q-100 -72 -196.5 -110.5t-194.5 -38.5 q-143 0 -219 74.5t-76 216.5zM213 1292v144l338 151l340 -151v-144l-338 152zM262 295q0 -166 178 -166q74 0 159 35t167 88v278l-215 -18q-160 -14 -224.5 -62.5t-64.5 -154.5z" />
<glyph unicode="&#xe3;" horiz-adv-x="1091" d="M80 281q0 160 100.5 243.5t321.5 100.5l264 20v80q0 72 -13.5 120t-45 77.5t-85 42t-133.5 12.5q-70 0 -150.5 -8t-174.5 -27l-14 137q109 20 197.5 29.5t178.5 9.5q215 0 317.5 -88t102.5 -274v-756h-149l-19 139h-12q-100 -72 -196.5 -110.5t-194.5 -38.5 q-143 0 -219 74.5t-76 216.5zM135 1384q57 76 125 115t133 39q49 0 92 -13.5t84 -30.5t82 -30.5t86 -13.5q92 0 183 78l51 -55q-53 -76 -124 -116t-142 -40q-45 0 -88.5 13t-85.5 29.5t-83.5 30t-85.5 13.5q-45 0 -88 -17.5t-88 -58.5zM262 295q0 -166 178 -166q74 0 159 35 t167 88v278l-215 -18q-160 -14 -224.5 -62.5t-64.5 -154.5z" />
<glyph unicode="&#xe4;" horiz-adv-x="1091" d="M80 281q0 160 100.5 243.5t321.5 100.5l264 20v80q0 72 -13.5 120t-45 77.5t-85 42t-133.5 12.5q-70 0 -150.5 -8t-174.5 -27l-14 137q109 20 197.5 29.5t178.5 9.5q215 0 317.5 -88t102.5 -274v-756h-149l-19 139h-12q-100 -72 -196.5 -110.5t-194.5 -38.5 q-143 0 -219 74.5t-76 216.5zM201 1434q0 102 106 102q104 0 105 -102q-1 -105 -105 -105q-106 0 -106 105zM262 295q0 -166 178 -166q74 0 159 35t167 88v278l-215 -18q-160 -14 -224.5 -62.5t-64.5 -154.5zM690 1434q0 102 105 102q106 0 106 -102q0 -105 -106 -105 q-104 0 -105 105z" />
<glyph unicode="&#xe5;" horiz-adv-x="1091" d="M80 281q0 160 100.5 243.5t321.5 100.5l264 20v80q0 72 -13.5 120t-45 77.5t-85 42t-133.5 12.5q-70 0 -150.5 -8t-174.5 -27l-14 137q109 20 197.5 29.5t178.5 9.5q215 0 317.5 -88t102.5 -274v-756h-149l-19 139h-12q-100 -72 -196.5 -110.5t-194.5 -38.5 q-143 0 -219 74.5t-76 216.5zM262 295q0 -166 178 -166q74 0 159 35t167 88v278l-215 -18q-160 -14 -224.5 -62.5t-64.5 -154.5zM301 1452q0 98 69.5 160.5t180.5 62.5q106 0 176 -62.5t70 -160.5q0 -96 -70 -158.5t-176 -62.5q-111 0 -180.5 62.5t-69.5 158.5zM403 1452 q0 -61 38 -96t110 -35t107.5 35t35.5 96t-35.5 97t-107.5 36t-110 -36t-38 -97z" />
<glyph unicode="&#xe6;" horiz-adv-x="1787" d="M82 281q0 158 101.5 241.5t318.5 100.5l266 20v96q0 133 -62.5 185.5t-216.5 52.5q-72 0 -151.5 -8t-171.5 -27l-16 137q111 20 199.5 29.5t176.5 9.5q287 0 355 -196h12q55 98 150.5 149t230.5 51q207 0 313.5 -124t106.5 -363q0 -49 -2 -83t-9 -60h-735 q8 -188 94 -277.5t261 -89.5q80 0 168 14.5t176 42.5l10 -139q-84 -29 -183.5 -46t-189.5 -17q-293 0 -412 194l-12 2q-82 -51 -149.5 -87t-126 -57.5t-109.5 -31.5t-100 -10q-143 0 -218 74.5t-75 216.5zM264 295q0 -168 178 -168q72 0 155 33t177 96q-2 6 -3 47t-2 90 t-1 91v51l-217 -19q-160 -14 -223.5 -65.5t-63.5 -155.5zM948 604h582q-6 203 -66.5 291t-193.5 88q-303 0 -322 -379z" />
<glyph unicode="&#xe7;" horiz-adv-x="972" d="M96 551q0 573 527 573q63 0 132.5 -7t129.5 -21v-152q-61 14 -123 20.5t-121 6.5q-186 0 -274 -101.5t-88 -316.5q0 -219 85 -318.5t273 -99.5q68 0 124 5t124 20v-150q-45 -10 -106.5 -18t-125.5 -10q41 -68 55.5 -112t14.5 -91q0 -111 -63.5 -170.5t-180.5 -59.5 q-41 0 -89 7.5t-91 17.5v123q61 -23 141 -23q78 0 113 28t35 93q0 43 -16.5 87t-55.5 108q-420 53 -420 561z" />
<glyph unicode="&#xe8;" horiz-adv-x="1114" d="M98 539q0 285 128 435t372 150q424 0 424 -493q0 -94 -14 -144h-729q10 -193 95 -276.5t259 -83.5q78 0 166 14.5t174 42.5l10 -137q-82 -31 -181.5 -48t-191.5 -17q-254 0 -383 140t-129 417zM279 614h577q0 201 -63.5 286t-198.5 85q-295 0 -315 -371zM301 1651h195 l145 -371l-135 -20z" />
<glyph unicode="&#xe9;" horiz-adv-x="1114" d="M98 539q0 285 128 435t372 150q424 0 424 -493q0 -94 -14 -144h-729q10 -193 95 -276.5t259 -83.5q78 0 166 14.5t174 42.5l10 -137q-82 -31 -181.5 -48t-191.5 -17q-254 0 -383 140t-129 417zM279 614h577q0 201 -63.5 286t-198.5 85q-295 0 -315 -371zM530 1262 l144 378h186l-203 -393z" />
<glyph unicode="&#xea;" horiz-adv-x="1114" d="M98 539q0 285 128 435t372 150q424 0 424 -493q0 -94 -14 -144h-729q10 -193 95 -276.5t259 -83.5q78 0 166 14.5t174 42.5l10 -137q-82 -31 -181.5 -48t-191.5 -17q-254 0 -383 140t-129 417zM246 1292v144l338 151l340 -151v-144l-338 152zM279 614h577 q0 201 -63.5 286t-198.5 85q-295 0 -315 -371z" />
<glyph unicode="&#xeb;" horiz-adv-x="1114" d="M98 539q0 285 128 435t372 150q424 0 424 -493q0 -94 -14 -144h-729q10 -193 95 -276.5t259 -83.5q78 0 166 14.5t174 42.5l10 -137q-82 -31 -181.5 -48t-191.5 -17q-254 0 -383 140t-129 417zM229 1434q0 102 107 102q104 0 104 -102q0 -105 -104 -105q-106 0 -107 105z M279 614h577q0 201 -63.5 286t-198.5 85q-295 0 -315 -371zM719 1434q0 102 104 102q106 0 107 -102q-1 -105 -107 -105q-104 0 -104 105z" />
<glyph unicode="&#xec;" horiz-adv-x="493" d="M-31 1651h195l145 -371l-135 -20zM158 0v1106h178v-1106h-178z" />
<glyph unicode="&#xed;" horiz-adv-x="493" d="M158 0v1106h178v-1106h-178zM188 1262l144 378h186l-203 -393z" />
<glyph unicode="&#xee;" horiz-adv-x="493" d="M-78 1292v144l328 151l332 -151v-144l-330 152zM158 0v1106h178v-1106h-178z" />
<glyph unicode="&#xef;" horiz-adv-x="493" d="M-90 1434q0 102 106 102q104 0 105 -102q-1 -105 -105 -105q-106 0 -106 105zM158 0v1106h178v-1106h-178zM379 1434q0 102 104 102q106 0 107 -102q-1 -105 -107 -105q-104 0 -104 105z" />
<glyph unicode="&#xf0;" d="M96 551q0 279 130 427t370 148q117 0 194.5 -43t131.5 -137q-41 199 -125 367l-355 -39v127l287 31q-35 59 -78 114.5t-90 108.5h191q35 -45 69.5 -95.5t69.5 -109.5l301 33v-125l-238 -27q72 -147 119 -328.5t47 -394.5q0 -307 -132 -467.5t-382 -160.5q-248 0 -379 147 t-131 424zM279 553q0 -221 78.5 -323.5t250.5 -102.5q170 0 250 110.5t80 346.5q0 82 -19.5 153.5t-60.5 124.5t-103.5 85t-148.5 32q-170 0 -248.5 -102.5t-78.5 -323.5z" />
<glyph unicode="&#xf1;" d="M156 0v1106h149l12 -129h11q82 39 148.5 67.5t122.5 47t105.5 26.5t96.5 8q141 0 216 -74.5t75 -228.5v-823h-181v764q0 115 -43 163t-135 48q-78 0 -181 -33t-216 -88v-854h-180zM215 1384q57 76 125 115t133 39q49 0 92 -13.5t84 -30.5t82 -30.5t86 -13.5q92 0 182 78 l52 -55q-53 -76 -124 -116t-143 -40q-45 0 -88 13t-85 29.5t-84 30t-85 13.5q-45 0 -88 -17.5t-88 -58.5z" />
<glyph unicode="&#xf2;" horiz-adv-x="1216" d="M96 553q0 281 131 427t381 146t381 -146t131 -427t-131 -427t-381 -146t-381 147t-131 426zM279 553q0 -223 79.5 -324.5t249.5 -101.5q172 0 251 101.5t79 324.5t-79 324.5t-251 101.5q-170 0 -249.5 -101.5t-79.5 -324.5zM319 1651h195l145 -371l-135 -20z" />
<glyph unicode="&#xf3;" horiz-adv-x="1216" d="M96 553q0 281 131 427t381 146t381 -146t131 -427t-131 -427t-381 -146t-381 147t-131 426zM279 553q0 -223 79.5 -324.5t249.5 -101.5q172 0 251 101.5t79 324.5t-79 324.5t-251 101.5q-170 0 -249.5 -101.5t-79.5 -324.5zM537 1262l143 378h186l-202 -393z" />
<glyph unicode="&#xf4;" horiz-adv-x="1216" d="M96 553q0 281 131 427t381 146t381 -146t131 -427t-131 -427t-381 -146t-381 147t-131 426zM264 1292v144l338 151l340 -151v-144l-338 152zM279 553q0 -223 79.5 -324.5t249.5 -101.5q172 0 251 101.5t79 324.5t-79 324.5t-251 101.5q-170 0 -249.5 -101.5t-79.5 -324.5 z" />
<glyph unicode="&#xf5;" horiz-adv-x="1216" d="M96 553q0 281 131 427t381 146t381 -146t131 -427t-131 -427t-381 -146t-381 147t-131 426zM188 1384q57 76 125 115t133 39q49 0 92.5 -13.5t84.5 -30.5t81.5 -30.5t86.5 -13.5q92 0 182 78l51 -55q-53 -76 -124 -116t-142 -40q-45 0 -88 13t-85 29.5t-84 30t-85 13.5 q-45 0 -88 -17.5t-88 -58.5zM279 553q0 -223 79.5 -324.5t249.5 -101.5q172 0 251 101.5t79 324.5t-79 324.5t-251 101.5q-170 0 -249.5 -101.5t-79.5 -324.5z" />
<glyph unicode="&#xf6;" horiz-adv-x="1216" d="M96 553q0 281 131 427t381 146t381 -146t131 -427t-131 -427t-381 -146t-381 147t-131 426zM252 1434q0 102 106 102q104 0 105 -102q-1 -105 -105 -105q-106 0 -106 105zM279 553q0 -223 79.5 -324.5t249.5 -101.5q172 0 251 101.5t79 324.5t-79 324.5t-251 101.5 q-170 0 -249.5 -101.5t-79.5 -324.5zM741 1434q0 102 105 102q106 0 106 -102q0 -105 -106 -105q-104 0 -105 105z" />
<glyph unicode="&#xf7;" horiz-adv-x="1069" d="M129 694v127h811v-127h-811zM444 424q0 47 27 71.5t70 24.5t68.5 -24.5t25.5 -71.5t-25.5 -70.5t-68.5 -23.5t-70 23.5t-27 70.5zM444 1077q0 47 27 73t70 26t68.5 -26t25.5 -73q0 -45 -25.5 -69.5t-68.5 -24.5t-70 24.5t-27 69.5z" />
<glyph unicode="&#xf8;" horiz-adv-x="1228" d="M51 0l148 170q-96 143 -97 383q0 274 128 423.5t384 149.5q205 0 334 -104l74 84h154l-150 -170q100 -143 100 -383q0 -276 -129 -424.5t-383 -148.5q-213 0 -335 104l-74 -84h-154zM285 553q0 -156 34 -246l523 596q-80 76 -228 76q-178 0 -253.5 -104.5t-75.5 -321.5z M383 205q77 -78 231 -78q178 0 254 104.5t76 321.5q0 152 -37 248z" />
<glyph unicode="&#xf9;" d="M147 283v823h181v-766q0 -111 39 -159t131 -48q98 0 202.5 42t202.5 91v840h180v-1106h-149l-12 135h-9q-84 -41 -147.5 -70.5t-117.5 -48t-106.5 -27.5t-113.5 -9q-281 0 -281 303zM330 1651h194l146 -371l-135 -20z" />
<glyph unicode="&#xfa;" d="M147 283v823h181v-766q0 -111 39 -159t131 -48q98 0 202.5 42t202.5 91v840h180v-1106h-149l-12 135h-9q-84 -41 -147.5 -70.5t-117.5 -48t-106.5 -27.5t-113.5 -9q-281 0 -281 303zM545 1262l143 378h186l-202 -393z" />
<glyph unicode="&#xfb;" d="M147 283v823h181v-766q0 -111 39 -159t131 -48q98 0 202.5 42t202.5 91v840h180v-1106h-149l-12 135h-9q-84 -41 -147.5 -70.5t-117.5 -48t-106.5 -27.5t-113.5 -9q-281 0 -281 303zM274 1292v144l338 151l340 -151v-144l-338 152z" />
<glyph unicode="&#xfc;" d="M147 283v823h181v-766q0 -111 39 -159t131 -48q98 0 202.5 42t202.5 91v840h180v-1106h-149l-12 135h-9q-84 -41 -147.5 -70.5t-117.5 -48t-106.5 -27.5t-113.5 -9q-281 0 -281 303zM260 1434q0 102 107 102q104 0 104 -102q0 -105 -104 -105q-106 0 -107 105zM750 1434 q0 102 104 102q106 0 107 -102q-1 -105 -107 -105q-104 0 -104 105z" />
<glyph unicode="&#xfd;" horiz-adv-x="1157" d="M33 1085v21h192l297 -754l49 -155h13l49 155l309 754h186v-21l-647 -1536l-164 31l-2 19l170 411zM520 1262l144 378h186l-203 -393z" />
<glyph unicode="&#xfe;" horiz-adv-x="1234" d="M156 -451v2106h178v-670q57 63 145 102t211 39q223 0 336 -136t113 -427q0 -293 -142.5 -438t-416.5 -145q-59 0 -126 7t-120 13v-451h-178zM334 139q57 -10 124 -18t122 -8q94 0 165.5 21.5t117.5 72.5t69.5 135t23.5 207t-19 207t-58 135t-98.5 73.5t-139.5 22.5 q-139 0 -223 -80t-84 -231v-537z" />
<glyph unicode="&#xff;" horiz-adv-x="1157" d="M33 1085v21h192l297 -754l49 -155h13l49 155l309 754h186v-21l-647 -1536l-164 31l-2 19l170 411zM229 1434q0 102 107 102q104 0 104 -102q0 -105 -104 -105q-106 0 -107 105zM719 1434q0 102 104 102q106 0 107 -102q-1 -105 -107 -105q-104 0 -104 105z" />
<glyph unicode="&#x152;" horiz-adv-x="2021" d="M104 756q0 383 173.5 579.5t494.5 196.5q59 0 112.5 -3t102.5 -13h911v-152h-731v-518h680v-152h-680v-542h750v-152h-930q-47 -8 -101.5 -12t-113.5 -4q-322 0 -495 195.5t-173 576.5zM289 756q0 -315 119.5 -467t367.5 -152q59 0 111.5 4t97.5 17v1200q-47 12 -98 16 t-111 4q-246 0 -366.5 -152.5t-120.5 -469.5z" />
<glyph unicode="&#x153;" horiz-adv-x="1959" d="M96 553q0 281 131 427t381 146q154 0 260.5 -65.5t155.5 -188.5h12q49 123 152.5 187.5t257.5 64.5q205 0 311.5 -123.5t106.5 -363.5q0 -47 -2 -81t-9 -62h-733q8 -188 93 -277.5t257 -89.5q80 0 168 14.5t179 42.5l10 -137q-84 -31 -182.5 -48t-188.5 -17 q-160 0 -267.5 63.5t-156.5 181.5h-10q-53 -121 -156.5 -184t-257.5 -63q-250 0 -381 147t-131 426zM279 553q0 -223 79.5 -324.5t249.5 -101.5q172 0 251 101.5t79 324.5t-79 324.5t-251 101.5q-170 0 -249.5 -101.5t-79.5 -324.5zM1118 606h582q-6 205 -66.5 292 t-193.5 87q-303 0 -322 -379z" />
<glyph unicode="&#x178;" horiz-adv-x="1298" d="M6 1516h197l377 -701l59 -135h18l60 135l377 701h196l-549 -1004v-512h-182v506zM268 1792q0 113 115 113q117 0 117 -113q0 -115 -117 -115q-115 0 -115 115zM801 1792q0 113 117 113q55 0 85.5 -27t30.5 -86t-30.5 -87t-85.5 -28q-117 0 -117 115z" />
<glyph unicode="&#x2c6;" horiz-adv-x="923" d="M117 1292v144l338 151l340 -151v-144l-338 152z" />
<glyph unicode="&#x2dc;" horiz-adv-x="1024" d="M80 1384q57 76 124.5 115t133.5 39q49 0 92 -13.5t84 -30.5t82 -30.5t86 -13.5q92 0 182 78l51 -55q-53 -76 -123.5 -116t-142.5 -40q-45 0 -88 13t-85 29.5t-84 30t-85 13.5q-45 0 -88 -17.5t-88 -58.5z" />
<glyph unicode="&#x2000;" horiz-adv-x="1021" />
<glyph unicode="&#x2001;" horiz-adv-x="2042" />
<glyph unicode="&#x2002;" horiz-adv-x="1021" />
<glyph unicode="&#x2003;" horiz-adv-x="2042" />
<glyph unicode="&#x2004;" horiz-adv-x="680" />
<glyph unicode="&#x2005;" horiz-adv-x="510" />
<glyph unicode="&#x2006;" horiz-adv-x="340" />
<glyph unicode="&#x2007;" horiz-adv-x="340" />
<glyph unicode="&#x2008;" horiz-adv-x="255" />
<glyph unicode="&#x2009;" horiz-adv-x="408" />
<glyph unicode="&#x200a;" horiz-adv-x="113" />
<glyph unicode="&#x2010;" horiz-adv-x="940" d="M137 500v147h666v-147h-666z" />
<glyph unicode="&#x2011;" horiz-adv-x="940" d="M137 500v147h666v-147h-666z" />
<glyph unicode="&#x2012;" horiz-adv-x="940" d="M137 500v147h666v-147h-666z" />
<glyph unicode="&#x2013;" horiz-adv-x="1253" d="M141 500v147h973v-147h-973z" />
<glyph unicode="&#x2014;" horiz-adv-x="1603" d="M141 500v147h1323v-147h-1323z" />
<glyph unicode="&#x2018;" horiz-adv-x="430" d="M115 1247q0 102 30.5 214t87.5 198l101 -12q-35 -78 -53.5 -173.5t-18.5 -185.5q0 -53 8.5 -104t30.5 -109l-162 -16q-25 80 -24 188z" />
<glyph unicode="&#x2019;" horiz-adv-x="428" d="M102 1073q35 76 53.5 172t18.5 187q0 53 -8 104t-31 106l162 17q27 -74 27 -186q0 -104 -33 -216t-88 -198z" />
<glyph unicode="&#x201a;" horiz-adv-x="444" d="M82 -274q35 76 53.5 172t18.5 186q0 53 -8.5 104.5t-30.5 106.5l161 16q27 -74 27 -186q0 -104 -32.5 -216t-88.5 -198z" />
<glyph unicode="&#x201c;" horiz-adv-x="872" d="M115 1247q0 102 30.5 214t87.5 198l101 -12q-35 -78 -53.5 -173.5t-18.5 -185.5q0 -53 8.5 -104t30.5 -109l-162 -16q-25 80 -24 188zM557 1247q0 102 30.5 214t88.5 198l100 -12q-35 -78 -53 -173.5t-18 -185.5q0 -53 8 -104t30 -109l-161 -16q-25 80 -25 188z" />
<glyph unicode="&#x201d;" horiz-adv-x="870" d="M102 1073q35 76 53.5 172t18.5 187q0 53 -8 104t-31 106l162 17q27 -74 27 -186q0 -104 -33 -216t-88 -198zM545 1073q35 76 53 172t18 187q0 53 -8 104t-30 106l161 17q27 -74 27 -186q0 -104 -33 -216t-88 -198z" />
<glyph unicode="&#x201e;" horiz-adv-x="884" d="M82 -274q35 76 53.5 172t18.5 186q0 53 -8.5 104.5t-30.5 106.5l161 16q27 -74 27 -186q0 -104 -32.5 -216t-88.5 -198zM524 -274q35 76 53.5 172t18.5 186q0 53 -8 104.5t-31 106.5l162 16q27 -74 26 -186q0 -104 -32.5 -216t-87.5 -198z" />
<glyph unicode="&#x2022;" horiz-adv-x="679" d="M170 758q0 92 49 130t121 38t120 -38t48 -130t-48 -129t-120 -37t-121 37t-49 129z" />
<glyph unicode="&#x2026;" horiz-adv-x="1382" d="M125 104q0 57 31.5 84t85.5 27q53 0 84.5 -27.5t31.5 -83.5q0 -55 -31.5 -83.5t-84.5 -28.5t-85 28.5t-32 83.5zM584 104q0 57 31.5 84t84.5 27t85 -27.5t32 -83.5q0 -55 -32 -83.5t-85 -28.5t-84.5 28.5t-31.5 83.5zM1024 104q0 57 31.5 84t85.5 27q53 0 84.5 -27.5 t31.5 -83.5q0 -55 -31.5 -83.5t-84.5 -28.5t-85 28.5t-32 83.5z" />
<glyph unicode="&#x202f;" horiz-adv-x="408" />
<glyph unicode="&#x2039;" horiz-adv-x="718" d="M70 549v8l368 487h191l-369 -487v-8l369 -488h-191z" />
<glyph unicode="&#x203a;" horiz-adv-x="718" d="M94 61l367 488v8l-367 487h189l366 -487v-8l-366 -488h-189z" />
<glyph unicode="&#x205f;" horiz-adv-x="510" />
<glyph unicode="&#x20ac;" horiz-adv-x="1294" d="M90 526v119h172q-2 27 -3 54.5t-1 56.5t1 57.5t3 56.5h-172v119h182q45 285 219.5 415t505.5 130q72 0 121 -5t90 -11l-57 -154q-20 4 -52 7t-69 3q-135 0 -234.5 -20.5t-168 -66.5t-109.5 -118.5t-59 -179.5h579l-37 -119h-557q-2 -29 -2 -56.5v-55.5v-58.5t2 -54.5h519 l-37 -119h-467q18 -104 60 -177t110.5 -120t166 -68.5t228.5 -21.5q33 0 73 3t85 12v-160q-55 -14 -174 -14q-334 2 -511.5 134t-222.5 412h-184z" />
<glyph unicode="&#x2122;" horiz-adv-x="1898" d="M68 1403v113h690v-113h-281v-748h-131v748h-278zM868 655v861h160l277 -664l276 664h160v-861h-121v660l-260 -625h-111l-260 623v-658h-121z" />
<glyph unicode="&#x25fc;" horiz-adv-x="1105" d="M0 0v1106h1106v-1106h-1106z" />
</font>
</defs>
</svg>
