<?xml version="1.0" standalone="no"?>
<!DOCTYPE svg PUBLIC "-//W3C//DTD SVG 1.1//EN" "http://www.w3.org/Graphics/SVG/1.1/DTD/svg11.dtd" >
<svg xmlns="http://www.w3.org/2000/svg" xmlns:xlink="http://www.w3.org/1999/xlink" version="1.1">
<metadata></metadata>
<defs>
<font id="libre_baskervilleregular" horiz-adv-x="1339" >
<font-face units-per-em="2048" ascent="1638" descent="-410" />
<missing-glyph horiz-adv-x="587" />
<glyph unicode="&#xfb01;" horiz-adv-x="1333" d="M39 956v97h231v147q0 235 136.5 367.5t381.5 132.5q145 0 236.5 -36t91.5 -93q0 -41 -26 -68.5t-64 -27.5q-44 0 -133 61q-63 42 -95 54t-85 12q-67 0 -111.5 -17t-77 -60t-47 -119.5t-14.5 -193.5v-159h328l329 53v-774q0 -160 28 -208t122 -48v-76h-527v76 q112 0 144.5 46t32.5 193v258q0 230 -15 299q-11 50 -47.5 67t-138.5 17h-256v-626q0 -153 34.5 -205.5t137.5 -52.5v-72h-520v72q54 0 82.5 7.5t46 36t22 71.5t4.5 126v643h-231z" />
<glyph unicode="&#xfb02;" horiz-adv-x="1388" d="M45 956v97h231v147q0 235 125.5 367.5t350.5 132.5q140 0 223 -47l176 47v-1381q0 -82 6 -126.5t27 -74t54.5 -38t94.5 -8.5v-72h-545v72q108 0 140.5 45t32.5 188v1151l-46 39q-70 62 -119 84.5t-106 22.5q-80 0 -125.5 -30.5t-70.5 -116.5t-25 -243v-159h330v-97h-330 v-626q0 -152 39.5 -205t153.5 -53v-72h-562v72q40 0 66 3t47 13.5t32 26t18.5 44.5t10 64t2.5 90v643h-231z" />
<glyph unicode="&#xfb03;" horiz-adv-x="1992" d="M39 956v97h231v65q0 235 125.5 367.5t352.5 132.5q152 0 268 -107q145 189 432 189q145 0 236.5 -36t91.5 -93q0 -41 -26 -68.5t-64 -27.5q-45 0 -134 61q-63 42 -95 54t-85 12q-67 0 -111 -16.5t-77 -59.5t-47.5 -119.5t-14.5 -194.5v-159h328l330 53v-774 q0 -160 27.5 -208t121.5 -48v-76h-526v76q111 0 143.5 46t32.5 193v258q0 234 -14 299q-11 50 -48 67t-139 17h-256v-657q0 -133 40 -180t153 -47v-72h-541v72q66 0 97.5 18.5t45 68.5t13.5 154v643h-467v-626q0 -154 38 -206t154 -52v-72h-540v72q37 0 60.5 3t42 14 t28 25.5t15.5 44.5t7.5 63.5t1.5 90.5v643h-231zM463 1053h467v319q-62 44 -103 80q-49 41 -81.5 54.5t-73.5 13.5q-70 0 -114 -32t-69.5 -119.5t-25.5 -238.5v-77z" />
<glyph unicode="&#xfb04;" horiz-adv-x="2041" d="M39 956v97h231v65q3 237 127 368.5t351 131.5q84 0 153 -28t111 -77q133 187 393 187q140 0 223 -47l176 47v-1381q0 -55 2.5 -90t10 -64.5t19.5 -45t34 -26.5t48.5 -15t68.5 -6v-72h-545v72q109 6 140.5 49t31.5 184v1151l-45 39q-70 62 -119.5 84.5t-106.5 22.5 q-73 0 -117 -30.5t-71 -94.5q-18 -42 -25.5 -97.5t-7.5 -167.5v-159h330v-97h-330v-626q0 -153 38 -204t155 -54v-72h-561v72q42 2 67.5 6t47 14.5t32 25t18 43t9.5 63t2 89.5v643h-467v-626q0 -153 37.5 -204t154.5 -54v-72h-540v72q37 2 59.5 6t41.5 14.5t28 25t16 43 t8.5 63t1.5 89.5v643h-231zM463 1053h467v319q-45 30 -103 80q-49 41 -81.5 54.5t-73.5 13.5q-123 0 -176 -125q-33 -70 -33 -265v-77z" />
<glyph horiz-adv-x="0" />
<glyph horiz-adv-x="682" />
<glyph horiz-adv-x="0" />
<glyph horiz-adv-x="0" />
<glyph unicode="&#xd;" horiz-adv-x="681" />
<glyph unicode=" "  horiz-adv-x="587" />
<glyph unicode="&#x09;" horiz-adv-x="587" />
<glyph unicode="&#xa0;" horiz-adv-x="587" />
<glyph unicode="!" horiz-adv-x="630" d="M182 113q0 57 38.5 96t94.5 39q57 0 96.5 -39t39.5 -96q0 -56 -39.5 -94.5t-96.5 -38.5q-55 0 -94 39t-39 94zM182 1462q0 57 36.5 96t96.5 39t97 -39t37 -96q0 -46 -1 -70.5t-8 -74.5t-22 -129q-28 -155 -40.5 -308.5t-12.5 -455.5h-99q0 307 -12 461.5t-41 310.5 q-21 113 -26 157.5t-5 108.5z" />
<glyph unicode="&#x22;" horiz-adv-x="751" d="M123 1599q0 43 27.5 72t68.5 29t68.5 -29.5t27.5 -73.5q0 -30 -11.5 -104t-28.5 -175.5t-25 -162.5h-60q-8 62 -25.5 163.5t-29.5 177t-12 103.5zM434 1599q0 43 27.5 72t68.5 29t69 -29.5t28 -73.5q0 -29 -12 -103.5t-29 -176t-25 -162.5h-59q-8 62 -25.5 163.5t-30 177 t-12.5 103.5z" />
<glyph unicode="#" horiz-adv-x="1363" d="M80 522l16 103h291l49 348h-293l17 102h295l71 502h123l-71 -502h309l69 502h123l-69 -502h274l-16 -102h-277l-47 -348h281l-17 -103h-284l-76 -522h-121l72 522h-310l-77 -522h-123l78 522h-287zM510 625h309l47 348h-307z" />
<glyph unicode="$" horiz-adv-x="1273" d="M78 344q0 64 29 95.5t71 31.5q25 0 45 -12t32.5 -27.5t23.5 -42.5t15.5 -45t11.5 -47.5t9 -38.5q45 -167 275 -174v614q-54 22 -90 38.5t-84.5 42.5t-80 50.5t-66.5 60t-55 74.5t-33 90t-13 109q0 184 115.5 302t306.5 130v248h112v-250q174 -17 300 -109.5t126 -205.5 q0 -52 -28 -81.5t-78 -29.5q-36 0 -59 16.5t-34.5 43.5t-20 60t-20.5 67t-31.5 63.5t-58.5 51.5t-96 28v-565q267 -116 374.5 -226t107.5 -262q0 -192 -133 -316.5t-349 -143.5v-332h-112v330q-137 6 -253 52t-187.5 128t-71.5 182zM360 1266q0 -170 230 -285v514 q-107 -15 -168.5 -75.5t-61.5 -153.5zM702 88q132 17 200.5 84.5t68.5 173.5q0 47 -14.5 87t-37.5 69.5t-59.5 57.5t-72.5 47.5t-85 41.5v-561z" />
<glyph unicode="%" horiz-adv-x="1374" d="M72 0l1132 1577h99l-1115 -1577h-116zM168 1270q0 137 71 232t171 95t170.5 -95t70.5 -232q0 -133 -70.5 -226.5t-170.5 -93.5t-171 93.5t-71 226.5zM285 1266q0 -147 31 -206t94 -59q62 0 93.5 59t31.5 206q0 155 -31 217.5t-94 62.5t-94 -62.5t-31 -217.5zM723 299 q0 137 71 232.5t171 95.5t170.5 -95.5t70.5 -232.5q0 -133 -70.5 -226t-170.5 -93t-171 93t-71 226zM840 295q0 -147 31 -205.5t94 -58.5q62 0 93.5 59t31.5 205q0 155 -31 217.5t-94 62.5t-94 -62.5t-31 -217.5z" />
<glyph unicode="&#x26;" horiz-adv-x="1798" d="M74 342q0 138 111.5 257t353.5 237q-66 95 -95.5 179.5t-29.5 176.5q0 180 99 292.5t257 112.5q140 0 230 -86t90 -219q0 -113 -75.5 -213.5t-246.5 -218.5l332 -432q101 123 164 232t63 163q0 32 -29.5 47t-95.5 15v71h471v-71q-89 0 -133.5 -22t-87.5 -87l-291 -426 q175 -237 365 -237q54 0 84.5 23.5t64.5 92.5l51 -14q-22 -114 -100 -174.5t-203 -60.5q-101 0 -190 49.5t-217 175.5q-101 -106 -236.5 -165.5t-273.5 -59.5q-187 0 -309.5 102.5t-122.5 259.5zM322 367q0 -113 73 -185.5t187 -72.5q85 0 184 43.5t186 119.5l-358 473 q-129 -73 -200.5 -172.5t-71.5 -205.5zM606 1266q0 -180 105 -328q188 146 188 326q0 95 -43 152t-115 57q-66 0 -100.5 -53t-34.5 -154z" />
<glyph unicode="'" horiz-adv-x="440" d="M123 1599q0 43 27.5 72t68.5 29t68.5 -29.5t27.5 -73.5q0 -30 -11.5 -104t-28.5 -175.5t-25 -162.5h-60q-8 62 -25.5 163.5t-29.5 177t-12 103.5z" />
<glyph unicode="(" horiz-adv-x="679" d="M96 662q0 277 121.5 540.5t357.5 499.5l64 -57q-198 -268 -268 -467.5t-70 -481.5q0 -339 83 -582.5t271 -453.5l-63 -57q-244 237 -370 506.5t-126 552.5z" />
<glyph unicode=")" horiz-adv-x="679" d="M25 -340q188 210 271 453.5t83 582.5q0 282 -70 481.5t-268 467.5l63 57q236 -236 358 -500t122 -540q0 -283 -126 -552.5t-370 -506.5z" />
<glyph unicode="*" horiz-adv-x="1056" d="M129 985q0 36 16.5 56t49.5 30t71 16.5t94 24t105 45.5q-72 40 -131.5 56t-96 20.5t-55.5 15.5q-49 27 -49 82q0 40 29 66t67 26q24 0 52 -22t53 -52.5t69.5 -70.5t94.5 -68q0 128 -35 209q-27 44 -27 84t26 67t66 27t67.5 -27t27.5 -67q0 -23 -27 -84q-34 -71 -37 -209 q66 39 112.5 82t63.5 69.5t39.5 44t52.5 17.5q39 0 68 -27t29 -65t-12.5 -56t-41.5 -26t-64.5 -13t-95 -25t-118.5 -54q65 -38 136 -57.5t109.5 -23t64.5 -24.5t26 -69q0 -40 -29 -65t-68 -25q-28 0 -51.5 16t-52.5 62q-20 31 -65.5 67t-104.5 66q0 -73 14.5 -137t29.5 -104 t15 -56q0 -37 -26.5 -64.5t-63.5 -27.5q-42 0 -68 29t-26 71q0 13 15 49t31 99.5t18 140.5q-74 -41 -122 -85t-63 -69.5t-35.5 -42t-52.5 -16.5q-38 0 -66 28t-28 66z" />
<glyph unicode="+" horiz-adv-x="1126" d="M84 641v102h426v428h106v-428h426v-102h-426v-428h-106v428h-426z" />
<glyph unicode="," horiz-adv-x="559" d="M100 -293q109 77 157 149t48 160q-26 -16 -61 -16q-46 0 -76.5 34t-30.5 87q0 57 38 92t99 35q72 0 110 -52.5t38 -152.5q0 -114 -60.5 -202.5t-214.5 -198.5z" />
<glyph unicode="-" horiz-adv-x="948" d="M158 508v170h633v-170h-633z" />
<glyph unicode="." horiz-adv-x="542" d="M137 113q0 57 38.5 96t94.5 39q57 0 96.5 -39t39.5 -96q0 -56 -39.5 -94.5t-96.5 -38.5q-56 0 -94.5 39t-38.5 94z" />
<glyph unicode="/" horiz-adv-x="942" d="M59 0l723 1577h101l-705 -1577h-119z" />
<glyph unicode="0" horiz-adv-x="1462" d="M125 776q0 170 48 323t129.5 262t193.5 172.5t235 63.5t235 -63.5t193.5 -172.5t129.5 -262t48 -323q0 -218 -81.5 -401.5t-220.5 -289t-304 -105.5t-304 105.5t-220.5 289t-81.5 401.5zM391 770q0 -196 22.5 -332t68 -214t106 -112t143.5 -34q82 0 142.5 34t106 112 t68.5 214t23 332q0 205 -22.5 347.5t-68 225.5t-106 119.5t-143.5 36.5t-143.5 -36.5t-106 -119.5t-68 -225.5t-22.5 -347.5z" />
<glyph unicode="1" horiz-adv-x="913" d="M141 1434v77q207 9 424 86v-1265q0 -56 3 -92t12 -66t22.5 -46t39 -28t57 -16t79.5 -6v-78h-626v78q71 3 110.5 13t64 38t31.5 70t7 118v752q0 262 -9 299q-10 42 -57 54t-158 12z" />
<glyph unicode="2" horiz-adv-x="1261" d="M102 0v68q235 209 384.5 364t236 283.5t119 229.5t32.5 214q0 158 -75 251t-203 93q-122 0 -199.5 -80t-77.5 -206q0 -110 61.5 -176t164.5 -66q-9 -49 -53 -79t-107 -30q-114 0 -189 87.5t-75 220.5q0 183 145 304t363 121q216 0 353.5 -124.5t137.5 -319.5 q0 -99 -38 -200.5t-100.5 -192.5t-158 -189t-196 -182.5t-228.5 -179.5l2 -10h408q102 0 154 47t94 188h76l-78 -436h-953z" />
<glyph unicode="3" horiz-adv-x="1261" d="M104 342q0 110 68 185t168 75q57 0 102 -26t56 -64q-77 0 -126.5 -56.5t-49.5 -144.5q0 -104 74 -169.5t194 -65.5q140 0 214.5 93.5t74.5 268.5q0 169 -69.5 263t-193.5 94q-76 -37 -137 -37q-41 0 -67.5 19t-26.5 50q0 27 24 42.5t66 15.5q58 0 125 -23 q109 0 176.5 99.5t67.5 261.5q0 146 -59.5 216t-182.5 70q-108 0 -170.5 -49t-62.5 -135q0 -69 40.5 -112.5t106.5 -43.5q-9 -34 -49 -55.5t-94 -21.5q-89 0 -149 62.5t-60 154.5q0 130 120.5 209t317.5 79q221 0 354.5 -100t133.5 -264q0 -135 -88.5 -240.5t-219.5 -138.5 v-12q157 -41 256 -153.5t99 -264.5q0 -191 -154 -317.5t-389 -126.5q-212 0 -351 102.5t-139 259.5z" />
<glyph unicode="4" horiz-adv-x="1198" d="M37 367v102l721 1128h63v-1132q68 2 102.5 8.5t56.5 28t27 53.5t5 96h71v-456h-71q0 61 -5.5 92t-27 52.5t-56.5 27.5t-102 8v-43q0 -55 2.5 -92.5t9.5 -67t18 -46.5t30 -28.5t43 -15.5t59 -4v-78h-575v78q70 0 109.5 9.5t64 38t32 72t7.5 119.5v50h-584zM139 469h482 v729h-11z" />
<glyph unicode="5" horiz-adv-x="1163" d="M45 262q0 56 25.5 86.5t72.5 30.5q39 0 64 -23t34 -57t22.5 -74.5t30 -74.5t56 -57t99.5 -23q158 0 248.5 145.5t90.5 392.5q0 176 -48.5 257t-159.5 81q-85 0 -140.5 -46.5t-89.5 -147.5q-12 -36 -21.5 -47t-27.5 -11q-20 0 -32.5 11t-12.5 30q0 11 2 17l219 845 q85 -36 240 -36q194 0 272 38l12 -2q-25 -117 -108 -180t-211 -63h-180l-96 -367l4 -6q31 23 89.5 38t118.5 15q181 0 302.5 -136t121.5 -337q0 -120 -46.5 -228t-126.5 -185t-191 -122.5t-236 -45.5q-173 0 -285 79.5t-112 202.5z" />
<glyph unicode="6" horiz-adv-x="1316" d="M125 690q0 245 87.5 454t237 331t324.5 122q148 0 251 -60t103 -148q0 -50 -29.5 -78.5t-80.5 -28.5q-44 0 -72 23t-44.5 56t-35 65.5t-56 55.5t-95.5 23q-93 0 -168.5 -83.5t-118.5 -231.5t-43 -330l6 -4q66 95 144 139.5t180 44.5q207 0 346 -146t139 -364 q0 -151 -72.5 -277.5t-197.5 -199.5t-273 -73q-155 0 -276 90t-188.5 251.5t-67.5 368.5zM381 580q0 -251 72.5 -379.5t212.5 -128.5q141 0 209.5 110t68.5 340q0 204 -66 311t-192 107q-93 0 -165 -61.5t-140 -198.5v-100z" />
<glyph unicode="7" horiz-adv-x="1028" d="M66 1126l143 574h82q-8 -24 -8 -64q0 -35 31 -47t124 -12h600v-41q-203 -457 -290 -667t-230 -590q-66 -176 -112 -237.5t-101 -61.5q-35 0 -61.5 26t-26.5 57q0 39 19.5 92.5t94 205t244.5 479.5l279 534h-381q-69 0 -108 -3.5t-71.5 -11.5t-52 -29t-34 -48t-33.5 -76 l-31 -80h-77z" />
<glyph unicode="8" horiz-adv-x="1241" d="M121 369q0 255 344 422q-289 154 -289 397q0 170 131 295q123 114 307 114q159 0 287 -86q156 -109 156 -276q0 -218 -269 -348q328 -174 328 -453q0 -193 -144 -323.5t-358 -130.5q-209 0 -351 112.5t-142 276.5zM315 375q0 -138 83.5 -219.5t224.5 -81.5 q140 0 223.5 80t83.5 213q0 92 -56 159.5t-200 151.5l-123 70q-115 -64 -175.5 -160t-60.5 -213zM352 1268q0 -81 59 -148t195 -139l96 -51q88 59 136.5 135.5t48.5 159.5q0 120 -81 200t-202 80q-114 0 -183 -65.5t-69 -171.5z" />
<glyph unicode="9" horiz-adv-x="1316" d="M117 1047q0 151 72 277.5t197 199.5t273 73q155 0 276.5 -90t189 -252t67.5 -368q0 -245 -87.5 -454t-237 -331t-324.5 -122q-148 0 -251.5 60.5t-103.5 147.5q0 49 30 78t81 29q44 0 72 -23t44.5 -55.5t35 -65.5t56 -56t95.5 -23q93 0 168.5 83.5t118.5 231.5t43 330 l-6 4q-66 -95 -144 -139.5t-180 -44.5q-207 0 -346 146t-139 364zM373 1055q0 -204 66 -311t192 -107q93 0 165 61.5t140 198.5v100q0 251 -72.5 379.5t-212.5 128.5q-141 0 -209.5 -110t-68.5 -340z" />
<glyph unicode=":" horiz-adv-x="583" d="M158 113q0 57 38.5 96t94.5 39q57 0 96 -39t39 -96q0 -56 -39 -94.5t-96 -38.5q-55 0 -94 39t-39 94zM158 780q0 57 38.5 96t94.5 39q57 0 96 -39t39 -96q0 -56 -39 -94.5t-96 -38.5q-55 0 -94 38.5t-39 94.5z" />
<glyph unicode=";" horiz-adv-x="636" d="M145 -293q109 77 157 149t48 160q-26 -16 -61 -16q-46 0 -76.5 34t-30.5 87q0 57 38 92t99 35q72 0 110 -52.5t38 -152.5q0 -114 -60.5 -202.5t-213.5 -198.5zM182 780q0 57 38.5 96t94.5 39q57 0 96.5 -39t39.5 -96q0 -56 -39.5 -94.5t-96.5 -38.5q-55 0 -94 38.5 t-39 94.5z" />
<glyph unicode="&#x3c;" horiz-adv-x="1189" d="M80 623v131l938 475v-115l-846 -426l846 -430v-111z" />
<glyph unicode="=" horiz-adv-x="1269" d="M170 516v102h930v-102h-930zM170 864v103h930v-103h-930z" />
<glyph unicode="&#x3e;" horiz-adv-x="1189" d="M172 147v111l846 430l-846 426v115l938 -475v-131z" />
<glyph unicode="?" horiz-adv-x="817" d="M141 1483q0 114 127 114q110 0 210 -71.5t160 -190.5t60 -250q0 -155 -86 -241t-243 -86v-273h-113v469h59q132 0 199.5 51.5t67.5 151.5q0 98 -52.5 168t-126.5 70q-25 0 -78 -11.5t-75 -11.5q-48 0 -78.5 31t-30.5 80zM172 113q0 57 38.5 96t94.5 39q57 0 96 -39 t39 -96q0 -56 -39 -94.5t-96 -38.5q-55 0 -94 39t-39 94z" />
<glyph unicode="@" horiz-adv-x="2107" d="M106 614q0 204 82 386.5t222 313t334.5 207t412.5 76.5q242 0 429 -92t289.5 -258.5t102.5 -382.5q0 -184 -72 -347.5t-192.5 -261t-255.5 -97.5q-197 0 -215 235h-8q-63 -106 -158 -170.5t-188 -64.5q-132 0 -219.5 99t-87.5 251q0 146 78.5 285.5t205.5 226t260 86.5 q95 0 153 -49t87 -152l8 -2l45 182h197l-137 -485q-54 -190 -54 -258q0 -38 24.5 -60t66.5 -22q88 0 174.5 88t141 228.5t54.5 283.5q0 183 -92.5 330.5t-256.5 231t-368 83.5q-182 0 -344.5 -69t-279 -188t-184.5 -284.5t-68 -351.5q0 -232 104 -411.5t293.5 -278 t435.5 -98.5q345 0 643 205l43 -64q-180 -125 -350 -182t-362 -57q-287 0 -514 113t-353.5 315.5t-126.5 459.5zM782 465q0 -106 35 -160.5t103 -54.5q86 0 174.5 84t146 215t57.5 258q0 100 -41 156.5t-114 56.5q-88 0 -172.5 -80.5t-136.5 -210t-52 -264.5z" />
<glyph unicode="A" horiz-adv-x="1581" d="M-12 0v78q95 11 141.5 45t81.5 121l532 1333h88l465 -1155q48 -119 81 -183.5t69.5 -102t70.5 -47t91 -9.5v-80h-668v80q107 0 148.5 20t41.5 68q0 39 -9.5 74.5t-37.5 107.5l-84 221h-546q-127 -304 -127 -393q0 -56 36.5 -78t122.5 -22v-78h-497zM494 674h467l-228 604 z" />
<glyph unicode="B" horiz-adv-x="1570" d="M78 0v78q83 2 128 11t73.5 36t36.5 68.5t8 117.5v955q0 143 -36.5 185t-168.5 48v78h612q275 0 429.5 -99t154.5 -276q0 -133 -85 -219.5t-269 -142.5v-9q125 -13 193 -34t132 -64q182 -128 182 -323q0 -108 -61 -201.5t-168 -147.5q-69 -35 -157.5 -48t-266.5 -13h-737z M539 322q0 -125 65.5 -179.5t216.5 -54.5q371 0 371 318q0 231 -191 323q-64 31 -134 40t-236 9h-92v-456zM539 881h114q127 0 179.5 9t103.5 40q64 40 92.5 98t28.5 150q0 160 -78.5 231.5t-247.5 71.5h-158q-34 0 -34 -35v-565z" />
<glyph unicode="C" horiz-adv-x="1642" d="M123 762q0 184 57.5 339.5t160 264.5t248.5 170t318 61q123 0 232 -34.5t235 -112.5l37 127h57l19 -471h-76q-44 179 -174 282t-311 103q-248 0 -388.5 -191t-140.5 -526q0 -329 138.5 -506.5t396.5 -177.5q195 0 323.5 106.5t184.5 313.5h84v-510h-72l-47 162 q-215 -182 -520 -182q-348 0 -555 212.5t-207 569.5z" />
<glyph unicode="D" horiz-adv-x="1810" d="M78 0v78q83 2 127.5 10.5t73 35.5t37 68.5t8.5 118.5v955q0 143 -36.5 185t-168.5 48v78h719q244 0 438.5 -105t304 -291t109.5 -419q0 -222 -102.5 -395.5t-287.5 -270t-421 -96.5h-801zM539 334q0 -119 75 -176.5t230 -57.5q280 0 429.5 168.5t149.5 489.5 q0 338 -157 528.5t-432 190.5h-261q-34 0 -34 -35v-1108z" />
<glyph unicode="E" horiz-adv-x="1486" d="M92 0v78q61 2 98 8.5t64 20t39.5 41.5t18 65t5.5 98v955q0 76 -6.5 116.5t-30 67.5t-61 36.5t-106.5 12.5v78h1183l19 -360h-72q-24 160 -113.5 216t-302.5 56h-260q-17 0 -26 -9.5t-9 -25.5v-588q217 0 302.5 54.5t85.5 181.5h71v-559h-71q0 86 -32.5 136t-118 77 t-237.5 28v-462q0 -133 73 -183.5t267 -50.5q217 0 311 66.5t134 248.5h78l-31 -403h-1272z" />
<glyph unicode="F" horiz-adv-x="1372" d="M92 0v78q61 2 98 8.5t64 20t39.5 41.5t18 65t5.5 98v955q0 76 -6.5 116.5t-30 67.5t-61 36.5t-106.5 12.5v78h1183l23 -391h-72q-26 174 -112.5 233.5t-307.5 59.5h-260q-17 0 -26 -9.5t-9 -25.5v-619q205 0 290 52.5t98 203.5h71v-600h-71q-11 81 -33 129.5t-68 79 t-112.5 41.5t-174.5 12v-417q0 -56 3.5 -91t15.5 -64.5t30 -45t52.5 -26.5t76 -15t107.5 -6v-78h-725z" />
<glyph unicode="G" horiz-adv-x="1781" d="M123 762q0 184 57.5 339.5t160 264.5t248.5 170t318 61q123 0 232 -34.5t235 -112.5l43 127h72l-27 -471h-98q0 96 -37 171.5t-99.5 121t-139.5 69t-162 23.5q-248 0 -388.5 -191t-140.5 -526q0 -329 138.5 -506.5t396.5 -177.5q191 0 304.5 84.5t113.5 204.5 q0 117 -46.5 160t-158.5 43v77h581v-77q-99 0 -133 -38t-34 -145v-229q-82 0 -141.5 -18t-172.5 -82q-160 -90 -368 -90q-347 0 -550.5 212t-203.5 570z" />
<glyph unicode="H" horiz-adv-x="1894" d="M92 0v78q61 2 98 8.5t64 20t39.5 41.5t18 65t5.5 98v955q0 76 -6.5 116.5t-30 67.5t-61 36.5t-106.5 12.5v78h622v-78q-132 -4 -167.5 -48t-35.5 -200v-393h830v408q0 143 -36.5 185t-168.5 48v78h623v-78q-132 -4 -167.5 -48t-35.5 -200v-925q0 -55 3 -90.5t12.5 -65 t23.5 -45t41 -26.5t59.5 -15t83.5 -6v-78h-663v78q61 2 98 8.5t64 20t39.5 41.5t18 65t5.5 98v445h-830v-430q0 -83 7 -127t33 -72.5t66.5 -37.5t117.5 -11v-78h-664z" />
<glyph unicode="I" horiz-adv-x="849" d="M92 0v78q52 2 84 6t59.5 17t41.5 31.5t24 53t13 77.5t3 110v831q0 61 -2.5 101.5t-11 75.5t-22 54.5t-37.5 34.5t-55 21t-76 8v78h622v-78q-55 -2 -89 -11.5t-58 -28t-35.5 -56t-16 -86t-4.5 -127.5v-803q0 -71 3 -116.5t13 -82t23.5 -55.5t41 -32t59.5 -17t84 -6v-78 h-664z" />
<glyph unicode="J" horiz-adv-x="806" d="M-225 -334q0 52 27 80.5t77 28.5q38 0 62 -20t55 -77q35 -66 61 -89t66 -23q83 0 128.5 90.5t45.5 255.5v1354q0 143 -36.5 185t-168.5 48v78h623v-78q-132 -4 -167.5 -48t-35.5 -200v-1255q0 -257 -109.5 -392.5t-316.5 -135.5q-140 0 -225.5 54.5t-85.5 143.5z" />
<glyph unicode="K" horiz-adv-x="1595" d="M92 0v78q142 0 183.5 43.5t41.5 189.5v955q0 80 -8 125t-34 70t-61 31.5t-101 6.5v78h622v-78q-53 0 -84.5 -5.5t-57 -19t-37.5 -42.5t-18 -71.5t-6 -109.5v-506l512 617q41 50 41 80q0 57 -116 57v78h493v-76q-84 0 -135 -28t-135 -125l-385 -445l598 -719 q52 -61 97.5 -83.5t119.5 -22.5v-78h-629v78q80 0 115 13t35 42q0 39 -70 123l-399 492l-142 -164v-258q0 -82 8 -127.5t34 -74.5t67 -37.5t115 -8.5v-78h-664z" />
<glyph unicode="L" horiz-adv-x="1488" d="M92 0v78q61 2 98 8.5t64 20t39.5 41.5t18 65t5.5 98v955q0 76 -6.5 116.5t-30 67.5t-61 36.5t-106.5 12.5v78h622v-78q-132 -4 -167.5 -48t-35.5 -200v-882q0 -58 7 -100t25 -73.5t44 -51t69 -31.5t94.5 -16.5t125.5 -4.5q122 0 198 12.5t132 48t87 94t54 156.5h78 l-31 -403h-1323z" />
<glyph unicode="M" horiz-adv-x="2232" d="M92 0v78q52 2 84 6t59.5 17t41.5 31.5t24 53t13 77.5t3 110v831q0 61 -2.5 101.5t-11 75.5t-22 54.5t-37.5 34.5t-55 21t-76 8v78h489l516 -1210h8l533 1210h459v-78q-55 -2 -89 -11.5t-58 -28t-35.5 -56t-16 -86t-4.5 -127.5v-803q0 -71 2.5 -116.5t12.5 -82t23.5 -55.5 t41 -32t59.5 -17t84 -6v-78h-663v78q52 2 84 6t59.5 17t41.5 31.5t24 53t13 77.5t3 110v950h-21l-598 -1343h-45l-587 1343h-9v-936q0 -71 3 -116.5t13 -82t23.5 -55.5t41 -32t59.5 -17t84 -6v-78h-572z" />
<glyph unicode="N" horiz-adv-x="1847" d="M92 0v78q52 2 84 6t59.5 17t41.5 31.5t24 53t13 77.5t3 110v831q0 61 -2.5 101.5t-11 75.5t-22 54.5t-37.5 34.5t-55 21t-76 8v78h405l895 -1194h8v807q0 71 -2.5 116.5t-11.5 82t-21.5 55.5t-37.5 32t-53.5 17t-75.5 6v78h550v-78q-52 -2 -84 -6t-59.5 -17t-41.5 -31.5 t-24 -53t-13 -77.5t-3 -110v-1224h-123l-972 1282h-9v-875q0 -61 2.5 -102t7 -76t15.5 -55.5t24.5 -36t37.5 -23t50 -11.5t66 -5v-78h-551z" />
<glyph unicode="O" horiz-adv-x="1937" d="M117 776q0 228 112.5 416.5t308 296.5t431.5 108t431.5 -108t308 -296.5t112.5 -416.5q0 -164 -67 -311.5t-180.5 -253.5t-271.5 -168.5t-333 -62.5t-333 62.5t-271.5 168.5t-180.5 253.5t-67 311.5zM383 770q0 -312 158 -495t428 -183q269 0 427 183t158 495 q0 329 -157.5 522t-427.5 193t-428 -193t-158 -522z" />
<glyph unicode="P" horiz-adv-x="1406" d="M92 0v78q61 2 98 8.5t64 20t39.5 41.5t18 65t5.5 98v955q0 76 -6.5 116.5t-30 67.5t-61 36.5t-106.5 12.5v78h643q281 0 436.5 -104.5t155.5 -290.5q0 -225 -150 -345t-481 -120h-185v-395q0 -81 8.5 -124.5t40.5 -73t84.5 -38t149.5 -8.5v-78h-723zM532 819h146 q206 0 304.5 80.5t98.5 257.5q0 170 -78 247t-247 77h-189q-17 0 -26 -9.5t-9 -25.5v-627z" />
<glyph unicode="Q" horiz-adv-x="1941" d="M119 770q0 174 66 327.5t179.5 263t271.5 173t335 63.5q236 0 431.5 -108t308 -297t112.5 -418q0 -186 -77 -346t-212 -278q-78 -67 -179 -117.5t-237 -100.5q-136 -53 -203 -104v-8q32 4 72 4q82 0 171.5 -24t156 -53t152 -53t159.5 -24q94 0 144 41t81 142h52 q8 -50 8 -86q0 -128 -103 -213.5t-256 -85.5q-84 0 -170 29t-156.5 70t-137 82t-134 70t-123.5 29q-48 0 -86 -21t-59 -45.5t-49.5 -45.5t-58.5 -21q-28 0 -44 14t-16 37q0 28 22.5 49t112.5 74l267 152q-170 5 -319 72.5t-254.5 178t-166.5 261t-61 317.5zM385 770 q0 -335 158 -532t428 -197q268 0 426.5 197t158.5 532q0 329 -157.5 522t-427.5 193t-428 -193t-158 -522z" />
<glyph unicode="R" horiz-adv-x="1613" d="M92 0v78q61 2 98 8.5t64 20t39.5 41.5t18 65t5.5 98v955q0 76 -6.5 116.5t-30 67.5t-61 36.5t-106.5 12.5v78h643q281 0 436.5 -104.5t155.5 -290.5q0 -168 -101 -275t-311 -143l453 -545q53 -64 118.5 -95.5t161.5 -45.5v-78h-395l-502 643q-52 68 -96.5 86.5 t-143.5 18.5v-426q0 -81 8.5 -124.5t40.5 -73t84.5 -38t149.5 -8.5v-78h-723zM532 850h146q205 0 304 76.5t99 244.5q0 163 -78 236.5t-247 73.5h-189q-17 0 -26 -9.5t-9 -25.5v-596z" />
<glyph unicode="S" horiz-adv-x="1320" d="M119 481h76q29 -185 154 -291t310 -106q151 0 239.5 72t88.5 194q0 105 -76 177.5t-282 162.5q-255 112 -350 213.5t-95 259.5q0 190 129 312t330 122q175 0 326 -120l53 92h47l23 -408h-76q-98 332 -367 332q-124 0 -198 -62t-74 -165q0 -97 69 -165.5t244 -146.5 q156 -70 253 -126t158.5 -116.5t85 -122.5t23.5 -145q0 -206 -155 -335t-402 -129q-117 0 -210.5 33.5t-188.5 109.5l-57 -100h-47z" />
<glyph unicode="T" horiz-adv-x="1644" d="M43 1186v391h1546l21 -391h-84q-13 175 -90.5 239t-259.5 64q-101 0 -151 -6.5t-65.5 -19.5t-15.5 -38v-1095q0 -72 9 -113.5t36.5 -74.5t79.5 -47t139 -17v-78h-774v78q87 3 139 17t80.5 47t37.5 75t9 113v1095q0 25 -13.5 38t-57 19.5t-129.5 6.5q-54 0 -88.5 -1.5 t-78.5 -8t-71 -18.5t-56.5 -34t-45.5 -54t-27.5 -79t-13.5 -108h-76z" />
<glyph unicode="U" horiz-adv-x="1763" d="M59 1499v78h699v-78q-76 0 -116.5 -9.5t-63.5 -39.5q-27 -35 -36.5 -114t-9.5 -236v-557q0 -218 96.5 -327.5t317.5 -109.5q203 0 306.5 114t103.5 335v494q0 188 -14.5 280t-53.5 129q-26 25 -67 33t-111 8v78h594v-78q-71 0 -111 -11t-63 -44q-30 -41 -40.5 -130 t-10.5 -265v-414q0 -332 -138 -493.5t-452 -161.5q-155 0 -265 30t-186.5 98t-113.5 179.5t-37 271.5v541q0 173 -8 246t-41 108q-24 25 -65.5 35t-113.5 10z" />
<glyph unicode="V" horiz-adv-x="1605" d="M-27 1497v80h668v-80q-109 0 -147.5 -20t-38.5 -66q0 -52 49 -176l364 -922l361 889q55 134 55 197q0 56 -35 78t-125 22v78h498v-78q-94 -11 -141 -45.5t-82 -120.5l-555 -1353h-72l-528 1275q-55 130 -111.5 183t-159.5 59z" />
<glyph unicode="W" horiz-adv-x="2408" d="M-23 1497v80h668v-80q-106 0 -147 -19t-41 -71q0 -45 32 -143l312 -949l252 709q16 47 52 139.5t48 132.5q-54 116 -98.5 158.5t-104.5 42.5v80h627v-80q-115 0 -150.5 -17t-35.5 -65q0 -43 43 -186l274 -920l320 889q53 144 53 209q0 52 -34 72t-120 20v78h498v-78 q-92 0 -141 -38t-82 -128l-514 -1353h-72l-393 1165l-437 -1165h-71l-426 1175q-39 107 -66 166t-63 102.5t-78 58.5t-105 15z" />
<glyph unicode="X" horiz-adv-x="1675" d="M4 0v78q98 0 168.5 43.5t165.5 163.5l401 512l-415 567q-51 70 -115 102.5t-152 32.5v78h680v-78q-133 0 -133 -80q0 -50 58 -135l223 -332l200 254q57 72 80 117t23 86q0 51 -33.5 70.5t-120.5 19.5v78h563v-78q-100 0 -153.5 -36t-165.5 -181l-326 -420l471 -639 q108 -145 260 -145v-78h-698v78q87 0 123.5 16.5t36.5 48.5q0 30 -19 69t-86 140l-233 348l-176 -221q-128 -162 -175.5 -236t-47.5 -112q0 -31 35 -42t130 -11v-78h-569z" />
<glyph unicode="Y" horiz-adv-x="1501" d="M-10 1499v78h645v-78q-102 0 -144 -15.5t-42 -53.5q0 -45 47 -123l317 -543h8l232 389q121 204 121 277q0 38 -30 53.5t-104 15.5v78h469v-78q-60 0 -103 -26.5t-93.5 -94t-138.5 -215.5l-316 -532v-244q0 -71 2.5 -115.5t12 -82.5t23 -57t40.5 -32.5t60 -17.5t85 -4v-78 h-663v78q61 0 98.5 7.5t64.5 24t39.5 52.5t17.5 83.5t5 127.5v250l-410 700q-63 106 -111 141t-132 35z" />
<glyph unicode="Z" horiz-adv-x="1576" d="M33 0v8l1077 1483h-561q-145 0 -217.5 -66t-100.5 -225h-75l30 377h1248v-8l-1067 -1475h634q73 0 123.5 6t91.5 24t67 43.5t47.5 71.5t34.5 102t26 140h88l-25 -481h-1421z" />
<glyph unicode="[" horiz-adv-x="759" d="M219 -307v1986h494v-96h-310v-1794h310v-96h-494z" />
<glyph unicode="\" horiz-adv-x="942" d="M59 1577h101l723 -1577h-119z" />
<glyph unicode="]" horiz-adv-x="759" d="M47 -211h309v1794h-309v96h494v-1986h-494v96z" />
<glyph unicode="^" horiz-adv-x="983" d="M156 471l243 367h185l243 -367h-92l-243 242l-244 -242h-92z" />
<glyph unicode="_" horiz-adv-x="1478" d="M156 -154h1167v-139h-1167v139z" />
<glyph unicode="`" horiz-adv-x="563" d="M41 1573q0 33 21 52.5t57 19.5q63 0 137 -68l266 -244h-96l-281 133q-104 49 -104 107z" />
<glyph unicode="a" horiz-adv-x="1134" d="M88 223q0 102 76 183.5t256 158.5l295 129v84q0 128 -52 189t-161 61q-70 0 -99.5 -26t-56.5 -107q-23 -58 -44.5 -78t-61.5 -20q-50 0 -76.5 26.5t-26.5 75.5q0 98 105 152.5t297 54.5q205 0 290.5 -72.5t85.5 -247.5v-458q0 -234 93 -234q73 0 100 45l29 -49 q-25 -47 -90.5 -78.5t-137.5 -31.5q-88 0 -133 56.5t-45 162.5h-10q-55 -101 -149 -159t-207 -58q-127 0 -202 66t-75 175zM295 258q0 -68 45.5 -111t118.5 -43q106 0 181 100t75 240v162q-227 -86 -323.5 -169.5t-96.5 -178.5z" />
<glyph unicode="b" d="M-2 1567v51l385 82v-760h8q66 86 145.5 126t182.5 40q145 0 265 -74t188.5 -203.5t68.5 -285.5q0 -241 -152 -403.5t-376 -162.5q-115 0 -217.5 43t-167.5 117l-97 -137h-45v1237q0 207 -26 264q-14 30 -41 41.5t-121 24.5zM387 428q0 -154 85.5 -253t217.5 -99 q143 0 231.5 127t88.5 334q0 209 -91.5 341t-236.5 132q-83 0 -148.5 -40.5t-101.5 -111.5q-45 -88 -45 -248v-182z" />
<glyph unicode="c" horiz-adv-x="1097" d="M100 535q0 260 157 415.5t413 155.5q158 0 259 -50t101 -130q0 -40 -27 -63t-73 -23q-38 0 -63 16.5t-62 67.5q-40 48 -78.5 67t-97.5 19q-145 0 -220 -113.5t-75 -331.5q0 -233 83.5 -356t241.5 -123q170 0 316 143l61 -59q-74 -89 -190.5 -139.5t-251.5 -50.5 q-219 0 -356.5 153.5t-137.5 401.5z" />
<glyph unicode="d" horiz-adv-x="1382" d="M98 545q0 243 151.5 402t381.5 159q186 0 323 -137v209q0 246 -12 301q-11 45 -58.5 63.5t-152.5 18.5v61l420 78v-1182q0 -302 14 -362q12 -51 42.5 -67.5t123.5 -16.5v-70l-340 -22v192h-8q-73 -102 -156 -147t-196 -45q-232 0 -382.5 159t-150.5 406zM330 555 q0 -221 78 -349t223 -128q76 0 152 35t114 94q29 44 41 107.5t12 174.5v136q0 108 -11.5 162.5t-43.5 95.5q-44 59 -117 92t-147 33q-144 0 -222.5 -121.5t-78.5 -331.5z" />
<glyph unicode="e" horiz-adv-x="1173" d="M100 530q0 252 157.5 414t404.5 162q197 0 306 -108.5t109 -307.5q0 -27 -10.5 -34t-52.5 -7h-674q-8 -31 -8 -92q0 -214 99 -342.5t263 -128.5q166 0 312 162l63 -58q-175 -210 -432 -210q-239 0 -388 152t-149 398zM354 743h377q82 0 102.5 10t20.5 48q0 94 -61 150.5 t-164 56.5q-109 0 -179 -67.5t-96 -197.5z" />
<glyph unicode="f" horiz-adv-x="843" d="M45 956v97h231v147q0 236 125 368t353 132q126 0 206 -39t80 -100q0 -41 -26 -69t-64 -28q-43 0 -125 68q-51 43 -80 56.5t-67 13.5q-123 0 -176 -125q-33 -70 -33 -265v-159h330v-97h-330v-626q0 -153 42 -204t171 -54v-72h-582v72q42 2 67.5 6t47 14.5t32 25t18 43 t9.5 63t2 89.5v643h-231z" />
<glyph unicode="g" horiz-adv-x="1226" d="M66 -246q0 86 53.5 145.5t128.5 59.5q70 0 125 -43q-55 -12 -90 -60t-35 -110q0 -89 89.5 -138.5t252.5 -49.5q350 0 350 215q0 79 -54 134t-132 66q-169 24 -367 45q-114 12 -173.5 62t-59.5 135q0 72 58.5 128t149.5 69v8q-91 37 -150.5 128.5t-59.5 196.5 q0 156 114.5 258.5t288.5 102.5q90 0 170 -28.5t137 -80.5q132 109 223 109q74 0 118 -34t44 -91q0 -33 -23 -54.5t-59 -21.5q-39 0 -79.5 32t-73.5 32q-51 0 -101 -35q50 -76 50 -191q0 -173 -110.5 -273.5t-324.5 -115.5q-128 -9 -175.5 -26.5t-47.5 -59.5q0 -58 146 -67 q141 -11 337 -39q149 -22 237.5 -114t88.5 -228q0 -170 -137 -261t-393 -91q-229 0 -372.5 79.5t-143.5 206.5zM367 739q0 -135 53 -217t141 -82q86 0 134 78.5t48 218.5q0 138 -48.5 215.5t-135.5 77.5q-88 0 -140 -79t-52 -212z" />
<glyph unicode="h" horiz-adv-x="1409" d="M45 1552v70l377 78v-780h8q63 82 175.5 134t225.5 52q93 0 172.5 -32.5t122.5 -88.5q68 -88 68 -332v-327q0 -62 1 -96.5t8 -66t16 -45t30.5 -25t45.5 -15t67 -6.5v-72h-543v72q42 2 67 5.5t46.5 14.5t31.5 24.5t17 42.5t8.5 62.5t1.5 89.5v258q0 231 -52.5 327.5 t-178.5 96.5q-95 0 -175 -49t-124 -135q-22 -43 -28.5 -85t-6.5 -136v-262q0 -46 0.5 -75t4 -58t7.5 -44t14 -30t20.5 -21.5t30 -13t39.5 -8.5t52 -4v-72h-545v72q37 2 60 5.5t44 9.5t32 18.5t20 27.5t13 42t5.5 57.5t1.5 78.5v858q0 232 -14 301q-9 50 -41.5 66t-124.5 16z " />
<glyph unicode="i" horiz-adv-x="698" d="M66 956v72l401 78v-780q0 -83 6.5 -128.5t28.5 -75t56.5 -39t98.5 -11.5v-72h-587v72q86 4 126 24t55 67t15 148v262q0 249 -14 301q-9 48 -47.5 65t-138.5 17zM231 1522q0 54 36.5 90.5t90.5 36.5t90.5 -36.5t36.5 -90.5t-36.5 -90.5t-90.5 -36.5t-90.5 36.5t-36.5 90.5 z" />
<glyph unicode="j" horiz-adv-x="622" d="M-281 -342q0 46 27.5 71t77.5 25q37 0 56 -17.5t50 -78.5q30 -62 54.5 -82t74.5 -20q98 0 137.5 67.5t39.5 237.5v712q0 245 -15 301q-9 48 -47.5 65t-138.5 17v72l401 78v-1110q0 -255 -108.5 -391.5t-311.5 -136.5q-131 0 -214 53t-83 137zM205 1522q0 54 36.5 90.5 t90.5 36.5t90.5 -36.5t36.5 -90.5t-36.5 -90.5t-90.5 -36.5t-90.5 36.5t-36.5 90.5z" />
<glyph unicode="k" horiz-adv-x="1261" d="M31 1552v70l395 78v-1125l190 187q17 17 38.5 38t34.5 33.5t29 28.5t25 25.5t20 20.5t16.5 18.5t10.5 15t7 13t2 10.5q0 22 -44 35.5t-122 13.5v71h532v-71q-75 0 -119.5 -20.5t-121.5 -88.5l-295 -262l405 -459q60 -69 100.5 -90.5t116.5 -21.5v-72h-538v72 q118 0 118 22q-3 30 -112 162l-217 262l-76 -72v-120q0 -159 33.5 -204.5t156.5 -49.5v-72h-581v72q65 2 100.5 11.5t58.5 37.5t30 70.5t7 119.5v858q0 247 -9 298q-5 31 -15 46q-17 27 -53.5 33t-122.5 6z" />
<glyph unicode="l" horiz-adv-x="665" d="M41 1554v70l387 76v-1381q0 -156 32 -199.5t150 -47.5v-72h-565v72q122 6 157.5 49t35.5 184v883q0 230 -13 287q-10 47 -47.5 63t-136.5 16z" />
<glyph unicode="m" horiz-adv-x="2197" d="M72 956v72l334 78l26 -205h10q93 105 194.5 155t223.5 50q129 0 217.5 -53t122.5 -150h8q75 96 185 149.5t231 53.5q96 0 175 -32t120 -87q37 -47 52.5 -124t15.5 -210v-325q0 -62 1.5 -97t8.5 -66.5t16 -45.5t30.5 -25.5t46 -15t67.5 -6.5v-72h-545v72q42 2 67.5 6 t47 14.5t31.5 24.5t17 43t9 62.5t2 88.5v258q0 234 -54 329t-186 95q-89 0 -169 -50.5t-124 -133.5q-22 -41 -28 -82t-6 -139v-260q0 -47 0.5 -75.5t4 -57.5t7.5 -44.5t14 -31t21 -22t31 -12.5t40.5 -8.5t53.5 -4.5v-72h-545v72q42 3 67 6.5t46.5 14.5t31.5 24.5t17 42.5 t8.5 62t1.5 89v258q0 238 -52 331t-184 93q-91 0 -172.5 -50.5t-122.5 -133.5q-22 -41 -28 -82t-6 -139v-260q0 -63 1 -98t8 -66.5t16 -45.5t30.5 -25.5t45.5 -14.5t67 -6v-72h-545v72q37 2 60 5.5t44 9.5t32 18.5t20 27.5t13 42t5.5 57.5t1.5 78.5v262q0 249 -14 301 q-10 52 -41 67t-125 15z" />
<glyph unicode="n" horiz-adv-x="1411" d="M72 963v65l327 78l25 -203h8q77 96 183.5 149.5t226.5 53.5q93 0 171.5 -31t119.5 -84q35 -47 49 -121t14 -206v-342q0 -60 1.5 -95t8.5 -65.5t16.5 -45t30.5 -25.5t44.5 -14.5t64.5 -6.5v-70h-531v70q41 2 66 5.5t46 14.5t31 25t17 42.5t8.5 61.5t1.5 88v271 q0 231 -52.5 324t-180.5 93q-91 0 -168.5 -48.5t-120.5 -131.5q-22 -43 -29.5 -84t-7.5 -135v-274q0 -61 1 -95t8 -65.5t16.5 -45t31 -25t46 -15t67.5 -6.5v-70h-536v70q62 4 92 11.5t50.5 34.5t25 68t4.5 123v273q0 244 -12 297q-12 55 -42.5 70.5t-121.5 15.5z" />
<glyph unicode="o" d="M98 551q0 158 78 286t207.5 198.5t282.5 70.5q115 0 220.5 -42t183.5 -114.5t124.5 -176.5t46.5 -222q0 -162 -79 -294t-210 -204.5t-286 -72.5q-153 0 -282.5 72t-207.5 204t-78 295zM330 549q0 -212 91 -338.5t245 -126.5q157 0 250.5 127t93.5 338q0 205 -94.5 332 t-249.5 127q-152 0 -244 -126.5t-92 -332.5z" />
<glyph unicode="p" horiz-adv-x="1390" d="M37 950v70l393 78v-160h8q139 168 318 168q232 0 383 -159.5t151 -405.5q0 -248 -152.5 -404.5t-383.5 -156.5q-189 0 -316 135v-299q0 -86 7 -131.5t34.5 -75t69.5 -38.5t123 -11v-72h-631v72q65 2 100.5 12t59 37.5t30.5 71t7 120.5v766q0 243 -15 299q-9 50 -47 67 t-139 17zM438 475q0 -109 12 -162.5t44 -95.5q47 -65 113 -101t136 -36q142 0 229 121t87 331q0 213 -90.5 344.5t-237.5 131.5q-74 0 -136.5 -34t-102.5 -95q-54 -85 -54 -244v-160z" />
<glyph unicode="q" horiz-adv-x="1337" d="M98 528q0 119 42 226t112.5 184t168.5 122.5t206 45.5t211.5 -45t171.5 -121l90 141h51v-1265q0 -63 1.5 -98t10 -67t20.5 -46t38.5 -25.5t57 -14.5t83.5 -5v-72h-625v72q130 3 174.5 52t44.5 189v346h-8q-72 -89 -149.5 -128t-184.5 -39q-228 0 -372 152.5t-144 395.5z M330 543q0 -214 86.5 -339.5t234.5 -125.5q84 0 151.5 39.5t102.5 109.5q45 88 45 248v180q0 152 -86 251.5t-215 99.5q-146 0 -232.5 -126t-86.5 -337z" />
<glyph unicode="r" horiz-adv-x="976" d="M74 934v72l358 77l29 -254h8q56 123 154 200t202 77q66 0 104 -31.5t38 -85.5q0 -50 -31 -77t-88 -27q-48 0 -95 25.5t-67 25.5q-55 0 -110.5 -71t-86.5 -179q-34 -115 -34 -291v-69q0 -46 0.5 -75t4 -58t7.5 -44t14 -30t20.5 -21.5t30 -13t39.5 -8.5t52 -4v-72h-545v72 q43 2 68.5 5.5t47 14.5t32 24.5t18 42.5t9 62.5t1.5 89.5v240v124.5t-3.5 91.5t-6.5 70t-14.5 44.5t-21 30.5t-32.5 13.5t-43 8t-59 0.5z" />
<glyph unicode="s" horiz-adv-x="929" d="M131 0v352h51q79 -289 291 -289q84 0 131 41t47 121q0 58 -39.5 95t-197.5 135q-66 42 -101 66t-74.5 57.5t-58 62t-31 66.5t-12.5 84q0 138 87.5 226.5t217.5 88.5q56 0 116 -17.5t104 -46.5l40 43h39v-294h-53q-44 124 -97.5 177.5t-131.5 53.5q-70 0 -112 -37 t-42 -102q0 -63 42 -105t159 -114q80 -50 126 -81t90.5 -68t65.5 -68.5t33.5 -70t12.5 -85.5q0 -143 -94 -227t-248 -84q-160 0 -275 92l-41 -72h-45z" />
<glyph unicode="t" horiz-adv-x="774" d="M82 956v76q111 66 171.5 129.5t92.5 149.5h60v-258h274v-97h-274v-622q0 -145 30 -199.5t111 -54.5q51 0 87.5 21.5t70.5 72.5l51 -39q-29 -75 -100 -115t-175 -40q-135 0 -205.5 64.5t-70.5 184.5v727h-123z" />
<glyph unicode="u" horiz-adv-x="1372" d="M43 1014v71h371v-559q0 -221 52.5 -322.5t166.5 -101.5q178 0 280 236q21 49 28 91.5t7 127.5v201q0 46 -0.5 74.5t-4 57t-7.5 43.5t-14 30t-20.5 22t-30.5 13.5t-40 9.5t-53 6v71h371v-628q0 -228 12 -301q9 -52 40 -67t126 -15v-72l-338 -25l-22 246h-9 q-76 -122 -176.5 -182.5t-214.5 -60.5q-88 0 -167.5 32.5t-120.5 87.5q-66 87 -66 332v326q0 62 -1 96t-8 65.5t-16 45t-31 25.5t-46 16t-68 8z" />
<glyph unicode="v" horiz-adv-x="1249" d="M10 1014v71h543v-71q-88 -3 -112.5 -14t-24.5 -58q0 -45 28 -127l218 -594h8l186 441q80 189 80 272q0 47 -25.5 63.5t-105.5 16.5v71h407v-71q-59 0 -106 -58q-19 -26 -43 -80t-49 -118.5t-35 -85.5l-301 -695h-119l-346 854q-33 84 -60 121.5t-55.5 48.5t-87.5 13z" />
<glyph unicode="w" horiz-adv-x="1744" d="M25 1014v71h542v-71q-79 0 -112 -19t-33 -63q0 -34 22 -117l140 -489h8l301 759h63l273 -759h8l123 331q51 136 67.5 192t16.5 91q0 44 -27 59t-110 15v71h409v-71q-60 0 -94.5 -45t-99.5 -205l-318 -784h-76l-249 755h-9l-301 -755h-75l-267 851q-35 114 -73.5 148.5 t-128.5 34.5z" />
<glyph unicode="x" horiz-adv-x="1247" d="M20 0v72q95 0 155 36.5t151 149.5l209 256l-273 387q-45 65 -85 89t-99 24v71h504v-71q-105 0 -105 -49q0 -31 39 -86l148 -215l139 180q49 61 49 104q0 66 -121 66v71h449v-71q-73 0 -124.5 -34t-125.5 -130l-211 -268l272 -359q62 -82 116.5 -116.5t117.5 -34.5v-72 h-545v72q74 0 102.5 11.5t28.5 43.5q0 23 -76 123l-143 184l-174 -221q-31 -39 -31 -74q0 -67 102 -67v-72h-469z" />
<glyph unicode="y" horiz-adv-x="1308" d="M8 1014v71h543v-71q-137 0 -137 -68q0 -63 57 -201l225 -544h11l186 461q55 132 70.5 180t15.5 82q0 54 -29 72t-114 18v71h450v-71q-27 0 -45.5 -3.5t-39 -18t-36 -34.5t-38.5 -62t-46 -92t-59 -132l-447 -994q-94 -210 -292 -210q-129 0 -129 96q0 51 35.5 75t132.5 39 q84 13 127.5 46t82.5 110l72 143l-393 854q-53 115 -87.5 146t-115.5 37z" />
<glyph unicode="z" horiz-adv-x="1140" d="M37 0v8l708 991h-227q-93 0 -145 -6.5t-90 -28.5t-55.5 -59t-28.5 -102h-66l33 282h881v-8l-699 -983h240q89 0 145.5 5.5t101.5 18.5t72 39.5t46 63.5t34 96h68l-35 -317h-983z" />
<glyph unicode="{" horiz-adv-x="686" d="M59 676v51q110 22 146.5 80.5t36.5 183.5v359q0 103 14 165.5t53 106t107 61t178 17.5v-47q-93 -24 -130.5 -86t-37.5 -174v-367q0 -55 -4 -94.5t-16.5 -79t-34.5 -66t-58.5 -47.5t-87.5 -32v-11q118 -21 159.5 -89t41.5 -201v-406q0 -115 37.5 -174.5t138.5 -87.5v-45 q-106 0 -172.5 14t-110 50.5t-60.5 96t-17 154.5v402q0 49 -9.5 92.5t-29.5 82t-57 63t-87 28.5z" />
<glyph unicode="|" horiz-adv-x="593" d="M215 -512v2191h164v-2191h-164z" />
<glyph unicode="}" horiz-adv-x="686" d="M84 -262q101 28 138.5 87.5t37.5 174.5v406q0 133 41.5 201t159.5 89v11q-51 11 -87.5 32t-58.5 47.5t-34.5 66t-16.5 79t-4 94.5v367q0 112 -37.5 174t-130.5 86v47q110 0 178 -17.5t107 -61t53 -106t14 -165.5v-359q0 -125 36.5 -183.5t146.5 -80.5v-51 q-50 -4 -87 -28.5t-57 -63t-29.5 -82t-9.5 -92.5v-402q0 -95 -17 -154.5t-60.5 -96t-110 -50.5t-172.5 -14v45z" />
<glyph unicode="~" horiz-adv-x="1132" d="M172 510q19 108 79 170.5t146 62.5q57 0 198 -47t206 -47q38 0 58.5 18.5t35.5 67.5h68q-15 -107 -73.5 -174t-137.5 -67q-56 0 -203 49t-215 49q-38 0 -58 -18t-34 -64h-70z" />
<glyph unicode="&#xa1;" horiz-adv-x="630" d="M182 115q0 64 5 108.5t26 157.5q29 156 41 310.5t12 461.5h99q0 -302 12.5 -455.5t40.5 -308.5q15 -79 22 -129t8 -74.5t1 -70.5q0 -57 -37 -96t-97 -39t-96.5 39t-36.5 96zM182 1464q0 56 39 94.5t94 38.5q57 0 96.5 -38.5t39.5 -94.5q0 -57 -39.5 -96t-96.5 -39 q-56 0 -94.5 39t-38.5 96z" />
<glyph unicode="&#xa2;" horiz-adv-x="1136" d="M109 535q0 236 130.5 387.5t350.5 177.5v299h102v-293q153 -3 249.5 -52.5t96.5 -127.5q0 -40 -27 -63t-73 -23q-38 0 -63 16.5t-62 67.5q-60 69 -121 82v-920q154 9 291 143l61 -59q-62 -74 -153.5 -122.5t-198.5 -61.5v-287h-102v281q-215 5 -348 157.5t-133 397.5z M342 565q0 -202 63 -322t185 -149v912q-122 -17 -185 -129.5t-63 -311.5z" />
<glyph unicode="&#xa3;" horiz-adv-x="1392" d="M80 145q0 84 60 138.5t153 54.5q107 0 217 -64q12 46 12 123q0 61 -23.5 161.5t-60.5 199.5h-284v125h245q-47 158 -47 276q0 202 131 320t351 118q169 0 281 -67t112 -168q0 -45 -23.5 -69.5t-66.5 -24.5q-41 0 -66.5 24t-42 58t-37 67.5t-65 57.5t-113.5 24 q-115 0 -182.5 -61.5t-67.5 -165.5q0 -75 27 -178l53 -211h444v-125h-417q28 -100 28 -205q0 -197 -69 -326q73 -19 172.5 -32t173.5 -13q100 0 173 34.5t130 107.5l20 -9q0 -171 -79 -253t-220 -82q-87 0 -176 29t-250 112q-40 -61 -125.5 -102.5t-173.5 -41.5 q-89 0 -141.5 45.5t-52.5 122.5zM211 158q0 -66 102 -66t168 78q-109 53 -180 53q-40 0 -65 -17.5t-25 -47.5z" />
<glyph unicode="&#xa4;" horiz-adv-x="1255" d="M131 965l72 71l147 -147q120 96 277 96q153 0 276 -96l148 147l71 -71l-147 -148q98 -121 98 -278t-96 -277l145 -145l-71 -72l-146 145q-119 -96 -278 -96q-160 0 -279 99l-145 -146l-70 70l146 145q-97 121 -97 277q0 158 97 278zM285 539q0 -141 100.5 -241.5 t241.5 -100.5t242.5 100.5t101.5 241.5t-101.5 242.5t-242.5 101.5t-241.5 -101.5t-100.5 -242.5z" />
<glyph unicode="&#xa5;" horiz-adv-x="1642" d="M61 1499v78h646v-78q-113 0 -150 -14.5t-37 -54.5q0 -45 47 -123l318 -543h8l231 389q121 204 121 277q0 38 -29.5 53.5t-103.5 15.5v78h469v-78q-45 0 -77 -12t-71 -51t-80.5 -100.5t-107.5 -172.5l-248 -418h285v-122h-352v-142h352v-123h-352q1 -95 8.5 -146t33 -83.5 t66 -41.5t115.5 -9v-78h-664v78q51 0 84 4t59.5 16t41 30t24.5 52t13 74.5t4 103.5h-363v123h363v142h-363v122h291l-338 578q-63 106 -111.5 141t-132.5 35z" />
<glyph unicode="&#xa6;" horiz-adv-x="610" d="M223 -369v789h164v-789h-164zM223 748v788h164v-788h-164z" />
<glyph unicode="&#xa7;" horiz-adv-x="1159" d="M123 -20q0 77 35.5 123.5t93.5 46.5q54 0 92.5 -37.5t38.5 -89.5q0 -37 -22.5 -70.5t-45 -60t-22.5 -44.5q0 -44 84 -78t192 -34q132 0 206.5 60t74.5 167q0 75 -51.5 133.5t-180.5 132.5l-120 68q-202 113 -285.5 212.5t-83.5 229.5q0 107 52.5 185t150.5 118 q-70 58 -108 140t-38 174q0 158 105 251t282 93q167 0 277.5 -78.5t110.5 -198.5q0 -65 -34.5 -104t-92.5 -39q-54 0 -87.5 32t-33.5 83q0 32 14.5 55t28.5 40t14 34q0 40 -57 67t-142 27q-110 0 -171.5 -51.5t-61.5 -145.5q0 -75 48.5 -134t166.5 -126l123 -71 q189 -110 272.5 -215.5t83.5 -231.5q0 -90 -42 -161t-136 -140q158 -130 158 -313q0 -170 -126.5 -277.5t-326.5 -107.5q-190 0 -313 95t-123 241zM281 821q0 -63 40.5 -121.5t114.5 -101.5l332 -197q64 50 89.5 87t25.5 81q0 66 -49 132.5t-140 121.5l-272 162 q-79 -42 -110 -77.5t-31 -86.5z" />
<glyph unicode="&#xa8;" horiz-adv-x="661" d="M41 1452q0 51 34 85t85 34t85 -34t34 -85t-34 -85t-85 -34t-85 34t-34 85zM383 1452q0 51 34 85t85 34t85 -34t34 -85t-34 -85t-85 -34t-85 34t-34 85z" />
<glyph unicode="&#xa9;" horiz-adv-x="1818" d="M117 788q0 164 62 313.5t167 258t251 173t306 64.5q163 0 311 -63.5t255 -171t170 -257t63 -314.5q0 -222 -107 -408.5t-290 -294.5t-400 -108q-160 0 -306.5 64.5t-251.5 172.5t-167.5 257.5t-62.5 313.5zM215 788q0 -193 91.5 -356t250.5 -258.5t348 -95.5t350 95.5 t255 260t94 357.5q0 194 -94 357t-255 257t-352 94q-189 0 -347.5 -96t-249.5 -259.5t-91 -355.5zM463 768q0 214 127.5 346.5t331.5 132.5q124 0 258 -84l20 72h43l10 -268h-53q-25 92 -96.5 145t-171.5 53q-138 0 -214.5 -103t-76.5 -286q0 -180 76 -275t219 -95 q200 0 260 219h68q-31 -141 -119.5 -222t-235.5 -81q-204 0 -325 121.5t-121 324.5z" />
<glyph unicode="&#xaa;" horiz-adv-x="774" d="M129 1159q0 53 38.5 92.5t135.5 81.5l143 64v39q0 59 -24 85.5t-78 26.5q-46 0 -64.5 -12t-27.5 -51q-11 -49 -53 -49q-52 0 -52 59q0 43 59 72.5t156 29.5q109 0 154 -35.5t45 -121.5v-230q0 -118 45 -118q32 0 49 26l15 -24q-13 -24 -48.5 -40t-74.5 -16q-90 0 -90 99 h-8q-27 -45 -73 -72t-100 -27q-67 0 -107 33.5t-40 87.5zM256 1188q0 -34 20 -56t52 -22q47 0 82.5 48t35.5 112v69q-190 -70 -190 -151z" />
<glyph unicode="&#xab;" horiz-adv-x="1001" d="M100 537l349 325l40 -43l-202 -282l200 -283l-38 -41zM451 537l348 325l41 -43l-203 -282l201 -283l-39 -41z" />
<glyph unicode="&#xac;" horiz-adv-x="1280" d="M170 641v102h938v-518h-102v416h-836z" />
<glyph unicode="&#xad;" horiz-adv-x="948" d="M158 508v170h633v-170h-633z" />
<glyph unicode="&#xae;" horiz-adv-x="1818" d="M117 788q0 164 62 313.5t167 258t251 173t306 64.5q163 0 311 -63.5t255 -171t170 -257t63 -314.5q0 -222 -107 -408.5t-290 -294.5t-400 -108q-160 0 -306.5 64.5t-251.5 172.5t-167.5 257.5t-62.5 313.5zM215 788q0 -193 91.5 -356t250.5 -258.5t348 -95.5t350 95.5 t255 260t94 357.5q0 194 -94 357t-255 257t-352 94q-189 0 -347.5 -96t-249.5 -259.5t-91 -355.5zM498 375v45q73 3 93.5 26.5t20.5 102.5v530q0 79 -18.5 102.5t-83.5 26.5v52h358q163 0 253.5 -59t90.5 -163q0 -197 -221 -233l254 -307q29 -35 60 -52.5t77 -25.5v-45h-221 l-282 350q-27 38 -50 48.5t-73 10.5v-229q0 -45 4.5 -68.5t20.5 -40t43.5 -21.5t78.5 -5v-45h-405zM756 852h82q104 0 154 43t50 137q0 90 -41 128t-133 38h-94q-18 0 -18 -18v-328z" />
<glyph unicode="&#xaf;" horiz-adv-x="634" d="M41 1438v102h553v-102h-553z" />
<glyph unicode="&#xb0;" horiz-adv-x="708" d="M109 1352q0 101 72 173t173 72t173.5 -72t72.5 -173t-72.5 -173.5t-173.5 -72.5t-173 72.5t-72 173.5zM170 1352q0 -75 54.5 -130t129.5 -55t129 55t54 130t-54 128.5t-129 53.5t-129.5 -53.5t-54.5 -128.5z" />
<glyph unicode="&#xb1;" horiz-adv-x="1298" d="M170 195v102h958v-102h-958zM170 907v103h426v428h106v-428h426v-103h-426v-428h-106v428h-426z" />
<glyph unicode="&#xb2;" horiz-adv-x="583" d="M70 958v27q182 162 245.5 254.5t63.5 181.5q0 60 -30 94.5t-83 34.5q-43 0 -71.5 -30t-28.5 -74q0 -40 25 -64t65 -24q-3 -23 -23.5 -38t-50.5 -15q-45 0 -74.5 34t-29.5 88q0 73 57.5 121.5t145.5 48.5q90 0 148 -49.5t58 -126.5q0 -93 -75 -182t-213 -192v-9h174 q40 0 60.5 19.5t37.5 75.5h41l-31 -175h-411z" />
<glyph unicode="&#xb3;" horiz-adv-x="571" d="M72 1096q0 44 27 74t67 30q27 0 48.5 -13.5t25.5 -33.5q-31 0 -51.5 -19.5t-20.5 -50.5q0 -37 27.5 -60.5t70.5 -23.5q56 0 85.5 35t29.5 101t-27.5 101.5t-77.5 35.5q-30 -15 -55 -15q-17 0 -27 9.5t-10 23.5q0 13 10 21t25 8q24 0 51 -10q43 0 70 38t27 101 q0 54 -23.5 79t-73.5 25q-38 0 -60 -17t-22 -46q0 -23 16 -38t42 -15q-3 -17 -23 -29t-45 -12q-35 0 -58.5 25.5t-23.5 62.5q0 52 47.5 83t126.5 31q94 0 149.5 -39.5t55.5 -105.5q0 -55 -37.5 -97.5t-95.5 -54.5v-8q68 -15 111 -59.5t43 -104.5q0 -77 -65 -127.5 t-163 -50.5q-86 0 -141 41.5t-55 104.5z" />
<glyph unicode="&#xb4;" horiz-adv-x="563" d="M41 1333l266 244q74 68 137 68q36 0 57 -19.5t21 -52.5q0 -58 -104 -107l-281 -133h-96z" />
<glyph unicode="&#xb5;" horiz-adv-x="1476" d="M96 1014v71h371v-559q0 -229 52 -332.5t169 -103.5q89 0 156.5 59.5t122.5 188.5q21 46 27.5 88.5t6.5 130.5v201q0 87 -5.5 133.5t-25.5 76t-51 38t-88 8.5v71h371v-628q0 -228 12 -301q9 -51 40 -66.5t126 -15.5v-72l-338 -25l-22 246h-8q-64 -118 -151 -180.5 t-183 -62.5q-170 0 -254 188l-8 -2q33 -162 58.5 -330.5t25.5 -224.5q0 -66 -31 -104.5t-84 -38.5q-51 0 -85 36t-34 90v1164q0 86 -5.5 132.5t-25.5 76.5t-51 38.5t-88 8.5z" />
<glyph unicode="&#xb6;" horiz-adv-x="1292" d="M74 1155q0 204 142.5 313t410.5 109h565v-78q-99 0 -140.5 -15.5t-60.5 -58.5q-22 -59 -22 -251v-1045q0 -245 26 -315q14 -40 59 -57t138 -17v-78h-375v1825h-106v-1825h-398v78q107 0 158.5 18.5t65.5 61.5q8 27 14 119t6 190v635q-11 0 -32 -1t-38 -1 q-195 0 -304 103.5t-109 289.5z" />
<glyph unicode="&#xb7;" horiz-adv-x="583" d="M158 561q0 57 38.5 96t94.5 39q57 0 96 -39t39 -96q0 -56 -39 -94.5t-96 -38.5q-55 0 -94 39t-39 94z" />
<glyph unicode="&#xb8;" horiz-adv-x="475" d="M12 -377q0 35 17 54.5t47 19.5q21 0 34.5 -13.5t32.5 -52.5q19 -43 39 -59t54 -16q45 0 73.5 28.5t28.5 73.5q0 54 -42 82.5t-120 28.5q-22 0 -72 -5l-6 11l109 250h108l-63 -172q254 0 254 -177q0 -96 -69.5 -152t-188.5 -56q-104 0 -170 43t-66 112z" />
<glyph unicode="&#xb9;" horiz-adv-x="503" d="M121 1522v41q81 3 180 34v-495q0 -64 15.5 -83t70.5 -20v-41h-262v41q55 3 70.5 20.5t15.5 76.5v280q0 109 -4 119q-3 16 -22.5 21.5t-63.5 5.5z" />
<glyph unicode="&#xba;" horiz-adv-x="784" d="M109 1321q0 118 82 197t198 79q118 0 202.5 -79t84.5 -197q0 -121 -84.5 -202t-202.5 -81q-116 0 -198 81t-82 202zM240 1321q0 -103 41 -165t108 -62q69 0 111.5 62t42.5 165q0 99 -42.5 161t-111.5 62q-66 0 -107.5 -62.5t-41.5 -160.5z" />
<glyph unicode="&#xbb;" horiz-adv-x="1001" d="M162 819l41 43l348 -325l-348 -324l-39 41l201 283zM512 819l41 43l348 -325l-348 -324l-39 41l201 283z" />
<glyph unicode="&#xbc;" horiz-adv-x="1370" d="M63 0l1133 1577h98l-1114 -1577h-117zM268 1522v41q82 3 181 34v-495q0 -64 15.5 -83t70.5 -20v-41h-263v41q55 3 70.5 20.5t15.5 76.5v280q0 109 -4 119q-3 16 -22.5 21.5t-63.5 5.5zM723 147v52l289 440h45v-442q52 1 64 13t12 60h38v-192h-38q0 45 -13 58t-63 14v-17 q0 -63 12 -82t53 -20v-31h-252v31q55 3 70.5 20t15.5 76v20h-233zM774 199h182v266h-8z" />
<glyph unicode="&#xbd;" horiz-adv-x="1382" d="M63 0l1133 1577h98l-1114 -1577h-117zM268 1522v41q82 3 181 34v-495q0 -64 15.5 -83t70.5 -20v-41h-263v41q55 3 70.5 20.5t15.5 76.5v280q0 109 -4 119q-3 16 -22.5 21.5t-63.5 5.5zM756 0v27q182 162 245.5 254.5t63.5 181.5q0 60 -30 94.5t-83 34.5 q-43 0 -71.5 -30.5t-28.5 -74.5q0 -40 25 -64t65 -24q-3 -23 -23.5 -38t-50.5 -15q-45 0 -74.5 34.5t-29.5 88.5q0 73 57.5 121.5t145.5 48.5q91 0 149 -49.5t58 -126.5q0 -93 -75.5 -182.5t-213.5 -192.5v-8h174q40 0 60.5 19t37.5 75h41l-31 -174h-411z" />
<glyph unicode="&#xbe;" horiz-adv-x="1374" d="M78 0l1132 1577h99l-1114 -1577h-117zM184 1096q0 44 27.5 74t67.5 30q26 0 47.5 -13.5t25.5 -33.5q-31 0 -51 -19.5t-20 -50.5q0 -37 27.5 -60.5t70.5 -23.5q56 0 85.5 35t29.5 101t-27.5 101.5t-77.5 35.5q-30 -15 -55 -15q-17 0 -27 9.5t-10 23.5q0 13 10 21t25 8 q24 0 51 -10q43 0 69.5 38t26.5 101q0 54 -23 79t-73 25q-38 0 -60 -17t-22 -46q0 -24 15.5 -38.5t41.5 -14.5q-3 -17 -22.5 -29t-44.5 -12q-35 0 -58.5 25.5t-23.5 62.5q0 52 47.5 83t126.5 31q94 0 149.5 -39.5t55.5 -105.5q0 -55 -37.5 -97.5t-95.5 -54.5v-8 q68 -15 110.5 -59.5t42.5 -104.5q0 -77 -64.5 -127.5t-162.5 -50.5q-86 0 -141.5 41.5t-55.5 104.5zM737 147v52l289 440h45v-442q52 1 64 13t12 60h39v-192h-39q0 45 -13 58t-63 14v-17q0 -63 12.5 -81.5t53.5 -20.5v-31h-252v31q55 3 70.5 20t15.5 76v20h-234zM788 199 h183v266h-8z" />
<glyph unicode="&#xbf;" horiz-adv-x="817" d="M119 492q0 155 86.5 241t243.5 86v273h112v-469h-59q-266 0 -266 -203q0 -98 52.5 -168t125.5 -70q25 0 78 11.5t75 11.5q48 0 78.5 -31t30.5 -80q0 -114 -127 -114q-110 0 -210 71.5t-160 190.5t-60 250zM377 1464q0 56 39 94.5t96 38.5q56 0 94.5 -38.5t38.5 -94.5 q0 -57 -38.5 -96t-94.5 -39q-57 0 -96 39t-39 96z" />
<glyph unicode="&#xc0;" horiz-adv-x="1581" d="M-12 0v78q95 11 141.5 45t81.5 121l532 1333h88l465 -1155q48 -119 81 -183.5t69.5 -102t70.5 -47t91 -9.5v-80h-668v80q107 0 148.5 20t41.5 68q0 39 -9.5 74.5t-37.5 107.5l-84 221h-546q-127 -304 -127 -393q0 -56 36.5 -78t122.5 -22v-78h-497zM479 1894 q0 33 21 52.5t57 19.5q39 0 77.5 -15.5t100.5 -52.5l266 -157h-122l-246 57q-154 33 -154 96zM494 674h467l-228 604z" />
<glyph unicode="&#xc1;" horiz-adv-x="1581" d="M-12 0v78q95 11 141.5 45t81.5 121l532 1333h88l465 -1155q48 -119 81 -183.5t69.5 -102t70.5 -47t91 -9.5v-80h-668v80q107 0 148.5 20t41.5 68q0 39 -9.5 74.5t-37.5 107.5l-84 221h-546q-127 -304 -127 -393q0 -56 36.5 -78t122.5 -22v-78h-497zM494 674h467l-228 604 zM580 1741l266 157q62 37 100.5 52.5t77.5 15.5q36 0 57 -19.5t21 -52.5q0 -63 -154 -96l-246 -57h-122z" />
<glyph unicode="&#xc2;" horiz-adv-x="1581" d="M-12 0v78q95 11 141.5 45t81.5 121l532 1333h88l465 -1155q48 -119 81 -183.5t69.5 -102t70.5 -47t91 -9.5v-80h-668v80q107 0 148.5 20t41.5 68q0 39 -9.5 74.5t-37.5 107.5l-84 221h-546q-127 -304 -127 -393q0 -56 36.5 -78t122.5 -22v-78h-497zM449 1743l223 223h225 l223 -223h-92l-244 110l-243 -110h-92zM494 674h467l-228 604z" />
<glyph unicode="&#xc3;" horiz-adv-x="1581" d="M-12 0v78q95 11 141.5 45t81.5 121l532 1333h88l465 -1155q48 -119 81 -183.5t69.5 -102t70.5 -47t91 -9.5v-80h-668v80q107 0 148.5 20t41.5 68q0 39 -9.5 74.5t-37.5 107.5l-84 221h-546q-127 -304 -127 -393q0 -56 36.5 -78t122.5 -22v-78h-497zM434 1733 q17 104 77 168.5t140 64.5q55 0 161 -47t157 -47q38 0 59.5 19.5t36.5 66.5h68q-10 -103 -69 -172.5t-136 -69.5q-54 0 -165 49.5t-167 49.5q-38 0 -58 -18t-34 -64h-70zM494 674h467l-228 604z" />
<glyph unicode="&#xc4;" horiz-adv-x="1581" d="M-12 0v78q95 11 141.5 45t81.5 121l532 1333h88l465 -1155q48 -119 81 -183.5t69.5 -102t70.5 -47t91 -9.5v-80h-668v80q107 0 148.5 20t41.5 68q0 39 -9.5 74.5t-37.5 107.5l-84 221h-546q-127 -304 -127 -393q0 -56 36.5 -78t122.5 -22v-78h-497zM494 674h467l-228 604 zM496 1864q0 43 29.5 72.5t72.5 29.5q44 0 74 -29.5t30 -72.5q0 -44 -30 -74.5t-74 -30.5q-43 0 -72.5 30.5t-29.5 74.5zM868 1864q0 43 30.5 72.5t74.5 29.5q43 0 72.5 -29.5t29.5 -72.5q0 -44 -29.5 -74.5t-72.5 -30.5q-44 0 -74.5 30.5t-30.5 74.5z" />
<glyph unicode="&#xc5;" horiz-adv-x="1581" d="M-12 0v78q95 11 141.5 45t81.5 121l532 1333h88l465 -1155q48 -119 81 -183.5t69.5 -102t70.5 -47t91 -9.5v-80h-668v80q107 0 148.5 20t41.5 68q0 39 -9.5 74.5t-37.5 107.5l-84 221h-546q-127 -304 -127 -393q0 -56 36.5 -78t122.5 -22v-78h-497zM494 674h467l-228 604 zM651 1833q0 57 38 95t95 38t95.5 -38t38.5 -95t-38.5 -95t-95.5 -38t-95 38t-38 95zM715 1833q0 -31 19 -50.5t50 -19.5q29 0 48.5 19.5t19.5 50.5q0 29 -19.5 48.5t-48.5 19.5q-30 0 -49.5 -19.5t-19.5 -48.5z" />
<glyph unicode="&#xc6;" horiz-adv-x="2152" d="M-23 0v78q92 10 138 44t94 122q5 8 29 51.5t34 61.5t41 74t56.5 104t73 137t98.5 186t124 237.5t158 305.5q15 34 15 47q0 28 -38.5 39.5t-131.5 11.5v78h1302v-360h-72q-24 161 -108.5 216.5t-296.5 55.5h-260q-17 0 -26 -9.5t-9 -25.5v-588q204 0 289 48.5t98 187.5h72 v-559h-72q-15 99 -53 149t-114 70.5t-220 21.5v-462q0 -133 73 -183.5t267 -50.5q217 0 310.5 66.5t133.5 248.5h78l-30 -403h-1272v78q61 2 98 8.5t64 20t39.5 41.5t18 65t5.5 98v271h-473l-8 -19q-16 -31 -49 -92t-50.5 -95t-38.5 -79.5t-30.5 -78.5t-9.5 -58q0 -17 4 -30 t14.5 -21t19 -13.5t25.5 -8.5t27 -4.5t30.5 -2.5t28.5 -2v-78h-496zM559 674h424v803z" />
<glyph unicode="&#xc7;" horiz-adv-x="1642" d="M123 762q0 184 57.5 339.5t160 264.5t248.5 170t318 61q123 0 232 -34.5t235 -112.5l37 127h57l19 -471h-76q-44 179 -174 282t-311 103q-248 0 -388.5 -191t-140.5 -526q0 -329 138.5 -506.5t396.5 -177.5q195 0 323.5 106.5t184.5 313.5h84v-510h-72l-47 162 q-204 -171 -481 -180l-47 -129q253 0 253 -177q0 -96 -69.5 -152t-188.5 -56q-104 0 -169.5 43t-65.5 112q0 35 17 54.5t46 19.5q21 0 35 -13.5t33 -52.5q19 -43 38.5 -59t53.5 -16q45 0 74 28.5t29 73.5q0 54 -42 82.5t-120 28.5q-22 0 -72 -5l-6 11l90 207 q-317 22 -503.5 231.5t-186.5 548.5z" />
<glyph unicode="&#xc8;" horiz-adv-x="1486" d="M92 0v78q61 2 98 8.5t64 20t39.5 41.5t18 65t5.5 98v955q0 76 -6.5 116.5t-30 67.5t-61 36.5t-106.5 12.5v78h1183l19 -360h-72q-24 160 -113.5 216t-302.5 56h-260q-17 0 -26 -9.5t-9 -25.5v-588q217 0 302.5 54.5t85.5 181.5h71v-559h-71q0 86 -32.5 136t-118 77 t-237.5 28v-462q0 -133 73 -183.5t267 -50.5q217 0 311 66.5t134 248.5h78l-31 -403h-1272zM471 1894q0 33 21 52.5t57 19.5q39 0 77.5 -15.5t100.5 -52.5l266 -157h-123l-245 57q-154 33 -154 96z" />
<glyph unicode="&#xc9;" horiz-adv-x="1486" d="M92 0v78q61 2 98 8.5t64 20t39.5 41.5t18 65t5.5 98v955q0 76 -6.5 116.5t-30 67.5t-61 36.5t-106.5 12.5v78h1183l19 -360h-72q-24 160 -113.5 216t-302.5 56h-260q-17 0 -26 -9.5t-9 -25.5v-588q217 0 302.5 54.5t85.5 181.5h71v-559h-71q0 86 -32.5 136t-118 77 t-237.5 28v-462q0 -133 73 -183.5t267 -50.5q217 0 311 66.5t134 248.5h78l-31 -403h-1272zM571 1741l267 157q62 37 100.5 52.5t77.5 15.5q36 0 57 -19.5t21 -52.5q0 -63 -154 -96l-246 -57h-123z" />
<glyph unicode="&#xca;" horiz-adv-x="1486" d="M92 0v78q61 2 98 8.5t64 20t39.5 41.5t18 65t5.5 98v955q0 76 -6.5 116.5t-30 67.5t-61 36.5t-106.5 12.5v78h1183l19 -360h-72q-24 160 -113.5 216t-302.5 56h-260q-17 0 -26 -9.5t-9 -25.5v-588q217 0 302.5 54.5t85.5 181.5h71v-559h-71q0 86 -32.5 136t-118 77 t-237.5 28v-462q0 -133 73 -183.5t267 -50.5q217 0 311 66.5t134 248.5h78l-31 -403h-1272zM440 1743l224 223h225l223 -223h-92l-244 110l-244 -110h-92z" />
<glyph unicode="&#xcb;" horiz-adv-x="1486" d="M92 0v78q61 2 98 8.5t64 20t39.5 41.5t18 65t5.5 98v955q0 76 -6.5 116.5t-30 67.5t-61 36.5t-106.5 12.5v78h1183l19 -360h-72q-24 160 -113.5 216t-302.5 56h-260q-17 0 -26 -9.5t-9 -25.5v-588q217 0 302.5 54.5t85.5 181.5h71v-559h-71q0 86 -32.5 136t-118 77 t-237.5 28v-462q0 -133 73 -183.5t267 -50.5q217 0 311 66.5t134 248.5h78l-31 -403h-1272zM459 1864q0 43 29.5 72.5t72.5 29.5q44 0 74.5 -29.5t30.5 -72.5q0 -44 -30.5 -74.5t-74.5 -30.5q-43 0 -72.5 30.5t-29.5 74.5zM831 1864q0 43 30.5 72.5t74.5 29.5 q43 0 72.5 -29.5t29.5 -72.5q0 -44 -29.5 -74.5t-72.5 -30.5q-44 0 -74.5 30.5t-30.5 74.5z" />
<glyph unicode="&#xcc;" horiz-adv-x="849" d="M92 0v78q52 2 84 6t59.5 17t41.5 31.5t24 53t13 77.5t3 110v831q0 61 -2.5 101.5t-11 75.5t-22 54.5t-37.5 34.5t-55 21t-76 8v78h622v-78q-55 -2 -89 -11.5t-58 -28t-35.5 -56t-16 -86t-4.5 -127.5v-803q0 -71 3 -116.5t13 -82t23.5 -55.5t41 -32t59.5 -17t84 -6v-78 h-664zM117 1894q0 33 21 52.5t57 19.5q39 0 77.5 -15.5t100.5 -52.5l266 -157h-123l-246 57q-153 33 -153 96z" />
<glyph unicode="&#xcd;" horiz-adv-x="849" d="M92 0v78q52 2 84 6t59.5 17t41.5 31.5t24 53t13 77.5t3 110v831q0 61 -2.5 101.5t-11 75.5t-22 54.5t-37.5 34.5t-55 21t-76 8v78h622v-78q-55 -2 -89 -11.5t-58 -28t-35.5 -56t-16 -86t-4.5 -127.5v-803q0 -71 3 -116.5t13 -82t23.5 -55.5t41 -32t59.5 -17t84 -6v-78 h-664zM217 1741l266 157q62 37 101 52.5t78 15.5q35 0 56 -19t21 -53q0 -63 -153 -96l-246 -57h-123z" />
<glyph unicode="&#xce;" horiz-adv-x="849" d="M86 1743l223 223h226l223 -223h-92l-244 110l-244 -110h-92zM92 0v78q52 2 84 6t59.5 17t41.5 31.5t24 53t13 77.5t3 110v831q0 61 -2.5 101.5t-11 75.5t-22 54.5t-37.5 34.5t-55 21t-76 8v78h622v-78q-55 -2 -89 -11.5t-58 -28t-35.5 -56t-16 -86t-4.5 -127.5v-803 q0 -71 3 -116.5t13 -82t23.5 -55.5t41 -32t59.5 -17t84 -6v-78h-664z" />
<glyph unicode="&#xcf;" horiz-adv-x="849" d="M92 0v78q52 2 84 6t59.5 17t41.5 31.5t24 53t13 77.5t3 110v831q0 61 -2.5 101.5t-11 75.5t-22 54.5t-37.5 34.5t-55 21t-76 8v78h622v-78q-55 -2 -89 -11.5t-58 -28t-35.5 -56t-16 -86t-4.5 -127.5v-803q0 -71 3 -116.5t13 -82t23.5 -55.5t41 -32t59.5 -17t84 -6v-78 h-664zM137 1864q0 43 30 72.5t73 29.5q44 0 74 -29.5t30 -72.5q0 -44 -30 -74.5t-74 -30.5q-43 0 -73 30.5t-30 74.5zM510 1864q0 43 30 72.5t74 29.5q43 0 73 -29.5t30 -72.5q0 -44 -30 -74.5t-73 -30.5q-44 0 -74 30.5t-30 74.5z" />
<glyph unicode="&#xd0;" horiz-adv-x="1806" d="M74 0v78q83 2 127 10.5t73 35.5t37 68.5t8 118.5v473h-163v109h163v373q0 76 -6.5 116.5t-30 67.5t-61 36.5t-106.5 12.5v78h719q244 0 438.5 -105t304 -291t109.5 -419q0 -222 -103 -395.5t-288 -270t-421 -96.5h-800zM535 334q0 -119 75 -176.5t230 -57.5 q280 0 429.5 168.5t149.5 489.5q0 338 -157.5 528.5t-432.5 190.5h-260q-34 0 -34 -35v-549h335v-109h-335v-450z" />
<glyph unicode="&#xd1;" horiz-adv-x="1847" d="M92 0v78q52 2 84 6t59.5 17t41.5 31.5t24 53t13 77.5t3 110v831q0 61 -2.5 101.5t-11 75.5t-22 54.5t-37.5 34.5t-55 21t-76 8v78h405l895 -1194h8v807q0 71 -2.5 116.5t-11.5 82t-21.5 55.5t-37.5 32t-53.5 17t-75.5 6v78h550v-78q-52 -2 -84 -6t-59.5 -17t-41.5 -31.5 t-24 -53t-13 -77.5t-3 -110v-1224h-123l-972 1282h-9v-875q0 -61 2.5 -102t7 -76t15.5 -55.5t24.5 -36t37.5 -23t50 -11.5t66 -5v-78h-551zM600 1733q17 104 77 168.5t140 64.5q55 0 161 -47t157 -47q38 0 59.5 19.5t36.5 66.5h67q-11 -103 -69.5 -172.5t-134.5 -69.5 q-54 0 -165 49.5t-167 49.5q-38 0 -58 -18t-34 -64h-70z" />
<glyph unicode="&#xd2;" horiz-adv-x="1937" d="M117 776q0 228 112.5 416.5t308 296.5t431.5 108t431.5 -108t308 -296.5t112.5 -416.5q0 -164 -67 -311.5t-180.5 -253.5t-271.5 -168.5t-333 -62.5t-333 62.5t-271.5 168.5t-180.5 253.5t-67 311.5zM383 770q0 -312 158 -495t428 -183q269 0 427 183t158 495 q0 329 -157.5 522t-427.5 193t-428 -193t-158 -522zM666 1894q0 34 21 53t56 19q39 0 78 -15.5t101 -52.5l266 -157h-123l-246 57q-153 33 -153 96z" />
<glyph unicode="&#xd3;" horiz-adv-x="1937" d="M117 776q0 228 112.5 416.5t308 296.5t431.5 108t431.5 -108t308 -296.5t112.5 -416.5q0 -164 -67 -311.5t-180.5 -253.5t-271.5 -168.5t-333 -62.5t-333 62.5t-271.5 168.5t-180.5 253.5t-67 311.5zM383 770q0 -312 158 -495t428 -183q269 0 427 183t158 495 q0 329 -157.5 522t-427.5 193t-428 -193t-158 -522zM766 1741l266 157q62 37 100.5 52.5t77.5 15.5q36 0 57 -19.5t21 -52.5q0 -63 -153 -96l-246 -57h-123z" />
<glyph unicode="&#xd4;" horiz-adv-x="1937" d="M117 776q0 228 112.5 416.5t308 296.5t431.5 108t431.5 -108t308 -296.5t112.5 -416.5q0 -164 -67 -311.5t-180.5 -253.5t-271.5 -168.5t-333 -62.5t-333 62.5t-271.5 168.5t-180.5 253.5t-67 311.5zM383 770q0 -312 158 -495t428 -183q269 0 427 183t158 495 q0 329 -157.5 522t-427.5 193t-428 -193t-158 -522zM635 1743l223 223h225l224 -223h-93l-243 110l-244 -110h-92z" />
<glyph unicode="&#xd5;" horiz-adv-x="1937" d="M117 776q0 228 112.5 416.5t308 296.5t431.5 108t431.5 -108t308 -296.5t112.5 -416.5q0 -164 -67 -311.5t-180.5 -253.5t-271.5 -168.5t-333 -62.5t-333 62.5t-271.5 168.5t-180.5 253.5t-67 311.5zM383 770q0 -312 158 -495t428 -183q269 0 427 183t158 495 q0 329 -157.5 522t-427.5 193t-428 -193t-158 -522zM621 1733q17 104 77 168.5t140 64.5q55 0 160.5 -47t156.5 -47q38 0 59.5 19.5t36.5 66.5h68q-10 -103 -69 -172.5t-136 -69.5q-54 0 -165 49.5t-167 49.5q-38 0 -58 -18t-34 -64h-69z" />
<glyph unicode="&#xd6;" horiz-adv-x="1937" d="M117 776q0 228 112.5 416.5t308 296.5t431.5 108t431.5 -108t308 -296.5t112.5 -416.5q0 -164 -67 -311.5t-180.5 -253.5t-271.5 -168.5t-333 -62.5t-333 62.5t-271.5 168.5t-180.5 253.5t-67 311.5zM383 770q0 -312 158 -495t428 -183q269 0 427 183t158 495 q0 329 -157.5 522t-427.5 193t-428 -193t-158 -522zM682 1864q0 43 29.5 72.5t72.5 29.5q44 0 74.5 -29.5t30.5 -72.5q0 -44 -30.5 -74.5t-74.5 -30.5q-43 0 -72.5 30.5t-29.5 74.5zM1055 1864q0 43 30 72.5t74 29.5q43 0 73 -29.5t30 -72.5q0 -44 -30 -74.5t-73 -30.5 q-44 0 -74 30.5t-30 74.5z" />
<glyph unicode="&#xd7;" horiz-adv-x="1062" d="M139 377l318 317l-316 316l72 71l315 -315l318 317l76 -75l-318 -318l316 -315l-72 -72l-316 315l-317 -317z" />
<glyph unicode="&#xd8;" horiz-adv-x="1937" d="M117 776q0 228 112.5 416.5t308 296.5t431.5 108q249 0 454 -122l179 225h141l-227 -289q143 -115 224 -279.5t81 -355.5q0 -164 -67 -311.5t-180.5 -253.5t-271.5 -168.5t-333 -62.5q-265 0 -480 135l-221 -281h-139l272 344q-134 110 -209 265.5t-75 332.5zM383 770 q0 -280 125 -455l823 1043q-146 127 -362 127q-270 0 -428 -193t-158 -522zM582 231q151 -139 387 -139q269 0 427 183t158 495q0 316 -145 506z" />
<glyph unicode="&#xd9;" horiz-adv-x="1763" d="M59 1499v78h699v-78q-76 0 -116.5 -9.5t-63.5 -39.5q-27 -35 -36.5 -114t-9.5 -236v-557q0 -218 96.5 -327.5t317.5 -109.5q203 0 306.5 114t103.5 335v494q0 188 -14.5 280t-53.5 129q-26 25 -67 33t-111 8v78h594v-78q-71 0 -111 -11t-63 -44q-30 -41 -40.5 -130 t-10.5 -265v-414q0 -332 -138 -493.5t-452 -161.5q-155 0 -265 30t-186.5 98t-113.5 179.5t-37 271.5v541q0 173 -8 246t-41 108q-24 25 -65.5 35t-113.5 10zM635 1894q0 33 21 52.5t57 19.5q39 0 77.5 -15.5t100.5 -52.5l266 -157h-123l-246 57q-153 33 -153 96z" />
<glyph unicode="&#xda;" horiz-adv-x="1763" d="M59 1499v78h699v-78q-76 0 -116.5 -9.5t-63.5 -39.5q-27 -35 -36.5 -114t-9.5 -236v-557q0 -218 96.5 -327.5t317.5 -109.5q203 0 306.5 114t103.5 335v494q0 188 -14.5 280t-53.5 129q-26 25 -67 33t-111 8v78h594v-78q-71 0 -111 -11t-63 -44q-30 -41 -40.5 -130 t-10.5 -265v-414q0 -332 -138 -493.5t-452 -161.5q-155 0 -265 30t-186.5 98t-113.5 179.5t-37 271.5v541q0 173 -8 246t-41 108q-24 25 -65.5 35t-113.5 10zM735 1741l266 157q62 37 101 52.5t78 15.5q35 0 56 -19t21 -53q0 -63 -153 -96l-246 -57h-123z" />
<glyph unicode="&#xdb;" horiz-adv-x="1763" d="M59 1499v78h699v-78q-76 0 -116.5 -9.5t-63.5 -39.5q-27 -35 -36.5 -114t-9.5 -236v-557q0 -218 96.5 -327.5t317.5 -109.5q203 0 306.5 114t103.5 335v494q0 188 -14.5 280t-53.5 129q-26 25 -67 33t-111 8v78h594v-78q-71 0 -111 -11t-63 -44q-30 -41 -40.5 -130 t-10.5 -265v-414q0 -332 -138 -493.5t-452 -161.5q-155 0 -265 30t-186.5 98t-113.5 179.5t-37 271.5v541q0 173 -8 246t-41 108q-24 25 -65.5 35t-113.5 10zM604 1743l223 223h226l223 -223h-92l-244 110l-244 -110h-92z" />
<glyph unicode="&#xdc;" horiz-adv-x="1763" d="M59 1499v78h699v-78q-76 0 -116.5 -9.5t-63.5 -39.5q-27 -35 -36.5 -114t-9.5 -236v-557q0 -218 96.5 -327.5t317.5 -109.5q203 0 306.5 114t103.5 335v494q0 188 -14.5 280t-53.5 129q-26 25 -67 33t-111 8v78h594v-78q-71 0 -111 -11t-63 -44q-30 -41 -40.5 -130 t-10.5 -265v-414q0 -332 -138 -493.5t-452 -161.5q-155 0 -265 30t-186.5 98t-113.5 179.5t-37 271.5v541q0 173 -8 246t-41 108q-24 25 -65.5 35t-113.5 10zM651 1864q0 43 30 72.5t73 29.5q44 0 74 -29.5t30 -72.5q0 -44 -30 -74.5t-74 -30.5q-43 0 -73 30.5t-30 74.5z M1024 1864q0 43 30 72.5t74 29.5q43 0 73 -29.5t30 -72.5q0 -44 -30 -74.5t-73 -30.5q-44 0 -74 30.5t-30 74.5z" />
<glyph unicode="&#xdd;" horiz-adv-x="1501" d="M-10 1499v78h645v-78q-102 0 -144 -15.5t-42 -53.5q0 -45 47 -123l317 -543h8l232 389q121 204 121 277q0 38 -30 53.5t-104 15.5v78h469v-78q-60 0 -103 -26.5t-93.5 -94t-138.5 -215.5l-316 -532v-244q0 -71 2.5 -115.5t12 -82.5t23 -57t40.5 -32.5t60 -17.5t85 -4v-78 h-663v78q61 0 98.5 7.5t64.5 24t39.5 52.5t17.5 83.5t5 127.5v250l-410 700q-63 106 -111 141t-132 35zM569 1741l267 157q62 37 100.5 52.5t77.5 15.5q36 0 57 -19.5t21 -52.5q0 -63 -154 -96l-246 -57h-123z" />
<glyph unicode="&#xde;" horiz-adv-x="1431" d="M96 0v78q51 2 84 6t60 14.5t41.5 25.5t24.5 42.5t13 60.5t3 84v955q0 51 -3 84t-13 60.5t-24.5 42.5t-41.5 25.5t-60 14.5t-84 6v78h723v-78q-97 0 -149.5 -8.5t-84 -38t-40 -72.5t-8.5 -125v-34h223q277 0 434.5 -115.5t157.5 -304.5q0 -222 -148.5 -331.5 t-482.5 -109.5h-184v-38q0 -82 8.5 -125t40 -72.5t84 -38t149.5 -8.5v-78h-723zM537 463h145q206 0 304.5 80.5t98.5 257.5q0 170 -78 246.5t-247 76.5h-189q-34 0 -34 -34v-627z" />
<glyph unicode="&#xdf;" horiz-adv-x="1347" d="M49 0v78q62 0 93.5 7t52 34t25.5 69t5 125v887q0 233 124 366.5t343 133.5q190 0 311 -106.5t121 -274.5q0 -301 -295 -363v-10q180 0 300 -142t120 -358q0 -199 -125 -332.5t-305 -133.5q-104 0 -164.5 45.5t-60.5 117.5q0 45 20.5 72t51.5 27q57 0 84 -70 q2 -5 7.5 -19.5t8 -20t8 -17.5t11 -17t13 -12t16.5 -9.5t20 -2.5q70 0 120 105.5t50 260.5q0 202 -96 327.5t-283 125.5v104q131 0 192.5 72.5t61.5 226.5q0 149 -54.5 225t-160.5 76q-157 0 -213 -124q-33 -70 -33 -261v-882q0 -105 11 -157t38 -73.5t82 -21.5v-78h-500z " />
<glyph unicode="&#xe0;" horiz-adv-x="1134" d="M88 223q0 102 76 183.5t256 158.5l295 129v84q0 128 -52 189t-161 61q-70 0 -99.5 -26t-56.5 -107q-23 -58 -44.5 -78t-61.5 -20q-50 0 -76.5 26.5t-26.5 75.5q0 98 105 152.5t297 54.5q205 0 290.5 -72.5t85.5 -247.5v-458q0 -234 93 -234q73 0 100 45l29 -49 q-25 -47 -90.5 -78.5t-137.5 -31.5q-88 0 -133 56.5t-45 162.5h-10q-55 -101 -149 -159t-207 -58q-127 0 -202 66t-75 175zM266 1573q0 33 21 52.5t57 19.5q63 0 137 -68l267 -244h-97l-280 133q-105 49 -105 107zM295 258q0 -68 45.5 -111t118.5 -43q106 0 181 100t75 240 v162q-227 -86 -323.5 -169.5t-96.5 -178.5z" />
<glyph unicode="&#xe1;" horiz-adv-x="1134" d="M88 223q0 102 76 183.5t256 158.5l295 129v84q0 128 -52 189t-161 61q-70 0 -99.5 -26t-56.5 -107q-23 -58 -44.5 -78t-61.5 -20q-50 0 -76.5 26.5t-26.5 75.5q0 98 105 152.5t297 54.5q205 0 290.5 -72.5t85.5 -247.5v-458q0 -234 93 -234q73 0 100 45l29 -49 q-25 -47 -90.5 -78.5t-137.5 -31.5q-88 0 -133 56.5t-45 162.5h-10q-55 -101 -149 -159t-207 -58q-127 0 -202 66t-75 175zM295 258q0 -68 45.5 -111t118.5 -43q106 0 181 100t75 240v162q-227 -86 -323.5 -169.5t-96.5 -178.5zM358 1333l267 244q74 68 137 68 q36 0 57 -19.5t21 -52.5q0 -58 -105 -107l-280 -133h-97z" />
<glyph unicode="&#xe2;" horiz-adv-x="1134" d="M88 223q0 102 76 183.5t256 158.5l295 129v84q0 128 -52 189t-161 61q-70 0 -99.5 -26t-56.5 -107q-23 -58 -44.5 -78t-61.5 -20q-50 0 -76.5 26.5t-26.5 75.5q0 98 105 152.5t297 54.5q205 0 290.5 -72.5t85.5 -247.5v-458q0 -234 93 -234q73 0 100 45l29 -49 q-25 -47 -90.5 -78.5t-137.5 -31.5q-88 0 -133 56.5t-45 162.5h-10q-55 -101 -149 -159t-207 -58q-127 0 -202 66t-75 175zM207 1333l244 264h184l244 -264h-93l-243 140l-244 -140h-92zM295 258q0 -68 45.5 -111t118.5 -43q106 0 181 100t75 240v162 q-227 -86 -323.5 -169.5t-96.5 -178.5z" />
<glyph unicode="&#xe3;" horiz-adv-x="1134" d="M88 223q0 102 76 183.5t256 158.5l295 129v84q0 128 -52 189t-161 61q-70 0 -99.5 -26t-56.5 -107q-23 -58 -44.5 -78t-61.5 -20q-50 0 -76.5 26.5t-26.5 75.5q0 98 105 152.5t297 54.5q205 0 290.5 -72.5t85.5 -247.5v-458q0 -234 93 -234q73 0 100 45l29 -49 q-25 -47 -90.5 -78.5t-137.5 -31.5q-88 0 -133 56.5t-45 162.5h-10q-55 -101 -149 -159t-207 -58q-127 0 -202 66t-75 175zM195 1352q17 104 77 168.5t140 64.5q55 0 160.5 -47t156.5 -47q38 0 59.5 19.5t36.5 66.5h68q-10 -103 -69 -172.5t-136 -69.5q-54 0 -165 49.5 t-167 49.5q-38 0 -58 -18t-34 -64h-69zM295 258q0 -68 45.5 -111t118.5 -43q106 0 181 100t75 240v162q-227 -86 -323.5 -169.5t-96.5 -178.5z" />
<glyph unicode="&#xe4;" horiz-adv-x="1134" d="M88 223q0 102 76 183.5t256 158.5l295 129v84q0 128 -52 189t-161 61q-70 0 -99.5 -26t-56.5 -107q-23 -58 -44.5 -78t-61.5 -20q-50 0 -76.5 26.5t-26.5 75.5q0 98 105 152.5t297 54.5q205 0 290.5 -72.5t85.5 -247.5v-458q0 -234 93 -234q73 0 100 45l29 -49 q-25 -47 -90.5 -78.5t-137.5 -31.5q-88 0 -133 56.5t-45 162.5h-10q-55 -101 -149 -159t-207 -58q-127 0 -202 66t-75 175zM254 1452q0 51 34 85t85 34t85 -34t34 -85t-34 -85t-85 -34t-85 34t-34 85zM295 258q0 -68 45.5 -111t118.5 -43q106 0 181 100t75 240v162 q-227 -86 -323.5 -169.5t-96.5 -178.5zM596 1452q0 51 34 85t85 34t85 -34t34 -85t-34 -85t-85 -34t-85 34t-34 85z" />
<glyph unicode="&#xe5;" horiz-adv-x="1134" d="M88 223q0 102 76 183.5t256 158.5l295 129v84q0 128 -52 189t-161 61q-70 0 -99.5 -26t-56.5 -107q-23 -58 -44.5 -78t-61.5 -20q-50 0 -76.5 26.5t-26.5 75.5q0 98 105 152.5t297 54.5q205 0 290.5 -72.5t85.5 -247.5v-458q0 -234 93 -234q73 0 100 45l29 -49 q-25 -47 -90.5 -78.5t-137.5 -31.5q-88 0 -133 56.5t-45 162.5h-10q-55 -101 -149 -159t-207 -58q-127 0 -202 66t-75 175zM295 258q0 -68 45.5 -111t118.5 -43q106 0 181 100t75 240v162q-227 -86 -323.5 -169.5t-96.5 -178.5zM381 1520q0 78 50.5 129t125.5 51 q78 0 129 -51t51 -129q0 -75 -51 -126t-129 -51q-75 0 -125.5 51t-50.5 126zM461 1520q0 -41 27.5 -69t68.5 -28q40 0 66 28t26 69q0 40 -26 66t-66 26q-41 0 -68.5 -26t-27.5 -66z" />
<glyph unicode="&#xe6;" horiz-adv-x="1744" d="M88 223q0 112 81.5 195.5t250.5 146.5l295 109v104q0 129 -52.5 189.5t-164.5 60.5q-64 0 -93 -26.5t-59 -106.5q-21 -58 -43 -78t-61 -20q-51 0 -78 26t-27 76q0 98 106 152.5t298 54.5q139 0 220.5 -33.5t119.5 -107.5q141 141 360 141q192 0 301 -110t109 -302 q0 -24 -14 -34.5t-50 -10.5h-633q-8 -24 -8 -90q0 -219 88 -346t240 -127q159 0 305 162l63 -58q-180 -210 -425 -210q-149 0 -263 69t-176 193q-57 -124 -162.5 -192t-242.5 -68q-132 0 -208.5 64.5t-76.5 176.5zM295 258q0 -68 46 -111t118 -43q104 0 180 88t76 211v183 q-222 -82 -321 -159t-99 -169zM969 743h336q81 0 101.5 9.5t20.5 46.5q0 94 -60.5 151.5t-158.5 57.5t-156 -65t-83 -200z" />
<glyph unicode="&#xe7;" horiz-adv-x="1097" d="M100 535q0 260 157 415.5t413 155.5q158 0 259 -50.5t101 -129.5q0 -40 -27 -63t-73 -23q-38 0 -63 16.5t-62 67.5q-40 48 -78.5 67t-97.5 19q-145 0 -220 -113.5t-75 -331.5q0 -233 83.5 -356t241.5 -123q170 0 316 143l61 -59q-67 -83 -171.5 -131.5t-227.5 -56.5 l-47 -129q254 0 254 -177q0 -96 -69.5 -152t-188.5 -56q-104 0 -170 43t-66 112q0 35 17 54.5t47 19.5q21 0 34.5 -13.5t32.5 -52.5q19 -43 38.5 -59t53.5 -16q45 0 74 28.5t29 73.5q0 54 -42 82.5t-120 28.5q-22 0 -72 -5l-6 11l90 209q-192 23 -309 172.5t-117 378.5z" />
<glyph unicode="&#xe8;" horiz-adv-x="1173" d="M100 530q0 252 157.5 414t404.5 162q197 0 306 -108.5t109 -307.5q0 -27 -10.5 -34t-52.5 -7h-674q-8 -31 -8 -92q0 -214 99 -342.5t263 -128.5q166 0 312 162l63 -58q-175 -210 -432 -210q-239 0 -388 152t-149 398zM354 743h377q82 0 102.5 10t20.5 48q0 94 -61 150.5 t-164 56.5q-109 0 -179 -67.5t-96 -197.5zM432 1573q0 33 21 52.5t57 19.5q63 0 137 -68l266 -244h-96l-280 133q-105 49 -105 107z" />
<glyph unicode="&#xe9;" horiz-adv-x="1173" d="M100 530q0 252 157.5 414t404.5 162q197 0 306 -108.5t109 -307.5q0 -27 -10.5 -34t-52.5 -7h-674q-8 -31 -8 -92q0 -214 99 -342.5t263 -128.5q166 0 312 162l63 -58q-175 -210 -432 -210q-239 0 -388 152t-149 398zM354 743h377q82 0 102.5 10t20.5 48q0 94 -61 150.5 t-164 56.5q-109 0 -179 -67.5t-96 -197.5zM492 1333l266 244q74 68 137 68q36 0 57 -19.5t21 -52.5q0 -58 -105 -107l-280 -133h-96z" />
<glyph unicode="&#xea;" horiz-adv-x="1173" d="M100 530q0 252 157.5 414t404.5 162q197 0 306 -108.5t109 -307.5q0 -27 -10.5 -34t-52.5 -7h-674q-8 -31 -8 -92q0 -214 99 -342.5t263 -128.5q166 0 312 162l63 -58q-175 -210 -432 -210q-239 0 -388 152t-149 398zM305 1333l244 264h184l244 -264h-92l-244 140 l-244 -140h-92zM354 743h377q82 0 102.5 10t20.5 48q0 94 -61 150.5t-164 56.5q-109 0 -179 -67.5t-96 -197.5z" />
<glyph unicode="&#xeb;" horiz-adv-x="1173" d="M100 530q0 252 157.5 414t404.5 162q197 0 306 -108.5t109 -307.5q0 -27 -10.5 -34t-52.5 -7h-674q-8 -31 -8 -92q0 -214 99 -342.5t263 -128.5q166 0 312 162l63 -58q-175 -210 -432 -210q-239 0 -388 152t-149 398zM352 1452q0 51 34 85t85 34t85 -34t34 -85t-34 -85 t-85 -34t-85 34t-34 85zM354 743h377q82 0 102.5 10t20.5 48q0 94 -61 150.5t-164 56.5q-109 0 -179 -67.5t-96 -197.5zM694 1452q0 51 34 85t85 34t85 -34t34 -85t-34 -85t-85 -34t-85 34t-34 85z" />
<glyph unicode="&#xec;" horiz-adv-x="698" d="M39 1573q0 33 21 52.5t57 19.5q63 0 137 -68l266 -244h-96l-281 133q-104 49 -104 107zM66 952v76l401 78v-774q0 -67 4.5 -108t15 -71.5t34 -45.5t54.5 -22t82 -9v-76h-587v76q86 4 126 24t55 67t15 148v254q0 247 -14 299q-9 50 -47 67t-139 17z" />
<glyph unicode="&#xed;" horiz-adv-x="698" d="M66 952v76l401 78v-774q0 -67 4.5 -108t15 -71.5t34 -45.5t54.5 -22t82 -9v-76h-587v76q86 4 126 24t55 67t15 148v254q0 247 -14 299q-9 50 -47 67t-139 17zM184 1333l267 244q74 68 137 68q36 0 57 -19.5t21 -52.5q0 -58 -105 -107l-280 -133h-97z" />
<glyph unicode="&#xee;" horiz-adv-x="698" d="M33 1333l243 264h185l244 -264h-93l-243 140l-244 -140h-92zM66 952v76l401 78v-774q0 -67 4.5 -108t15 -71.5t34 -45.5t54.5 -22t82 -9v-76h-587v76q86 4 126 24t55 67t15 148v254q0 247 -14 299q-9 50 -47 67t-139 17z" />
<glyph unicode="&#xef;" horiz-adv-x="698" d="M66 952v76l401 78v-774q0 -67 4.5 -108t15 -71.5t34 -45.5t54.5 -22t82 -9v-76h-587v76q86 4 126 24t55 67t15 148v254q0 247 -14 299q-9 50 -47 67t-139 17zM80 1452q0 51 34 85t85 34t84.5 -34t33.5 -85t-33.5 -85t-84.5 -34t-85 34t-34 85zM422 1452q0 51 34 85t85 34 t84.5 -34t33.5 -85t-33.5 -85t-84.5 -34t-85 34t-34 85z" />
<glyph unicode="&#xf0;" horiz-adv-x="1310" d="M102 500q0 218 147 369t365 151q109 0 190 -45t124 -131l6 4q-81 319 -258 487l-266 -153l-50 65l248 146q-87 67 -280 135l39 69q235 -69 354 -139l266 154l51 -66l-239 -139q178 -125 278.5 -333.5t100.5 -442.5q0 -141 -41.5 -262t-113.5 -206.5t-173.5 -134 t-218.5 -48.5q-147 0 -268 67t-191 186.5t-70 266.5zM358 500q0 -202 73 -315t202 -113q131 0 208 115t77 313q0 195 -76 307.5t-207 112.5t-204 -111t-73 -309z" />
<glyph unicode="&#xf1;" horiz-adv-x="1411" d="M72 963v65l327 78l25 -203h8q77 96 183.5 149.5t226.5 53.5q93 0 171.5 -31t119.5 -84q35 -47 49 -121t14 -206v-342q0 -60 1.5 -95t8.5 -65.5t16.5 -45t30.5 -25.5t44.5 -14.5t64.5 -6.5v-70h-531v70q41 2 66 5.5t46 14.5t31 25t17 42.5t8.5 61.5t1.5 88v271 q0 231 -52.5 324t-180.5 93q-91 0 -168.5 -48.5t-120.5 -131.5q-22 -43 -29.5 -84t-7.5 -135v-274q0 -61 1 -95t8 -65.5t16.5 -45t31 -25t46 -15t67.5 -6.5v-70h-536v70q62 4 92 11.5t50.5 34.5t25 68t4.5 123v273q0 244 -12 297q-12 55 -42.5 70.5t-121.5 15.5zM358 1352 q17 104 77 168.5t140 64.5q55 0 161 -47t157 -47q38 0 59.5 19.5t36.5 66.5h68q-10 -103 -69 -172.5t-136 -69.5q-54 0 -165 49.5t-167 49.5q-38 0 -58 -18t-34 -64h-70z" />
<glyph unicode="&#xf2;" d="M98 551q0 158 78 286t207.5 198.5t282.5 70.5q115 0 220.5 -42t183.5 -114.5t124.5 -176.5t46.5 -222q0 -162 -79 -294t-210 -204.5t-286 -72.5q-153 0 -282.5 72t-207.5 204t-78 295zM330 549q0 -212 91 -338.5t245 -126.5q157 0 250.5 127t93.5 338q0 205 -94.5 332 t-249.5 127q-152 0 -244 -126.5t-92 -332.5zM430 1573q0 33 21 52.5t57 19.5q63 0 137 -68l266 -244h-96l-280 133q-105 49 -105 107z" />
<glyph unicode="&#xf3;" d="M98 551q0 158 78 286t207.5 198.5t282.5 70.5q115 0 220.5 -42t183.5 -114.5t124.5 -176.5t46.5 -222q0 -162 -79 -294t-210 -204.5t-286 -72.5q-153 0 -282.5 72t-207.5 204t-78 295zM330 549q0 -212 91 -338.5t245 -126.5q157 0 250.5 127t93.5 338q0 205 -94.5 332 t-249.5 127q-152 0 -244 -126.5t-92 -332.5zM481 1333l267 244q74 68 137 68q36 0 57 -19.5t21 -52.5q0 -58 -105 -107l-280 -133h-97z" />
<glyph unicode="&#xf4;" d="M98 551q0 158 78 286t207.5 198.5t282.5 70.5q115 0 220.5 -42t183.5 -114.5t124.5 -176.5t46.5 -222q0 -162 -79 -294t-210 -204.5t-286 -72.5q-153 0 -282.5 72t-207.5 204t-78 295zM330 549q0 -212 91 -338.5t245 -126.5q157 0 250.5 127t93.5 338q0 205 -94.5 332 t-249.5 127q-152 0 -244 -126.5t-92 -332.5zM330 1333l243 264h185l243 -264h-92l-243 140l-244 -140h-92z" />
<glyph unicode="&#xf5;" d="M98 551q0 158 78 286t207.5 198.5t282.5 70.5q115 0 220.5 -42t183.5 -114.5t124.5 -176.5t46.5 -222q0 -162 -79 -294t-210 -204.5t-286 -72.5q-153 0 -282.5 72t-207.5 204t-78 295zM301 1352q17 104 77 168.5t140 64.5q55 0 161 -47t157 -47q38 0 59.5 19.5t36.5 66.5 h67q-11 -103 -69.5 -172.5t-134.5 -69.5q-54 0 -165 49.5t-167 49.5q-38 0 -58 -18t-34 -64h-70zM330 549q0 -212 91 -338.5t245 -126.5q157 0 250.5 127t93.5 338q0 205 -94.5 332t-249.5 127q-152 0 -244 -126.5t-92 -332.5z" />
<glyph unicode="&#xf6;" d="M98 551q0 158 78 286t207.5 198.5t282.5 70.5q115 0 220.5 -42t183.5 -114.5t124.5 -176.5t46.5 -222q0 -162 -79 -294t-210 -204.5t-286 -72.5q-153 0 -282.5 72t-207.5 204t-78 295zM330 549q0 -212 91 -338.5t245 -126.5q157 0 250.5 127t93.5 338q0 205 -94.5 332 t-249.5 127q-152 0 -244 -126.5t-92 -332.5zM377 1452q0 51 34 85t85 34t84.5 -34t33.5 -85t-33.5 -85t-84.5 -34t-85 34t-34 85zM719 1452q0 51 34 85t85 34t84.5 -34t33.5 -85t-33.5 -85t-84.5 -34t-85 34t-34 85z" />
<glyph unicode="&#xf7;" horiz-adv-x="1226" d="M135 641v102h959v-102h-959zM485 332q0 57 38.5 96t94.5 39q57 0 96.5 -39t39.5 -96q0 -56 -39.5 -94.5t-96.5 -38.5q-56 0 -94.5 38.5t-38.5 94.5zM485 1049q0 57 38.5 96t94.5 39q57 0 96.5 -39t39.5 -96q0 -56 -39.5 -95t-96.5 -39q-55 0 -94 39t-39 95z" />
<glyph unicode="&#xf8;" horiz-adv-x="1333" d="M82 -125l197 250q-86 79 -134.5 188.5t-48.5 237.5q0 158 78 286t207.5 198.5t282.5 70.5q174 0 317 -92l158 198h141l-211 -266q80 -76 125 -177t45 -218q0 -162 -79 -294t-210 -204.5t-286 -72.5q-161 0 -297 79l-146 -184h-139zM328 549q0 -172 59 -287l506 641 q-91 105 -229 105q-152 0 -244 -126.5t-92 -332.5zM453 168q84 -84 211 -84q157 0 250.5 127t93.5 338q0 143 -52 256z" />
<glyph unicode="&#xf9;" horiz-adv-x="1372" d="M43 1014v71h371v-559q0 -221 52.5 -322.5t166.5 -101.5q178 0 280 236q21 49 28 91.5t7 127.5v201q0 46 -0.5 74.5t-4 57t-7.5 43.5t-14 30t-20.5 22t-30.5 13.5t-40 9.5t-53 6v71h371v-628q0 -228 12 -301q9 -52 40 -67t126 -15v-72l-338 -25l-22 246h-9 q-76 -122 -176.5 -182.5t-214.5 -60.5q-88 0 -167.5 32.5t-120.5 87.5q-66 87 -66 332v326q0 62 -1 96t-8 65.5t-16 45t-31 25.5t-46 16t-68 8zM365 1573q0 34 21 53t56 19q64 0 138 -68l266 -244h-96l-281 133q-104 49 -104 107z" />
<glyph unicode="&#xfa;" horiz-adv-x="1372" d="M43 1014v71h371v-559q0 -221 52.5 -322.5t166.5 -101.5q178 0 280 236q21 49 28 91.5t7 127.5v201q0 46 -0.5 74.5t-4 57t-7.5 43.5t-14 30t-20.5 22t-30.5 13.5t-40 9.5t-53 6v71h371v-628q0 -228 12 -301q9 -52 40 -67t126 -15v-72l-338 -25l-22 246h-9 q-76 -122 -176.5 -182.5t-214.5 -60.5q-88 0 -167.5 32.5t-120.5 87.5q-66 87 -66 332v326q0 62 -1 96t-8 65.5t-16 45t-31 25.5t-46 16t-68 8zM457 1333l266 244q74 68 137 68q36 0 57 -19.5t21 -52.5q0 -58 -104 -107l-281 -133h-96z" />
<glyph unicode="&#xfb;" horiz-adv-x="1372" d="M43 1014v71h371v-559q0 -221 52.5 -322.5t166.5 -101.5q178 0 280 236q21 49 28 91.5t7 127.5v201q0 46 -0.5 74.5t-4 57t-7.5 43.5t-14 30t-20.5 22t-30.5 13.5t-40 9.5t-53 6v71h371v-628q0 -228 12 -301q9 -52 40 -67t126 -15v-72l-338 -25l-22 246h-9 q-76 -122 -176.5 -182.5t-214.5 -60.5q-88 0 -167.5 32.5t-120.5 87.5q-66 87 -66 332v326q0 62 -1 96t-8 65.5t-16 45t-31 25.5t-46 16t-68 8zM305 1333l244 264h184l244 -264h-92l-244 140l-244 -140h-92z" />
<glyph unicode="&#xfc;" horiz-adv-x="1372" d="M43 1014v71h371v-559q0 -221 52.5 -322.5t166.5 -101.5q178 0 280 236q21 49 28 91.5t7 127.5v201q0 46 -0.5 74.5t-4 57t-7.5 43.5t-14 30t-20.5 22t-30.5 13.5t-40 9.5t-53 6v71h371v-628q0 -228 12 -301q9 -52 40 -67t126 -15v-72l-338 -25l-22 246h-9 q-76 -122 -176.5 -182.5t-214.5 -60.5q-88 0 -167.5 32.5t-120.5 87.5q-66 87 -66 332v326q0 62 -1 96t-8 65.5t-16 45t-31 25.5t-46 16t-68 8zM352 1452q0 51 34 85t85 34t85 -34t34 -85t-34 -85t-85 -34t-85 34t-34 85zM694 1452q0 51 34 85t85 34t85 -34t34 -85t-34 -85 t-85 -34t-85 34t-34 85z" />
<glyph unicode="&#xfd;" horiz-adv-x="1308" d="M8 1014v71h543v-71q-137 0 -137 -68q0 -63 57 -201l225 -544h11l186 461q55 132 70.5 180t15.5 82q0 54 -29 72t-114 18v71h450v-71q-27 0 -45.5 -3.5t-39 -18t-36 -34.5t-38.5 -62t-46 -92t-59 -132l-447 -994q-94 -210 -292 -210q-129 0 -129 96q0 51 35.5 75t132.5 39 q84 13 127.5 46t82.5 110l72 143l-393 854q-53 115 -87.5 146t-115.5 37zM530 1333l267 244q74 68 137 68q36 0 57 -19.5t21 -52.5q0 -58 -105 -107l-280 -133h-97z" />
<glyph unicode="&#xfe;" d="M-6 -440q64 2 99.5 11.5t57.5 38t28.5 71t6.5 120.5v1436q0 207 -26 264q-14 30 -41 41.5t-121 24.5v51l385 82v-760h8q66 86 145.5 126t182.5 40q145 0 265 -74t188.5 -203.5t68.5 -285.5q0 -241 -152 -403.5t-376 -162.5q-200 0 -322 138v-299q0 -86 7 -131.5t34.5 -75 t69.5 -38.5t123 -11v-72h-631v72zM387 428q0 -154 85.5 -253t217.5 -99q143 0 231.5 127t88.5 334q0 209 -91.5 341t-236.5 132q-83 0 -148.5 -40.5t-101.5 -111.5q-45 -88 -45 -248v-182z" />
<glyph unicode="&#xff;" horiz-adv-x="1308" d="M8 1014v71h543v-71q-137 0 -137 -68q0 -63 57 -201l225 -544h11l186 461q55 132 70.5 180t15.5 82q0 54 -29 72t-114 18v71h450v-71q-27 0 -45.5 -3.5t-39 -18t-36 -34.5t-38.5 -62t-46 -92t-59 -132l-447 -994q-94 -210 -292 -210q-129 0 -129 96q0 51 35.5 75t132.5 39 q84 13 127.5 46t82.5 110l72 143l-393 854q-53 115 -87.5 146t-115.5 37zM426 1452q0 51 34 85t85 34t85 -34t34 -85t-34 -85t-85 -34t-85 34t-34 85zM768 1452q0 51 34 85t85 34t85 -34t34 -85t-34 -85t-85 -34t-85 34t-34 85z" />
<glyph unicode="&#x152;" horiz-adv-x="2359" d="M119 776q0 222 112.5 406t308 289.5t431.5 105.5h1198l18 -360h-71q-24 160 -113.5 216t-302.5 56h-260q-17 0 -26 -9.5t-9 -25.5v-588q208 0 297.5 49.5t89.5 186.5h72v-559h-72q0 73 -20.5 119.5t-69.5 73.5t-118 37t-179 11v-462q0 -133 73 -183.5t267 -50.5 q217 0 310.5 66.5t133.5 248.5h78l-31 -403h-1271q-175 0 -332 61t-269.5 164.5t-178.5 247.5t-66 303zM385 770q0 -316 158 -500t428 -184q51 0 83.5 3t58.5 13t40 24t23 41.5t11.5 59.5t2.5 84v955q0 97 -19 145t-63.5 66t-136.5 18q-271 0 -428.5 -194.5t-157.5 -530.5z " />
<glyph unicode="&#x153;" horiz-adv-x="2082" d="M98 551q0 158 78 286t207.5 198.5t282.5 70.5q135 0 255.5 -57t200.5 -156q75 101 190.5 157t258.5 56q197 0 306.5 -108.5t109.5 -307.5q0 -27 -11 -34t-53 -7h-674q-8 -31 -8 -92v-22q5 -204 103.5 -326.5t259.5 -122.5q85 0 160 39t151 123l63 -58 q-175 -210 -432 -210q-140 0 -251.5 53.5t-182.5 152.5q-80 -97 -197 -151.5t-249 -54.5q-153 0 -282.5 72t-207.5 204t-78 295zM330 549q0 -212 91 -338.5t245 -126.5q152 0 245.5 121.5t98.5 324.5v19q0 205 -94.5 332t-249.5 127q-152 0 -244 -126.5t-92 -332.5z M1264 743h376q82 0 102.5 10t20.5 48q0 94 -61 150.5t-164 56.5q-109 0 -178.5 -67t-95.5 -198z" />
<glyph unicode="&#x178;" horiz-adv-x="1501" d="M-10 1499v78h645v-78q-102 0 -144 -15.5t-42 -53.5q0 -45 47 -123l317 -543h8l232 389q121 204 121 277q0 38 -30 53.5t-104 15.5v78h469v-78q-60 0 -103 -26.5t-93.5 -94t-138.5 -215.5l-316 -532v-244q0 -71 2.5 -115.5t12 -82.5t23 -57t40.5 -32.5t60 -17.5t85 -4v-78 h-663v78q61 0 98.5 7.5t64.5 24t39.5 52.5t17.5 83.5t5 127.5v250l-410 700q-63 106 -111 141t-132 35zM547 1864q0 43 29.5 72.5t72.5 29.5q44 0 74.5 -29.5t30.5 -72.5q0 -44 -30.5 -74.5t-74.5 -30.5q-43 0 -72.5 30.5t-29.5 74.5zM920 1864q0 43 30 72.5t74 29.5 q43 0 72.5 -29.5t29.5 -72.5q0 -44 -29.5 -74.5t-72.5 -30.5q-44 0 -74 30.5t-30 74.5z" />
<glyph unicode="&#x2c6;" horiz-adv-x="753" d="M41 1333l244 264h184l244 -264h-92l-244 140l-244 -140h-92z" />
<glyph unicode="&#x2dc;" horiz-adv-x="780" d="M41 1352q17 104 77 168.5t140 64.5q55 0 160.5 -47t156.5 -47q38 0 60 19.5t37 66.5h67q-11 -103 -69.5 -172.5t-134.5 -69.5q-54 0 -165 49.5t-167 49.5q-38 0 -58 -18t-34 -64h-70z" />
<glyph unicode="&#x2000;" horiz-adv-x="983" />
<glyph unicode="&#x2001;" horiz-adv-x="1966" />
<glyph unicode="&#x2002;" horiz-adv-x="983" />
<glyph unicode="&#x2003;" horiz-adv-x="1966" />
<glyph unicode="&#x2004;" horiz-adv-x="655" />
<glyph unicode="&#x2005;" horiz-adv-x="491" />
<glyph unicode="&#x2006;" horiz-adv-x="327" />
<glyph unicode="&#x2007;" horiz-adv-x="327" />
<glyph unicode="&#x2008;" horiz-adv-x="245" />
<glyph unicode="&#x2009;" horiz-adv-x="393" />
<glyph unicode="&#x200a;" horiz-adv-x="109" />
<glyph unicode="&#x2010;" horiz-adv-x="948" d="M158 508v170h633v-170h-633z" />
<glyph unicode="&#x2011;" horiz-adv-x="948" d="M158 508v170h633v-170h-633z" />
<glyph unicode="&#x2012;" horiz-adv-x="948" d="M158 508v170h633v-170h-633z" />
<glyph unicode="&#x2013;" horiz-adv-x="1482" d="M158 508v170h1167v-170h-1167z" />
<glyph unicode="&#x2014;" horiz-adv-x="2277" d="M158 508v170h1962v-170h-1962z" />
<glyph unicode="&#x2018;" horiz-adv-x="526" d="M115 1337q0 105 52 183t191 180l48 -55q-93 -70 -134 -135.5t-41 -143.5q26 16 62 16q47 0 76.5 -31t29.5 -81q0 -56 -38 -90.5t-101 -34.5q-71 0 -108 49t-37 143z" />
<glyph unicode="&#x2019;" horiz-adv-x="520" d="M131 1200q93 70 133.5 135.5t40.5 143.5q-27 -17 -61 -17q-47 0 -77 31.5t-30 81.5q0 56 38 90.5t101 34.5q71 0 108.5 -49.5t37.5 -143.5q0 -104 -52 -181.5t-192 -180.5z" />
<glyph unicode="&#x201a;" horiz-adv-x="563" d="M135 -283q93 70 133.5 135.5t40.5 143.5q-26 -16 -61 -16q-47 0 -77 31.5t-30 80.5q0 56 38.5 90.5t101.5 34.5q71 0 108 -49t37 -143q0 -104 -52.5 -182t-191.5 -181z" />
<glyph unicode="&#x201c;" horiz-adv-x="919" d="M115 1337q0 105 52 183t191 180l48 -55q-93 -70 -134 -135.5t-41 -143.5q26 16 62 16q47 0 76.5 -31t29.5 -81q0 -56 -38 -90.5t-101 -34.5q-71 0 -108 49t-37 143zM508 1337q0 104 52.5 182t191.5 181l47 -55q-93 -70 -133.5 -135.5t-40.5 -143.5q26 16 61 16 q47 0 77 -31.5t30 -80.5q0 -56 -38.5 -90.5t-101.5 -34.5q-71 0 -108 49t-37 143z" />
<glyph unicode="&#x201d;" horiz-adv-x="913" d="M131 1200q93 70 133.5 135.5t40.5 143.5q-27 -17 -61 -17q-47 0 -77 31.5t-30 81.5q0 56 38 90.5t101 34.5q71 0 108.5 -49.5t37.5 -143.5q0 -104 -52 -181.5t-192 -180.5zM524 1200q93 70 133.5 135.5t40.5 143.5q-27 -17 -61 -17q-47 0 -77 31.5t-30 81.5 q0 56 38.5 90.5t101.5 34.5q70 0 107.5 -49.5t37.5 -143.5q0 -104 -52 -181.5t-192 -180.5z" />
<glyph unicode="&#x201e;" horiz-adv-x="956" d="M135 -283q93 70 133.5 135.5t40.5 143.5q-26 -16 -61 -16q-47 0 -77 31.5t-30 80.5q0 56 38.5 90.5t101.5 34.5q71 0 108 -49t37 -143q0 -104 -52.5 -182t-191.5 -181zM528 -283q93 70 133.5 135.5t40.5 143.5q-26 -16 -61 -16q-47 0 -76.5 31t-29.5 81q0 56 38 90.5 t101 34.5q71 0 108 -49t37 -143q0 -104 -52.5 -182t-191.5 -181z" />
<glyph unicode="&#x2022;" horiz-adv-x="974" d="M172 756q0 130 94.5 220.5t225.5 90.5q127 0 219 -91t92 -220q0 -130 -94 -222t-228 -92q-124 0 -216.5 92.5t-92.5 221.5z" />
<glyph unicode="&#x2026;" horiz-adv-x="1427" d="M137 113q0 57 38.5 96t94.5 39q57 0 96.5 -39t39.5 -96q0 -56 -39.5 -94.5t-96.5 -38.5q-56 0 -94.5 39t-38.5 94zM580 113q0 57 38.5 96t94.5 39q57 0 96 -39t39 -96q0 -56 -39 -94.5t-96 -38.5q-55 0 -94 39t-39 94zM1022 113q0 57 38.5 96t94.5 39q57 0 96 -39t39 -96 q0 -56 -39 -94.5t-96 -38.5q-55 0 -94 39t-39 94z" />
<glyph unicode="&#x202f;" horiz-adv-x="393" />
<glyph unicode="&#x2039;" horiz-adv-x="651" d="M100 537l349 325l40 -43l-202 -282l200 -283l-38 -41z" />
<glyph unicode="&#x203a;" horiz-adv-x="651" d="M162 819l41 43l348 -325l-348 -324l-39 41l201 283z" />
<glyph unicode="&#x205f;" horiz-adv-x="491" />
<glyph unicode="&#x20ac;" horiz-adv-x="1468" d="M86 881v118h184q52 284 217 441t402 157q96 0 159.5 -24.5t147.5 -99.5l35 104h57v-442h-88q-34 178 -111 271t-192 93q-152 0 -247 -126.5t-124 -373.5h473v-118h-479q-4 -58 -4 -88q0 -42 2 -60h481v-119h-477q0 -238 100.5 -387t260.5 -149q139 0 235 120.5t113 317.5 h88v-516h-70l-24 141q-136 -161 -359 -161q-232 0 -395 171.5t-207 462.5h-176v119h166q-2 20 -2 62q0 43 6 86h-172z" />
<glyph unicode="&#x2122;" horiz-adv-x="1814" d="M150 1421v156h618v-156h-43q-8 71 -31 91t-96 20q-78 0 -78 -35v-410q0 -60 22 -80t85 -20v-41h-330v41q63 0 84.5 20.5t21.5 79.5v410q0 35 -79 35q-77 0 -104 -22.5t-30 -88.5h-40zM817 946v41q58 0 74 21t16 98v311q0 71 -16.5 95t-65.5 24v41h222l186 -463h8l203 463 h205v-41q-49 0 -65.5 -25t-16.5 -100v-299q0 -80 16 -102.5t74 -22.5v-41h-277v41q58 0 74 22t16 97v369h-8l-239 -537h-17l-231 537h-8v-363q0 -82 15.5 -103.5t74.5 -21.5v-41h-240z" />
<glyph unicode="&#x25fc;" horiz-adv-x="1085" d="M0 0v1085h1085v-1085h-1085z" />
</font>
</defs>
</svg>
