<?xml version="1.0" standalone="no"?>
<!DOCTYPE svg PUBLIC "-//W3C//DTD SVG 1.1//EN" "http://www.w3.org/Graphics/SVG/1.1/DTD/svg11.dtd" >
<svg xmlns="http://www.w3.org/2000/svg" xmlns:xlink="http://www.w3.org/1999/xlink" version="1.1">
<metadata></metadata>
<defs>
<font id="encode_sansmedium" horiz-adv-x="1271" >
<font-face units-per-em="2048" ascent="1638" descent="-410" />
<missing-glyph horiz-adv-x="466" />
<glyph unicode="&#xfb01;" horiz-adv-x="1374" d="M31 909v197h239v53q0 145 27 240.5t91.5 153t172 83t268.5 31.5l13 -170q-102 -6 -169 -21.5t-106 -48t-54 -88t-15 -143.5v-90h293v-197h-293v-909h-230v909h-237zM979 1446q0 68 30.5 99.5t102.5 31.5t103.5 -33t31.5 -98q0 -66 -31.5 -98.5t-103.5 -32.5t-102.5 31.5 t-30.5 99.5zM997 0v1106h230v-1106h-230z" />
<glyph unicode="&#xfb02;" horiz-adv-x="1376" d="M31 909v197h239v53q0 145 27 240.5t91.5 153t172 83t268.5 31.5l13 -170q-102 -6 -169 -21.5t-106 -48t-54 -88t-15 -143.5v-90h293v-197h-293v-909h-230v909h-237zM995 0v1655h230v-1655h-230z" />
<glyph unicode="&#xfb03;" horiz-adv-x="2189" d="M31 909v197h239v53q0 145 27 240.5t91.5 153t172 83t268.5 31.5l13 -170q-102 -6 -169 -21.5t-106 -48t-54 -88t-15 -143.5v-90h293v-197h-293v-909h-230v909h-237zM848 909v197h239v53q0 145 27 240.5t91.5 153t172 83t269.5 31.5l12 -170q-102 -6 -169 -21.5 t-105.5 -48t-54 -88t-15.5 -143.5v-90h293v-197h-293v-909h-230v909h-237zM1794 1446q0 68 30.5 99.5t102.5 31.5t103.5 -33t31.5 -98q0 -66 -31.5 -98.5t-103.5 -32.5t-102.5 31.5t-30.5 99.5zM1812 0v1106h230v-1106h-230z" />
<glyph unicode="&#xfb04;" horiz-adv-x="2191" d="M31 909v197h239v53q0 145 27 240.5t91.5 153t172 83t268.5 31.5l13 -170q-102 -6 -169 -21.5t-106 -48t-54 -88t-15 -143.5v-90h293v-197h-293v-909h-230v909h-237zM848 909v197h239v53q0 145 27 240.5t91.5 153t172 83t269.5 31.5l12 -170q-102 -6 -169 -21.5 t-105.5 -48t-54 -88t-15.5 -143.5v-90h293v-197h-293v-909h-230v909h-237zM1812 0v1655h230v-1655h-230z" />
<glyph horiz-adv-x="0" />
<glyph unicode="&#xd;" horiz-adv-x="608" />
<glyph horiz-adv-x="0" />
<glyph horiz-adv-x="0" />
<glyph unicode=" "  horiz-adv-x="466" />
<glyph unicode="&#x09;" horiz-adv-x="466" />
<glyph unicode="&#xa0;" horiz-adv-x="466" />
<glyph unicode="!" horiz-adv-x="546" d="M152 119q0 59 32.5 91t91.5 32t93 -33t34 -90t-34 -89t-93 -32t-91.5 31.5t-32.5 89.5zM160 1495v21h227v-21l-43 -1057v-26h-141v26z" />
<glyph unicode="&#x22;" horiz-adv-x="817" d="M133 983v672h191v-8l-72 -664h-119zM526 983v672h191v-8l-72 -664h-119z" />
<glyph unicode="#" horiz-adv-x="1216" d="M98 438v154h197l27 328h-224v155h236l37 441h164l-37 -441h262l37 441h164l-37 -441h192v-155h-205l-26 -328h231v-154h-244l-34 -438h-166l35 438h-261l-34 -438h-164l35 438h-185zM459 592h260l29 328h-263z" />
<glyph unicode="$" horiz-adv-x="1226" d="M88 41v195q129 -33 257 -50.5t228 -17.5q340 0 340 225q0 63 -24.5 106.5t-68.5 74t-104.5 51t-133.5 39.5q-123 31 -211 69.5t-145.5 92t-85 125t-27.5 167.5q0 166 105.5 273.5t291.5 140.5v287h217v-277q74 -4 158 -16.5t190 -34.5v-193q-98 27 -204.5 41.5 t-192.5 14.5q-152 0 -238 -61.5t-86 -170.5q0 -104 75 -163.5t255 -104.5q106 -27 192.5 -61.5t147.5 -85t95 -123t34 -174.5q0 -180 -104.5 -288t-305.5 -136v-289h-213v280q-102 4 -219.5 20.5t-222.5 43.5z" />
<glyph unicode="%" horiz-adv-x="2060" d="M78 1053q0 242 100.5 362.5t290.5 120.5t289.5 -121t99.5 -362q0 -242 -99.5 -363t-289.5 -121q-193 0 -292 121t-99 363zM252 1053q0 -172 53 -251t164 -79t164 79t53 251q0 174 -53 252.5t-164 78.5t-164 -79.5t-53 -251.5zM575 0l705 1516h205l-707 -1516h-203z M1204 461q0 242 99.5 362.5t289.5 120.5t291 -121t101 -362q0 -242 -101 -363t-291 -121t-289.5 121t-99.5 363zM1376 461q0 -174 53 -252t164 -78t164 78t53 252t-53 253t-164 79t-164 -79t-53 -253z" />
<glyph unicode="&#x26;" horiz-adv-x="1531" d="M98 422q0 141 73 242.5t208 152.5q-66 78 -94.5 155t-28.5 169q0 193 131 297t373 104q172 0 389 -69l2 -13l-33 -153h-16q-180 66 -322 65q-291 0 -291 -248q0 -63 25 -120.5t77 -113.5t134 -114.5t199 -122.5l213 -118q12 76 12 165v164h211v-162q0 -78 -8.5 -145.5 t-24.5 -126.5l178 -98v-19l-88 -157h-18l-152 88q-168 -267 -565 -267q-135 0 -243.5 31t-183.5 88.5t-116 140t-41 185.5zM334 432q0 -133 98 -210t264 -77q274 0 381 197l-256 150q-190 109 -311 204q-176 -80 -176 -264z" />
<glyph unicode="'" horiz-adv-x="421" d="M133 983v672h191v-8l-72 -664h-119z" />
<glyph unicode="(" horiz-adv-x="638" d="M86 725q0 287 81 555t239 498h202v-9q-158 -225 -245 -491t-87 -553t87.5 -553t244.5 -491v-9h-202q-158 229 -239 498.5t-81 554.5z" />
<glyph unicode=")" horiz-adv-x="636" d="M31 -319q158 225 244.5 491t86.5 553t-87 553t-244 491v9h202q158 -229 238 -497.5t80 -555.5q0 -285 -80 -554t-238 -499h-202v9z" />
<glyph unicode="*" horiz-adv-x="1017" d="M86 1343l43 136l156 -49l192 -105l-39 219v160h142v-160l-39 -217l192 103l154 49l43 -136l-152 -49l-217 -26l158 -152l96 -133l-115 -82l-96 131l-96 203l-96 -203l-95 -131l-114 82l96 133l158 152l-217 26z" />
<glyph unicode="+" horiz-adv-x="1017" d="M90 680v156h340v342h156v-342h344v-156h-344v-342h-156v342h-340z" />
<glyph unicode="," horiz-adv-x="507" d="M61 -297l93 547h233l-151 -567z" />
<glyph unicode="-" horiz-adv-x="974" d="M131 483v181h713v-181h-713z" />
<glyph unicode="." horiz-adv-x="507" d="M115 123q0 68 36.5 100.5t102.5 32.5t103.5 -33t37.5 -100q0 -66 -37.5 -99.5t-103.5 -33.5t-102.5 33.5t-36.5 99.5z" />
<glyph unicode="/" horiz-adv-x="825" d="M59 -246l504 1762h203l-504 -1762h-203z" />
<glyph unicode="0" horiz-adv-x="1390" d="M104 756q0 389 153 584.5t439 195.5q287 0 438.5 -195.5t151.5 -584.5q0 -387 -151.5 -583t-438.5 -196t-439.5 196t-152.5 583zM336 756q0 -307 88 -446.5t272 -139.5q180 0 269.5 139.5t89.5 446.5t-89 447t-270 140q-182 0 -271 -140t-89 -447z" />
<glyph unicode="1" horiz-adv-x="868" d="M39 1237l2 12l461 267h174v-1516h-232v1255h-8l-348 -153h-18z" />
<glyph unicode="2" horiz-adv-x="1167" d="M90 2v207q0 104 30 185t87 146.5t139 121t184 110.5q76 41 131.5 79t91 77t53 82t17.5 92q0 236 -299 235q-86 0 -181 -14t-187 -37l-23 195q133 29 237.5 41t198.5 12q248 0 368 -102.5t120 -309.5q0 -84 -23.5 -151.5t-69.5 -126t-116 -109.5t-160 -102 q-86 -49 -150.5 -93t-107.5 -87t-64.5 -87t-21.5 -96v-80h715v-188h-969z" />
<glyph unicode="3" horiz-adv-x="1116" d="M106 1503q74 14 170.5 23.5t172.5 9.5q258 0 392 -103.5t134 -304.5q0 -131 -64.5 -220t-183.5 -124v-10q137 -29 213 -124t76 -236q0 -211 -146.5 -323t-425.5 -114q-86 0 -179 8.5t-156 22.5v180h10q25 -6 61.5 -11t76.5 -9t80 -6t73 -2q193 0 279.5 66.5t86.5 203.5 q0 133 -84 194.5t-280 61.5h-136v170h134q174 0 249.5 59.5t75.5 188.5q0 127 -75.5 186.5t-241.5 59.5q-53 0 -132 -7.5t-165 -21.5h-10z" />
<glyph unicode="4" horiz-adv-x="1277" d="M43 475v14l506 1047h10l219 -27l8 -22l-497 -957v-8h483l62 471h161v-471h228v-184h-228v-338h-229v338h-686z" />
<glyph unicode="5" horiz-adv-x="1122" d="M104 8v182h48q72 -14 136 -21t126 -7q193 0 287 66.5t94 226.5q0 74 -28 122t-86 77.5t-150.5 43t-221.5 17.5l-153 4l-23 20l57 777h775v-189h-596l-29 -430q178 -2 310 -25.5t218 -76t128 -137.5t42 -209q0 -129 -45 -219.5t-125 -145.5t-189.5 -81t-238.5 -26 q-78 0 -164 8.5t-172 22.5z" />
<glyph unicode="6" horiz-adv-x="1300" d="M104 674q0 418 187.5 641t546.5 223q68 0 138.5 -9t149.5 -28l-20 -176q-78 16 -139.5 24.5t-122.5 8.5q-457 0 -504 -555q78 66 179.5 101.5t205.5 35.5q115 0 208 -30.5t157.5 -89t99.5 -141.5t35 -185q0 -117 -39 -212.5t-109.5 -163t-172 -104.5t-226.5 -37 q-283 0 -428.5 175.5t-145.5 521.5zM336 641q4 -252 88 -369.5t254 -117.5q145 0 227 89t82 246q0 141 -79.5 217t-231.5 76q-90 0 -183.5 -38.5t-156.5 -102.5z" />
<glyph unicode="7" horiz-adv-x="1040" d="M47 1495l19 21h901l39 -123v-47l-537 -1348l-53 -31l-195 33v31l537 1284h-699z" />
<glyph unicode="8" horiz-adv-x="1296" d="M100 389q0 82 23.5 146.5t61.5 111.5t86 81t96 56q-47 25 -87 57.5t-69 76t-45 99.5t-16 128q0 94 36.5 166.5t104 123t162 76t209.5 25.5q223 0 355 -100.5t132 -292.5q0 -74 -18.5 -131.5t-49 -100.5t-71.5 -75.5t-86 -57.5q57 -25 107 -56.5t87 -75.5t58.5 -103.5 t21.5 -136.5q0 -199 -138.5 -308.5t-410.5 -109.5q-274 0 -411.5 101t-137.5 300zM319 412q0 -129 90.5 -193.5t239.5 -64.5q150 0 239 62.5t89 178.5q0 70 -28.5 118t-77 82t-113 56.5t-137.5 42.5l-82 23q-33 -16 -72 -40t-72 -60.5t-54.5 -87t-21.5 -117.5zM358 1133 q0 -68 30 -115t79 -79t115.5 -54.5t140.5 -42.5l22 -6q31 18 66 43.5t63.5 61.5t47 83t18.5 106q0 119 -81 179.5t-210 60.5t-210 -59t-81 -178z" />
<glyph unicode="9" horiz-adv-x="1302" d="M78 1022q0 117 39 212t109.5 162.5t172 104.5t226.5 37q283 0 428 -175t145 -521q0 -418 -187.5 -641.5t-545.5 -223.5q-68 0 -138.5 9.5t-150.5 27.5l21 176q78 -16 139 -24t123 -8q457 0 504 555q-78 -66 -179.5 -102t-205.5 -36q-115 0 -208.5 31t-158 89.5t-99 141.5 t-34.5 185zM315 1026q0 -141 80 -217t232 -76q90 0 183 39t157 102q-4 252 -88 370t-254 118q-145 0 -227.5 -89t-82.5 -247z" />
<glyph unicode=":" horiz-adv-x="528" d="M125 123q0 68 37 100.5t102 32.5q66 0 104 -33t38 -100q0 -66 -38 -99.5t-104 -33.5t-102.5 33.5t-36.5 99.5zM125 983q0 68 37 100.5t102 32.5q66 0 104 -32.5t38 -100.5q0 -66 -38 -99.5t-104 -33.5t-102.5 34t-36.5 99z" />
<glyph unicode=";" horiz-adv-x="571" d="M96 -297l92 547h234l-152 -567zM158 983q0 68 36.5 100.5t102.5 32.5t103.5 -32.5t37.5 -100.5q0 -66 -37.5 -99.5t-103.5 -33.5t-102.5 34t-36.5 99z" />
<glyph unicode="&#x3c;" horiz-adv-x="1073" d="M86 674v149l850 373v-172l-635 -276l631 -277v-170z" />
<glyph unicode="=" horiz-adv-x="1087" d="M137 424v160h813v-160h-813zM137 866v160h813v-160h-813z" />
<glyph unicode="&#x3e;" horiz-adv-x="1075" d="M139 1024v172l850 -373v-149l-846 -373v170l631 277z" />
<glyph unicode="?" horiz-adv-x="940" d="M66 1485q82 23 170 36t180 13q94 0 177 -22.5t144.5 -70.5t97 -124t35.5 -184q0 -100 -34.5 -173t-91 -124.5t-129 -83t-146.5 -50.5l-8 -274v-35h-160v35l-16 383q68 14 134 36.5t119.5 57.5t87 85t33.5 122q0 68 -23.5 114t-61 73.5t-89 40t-106.5 12.5 q-76 0 -152.5 -13.5t-142.5 -29.5zM262 115q0 57 33 89t92 32t93 -32t34 -89t-34 -89t-93 -32t-92 31.5t-33 89.5z" />
<glyph unicode="@" horiz-adv-x="1816" d="M96 532q0 199 59.5 357t168 266.5t264 165.5t350.5 57q186 0 329.5 -51t241 -148.5t146.5 -236.5t49 -317q0 -248 -97.5 -383.5t-283.5 -135.5q-111 0 -165 54.5t-62 126.5h-11q-29 -39 -66.5 -71t-82.5 -53.5t-92 -33.5t-92 -12q-135 0 -209 96t-74 262q0 117 37 214 t103.5 168t160.5 111t209 40q139 0 313 -70l-80 -428q-6 -37 -12 -70.5t-6 -62.5q0 -66 31.5 -101.5t103.5 -35.5q109 0 167 99t58 286q0 293 -154.5 451.5t-461.5 158.5q-160 0 -288 -47t-218 -137t-138 -221.5t-48 -297.5q0 -164 46 -288.5t130 -207.5t200.5 -125 t258.5 -42q88 0 191.5 17.5t217.5 52.5l45 -136q-127 -37 -241.5 -57t-212.5 -20q-174 0 -318.5 52t-248 153.5t-161 252t-57.5 348.5zM616 475q0 -104 40 -165.5t124 -61.5q49 0 97.5 19.5t88.5 56t69.5 90t41.5 121.5l58 321q-86 25 -154 25q-80 0 -147.5 -31t-115.5 -85 t-75 -128t-27 -162z" />
<glyph unicode="A" horiz-adv-x="1431" d="M10 0v14l531 1502h350l530 -1502v-14h-229l-150 424h-655l-149 -424h-228zM449 614h534l-164 461l-92 273h-25l-92 -275z" />
<glyph unicode="B" horiz-adv-x="1392" d="M172 10v1495q150 16 264.5 22.5t225.5 6.5q311 0 451 -98.5t140 -315.5q0 -135 -67.5 -224t-190.5 -118v-8q150 -29 229 -122t79 -245q-1 -423 -609 -423q-250 0 -522 30zM395 170q43 -10 113.5 -13t181.5 -3q195 0 287 65.5t92 202.5q0 135 -86 199.5t-272 64.5h-316 v-516zM395 850h299q178 0 253 58.5t75 197.5q0 137 -81 195.5t-269 58.5q-86 0 -151.5 -3t-125.5 -11v-496z" />
<glyph unicode="C" horiz-adv-x="1216" d="M98 754q0 399 173 591.5t526 192.5q72 0 158.5 -9t183.5 -26v-194q-104 16 -179 24t-137 8q-129 0 -221 -32.5t-151.5 -103t-87 -182.5t-27.5 -267q0 -307 112.5 -443.5t362.5 -136.5q33 0 77 3t90 7t88 11.5t73 13.5v-191q-72 -18 -164 -29t-170 -11q-707 0 -707 774z " />
<glyph unicode="D" horiz-adv-x="1519" d="M172 6v1505q123 10 245 16.5t206 6.5q414 0 607 -187.5t193 -588.5q0 -205 -49 -352.5t-151.5 -242.5t-264.5 -140.5t-385 -45.5q-121 0 -229 7.5t-172 21.5zM403 188q70 -10 126 -15t122 -5q141 0 241.5 34t165 104.5t95.5 182t31 269.5q0 156 -31 266.5t-95.5 181 t-164.5 103t-242 32.5q-51 0 -117.5 -4t-130.5 -10v-1139z" />
<glyph unicode="E" horiz-adv-x="1288" d="M172 0v1516h1004v-189h-770v-467h712v-188h-712v-484h788v-188h-1022z" />
<glyph unicode="F" horiz-adv-x="1232" d="M172 0v1516h995v-189h-761v-489h690v-189h-690v-649h-234z" />
<glyph unicode="G" horiz-adv-x="1380" d="M96 754q0 784 748 784q92 0 196.5 -13.5t200.5 -35.5v-195q-125 27 -213 37t-168 10q-139 0 -238.5 -33.5t-163 -104t-93 -181.5t-29.5 -266q0 -305 115.5 -442.5t371.5 -137.5q43 0 101.5 5t115.5 14v575h217v-723q-109 -31 -228.5 -49t-211.5 -18q-721 0 -721 774z" />
<glyph unicode="H" horiz-adv-x="1599" d="M172 0v1516h234v-646h790v646h234v-1516h-234v684h-790v-684h-234z" />
<glyph unicode="I" horiz-adv-x="575" d="M172 0v1516h234v-1516h-234z" />
<glyph unicode="J" horiz-adv-x="575" d="M16 -326q45 100 76 184.5t49.5 167.5t26.5 170t8 191v1129h234v-1145q0 -104 -12.5 -194.5t-40 -179.5t-73.5 -185.5t-114 -208.5z" />
<glyph unicode="K" horiz-adv-x="1404" d="M172 0v1516h234v-652h266l430 652h264l-457 -674l-78 -51v-15l84 -53l488 -723h-264l-447 676h-286v-676h-234z" />
<glyph unicode="L" horiz-adv-x="1112" d="M172 0v1516h234v-1330h677v-186h-911z" />
<glyph unicode="M" horiz-adv-x="1945" d="M172 0v1516h320l356 -871l117 -321h14l119 321l356 871h320v-1516h-211v1235h-15l-162 -424l-313 -750h-203l-313 750l-162 424h-12v-1235h-211z" />
<glyph unicode="N" horiz-adv-x="1617" d="M172 0v1516h195l737 -986l119 -178h16v1164h209v-1516h-197l-735 981l-123 182l-12 -2v-1161h-209z" />
<glyph unicode="O" horiz-adv-x="1558" d="M98 756q0 385 175.5 582.5t504.5 197.5q330 0 506 -197.5t176 -582.5q0 -383 -176 -579.5t-506 -196.5t-505 195.5t-175 580.5zM336 756q0 -303 107.5 -443.5t334.5 -140.5q229 0 337 140.5t108 443.5t-109.5 445t-335.5 142q-227 0 -334.5 -140t-107.5 -447z" />
<glyph unicode="P" horiz-adv-x="1353" d="M172 0v1505q211 31 401 31q375 0 546 -127t171 -405q0 -276 -171 -404.5t-535 -128.5q-41 0 -85 1t-93 5v-477h-234zM406 676q35 -8 96 -13.5t116 -5.5q119 0 202 18.5t134.5 60.5t75 107.5t23.5 160.5q0 92 -23.5 157.5t-76 106.5t-134.5 60.5t-201 19.5 q-53 0 -112.5 -4.5t-99.5 -10.5v-657z" />
<glyph unicode="Q" horiz-adv-x="1552" d="M92 756q0 379 177 579.5t507 200.5t506 -200.5t176 -579.5q0 -350 -159.5 -533.5t-460.5 -183.5v-16q98 -23 175 -37.5t144.5 -25.5t133 -18.5t143.5 -13.5l-52 -196q-369 70 -616.5 153.5t-397 200.5t-213 279.5t-63.5 390.5zM330 756q0 -299 109.5 -441.5t336.5 -142.5 q225 0 336 142.5t111 441.5q0 301 -109.5 444t-337.5 143q-227 0 -336.5 -144t-109.5 -443z" />
<glyph unicode="R" horiz-adv-x="1392" d="M172 0v1505q209 31 401 31q188 0 323.5 -28.5t223.5 -89t129 -155t41 -225.5q0 -348 -323 -450l376 -588h-258l-327 547q-80 -6 -170 -6q-35 0 -87 3t-95 7v-551h-234zM406 743q29 -8 87.5 -13t124.5 -5q119 0 202 17.5t134.5 54.5t75 96t23.5 145q0 82 -23.5 141.5 t-76 96.5t-135.5 54.5t-200 17.5q-49 0 -109 -4.5t-103 -10.5v-590z" />
<glyph unicode="S" horiz-adv-x="1220" d="M84 41v195q129 -33 257 -50.5t228 -17.5q340 0 340 225q0 63 -24.5 106.5t-68.5 74t-104.5 51t-133.5 39.5q-123 31 -211 69.5t-145.5 92t-85 125t-27.5 167.5q0 98 37.5 177t108.5 134.5t172 85t226 29.5q90 0 188.5 -12t229.5 -41v-193q-98 27 -204.5 41.5t-192.5 14.5 q-152 0 -238 -61.5t-86 -170.5q0 -104 75 -163.5t255 -104.5q106 -27 192 -61.5t147.5 -85t95.5 -123t34 -174.5q0 -211 -144.5 -323t-418.5 -112q-109 0 -244 18.5t-258 47.5z" />
<glyph unicode="T" horiz-adv-x="1253" d="M37 1325v191h1182v-191h-476v-1325h-233v1325h-473z" />
<glyph unicode="U" horiz-adv-x="1574" d="M156 616v900h233v-900q0 -236 97.5 -339t301.5 -103q201 0 298.5 103.5t97.5 338.5v900h235v-900q0 -166 -34.5 -285.5t-111.5 -198.5t-197 -115.5t-288 -36.5q-170 0 -290.5 36.5t-196.5 115.5t-110.5 199t-34.5 285z" />
<glyph unicode="V" horiz-adv-x="1425" d="M10 1516h246l352 -992l97 -301h18l96 301l355 992h239l-543 -1516h-313z" />
<glyph unicode="W" horiz-adv-x="2123" d="M35 1516h248l241 -994l64 -280h16l70 280l270 994h240l266 -994l68 -280h18l63 280l246 994h248l-407 -1516h-308l-252 922l-57 292h-14l-58 -294l-252 -920h-311z" />
<glyph unicode="X" horiz-adv-x="1411" d="M0 0l555 784l-522 732h266l363 -525l36 -65h17l35 65l366 525h262l-530 -742l565 -774h-264l-404 573l-32 60h-17l-30 -60l-402 -573h-264z" />
<glyph unicode="Y" horiz-adv-x="1347" d="M0 1516h252l348 -658l64 -141h18l63 141l349 658h249l-552 -1010v-506h-232v500z" />
<glyph unicode="Z" horiz-adv-x="1239" d="M68 0v174l792 1137v12h-766v193h1051v-168l-793 -1143v-12h819v-193h-1103z" />
<glyph unicode="[" horiz-adv-x="688" d="M174 -328v2106h453v-160h-271v-1786h271v-160h-453z" />
<glyph unicode="\" horiz-adv-x="823" d="M59 1516h199l504 -1762h-199z" />
<glyph unicode="]" horiz-adv-x="688" d="M61 -168h271v1786h-271v160h453v-2106h-453v160z" />
<glyph unicode="^" horiz-adv-x="1009" d="M86 985l320 631h198l320 -631h-168l-248 473h-8l-244 -473h-170z" />
<glyph unicode="_" horiz-adv-x="1241" d="M102 -121h1039v-178h-1039v178z" />
<glyph unicode="`" horiz-adv-x="555" d="M61 1653h244l141 -377l-167 -21z" />
<glyph unicode="a" horiz-adv-x="1124" d="M76 289q0 162 100 245.5t320 100.5l262 20v60q0 68 -11.5 111.5t-41 71.5t-81 39t-128.5 11q-72 0 -157 -9t-177 -28l-17 168q213 39 394 39q229 0 338.5 -89t109.5 -275v-754h-188l-23 137h-14q-94 -72 -189.5 -109.5t-193.5 -37.5q-147 0 -225 76.5t-78 222.5zM307 311 q0 -153 160 -153q70 0 145.5 30.5t145.5 77.5v256l-195 -18q-143 -14 -199.5 -56t-56.5 -137z" />
<glyph unicode="b" horiz-adv-x="1269" d="M143 29v1626h230v-670q125 141 346 141q225 0 343 -137t118 -420q0 -287 -151 -438.5t-419 -153.5q-98 0 -207.5 11.5t-259.5 40.5zM373 164q47 -10 107 -15.5t128 -5.5q174 0 257 92.5t83 317.5q0 215 -68.5 304t-222.5 89q-59 0 -110 -15.5t-90 -44t-61.5 -72.5 t-22.5 -99v-551z" />
<glyph unicode="c" horiz-adv-x="999" d="M90 551q0 573 539 573q70 0 145.5 -8t136.5 -22v-187q-66 12 -132 19.5t-128 7.5q-174 0 -253 -91t-79 -290q0 -201 77 -291t251 -90q76 0 136.5 5t127.5 20v-185q-53 -14 -129.5 -22t-152.5 -8q-539 0 -539 569z" />
<glyph unicode="d" horiz-adv-x="1269" d="M90 539q0 147 40 257.5t114.5 183.5t179 109.5t233.5 36.5q66 0 125.5 -6t114.5 -12v547h227v-1655h-200l-19 135h-12q-113 -155 -342 -155q-227 0 -344 136t-117 423zM322 553q0 -215 68 -306t220 -91q59 0 111.5 16t91.5 47t61.5 76t22.5 104v537q-53 10 -114.5 16 t-131.5 6q-170 0 -249.5 -91t-79.5 -314z" />
<glyph unicode="e" horiz-adv-x="1142" d="M92 541q0 285 132 434t388 149q442 0 443 -493q0 -96 -15 -152h-721q12 -172 88 -244.5t240 -72.5q82 0 177.5 14t181.5 41l10 -170q-86 -31 -190.5 -48t-202.5 -17q-266 0 -398.5 140t-132.5 419zM319 623h529q-4 180 -60.5 256.5t-183.5 76.5q-135 0 -203.5 -80.5 t-81.5 -252.5z" />
<glyph unicode="f" horiz-adv-x="821" d="M33 909v197h239v53q0 145 27 240.5t91.5 153t172 83t268.5 31.5l13 -170q-102 -6 -169 -21.5t-106 -48t-54 -88t-15 -143.5v-90h293v-197h-293v-909h-230v909h-237z" />
<glyph unicode="g" horiz-adv-x="1269" d="M90 549q0 145 40 253.5t114.5 180.5t179 107.5t233.5 35.5q98 0 210 -14t259 -55v-940q0 -164 -45 -272.5t-122.5 -174t-180 -92.5t-219.5 -27q-102 0 -207.5 11.5t-183.5 34.5l16 174q74 -18 163 -31.5t177 -13.5q84 0 155 17t122 59t79.5 112t28.5 174v82h-12 q-115 -160 -344 -160t-346 130t-117 409zM322 563q0 -207 67 -294t221 -87q61 0 113.5 16.5t90.5 47t60.5 77t22.5 105.5v508q-53 10 -114.5 16t-129.5 6q-170 0 -250.5 -89t-80.5 -306z" />
<glyph unicode="h" d="M145 0v1655h230v-672q152 72 260 107.5t201 35.5q143 0 220 -75.5t77 -229.5v-821h-230v745q0 104 -39 149.5t-123 45.5q-72 0 -166 -29.5t-200 -79.5v-831h-230z" />
<glyph unicode="i" horiz-adv-x="524" d="M129 1446q0 68 30.5 99.5t102.5 31.5t103.5 -33t31.5 -98q0 -66 -31.5 -98.5t-103.5 -32.5t-102.5 31.5t-30.5 99.5zM147 0v1106h230v-1106h-230z" />
<glyph unicode="j" horiz-adv-x="520" d="M23 -406q33 76 57 151t39.5 156t23 173t7.5 202v67.5v138.5t-1.5 176.5t-1.5 184.5t-1 159.5t-1 103.5h230v-936q-10 -168 -56.5 -325.5t-130.5 -295.5zM121 1446q0 68 31.5 99.5t103.5 31.5t103.5 -33t31.5 -98q0 -66 -31.5 -98.5t-103.5 -32.5t-103.5 31.5t-31.5 99.5z " />
<glyph unicode="k" horiz-adv-x="1169" d="M145 0v1655h230v-1010h170l342 461h254l-398 -518l-41 -17v-6l43 -18l431 -547h-254l-381 492h-166v-492h-230z" />
<glyph unicode="l" horiz-adv-x="528" d="M150 0v1655h229v-1655h-229z" />
<glyph unicode="m" horiz-adv-x="1882" d="M145 0v1106h191l14 -127h12q125 76 219.5 111.5t182.5 35.5q201 0 266 -151h10q129 80 224.5 115.5t181.5 35.5q143 0 220 -75.5t77 -229.5v-821h-227v743q0 104 -40 148.5t-124 44.5q-57 0 -132 -26.5t-159 -73.5v-836h-230v743q0 104 -38.5 148.5t-124.5 44.5 q-59 0 -136 -28.5t-157 -76.5v-831h-230z" />
<glyph unicode="n" d="M145 0v1106h193l14 -127h13q160 78 269 112.5t202 34.5q143 0 220 -75.5t77 -229.5v-821h-228v745q0 104 -40 149.5t-124 45.5q-72 0 -167 -29.5t-199 -79.5v-831h-230z" />
<glyph unicode="o" horiz-adv-x="1249" d="M88 553q0 281 137 427t400 146q262 0 398 -146t136 -427t-136 -427t-398 -146t-399.5 146t-137.5 427zM322 553q0 -209 71.5 -300t231.5 -91t232.5 91t72.5 300t-73 300t-232 91q-160 0 -231.5 -91t-71.5 -300z" />
<glyph unicode="p" horiz-adv-x="1273" d="M145 -451v1557h201l19 -133h12q57 78 144 115.5t200 37.5q227 0 344 -136t117 -421q0 -287 -151.5 -438t-418.5 -151q-66 0 -126 5t-111 11v-447h-230zM375 170q49 -10 112 -16.5t131 -6.5q84 0 146.5 21.5t103.5 70t61.5 126t20.5 190.5q0 215 -68.5 305t-219.5 90 q-61 0 -113.5 -16t-90.5 -47t-60.5 -77t-22.5 -105v-535z" />
<glyph unicode="q" horiz-adv-x="1269" d="M90 541q0 287 148.5 436t420.5 149q125 0 251 -14t214 -31v-1532h-219v588q-124 -157 -351 -157h-3q-461 0 -461 561zM322 555q0 -106 15 -182t50 -124t90 -70.5t133 -22.5q129 0 207 66.5t78 183.5v530q-66 10 -125 16t-119 6q-176 0 -252.5 -94t-76.5 -309z" />
<glyph unicode="r" horiz-adv-x="839" d="M145 0v1106h193l14 -156h8q104 63 199.5 110.5t181.5 63.5h74v-204h-80q-92 -12 -185 -45t-175 -78v-797h-230z" />
<glyph unicode="s" horiz-adv-x="1003" d="M90 27v174q106 -25 201.5 -40.5t181.5 -15.5q229 0 229 156q0 82 -58 118t-159 52q-66 10 -133 24.5t-123.5 48.5t-92.5 95t-36 164q0 154 115 240.5t315 86.5q37 0 73 -2t77 -7t89 -12t112 -19l-9 -181q-106 23 -183 35t-138 12q-115 0 -172 -37.5t-57 -109.5 q0 -43 18 -70.5t51 -46t79 -29t101 -20.5q76 -14 140.5 -35.5t111.5 -59.5t74 -94.5t27 -140.5q0 -160 -114 -248t-327 -88q-78 0 -174 11.5t-219 38.5z" />
<glyph unicode="t" horiz-adv-x="845" d="M35 909v197h231l35 289l180 22v-311h314v-197h-312v-555q0 -100 43 -146t138 -46q29 0 64.5 5t74.5 17v-178q-47 -12 -102.5 -19t-108.5 -7q-166 0 -252 82.5t-86 242.5v604h-219z" />
<glyph unicode="u" d="M137 285v821h230v-752q0 -102 35.5 -144t121.5 -42q88 0 184.5 36t188.5 79v823h229v-1106h-192l-14 133h-9q-84 -41 -145 -69.5t-114.5 -47t-106 -27.5t-115.5 -9q-145 0 -219 77.5t-74 227.5z" />
<glyph unicode="v" horiz-adv-x="1181" d="M33 1079v27h239l258 -731l52 -191h20l53 191l258 731h238v-27l-416 -1079h-291z" />
<glyph unicode="w" horiz-adv-x="1665" d="M41 1094v12h223l180 -725l35 -158h15l34 158l199 725h209l203 -725l37 -158h16l33 158l172 725h223v-12l-297 -1094h-256l-199 692l-28 144h-17l-30 -144l-191 -692h-256z" />
<glyph unicode="x" horiz-adv-x="1171" d="M23 0v27l407 546l-387 517v16h242l229 -315l68 -99h12l68 99l223 315h245v-16l-389 -523l410 -540v-27h-242l-245 338l-74 108h-12l-72 -108l-244 -338h-239z" />
<glyph unicode="y" horiz-adv-x="1193" d="M27 1081v25h243l267 -690l53 -172h14l53 172l275 690h239v-25l-643 -1532l-213 35l-2 23l168 405z" />
<glyph unicode="z" horiz-adv-x="1048" d="M76 2v148l588 761v15h-570v180h860v-143l-579 -766v-15h600v-180h-899z" />
<glyph unicode="{" horiz-adv-x="729" d="M66 639v180q145 0 145 205v502q0 139 51 195.5t174 56.5q18 0 52 -1t69 -3t63.5 -3.5t36.5 -3.5v-149h-159q-53 0 -75 -21.5t-22 -68.5v-553q0 -94 -43 -163t-114 -85q72 -14 114.5 -81.5t42.5 -162.5v-557q0 -49 21.5 -70.5t75.5 -21.5h159v-147q-8 -2 -35.5 -4 t-61.5 -3.5t-67.5 -2.5t-54.5 -1q-123 0 -175 56.5t-52 195.5v508q0 203 -145 203z" />
<glyph unicode="|" horiz-adv-x="563" d="M174 -451v2106h215v-2106h-215z" />
<glyph unicode="}" horiz-adv-x="729" d="M72 -166h161q53 0 75 21.5t22 70.5v557q0 94 42 162t115 82q-74 16 -115.5 85t-41.5 163v553q0 47 -21.5 68.5t-75.5 21.5h-161v149q8 2 36.5 3.5t63.5 3.5t68.5 3t52.5 1q123 0 174 -56.5t51 -195.5v-502q0 -205 146 -205v-180q-145 0 -146 -203v-508q0 -139 -51 -195.5 t-174 -56.5q-20 0 -54 1t-68 2.5t-62.5 3.5t-36.5 4v147z" />
<glyph unicode="~" horiz-adv-x="1347" d="M113 573q57 66 104 109t88 68.5t81 36t87 10.5q63 0 113.5 -23.5t95.5 -53.5t89 -53.5t97 -23.5q66 0 129.5 39t104.5 104l133 -77q-29 -43 -64.5 -87t-81 -80t-96.5 -58.5t-106 -22.5q-68 0 -121 23.5t-99 53t-88 53t-87 23.5q-63 0 -122 -33.5t-132 -111.5z" />
<glyph unicode="&#xa1;" horiz-adv-x="516" d="M135 987q0 57 33 89t92 32t93 -32t34 -89t-34 -90t-93 -33t-92 32t-33 91zM143 -389l43 1057v26h142v-26l43 -1057v-21h-228v21z" />
<glyph unicode="&#xa2;" horiz-adv-x="1034" d="M90 551q0 526 453 569v232h153v-230q55 -4 111.5 -11t103.5 -17v-187q-66 12 -132 19.5t-128 7.5q-174 0 -253 -91t-79 -290q0 -201 77 -291t251 -90q76 0 136.5 5t127.5 20v-185q-41 -10 -98 -17t-117 -11v-230h-153v232q-453 43 -453 565z" />
<glyph unicode="&#xa3;" horiz-adv-x="1347" d="M98 0v203h310v463h-310v184h310v217q0 236 116.5 349.5t372.5 113.5q82 0 167 -13.5t189 -43.5l-16 -187q-90 23 -170 34t-143 11q-156 0 -219.5 -60.5t-63.5 -205.5v-215h432v-184h-432v-465h584v-201h-1127z" />
<glyph unicode="&#xa4;" horiz-adv-x="1275" d="M113 334l112 110l94 70q-82 98 -81 244q0 147 84 241l-97 72l-112 111l100 100l113 -111l73 -104q102 63 240 63q137 0 235 -63l76 104l113 111l100 -100l-110 -111l-101 -72q41 -47 62.5 -108.5t21.5 -132.5q0 -74 -21.5 -135.5t-60.5 -108.5l99 -70l110 -110l-100 -101 l-113 111l-73 102q-102 -63 -238 -63q-145 0 -240 61l-73 -100l-113 -111zM389 758q0 -117 67.5 -180.5t182.5 -63.5q113 0 180.5 62.5t67.5 181.5q0 117 -66.5 179t-181.5 62t-182.5 -62t-67.5 -179z" />
<glyph unicode="&#xa5;" horiz-adv-x="1460" d="M63 1516h252l349 -658l63 -141h18l64 141l348 658h250l-471 -861h289v-149h-371v-170h371v-152h-371v-184h-231v184h-422v152h422v164l-5 6h-417v149h336z" />
<glyph unicode="&#xa6;" horiz-adv-x="561" d="M172 418h217v-869h-217v869zM172 786v869h217v-869h-217z" />
<glyph unicode="&#xa7;" horiz-adv-x="1060" d="M115 27v166q211 -51 385 -52q115 0 172 41t57 119q0 82 -58.5 118t-160.5 52q-63 10 -131 24.5t-124 48.5t-92 95t-36 164q0 66 21.5 118t62.5 93q-39 35 -61.5 85t-22.5 128q0 154 114.5 240.5t315.5 86.5q37 0 73 -2t77 -7t89 -12t111 -17l-8 -179q-106 25 -183 36 t-138 11q-229 0 -230 -151q0 -43 18.5 -71.5t50.5 -46t78 -29t101 -21.5q76 -14 141.5 -35.5t112.5 -58.5t73.5 -93.5t26.5 -140.5q0 -135 -80 -217q39 -35 59.5 -85t20.5 -122q0 -160 -113.5 -248t-326.5 -88q-78 0 -174 11.5t-221 38.5zM346 819q0 -47 16.5 -78.5t45 -51 t66.5 -33t83 -23.5q29 -8 67.5 -19.5t63.5 -23.5q43 49 43 121q0 47 -13 79.5t-39 55t-60.5 36t-77.5 23.5q-29 6 -71 15.5t-69 21.5q-55 -47 -55 -123z" />
<glyph unicode="&#xa8;" horiz-adv-x="1017" d="M119 1438q0 63 30.5 90.5t94.5 27.5q125 0 125 -118q0 -125 -125 -125t-125 125zM625 1438q0 63 30.5 90.5t94.5 27.5q125 0 124 -118q1 -125 -124 -125t-125 125z" />
<glyph unicode="&#xa9;" horiz-adv-x="1716" d="M98 758q0 174 54.5 318.5t154 246.5t239.5 158.5t312 56.5t311.5 -56.5t239.5 -158.5t154.5 -246.5t54.5 -318.5q0 -176 -54.5 -319.5t-154.5 -246t-239.5 -159t-311.5 -56.5t-312 56.5t-239.5 159t-154 246t-54.5 319.5zM229 758q0 -147 44 -268t126 -206t198 -132.5 t261 -47.5q143 0 260 47.5t199 132.5t126 205.5t44 268.5q0 147 -44 268t-126 207t-199 133t-260 47q-145 0 -261 -47t-198 -133t-126 -207t-44 -268zM508 752q0 211 100.5 316.5t280.5 105.5q47 0 93 -5.5t87 -15.5v-129q-45 8 -87 13t-77 5q-246 0 -246 -288 q0 -150 62.5 -219.5t181.5 -69.5q35 0 78 5t90 13v-127q-39 -10 -87 -16t-95 -6q-180 0 -280.5 103.5t-100.5 314.5z" />
<glyph unicode="&#xaa;" horiz-adv-x="929" d="M86 940q0 104 82 166.5t240 73.5l202 12v39q0 47 -8 76.5t-29.5 47t-57.5 23.5t-91 6q-45 0 -106.5 -4t-143.5 -16l-14 135q88 16 161.5 22.5t133.5 6.5q184 0 264 -60.5t80 -193.5v-553h-160l-12 96h-9q-76 -51 -146 -77.5t-138 -26.5q-111 0 -179.5 62.5t-68.5 164.5z M274 954q0 -102 123 -102q43 0 92.5 14.5t120.5 46.5v164l-106 -6q-131 -10 -180.5 -34.5t-49.5 -82.5z" />
<glyph unicode="&#xab;" horiz-adv-x="1320" d="M66 549v8l368 487h238l-369 -487v-8l369 -488h-238zM629 549v8l368 487h238l-369 -487v-8l369 -488h-238z" />
<glyph unicode="&#xac;" horiz-adv-x="1693" d="M121 692v193h1427v-664h-225v471h-1202z" />
<glyph unicode="&#xad;" horiz-adv-x="974" d="M131 483v181h713v-181h-713z" />
<glyph unicode="&#xae;" horiz-adv-x="1466" d="M106 913q0 137 46.5 253t129.5 199t197.5 130t253.5 47t255 -47t199 -130t129 -198.5t46 -253.5q0 -137 -46 -251.5t-129 -197.5t-199 -129t-255 -46t-253.5 46t-197.5 129t-129.5 197.5t-46.5 251.5zM219 913q0 -115 37 -210t104.5 -163.5t162.5 -106.5t210 -38t210 38 t163 106.5t105.5 164t37.5 209.5q0 115 -37.5 211.5t-105.5 165t-163 107.5t-210 39t-210 -39t-162.5 -107.5t-104.5 -165t-37 -211.5zM506 588v674q53 6 102 10t92 4q156 0 230 -53.5t74 -163.5q0 -152 -140 -197l-2 -6l162 -268h-119l-143 246h-146v-246h-110zM616 926 q12 -2 40 -2h51q96 0 140 31.5t44 101.5q0 66 -40 97.5t-138 31.5q-16 0 -45 -1t-52 -3v-256z" />
<glyph unicode="&#xaf;" horiz-adv-x="991" d="M123 1323v160h708v-160h-708z" />
<glyph unicode="&#xb0;" horiz-adv-x="962" d="M82 1149q0 80 29.5 149.5t84 120.5t127 80t158.5 29t159 -29t126 -80t83 -120.5t30 -149.5q0 -82 -30 -151.5t-83 -121t-126 -80t-159 -28.5t-158.5 28.5t-127 80t-84 121t-29.5 151.5zM236 1149q0 -111 65 -179.5t180 -68.5t180.5 68.5t65.5 179.5q0 109 -65.5 177.5 t-180.5 68.5t-180 -69t-65 -177z" />
<glyph unicode="&#xb1;" horiz-adv-x="1101" d="M137 797v155h334v342h156v-342h334v-155h-334v-332h-156v332h-334zM139 164v155h824v-155h-824z" />
<glyph unicode="&#xb2;" horiz-adv-x="919" d="M76 616v162q0 70 18.5 128.5t59.5 110.5t105.5 98t154.5 91q63 31 105 57.5t66.5 52t35 51.5t10.5 54q0 152 -215 152q-59 0 -127 -9.5t-160 -27.5l-23 166q104 23 187.5 33t155.5 10q381 0 380 -309q0 -115 -67.5 -197t-220.5 -160q-123 -68 -173.5 -123t-50.5 -122v-52 h514v-166h-755z" />
<glyph unicode="&#xb3;" horiz-adv-x="874" d="M90 623v172h14q20 -4 49 -8.5t60 -7.5t60.5 -4t54.5 -1q141 0 204.5 44t63.5 130q0 84 -62.5 124t-205.5 40h-111v141h109q125 0 182 40t57 122q0 80 -54 121t-177 41q-41 0 -101.5 -6t-128.5 -17h-12l-2 168q53 12 130 19.5t138 7.5q203 0 305.5 -79t102.5 -232 q0 -88 -40 -151.5t-116 -94.5q180 -63 181 -268q0 -158 -108.5 -242t-313.5 -84q-74 0 -150 7t-129 18z" />
<glyph unicode="&#xb4;" horiz-adv-x="536" d="M88 1264l141 378h236l-213 -395z" />
<glyph unicode="&#xb5;" horiz-adv-x="1335" d="M170 -451v1557h227v-754q0 -100 38 -146t118 -46q86 0 176 31.5t199 78.5v836h229v-1106h-192l-15 133h-8q-84 -41 -145.5 -69.5t-114.5 -47t-105.5 -27.5t-115.5 -9q-16 0 -32.5 1t-31.5 3v-435h-227z" />
<glyph unicode="&#xb6;" horiz-adv-x="1265" d="M76 1034q0 137 33.5 231.5t97 152t154 83t202.5 25.5q57 0 117.5 -5t126.5 -16v-1505h-121v545q-31 -2 -62.5 -2h-60.5q-113 0 -203 25.5t-153.5 83t-97 151.5t-33.5 231zM924 0v1505h147v-1505h-147z" />
<glyph unicode="&#xb7;" horiz-adv-x="514" d="M117 758q0 72 33.5 104.5t105.5 32.5q139 0 139 -137q0 -135 -139 -135q-72 0 -105.5 31.5t-33.5 103.5z" />
<glyph unicode="&#xb8;" horiz-adv-x="634" d="M74 -281q68 -23 147 -22q70 0 100.5 25.5t30.5 78.5q0 49 -27.5 107.5t-95.5 146.5h158q37 -51 61.5 -90t39 -70.5t20.5 -59.5t6 -56q0 -111 -66.5 -170.5t-185.5 -59.5q-41 0 -91 7.5t-97 17.5v145z" />
<glyph unicode="&#xb9;" horiz-adv-x="696" d="M37 1513l2 27l358 193h144v-1119h-197v904l-262 -109h-16z" />
<glyph unicode="&#xba;" horiz-adv-x="987" d="M90 1118q0 209 106.5 310.5t297.5 101.5q193 0 298 -101.5t105 -310.5t-105 -310t-298 -101q-190 0 -297 101t-107 310zM279 1118q0 -78 14 -130t40.5 -83t67 -43t93.5 -12q51 0 92 12t67.5 43t41 83t14.5 130t-14.5 130t-41 83t-67.5 43t-92 12q-53 0 -93.5 -12t-67 -43 t-40.5 -83t-14 -130z" />
<glyph unicode="&#xbb;" horiz-adv-x="1320" d="M88 61l369 488v8l-369 487h236l368 -487v-8l-368 -488h-236zM651 61l369 488v8l-369 487h236l368 -487v-8l-368 -488h-236z" />
<glyph unicode="&#xbc;" horiz-adv-x="2125" d="M55 1309l2 26l359 193h143v-1118h-197v903l-262 -109h-16zM496 0l708 1516h201l-707 -1516h-202zM1157 367l387 757l21 6l164 -18l12 -37l-373 -674h338l49 344h137v-344h170v-157h-170v-244h-196v244h-506z" />
<glyph unicode="&#xbd;" horiz-adv-x="2179" d="M55 1309l2 26l359 193h143v-1118h-197v903l-262 -109h-16zM496 0l708 1516h201l-707 -1516h-202zM1319 2v162q0 70 18.5 128t59.5 109.5t105.5 97.5t154.5 93q63 33 105 59.5t66.5 51t35 50t10.5 54.5q0 152 -215 151q-119 0 -287 -36l-22 165q104 23 187 33t155 10 q381 0 381 -309q0 -113 -67 -193.5t-222 -162.5q-61 -35 -104.5 -65.5t-70 -59.5t-37.5 -58.5t-11 -62.5v-51h514v-166h-756z" />
<glyph unicode="&#xbe;" horiz-adv-x="2271" d="M115 418v172h14q20 -4 49 -8t59.5 -7.5t60.5 -4.5t54 -1q141 0 205 44t64 130q0 84 -62.5 124t-206.5 40h-110v142h108q125 0 182.5 39.5t57.5 121.5q0 80 -54.5 121t-177.5 41q-41 0 -101 -6t-128 -16h-12l-2 168q53 12 130 19t138 7q203 0 305.5 -79t102.5 -232 q0 -88 -40 -151.5t-116 -94.5q180 -63 180 -268q0 -158 -108.5 -242t-313.5 -84q-74 0 -149.5 7.5t-128.5 17.5zM645 0l709 1516h200l-706 -1516h-203zM1307 367l387 757l20 6l164 -18l12 -37l-372 -674h337l50 344h137v-344h170v-157h-170v-244h-197v244h-506z" />
<glyph unicode="&#xbf;" horiz-adv-x="927" d="M66 -20q0 100 34.5 172.5t91 124t129 83t146.5 50.5l8 274v35h160v-35l16 -383q-68 -16 -134 -37.5t-119.5 -56.5t-87.5 -85t-34 -122q0 -68 24 -114t61.5 -73.5t89 -40t106.5 -12.5q76 0 152.5 13.5t142.5 29.5l18 -176q-82 -23 -170 -36t-180 -13q-94 0 -177 22.5 t-144.5 70.5t-97 124t-35.5 185zM422 997q0 57 34 89t93 32t92 -31.5t33 -89.5q0 -57 -33 -88.5t-92 -31.5t-93 31.5t-34 88.5z" />
<glyph unicode="&#xc0;" horiz-adv-x="1431" d="M10 0v14l531 1502h350l530 -1502v-14h-229l-150 424h-655l-149 -424h-228zM403 1960h240l148 -295l-175 -25zM449 614h534l-164 461l-92 273h-25l-92 -275z" />
<glyph unicode="&#xc1;" horiz-adv-x="1431" d="M10 0v14l531 1502h350l530 -1502v-14h-229l-150 424h-655l-149 -424h-228zM449 614h534l-164 461l-92 273h-25l-92 -275zM618 1655l148 305h240l-213 -320z" />
<glyph unicode="&#xc2;" horiz-adv-x="1431" d="M10 0v14l531 1502h350l530 -1502v-14h-229l-150 424h-655l-149 -424h-228zM358 1655v172l359 153l360 -153v-172l-360 153zM449 614h534l-164 461l-92 273h-25l-92 -275z" />
<glyph unicode="&#xc3;" horiz-adv-x="1431" d="M10 0v14l531 1502h350l530 -1502v-14h-229l-150 424h-655l-149 -424h-228zM297 1761q59 88 133 134.5t143 46.5q49 0 94.5 -13.5t89.5 -29t88 -28.5t91 -13t92 18t94 59l49 -57q-59 -88 -134.5 -134t-149.5 -46q-47 0 -91 12t-88 27.5t-88.5 28t-89.5 12.5 q-47 0 -92 -16.5t-92 -57.5zM449 614h534l-164 461l-92 273h-25l-92 -275z" />
<glyph unicode="&#xc4;" horiz-adv-x="1431" d="M10 0v14l531 1502h350l530 -1502v-14h-229l-150 424h-655l-149 -424h-228zM303 1804q0 72 33 103.5t104 31.5q139 0 140 -135q0 -72 -35 -103.5t-105 -31.5q-72 0 -104.5 32t-32.5 103zM449 614h534l-164 461l-92 273h-25l-92 -275zM852 1804q0 72 34 103.5t105 31.5 q139 0 139 -135q0 -72 -34.5 -103.5t-104.5 -31.5q-72 0 -105.5 32t-33.5 103z" />
<glyph unicode="&#xc5;" horiz-adv-x="1431" d="M10 0v14l531 1502h350l530 -1502v-14h-229l-150 424h-655l-149 -424h-228zM449 614h534l-164 461l-92 273h-25l-92 -275zM463 1821q0 49 19.5 91t53 71.5t81 47t102.5 17.5t101 -17.5t80 -47t52.5 -71.5t18.5 -91q0 -98 -70.5 -161t-181.5 -63q-55 0 -102.5 16.5 t-81 46.5t-53 71t-19.5 90zM573 1821q1 -125 146 -125q141 0 141 125q0 61 -34.5 95t-106.5 34q-74 0 -110 -34t-36 -95z" />
<glyph unicode="&#xc6;" horiz-adv-x="1878" d="M6 0v16l612 1500h1143v-189h-669l24 -467h598v-188h-588l27 -484h633v-188h-866l-17 422h-497l-173 -422h-227zM485 616h410l-31 725h-80z" />
<glyph unicode="&#xc7;" horiz-adv-x="1216" d="M98 754q0 399 173 591.5t526 192.5q72 0 158.5 -9t183.5 -26v-194q-104 16 -179 24t-137 8q-129 0 -221 -32.5t-151.5 -103t-87 -182.5t-27.5 -267q0 -307 112.5 -443.5t362.5 -136.5q33 0 77 3t90 7t88 11.5t73 13.5v-191q-66 -16 -150 -27t-158 -13q43 -66 58.5 -110 t15.5 -91q0 -111 -66.5 -170.5t-185.5 -59.5q-41 0 -91 7.5t-97 17.5v145q68 -23 147 -22q70 0 100.5 25.5t30.5 78.5q0 41 -16 84t-57 103q-571 68 -572 766z" />
<glyph unicode="&#xc8;" horiz-adv-x="1288" d="M172 0v1516h1004v-189h-770v-467h712v-188h-712v-484h788v-188h-1022zM399 1960h240l147 -295l-174 -25z" />
<glyph unicode="&#xc9;" horiz-adv-x="1288" d="M172 0v1516h1004v-189h-770v-467h712v-188h-712v-484h788v-188h-1022zM573 1655l148 305h240l-213 -320z" />
<glyph unicode="&#xca;" horiz-adv-x="1288" d="M172 0v1516h1004v-189h-770v-467h712v-188h-712v-484h788v-188h-1022zM330 1655v172l358 153l361 -153v-172l-361 153z" />
<glyph unicode="&#xcb;" horiz-adv-x="1288" d="M172 0v1516h1004v-189h-770v-467h712v-188h-712v-484h788v-188h-1022zM272 1804q0 72 33 103.5t105 31.5q139 0 139 -135q0 -72 -34.5 -103.5t-104.5 -31.5q-72 0 -105 32t-33 103zM821 1804q0 72 34 103.5t106 31.5q139 0 139 -135q0 -72 -34.5 -103.5t-104.5 -31.5 q-72 0 -106 32t-34 103z" />
<glyph unicode="&#xcc;" horiz-adv-x="575" d="M6 1960h240l147 -295l-174 -25zM172 0v1516h234v-1516h-234z" />
<glyph unicode="&#xcd;" horiz-adv-x="575" d="M172 0v1516h234v-1516h-234zM193 1655l147 305h240l-213 -320z" />
<glyph unicode="&#xce;" horiz-adv-x="575" d="M-68 1655v172l359 153l360 -153v-172l-360 153zM172 0v1516h234v-1516h-234z" />
<glyph unicode="&#xcf;" horiz-adv-x="575" d="M-121 1804q0 72 33 103.5t104 31.5q139 0 140 -135q0 -72 -35 -103.5t-105 -31.5q-72 0 -104.5 32t-32.5 103zM172 0v1516h234v-1516h-234zM428 1804q0 72 34 103.5t105 31.5q139 0 140 -135q0 -72 -35 -103.5t-105 -31.5q-72 0 -105.5 32t-33.5 103z" />
<glyph unicode="&#xd0;" horiz-adv-x="1550" d="M8 668v182h193v661q123 10 244.5 16.5t205.5 6.5q414 0 607.5 -187.5t193.5 -588.5q0 -205 -49 -352.5t-151.5 -242.5t-264.5 -140.5t-385 -45.5q-121 0 -229.5 7.5t-171.5 21.5v662h-193zM432 188q70 -10 126 -15t122 -5q141 0 241.5 34t165 104.5t95 182t30.5 269.5 q0 156 -30.5 266.5t-95 181t-165 103t-241.5 32.5q-51 0 -117.5 -4t-130.5 -10v-477h338v-182h-338v-480z" />
<glyph unicode="&#xd1;" horiz-adv-x="1617" d="M172 0v1516h195l737 -986l119 -178h16v1164h209v-1516h-197l-735 981l-123 182l-12 -2v-1161h-209zM389 1761q59 88 133 134.5t144 46.5q49 0 94 -13.5t89 -29t88 -28.5t91 -13t92 18t94 59l50 -57q-59 -88 -135 -134t-150 -46q-47 0 -91 12t-88 27.5t-88 28t-89 12.5 q-47 0 -92.5 -16.5t-92.5 -57.5z" />
<glyph unicode="&#xd2;" horiz-adv-x="1558" d="M98 756q0 385 175.5 582.5t504.5 197.5q330 0 506 -197.5t176 -582.5q0 -383 -176 -579.5t-506 -196.5t-505 195.5t-175 580.5zM336 756q0 -303 107.5 -443.5t334.5 -140.5q229 0 337 140.5t108 443.5t-109.5 445t-335.5 142q-227 0 -334.5 -140t-107.5 -447zM469 1960 h240l147 -295l-174 -25z" />
<glyph unicode="&#xd3;" horiz-adv-x="1558" d="M98 756q0 385 175.5 582.5t504.5 197.5q330 0 506 -197.5t176 -582.5q0 -383 -176 -579.5t-506 -196.5t-505 195.5t-175 580.5zM336 756q0 -303 107.5 -443.5t334.5 -140.5q229 0 337 140.5t108 443.5t-109.5 445t-335.5 142q-227 0 -334.5 -140t-107.5 -447zM680 1655 l147 305h240l-213 -320z" />
<glyph unicode="&#xd4;" horiz-adv-x="1558" d="M98 756q0 385 175.5 582.5t504.5 197.5q330 0 506 -197.5t176 -582.5q0 -383 -176 -579.5t-506 -196.5t-505 195.5t-175 580.5zM336 756q0 -303 107.5 -443.5t334.5 -140.5q229 0 337 140.5t108 443.5t-109.5 445t-335.5 142q-227 0 -334.5 -140t-107.5 -447zM418 1655 v172l358 153l361 -153v-172l-361 153z" />
<glyph unicode="&#xd5;" horiz-adv-x="1558" d="M98 756q0 385 175.5 582.5t504.5 197.5q330 0 506 -197.5t176 -582.5q0 -383 -176 -579.5t-506 -196.5t-505 195.5t-175 580.5zM336 756q0 -303 107.5 -443.5t334.5 -140.5q229 0 337 140.5t108 443.5t-109.5 445t-335.5 142q-227 0 -334.5 -140t-107.5 -447zM358 1761 q59 88 133 134.5t144 46.5q49 0 94 -13.5t89 -29t88 -28.5t91 -13t92.5 18t94.5 59l49 -57q-59 -88 -135 -134t-150 -46q-47 0 -91 12t-88 27.5t-88 28t-89 12.5q-47 0 -92 -16.5t-92 -57.5z" />
<glyph unicode="&#xd6;" horiz-adv-x="1558" d="M98 756q0 385 175.5 582.5t504.5 197.5q330 0 506 -197.5t176 -582.5q0 -383 -176 -579.5t-506 -196.5t-505 195.5t-175 580.5zM336 756q0 -303 107.5 -443.5t334.5 -140.5q229 0 337 140.5t108 443.5t-109.5 445t-335.5 142q-227 0 -334.5 -140t-107.5 -447zM360 1804 q0 72 33 103.5t105 31.5q139 0 139 -135q0 -72 -34.5 -103.5t-104.5 -31.5q-72 0 -105 32t-33 103zM909 1804q0 72 34 103.5t106 31.5q139 0 139 -135q0 -72 -34.5 -103.5t-104.5 -31.5q-72 0 -106 32t-34 103z" />
<glyph unicode="&#xd7;" horiz-adv-x="987" d="M109 485l272 273l-272 274l110 111l273 -275l274 275l111 -111l-275 -274l275 -273l-109 -110l-276 272l-273 -272z" />
<glyph unicode="&#xd8;" horiz-adv-x="1562" d="M66 0l178 217q-143 197 -144 539q0 385 175.5 582.5t504.5 197.5q266 0 437 -135l94 115h184l-178 -218q72 -98 108.5 -233t36.5 -309q0 -383 -175 -579.5t-507 -196.5q-270 0 -438 133l-92 -113h-184zM338 756q0 -221 57 -355l688 836q-109 106 -303 106 q-227 0 -334.5 -140t-107.5 -447zM477 276q104 -104 303 -104q229 0 338 140.5t109 443.5q0 221 -62 360z" />
<glyph unicode="&#xd9;" horiz-adv-x="1574" d="M156 616v900h233v-900q0 -236 97.5 -339t301.5 -103q201 0 298.5 103.5t97.5 338.5v900h235v-900q0 -166 -34.5 -285.5t-111.5 -198.5t-197 -115.5t-288 -36.5q-170 0 -290.5 36.5t-196.5 115.5t-110.5 199t-34.5 285zM481 1960h240l147 -295l-174 -25z" />
<glyph unicode="&#xda;" horiz-adv-x="1574" d="M156 616v900h233v-900q0 -236 97.5 -339t301.5 -103q201 0 298.5 103.5t97.5 338.5v900h235v-900q0 -166 -34.5 -285.5t-111.5 -198.5t-197 -115.5t-288 -36.5q-170 0 -290.5 36.5t-196.5 115.5t-110.5 199t-34.5 285zM670 1655l147 305h240l-213 -320z" />
<glyph unicode="&#xdb;" horiz-adv-x="1574" d="M156 616v900h233v-900q0 -236 97.5 -339t301.5 -103q201 0 298.5 103.5t97.5 338.5v900h235v-900q0 -166 -34.5 -285.5t-111.5 -198.5t-197 -115.5t-288 -36.5q-170 0 -290.5 36.5t-196.5 115.5t-110.5 199t-34.5 285zM420 1655v172l358 153l361 -153v-172l-361 153z" />
<glyph unicode="&#xdc;" horiz-adv-x="1574" d="M156 616v900h233v-900q0 -236 97.5 -339t301.5 -103q201 0 298.5 103.5t97.5 338.5v900h235v-900q0 -166 -34.5 -285.5t-111.5 -198.5t-197 -115.5t-288 -36.5q-170 0 -290.5 36.5t-196.5 115.5t-110.5 199t-34.5 285zM369 1804q0 72 32.5 103.5t104.5 31.5 q139 0 139 -135q0 -72 -34.5 -103.5t-104.5 -31.5q-72 0 -104.5 32t-32.5 103zM918 1804q0 72 33.5 103.5t105.5 31.5q139 0 139 -135q0 -72 -34.5 -103.5t-104.5 -31.5q-72 0 -105.5 32t-33.5 103z" />
<glyph unicode="&#xdd;" horiz-adv-x="1347" d="M0 1516h252l348 -658l64 -141h18l63 141l349 658h249l-552 -1010v-506h-232v500zM580 1655l147 305h240l-213 -320z" />
<glyph unicode="&#xde;" horiz-adv-x="1361" d="M172 0v1518h234v-246q88 6 178 6q369 0 538.5 -124t169.5 -396q0 -137 -41 -235.5t-126 -162t-218 -93t-317 -29.5q-45 0 -91 1t-93 5v-244h-234zM406 449q10 -4 34.5 -6.5t54 -4.5t60.5 -3t51 -1q129 0 215 16.5t138.5 54.5t75 99.5t22.5 153.5q0 90 -23.5 151.5 t-78 99.5t-141.5 54t-216 16h-45t-54.5 -2t-53 -4t-39.5 -6v-618z" />
<glyph unicode="&#xdf;" horiz-adv-x="1421" d="M145 0v1198q0 242 133.5 352.5t401.5 110.5q270 0 404.5 -111.5t134.5 -351.5v-237h-224q-233 0 -233 -152q0 -43 17.5 -71.5t50 -46t78.5 -29t104 -21.5q76 -12 140.5 -33.5t111.5 -59.5t73.5 -94.5t26.5 -140.5q0 -160 -114.5 -248t-325.5 -88q-80 0 -175.5 11.5 t-218.5 38.5v166q211 -51 383 -52q115 0 172.5 41t57.5 119q0 82 -58.5 118t-160.5 52q-63 10 -131 24.5t-124.5 48.5t-92 95t-35.5 164q0 154 115.5 240.5t318.5 86.5h12v68q0 150 -73.5 214.5t-231.5 64.5q-160 0 -233.5 -63.5t-73.5 -215.5v-1198h-230z" />
<glyph unicode="&#xe0;" horiz-adv-x="1124" d="M76 289q0 162 100 245.5t320 100.5l262 20v60q0 68 -11.5 111.5t-41 71.5t-81 39t-128.5 11q-72 0 -157 -9t-177 -28l-17 168q213 39 394 39q229 0 338.5 -89t109.5 -275v-754h-188l-23 137h-14q-94 -72 -189.5 -109.5t-193.5 -37.5q-147 0 -225 76.5t-78 222.5z M270 1653h244l141 -377l-168 -21zM307 311q0 -153 160 -153q70 0 145.5 30.5t145.5 77.5v256l-195 -18q-143 -14 -199.5 -56t-56.5 -137z" />
<glyph unicode="&#xe1;" horiz-adv-x="1124" d="M76 289q0 162 100 245.5t320 100.5l262 20v60q0 68 -11.5 111.5t-41 71.5t-81 39t-128.5 11q-72 0 -157 -9t-177 -28l-17 168q213 39 394 39q229 0 338.5 -89t109.5 -275v-754h-188l-23 137h-14q-94 -72 -189.5 -109.5t-193.5 -37.5q-147 0 -225 76.5t-78 222.5zM307 311 q0 -153 160 -153q70 0 145.5 30.5t145.5 77.5v256l-195 -18q-143 -14 -199.5 -56t-56.5 -137zM479 1264l142 378h235l-213 -395z" />
<glyph unicode="&#xe2;" horiz-adv-x="1124" d="M76 289q0 162 100 245.5t320 100.5l262 20v60q0 68 -11.5 111.5t-41 71.5t-81 39t-128.5 11q-72 0 -157 -9t-177 -28l-17 168q213 39 394 39q229 0 338.5 -89t109.5 -275v-754h-188l-23 137h-14q-94 -72 -189.5 -109.5t-193.5 -37.5q-147 0 -225 76.5t-78 222.5z M211 1280v170l356 154l361 -154v-170l-359 154zM307 311q0 -153 160 -153q70 0 145.5 30.5t145.5 77.5v256l-195 -18q-143 -14 -199.5 -56t-56.5 -137z" />
<glyph unicode="&#xe3;" horiz-adv-x="1124" d="M76 289q0 162 100 245.5t320 100.5l262 20v60q0 68 -11.5 111.5t-41 71.5t-81 39t-128.5 11q-72 0 -157 -9t-177 -28l-17 168q213 39 394 39q229 0 338.5 -89t109.5 -275v-754h-188l-23 137h-14q-94 -72 -189.5 -109.5t-193.5 -37.5q-147 0 -225 76.5t-78 222.5z M135 1378q59 90 132 134t143 44q51 0 96 -13t88 -29.5t87 -30t91 -13.5q90 0 184 76l52 -59q-57 -88 -133 -134t-150 -46q-47 0 -92 13t-89 30.5t-88 31t-89 13.5q-47 0 -90.5 -18.5t-90.5 -59.5zM307 311q0 -153 160 -153q70 0 145.5 30.5t145.5 77.5v256l-195 -18 q-143 -14 -199.5 -56t-56.5 -137z" />
<glyph unicode="&#xe4;" horiz-adv-x="1124" d="M76 289q0 162 100 245.5t320 100.5l262 20v60q0 68 -11.5 111.5t-41 71.5t-81 39t-128.5 11q-72 0 -157 -9t-177 -28l-17 168q213 39 394 39q229 0 338.5 -89t109.5 -275v-754h-188l-23 137h-14q-94 -72 -189.5 -109.5t-193.5 -37.5q-147 0 -225 76.5t-78 222.5z M190 1438q0 63 31 90.5t94 27.5q125 0 125 -118q0 -125 -125 -125t-125 125zM307 311q0 -153 160 -153q70 0 145.5 30.5t145.5 77.5v256l-195 -18q-143 -14 -199.5 -56t-56.5 -137zM696 1438q0 63 31 90.5t94 27.5q125 0 125 -118q0 -125 -125 -125t-125 125z" />
<glyph unicode="&#xe5;" horiz-adv-x="1124" d="M76 289q0 162 100 245.5t320 100.5l262 20v60q0 68 -11.5 111.5t-41 71.5t-81 39t-128.5 11q-72 0 -157 -9t-177 -28l-17 168q213 39 394 39q229 0 338.5 -89t109.5 -275v-754h-188l-23 137h-14q-94 -72 -189.5 -109.5t-193.5 -37.5q-147 0 -225 76.5t-78 222.5zM307 311 q0 -153 160 -153q70 0 145.5 30.5t145.5 77.5v256l-195 -18q-143 -14 -199.5 -56t-56.5 -137zM307 1448q0 49 19.5 91t53.5 71.5t81 47t102 17.5q113 0 184.5 -64.5t71.5 -162.5q0 -49 -19.5 -90t-53 -71t-81 -46t-102.5 -16t-102 16t-81 46t-53.5 71t-19.5 90zM422 1448 q0 -59 34.5 -92t106.5 -33t107 33t35 92t-35 93t-107 34t-106.5 -34t-34.5 -93z" />
<glyph unicode="&#xe6;" horiz-adv-x="1818" d="M78 289q0 160 100.5 243.5t317.5 100.5l264 20v80q0 121 -59.5 168t-211.5 47q-70 0 -152.5 -9t-172.5 -28l-19 168q111 20 206 29.5t190 9.5q281 0 358 -176h12q59 86 153.5 132t225.5 46q217 0 328 -124t111 -365q0 -51 -3.5 -86t-9.5 -64h-725q8 -170 86 -246.5 t240 -76.5q86 0 181 13t181 42l11 -172q-88 -29 -193 -46.5t-201 -17.5q-295 0 -419 193l-13 2q-156 -100 -270.5 -141t-216.5 -41q-147 0 -223 76.5t-76 222.5zM309 311q0 -155 160 -155q66 0 141.5 29.5t155.5 84.5q-2 4 -3 42t-2 82t-1 84v46l-197 -18 q-141 -14 -197.5 -57t-56.5 -138zM991 612h531q-4 182 -59.5 260t-180.5 78q-276 0 -291 -338z" />
<glyph unicode="&#xe7;" horiz-adv-x="999" d="M90 551q0 573 539 573q70 0 145.5 -8t136.5 -22v-187q-66 12 -132 19.5t-128 7.5q-174 0 -253 -91t-79 -290q0 -201 77 -291t251 -90q76 0 136.5 5t127.5 20v-185q-47 -12 -113.5 -20t-133.5 -10q45 -66 60 -111t15 -92q0 -111 -66.5 -170.5t-185.5 -59.5q-41 0 -91 7.5 t-97 17.5v145q68 -23 147 -22q70 0 101 25.5t31 78.5q0 41 -17.5 86t-58.5 105q-412 57 -412 559z" />
<glyph unicode="&#xe8;" horiz-adv-x="1142" d="M92 541q0 285 132 434t388 149q442 0 443 -493q0 -96 -15 -152h-721q12 -172 88 -244.5t240 -72.5q82 0 177.5 14t181.5 41l10 -170q-86 -31 -190.5 -48t-202.5 -17q-266 0 -398.5 140t-132.5 419zM285 1653h243l142 -377l-168 -21zM319 623h529q-4 180 -60.5 256.5 t-183.5 76.5q-135 0 -203.5 -80.5t-81.5 -252.5z" />
<glyph unicode="&#xe9;" horiz-adv-x="1142" d="M92 541q0 285 132 434t388 149q442 0 443 -493q0 -96 -15 -152h-721q12 -172 88 -244.5t240 -72.5q82 0 177.5 14t181.5 41l10 -170q-86 -31 -190.5 -48t-202.5 -17q-266 0 -398.5 140t-132.5 419zM319 623h529q-4 180 -60.5 256.5t-183.5 76.5q-135 0 -203.5 -80.5 t-81.5 -252.5zM528 1264l142 378h235l-213 -395z" />
<glyph unicode="&#xea;" horiz-adv-x="1142" d="M92 541q0 285 132 434t388 149q442 0 443 -493q0 -96 -15 -152h-721q12 -172 88 -244.5t240 -72.5q82 0 177.5 14t181.5 41l10 -170q-86 -31 -190.5 -48t-202.5 -17q-266 0 -398.5 140t-132.5 419zM240 1280v170l356 154l360 -154v-170l-358 154zM319 623h529 q-4 180 -60.5 256.5t-183.5 76.5q-135 0 -203.5 -80.5t-81.5 -252.5z" />
<glyph unicode="&#xeb;" horiz-adv-x="1142" d="M92 541q0 285 132 434t388 149q442 0 443 -493q0 -96 -15 -152h-721q12 -172 88 -244.5t240 -72.5q82 0 177.5 14t181.5 41l10 -170q-86 -31 -190.5 -48t-202.5 -17q-266 0 -398.5 140t-132.5 419zM213 1438q0 63 30.5 90.5t94.5 27.5q125 0 125 -118q0 -125 -125 -125 t-125 125zM319 623h529q-4 180 -60.5 256.5t-183.5 76.5q-135 0 -203.5 -80.5t-81.5 -252.5zM719 1438q0 63 30.5 90.5t94.5 27.5q125 0 125 -118q0 -125 -125 -125t-125 125z" />
<glyph unicode="&#xec;" horiz-adv-x="524" d="M-45 1653h244l141 -377l-168 -21zM147 0v1106h230v-1106h-230z" />
<glyph unicode="&#xed;" horiz-adv-x="524" d="M147 0v1106h230v-1106h-230zM182 1264l142 378h235l-213 -395z" />
<glyph unicode="&#xee;" horiz-adv-x="526" d="M-76 1280v170l342 154l348 -154v-170l-346 154zM147 0v1106h230v-1106h-230z" />
<glyph unicode="&#xef;" horiz-adv-x="526" d="M-96 1438q0 63 29.5 90.5t95.5 27.5q125 0 125 -118q0 -125 -125 -125t-125 125zM147 0v1106h230v-1106h-230zM379 1438q0 63 30.5 90.5t94.5 27.5q125 0 125 -118q0 -125 -125 -125t-125 125z" />
<glyph unicode="&#xf0;" d="M88 551q0 279 136 427t384 148q106 0 180 -37.5t127 -119.5q-20 88 -49.5 170t-70.5 159l-361 -36v149l277 29q-74 111 -172 215h237q31 -41 66 -88t69 -105l312 33v-152l-232 -24q70 -141 119 -318.5t49 -388.5q0 -311 -137 -471.5t-399 -160.5q-258 0 -396.5 146 t-138.5 425zM322 553q0 -207 71.5 -299t231.5 -92t232.5 98t72.5 315q0 80 -18.5 148t-55.5 117t-95.5 76.5t-137.5 27.5q-160 0 -230.5 -93t-70.5 -298z" />
<glyph unicode="&#xf1;" d="M145 0v1106h193l14 -127h13q160 78 269 112.5t202 34.5q143 0 220 -75.5t77 -229.5v-821h-228v745q0 104 -40 149.5t-124 45.5q-72 0 -167 -29.5t-199 -79.5v-831h-230zM215 1378q59 90 132 134t142 44q51 0 96.5 -13t88.5 -29.5t87 -30t91 -13.5q90 0 184 76l51 -59 q-57 -88 -132.5 -134t-149.5 -46q-47 0 -92 13t-89 30.5t-88 31t-90 13.5q-47 0 -90 -18.5t-90 -59.5z" />
<glyph unicode="&#xf2;" horiz-adv-x="1249" d="M88 553q0 281 137 427t400 146q262 0 398 -146t136 -427t-136 -427t-398 -146t-399.5 146t-137.5 427zM305 1653h244l141 -377l-168 -21zM322 553q0 -209 71.5 -300t231.5 -91t232.5 91t72.5 300t-73 300t-232 91q-160 0 -231.5 -91t-71.5 -300z" />
<glyph unicode="&#xf3;" horiz-adv-x="1249" d="M88 553q0 281 137 427t400 146q262 0 398 -146t136 -427t-136 -427t-398 -146t-399.5 146t-137.5 427zM322 553q0 -209 71.5 -300t231.5 -91t232.5 91t72.5 300t-73 300t-232 91q-160 0 -231.5 -91t-71.5 -300zM532 1264l142 378h235l-213 -395z" />
<glyph unicode="&#xf4;" horiz-adv-x="1249" d="M88 553q0 281 137 427t400 146q262 0 398 -146t136 -427t-136 -427t-398 -146t-399.5 146t-137.5 427zM262 1280v170l356 154l361 -154v-170l-358 154zM322 553q0 -209 71.5 -300t231.5 -91t232.5 91t72.5 300t-73 300t-232 91q-160 0 -231.5 -91t-71.5 -300z" />
<glyph unicode="&#xf5;" horiz-adv-x="1249" d="M88 553q0 281 137 427t400 146q262 0 398 -146t136 -427t-136 -427t-398 -146t-399.5 146t-137.5 427zM188 1378q59 90 132 134t143 44q51 0 96 -13t88 -29.5t87 -30t91 -13.5q90 0 185 76l51 -59q-57 -88 -133 -134t-150 -46q-47 0 -92 13t-89 30.5t-88 31t-89 13.5 q-47 0 -90 -18.5t-90 -59.5zM322 553q0 -209 71.5 -300t231.5 -91t232.5 91t72.5 300t-73 300t-232 91q-160 0 -231.5 -91t-71.5 -300z" />
<glyph unicode="&#xf6;" horiz-adv-x="1249" d="M88 553q0 281 137 427t400 146q262 0 398 -146t136 -427t-136 -427t-398 -146t-399.5 146t-137.5 427zM242 1438q0 63 30.5 90.5t94.5 27.5q125 0 125 -118q0 -125 -125 -125t-125 125zM322 553q0 -209 71.5 -300t231.5 -91t232.5 91t72.5 300t-73 300t-232 91 q-160 0 -231.5 -91t-71.5 -300zM748 1438q0 63 30.5 90.5t93.5 27.5q125 0 125 -118q0 -125 -125 -125t-124 125z" />
<glyph unicode="&#xf7;" horiz-adv-x="1073" d="M117 680v156h839v-156h-839zM432 414q0 53 31 80.5t80 27.5q47 0 77.5 -27.5t30.5 -80.5q0 -55 -30.5 -83t-77.5 -28q-49 0 -80 27.5t-31 83.5zM432 1092q0 55 31 83.5t80 28.5q47 0 77.5 -29.5t30.5 -82.5t-30.5 -81t-77.5 -28q-49 0 -80 27.5t-31 81.5z" />
<glyph unicode="&#xf8;" horiz-adv-x="1261" d="M41 0l156 172q-100 139 -101 381q0 274 133 423.5t402 149.5q209 0 342 -98l69 78h181l-156 -172q100 -147 100 -381q0 -274 -134 -423.5t-402 -149.5q-211 0 -342 96l-70 -76h-178zM328 553q0 -127 24 -209l488 537q-72 63 -209 63q-172 0 -237.5 -95t-65.5 -296z M422 223q70 -61 209 -61q172 0 238.5 95t66.5 296q0 125 -25 209z" />
<glyph unicode="&#xf9;" d="M137 285v821h230v-752q0 -102 35.5 -144t121.5 -42q88 0 184.5 36t188.5 79v823h229v-1106h-192l-14 133h-9q-84 -41 -145 -69.5t-114.5 -47t-106 -27.5t-115.5 -9q-145 0 -219 77.5t-74 227.5zM317 1653h244l141 -377l-167 -21z" />
<glyph unicode="&#xfa;" d="M137 285v821h230v-752q0 -102 35.5 -144t121.5 -42q88 0 184.5 36t188.5 79v823h229v-1106h-192l-14 133h-9q-84 -41 -145 -69.5t-114.5 -47t-106 -27.5t-115.5 -9q-145 0 -219 77.5t-74 227.5zM539 1264l141 378h235l-213 -395z" />
<glyph unicode="&#xfb;" d="M137 285v821h230v-752q0 -102 35.5 -144t121.5 -42q88 0 184.5 36t188.5 79v823h229v-1106h-192l-14 133h-9q-84 -41 -145 -69.5t-114.5 -47t-106 -27.5t-115.5 -9q-145 0 -219 77.5t-74 227.5zM274 1280v170l357 154l360 -154v-170l-358 154z" />
<glyph unicode="&#xfc;" d="M137 285v821h230v-752q0 -102 35.5 -144t121.5 -42q88 0 184.5 36t188.5 79v823h229v-1106h-192l-14 133h-9q-84 -41 -145 -69.5t-114.5 -47t-106 -27.5t-115.5 -9q-145 0 -219 77.5t-74 227.5zM252 1438q0 63 30.5 90.5t94.5 27.5q125 0 125 -118q0 -125 -125 -125 t-125 125zM758 1438q0 63 30.5 90.5t94.5 27.5q125 0 125 -118q0 -125 -125 -125t-125 125z" />
<glyph unicode="&#xfd;" horiz-adv-x="1193" d="M27 1081v25h243l267 -690l53 -172h14l53 172l275 690h239v-25l-643 -1532l-213 35l-2 23l168 405zM520 1264l142 378h235l-213 -395z" />
<glyph unicode="&#xfe;" horiz-adv-x="1267" d="M145 -451v2106h230v-664q57 59 145 97t211 38q225 0 336 -136t111 -423q0 -293 -145.5 -440t-438.5 -147q-47 0 -107.5 6t-111.5 12v-449h-230zM375 170q55 -14 115.5 -21.5t105.5 -7.5q92 0 157.5 18.5t108.5 64.5t63.5 124t20.5 199q0 119 -16.5 198.5t-52 126 t-89 65.5t-126.5 19q-287 0 -287 -338v-448z" />
<glyph unicode="&#xff;" horiz-adv-x="1193" d="M27 1081v25h243l267 -690l53 -172h14l53 172l275 690h239v-25l-643 -1532l-213 35l-2 23l168 405zM221 1438q0 63 31 90.5t94 27.5q125 0 125 -118q0 -125 -125 -125t-125 125zM727 1438q0 63 30.5 90.5t94.5 27.5q125 0 125 -118q0 -125 -125 -125t-125 125z" />
<glyph unicode="&#x152;" horiz-adv-x="2086" d="M96 756q0 383 179.5 580.5t510.5 197.5q66 0 120.5 -4t105.5 -14h958v-189h-727v-465h674v-186h-674v-488h746v-188h-977q-103 -18 -226 -18q-334 0 -512 196.5t-178 577.5zM334 756q0 -303 110.5 -441.5t348.5 -138.5q61 0 115.5 3t101.5 14v1128q-47 10 -100.5 14 t-116.5 4q-238 0 -348.5 -140t-110.5 -443z" />
<glyph unicode="&#x153;" horiz-adv-x="1986" d="M88 553q0 281 137 427t400 146q150 0 254 -58t157 -169h15q53 109 156.5 167t250.5 58q217 0 327.5 -123.5t110.5 -363.5q0 -49 -2 -85t-10 -67h-725q8 -170 87 -246.5t239 -76.5q84 0 179 13t183 42l11 -170q-86 -31 -192 -48t-202 -17q-154 0 -259 56t-158 163h-11 q-55 -106 -159.5 -163.5t-251.5 -57.5q-262 0 -399.5 146t-137.5 427zM322 553q0 -209 71.5 -300t231.5 -91t232.5 91t72.5 300t-73 300t-232 91q-160 0 -231.5 -91t-71.5 -300zM1159 616h533q-6 182 -62.5 261t-181.5 79q-274 0 -289 -340z" />
<glyph unicode="&#x178;" horiz-adv-x="1347" d="M0 1516h252l348 -658l64 -141h18l63 141l349 658h249l-552 -1010v-506h-232v500zM260 1804q0 72 33 103.5t104 31.5q139 0 140 -135q0 -72 -35 -103.5t-105 -31.5q-72 0 -104.5 32t-32.5 103zM809 1804q0 72 34 103.5t105 31.5q139 0 139 -135q0 -72 -34.5 -103.5 t-104.5 -31.5q-72 0 -105.5 32t-33.5 103z" />
<glyph unicode="&#x2c6;" horiz-adv-x="948" d="M109 1280v170l356 154l360 -154v-170l-358 154z" />
<glyph unicode="&#x2dc;" horiz-adv-x="1038" d="M72 1378q59 90 131.5 134t142.5 44q51 0 96 -13t88 -29.5t87.5 -30t91.5 -13.5q90 0 184 76l51 -59q-57 -88 -133 -134t-149 -46q-47 0 -92.5 13t-89.5 30.5t-88 31t-89 13.5q-47 0 -90 -18.5t-90 -59.5z" />
<glyph unicode="&#x2000;" horiz-adv-x="1024" />
<glyph unicode="&#x2001;" horiz-adv-x="2048" />
<glyph unicode="&#x2002;" horiz-adv-x="1024" />
<glyph unicode="&#x2003;" horiz-adv-x="2048" />
<glyph unicode="&#x2004;" horiz-adv-x="682" />
<glyph unicode="&#x2005;" horiz-adv-x="512" />
<glyph unicode="&#x2006;" horiz-adv-x="341" />
<glyph unicode="&#x2007;" horiz-adv-x="341" />
<glyph unicode="&#x2008;" horiz-adv-x="256" />
<glyph unicode="&#x2009;" horiz-adv-x="409" />
<glyph unicode="&#x200a;" horiz-adv-x="113" />
<glyph unicode="&#x2010;" horiz-adv-x="974" d="M131 483v181h713v-181h-713z" />
<glyph unicode="&#x2011;" horiz-adv-x="974" d="M131 483v181h713v-181h-713z" />
<glyph unicode="&#x2012;" horiz-adv-x="974" d="M131 483v181h713v-181h-713z" />
<glyph unicode="&#x2013;" horiz-adv-x="1288" d="M133 483v181h1022v-181h-1022z" />
<glyph unicode="&#x2014;" horiz-adv-x="1638" d="M133 483v181h1372v-181h-1372z" />
<glyph unicode="&#x2018;" horiz-adv-x="452" d="M104 1225q0 104 35 223t99 211l124 -10q-35 -78 -53 -175.5t-18 -189.5q0 -57 9 -110.5t32 -112.5l-203 -14q-10 37 -17.5 80.5t-7.5 97.5z" />
<glyph unicode="&#x2019;" horiz-adv-x="450" d="M96 1059q35 76 53.5 174t18.5 190q0 55 -9 108.5t-32 113.5l201 14q27 -72 26 -178q0 -104 -34.5 -223t-100.5 -211z" />
<glyph unicode="&#x201a;" horiz-adv-x="464" d="M78 -289q35 76 53.5 174.5t18.5 190.5q0 55 -9.5 108.5t-31.5 112.5l200 14q27 -72 27 -178q0 -104 -35 -223t-100 -211z" />
<glyph unicode="&#x201c;" horiz-adv-x="907" d="M104 1225q0 104 35 223t99 211l124 -10q-35 -78 -53 -175.5t-18 -189.5q0 -57 9 -110.5t32 -112.5l-203 -14q-10 37 -17.5 80.5t-7.5 97.5zM559 1225q0 104 35 223t98 211l125 -10q-35 -78 -53.5 -175.5t-18.5 -189.5q0 -57 9.5 -110.5t31.5 -112.5l-202 -14 q-10 37 -17.5 80.5t-7.5 97.5z" />
<glyph unicode="&#x201d;" horiz-adv-x="903" d="M96 1059q35 76 53.5 174t18.5 190q0 55 -9 108.5t-32 113.5l201 14q27 -72 26 -178q0 -104 -34.5 -223t-100.5 -211zM551 1059q35 76 53.5 174t18.5 190q0 55 -9.5 108.5t-31.5 113.5l200 14q27 -72 27 -178q0 -104 -35 -223t-100 -211z" />
<glyph unicode="&#x201e;" horiz-adv-x="919" d="M78 -289q35 76 53.5 174.5t18.5 190.5q0 55 -9.5 108.5t-31.5 112.5l200 14q27 -72 27 -178q0 -104 -35 -223t-100 -211zM532 -289q35 76 53.5 174.5t18.5 190.5q0 55 -9 108.5t-32 112.5l201 14q27 -72 27 -178q0 -104 -35 -223t-101 -211z" />
<glyph unicode="&#x2022;" horiz-adv-x="704" d="M160 758q0 100 54 145t138 45t138.5 -45t54.5 -145t-54.5 -144.5t-138.5 -44.5t-138 44t-54 145z" />
<glyph unicode="&#x2026;" horiz-adv-x="1488" d="M115 123q0 68 36.5 100.5t102.5 32.5t103.5 -33t37.5 -100q0 -66 -37.5 -99.5t-103.5 -33.5t-102.5 33.5t-36.5 99.5zM612 123q0 68 37 100.5t103 32.5t103.5 -33t37.5 -100q0 -66 -37.5 -99.5t-103.5 -33.5t-103 33.5t-37 99.5zM1096 123q0 68 36.5 100.5t102.5 32.5 t103.5 -33t37.5 -100q0 -66 -37.5 -99.5t-103.5 -33.5t-102.5 33.5t-36.5 99.5z" />
<glyph unicode="&#x202f;" horiz-adv-x="409" />
<glyph unicode="&#x2039;" horiz-adv-x="755" d="M66 549v8l368 487h238l-369 -487v-8l369 -488h-238z" />
<glyph unicode="&#x203a;" horiz-adv-x="755" d="M86 61l369 488v8l-369 487h236l368 -487v-8l-368 -488h-236z" />
<glyph unicode="&#x205f;" horiz-adv-x="512" />
<glyph unicode="&#x20ac;" horiz-adv-x="1333" d="M84 514v141h166q-2 25 -2 49.5v51.5v52.5t2 49.5h-166v141h182q47 276 225.5 405.5t512.5 129.5q86 0 143 -7t102 -14l-65 -190q-23 4 -60 7t-77 3q-129 0 -223.5 -17.5t-160 -56t-104.5 -103t-57 -157.5h583l-36 -141h-564q-2 -25 -2 -49.5v-50.5v-54.5t2 -48.5h525 l-37 -141h-469q18 -92 58 -155.5t104.5 -103.5t156.5 -57.5t219 -17.5q41 0 88.5 3t96.5 14v-199q-72 -18 -211 -18q-338 4 -519.5 132t-230.5 402h-182z" />
<glyph unicode="&#x2122;" horiz-adv-x="1941" d="M66 1384v132h712v-132h-278v-729h-158v729h-276zM883 655v861h198l256 -631l256 631h197v-861h-143v635l-244 -600h-129l-244 600v-635h-147z" />
<glyph unicode="&#x25fc;" horiz-adv-x="1105" d="M0 0v1106h1106v-1106h-1106z" />
</font>
</defs>
</svg>
