<?xml version="1.0" standalone="no"?>
<!DOCTYPE svg PUBLIC "-//W3C//DTD SVG 1.1//EN" "http://www.w3.org/Graphics/SVG/1.1/DTD/svg11.dtd" >
<svg xmlns="http://www.w3.org/2000/svg">
<metadata></metadata>
<defs>
<font id="bubblegum_sansregular" horiz-adv-x="991" >
<font-face units-per-em="2048" ascent="1638" descent="-410" />
<missing-glyph horiz-adv-x="409" />
<glyph horiz-adv-x="0" />
<glyph horiz-adv-x="682" />
<glyph unicode=" "  horiz-adv-x="409" />
<glyph unicode="&#x09;" horiz-adv-x="409" />
<glyph unicode="&#xa0;" horiz-adv-x="409" />
<glyph unicode="!" horiz-adv-x="440" d="M61 1337q10 10 49 17t73 8l34 2q47 0 86 -7.5t57 -15.5t17 -14q0 -1 -5 -25.5t-11 -56t-12.5 -67.5t-10.5 -71t-4 -56q0 -33 -7.5 -169t-17 -286t-10.5 -172q-41 -14 -84 -14q-24 0 -45 2.5t-30 5.5l-9 2q0 195 -17.5 424t-35.5 361zM82 129q0 57 40 97t97 40t97 -40 t40 -97t-40 -97t-97 -40t-97 40t-40 97z" />
<glyph unicode="&#x22;" horiz-adv-x="688" d="M61 1356q37 26 113 26q75 0 113 -22q-51 -254 -51 -340q-29 -14 -66 -14q-13 0 -27.5 3.5t-22.5 6.5l-9 4q0 40 -12.5 124t-24.5 148zM401 1356q37 26 113 26q75 0 113 -22q-52 -254 -52 -340q-28 -14 -65 -14q-13 0 -27.5 3.5t-22.5 6.5l-9 4q0 40 -12.5 124t-24.5 148z " />
<glyph unicode="#" horiz-adv-x="1105" d="M61 479q0 65 23 88h207v211h-211q-19 23 -19 70q0 65 23 88h207v213q23 16 78 16q57 0 80 -20v-209h210v213q23 16 78 16q57 0 80 -20v-209h211q16 -23 16 -78q0 -57 -18 -80h-209v-211h211q16 -23 16 -78q0 -56 -18 -79h-209v-209q-22 -19 -69 -19q-68 0 -89 23v205 h-210v-209q-23 -19 -70 -19q-67 0 -88 23v205h-211q-19 22 -19 69zM449 567h210v211h-210v-211z" />
<glyph unicode="$" horiz-adv-x="1077" d="M61 274q0 108 7 132q5 18 66.5 43.5t125.5 25.5q1 -26 3 -65.5t16.5 -116t37.5 -98.5q11 -9 32.5 -14t37.5 -6l16 -1q49 0 93 6v447q-173 66 -241 106q-164 99 -165 248q0 49 24 99t71 98t127.5 88.5t183.5 64.5v90q47 45 118 45h13v-114q85 10 166 10q19 0 54 -3.5 t38 -6.5q2 -2 2 -23q0 -45 -10.5 -98t-32.5 -74q-3 0 -21 1t-37 1q-85 0 -159 -10l-2 -340q47 -17 79 -30t76.5 -34t74.5 -41t63 -49t52.5 -60t32.5 -72t13 -87q0 -143 -105 -259t-286 -173v-123q-43 -43 -117 -43h-12v135q-96 -14 -177 -14q-78 0 -136 4t-77 8l-18 4 q-13 11 -20 104t-7 195zM369 983q0 -39 32 -67.5t95 -55.5v258q-127 -43 -127 -135zM625 215q70 34 107.5 87.5t37.5 121.5q0 48 -37 83.5t-108 67.5v-360z" />
<glyph unicode="%" horiz-adv-x="1267" d="M61 1036q0 46 10 92t31.5 89t52 76t74 53t95.5 20q63 0 114.5 -30t83 -79t48 -106t16.5 -115q0 -67 -16.5 -120t-42.5 -86t-61.5 -54.5t-70 -30t-71.5 -8.5q-40 0 -74.5 7t-70 27t-61 52t-41.5 86.5t-16 126.5zM121 2l866 1362q20 4 31 4q28 0 58 -10t46 -20l17 -9 l-867 -1362q-20 -4 -30 -4q-27 0 -57.5 9.5t-46.5 19.5zM201 1032q0 -86 32 -131t91 -45t90.5 45t31.5 131q0 95 -35 153t-87 58t-87.5 -58t-35.5 -153zM680 285q0 58 16.5 115t48 105.5t83 78.5t114.5 30q64 0 116 -30t83.5 -78.5t48 -105.5t16.5 -115q0 -83 -24 -144 t-64.5 -93.5t-84 -47t-91.5 -14.5q-39 0 -73 7t-70 26.5t-61.5 51.5t-41.5 87t-16 127zM819 281q0 -86 32 -131.5t91 -45.5t92 46t33 131q0 95 -35.5 153t-89.5 58q-52 0 -87.5 -58t-35.5 -153z" />
<glyph unicode="&#x26;" horiz-adv-x="1267" d="M82 373q0 313 298 462q3 2 5 3q-55 143 -55 239q0 76 35.5 136t94.5 95t127.5 52.5t141.5 17.5q105 -6 113 -14q30 -56 30 -160q0 -18 -2 -26q-57 8 -106 8q-28 0 -56.5 -6t-58 -19.5t-47.5 -41t-18 -66.5q0 -101 108 -330t217 -385q43 56 64.5 153t21.5 175q0 5 -1 14.5 t-1 13.5q56 0 112 -19t84 -38l28 -19q0 -275 -177 -460q60 -82 129 -138q2 -2 2 -4q0 -20 -81 -66t-140 -46q-64 74 -98 121q-59 -34 -138 -55t-153 -21q-103 0 -189 26t-151.5 77t-102 133t-36.5 188zM322 385q0 -42 13.5 -81t41 -73t76 -54.5t112.5 -20.5q107 0 168 39 q-150 225 -250 442q-7 -2 -17.5 -6.5t-38.5 -24.5t-49 -45.5t-38.5 -72.5t-17.5 -103z" />
<glyph unicode="'" horiz-adv-x="348" d="M61 1356q37 26 113 26q75 0 113 -22q-51 -254 -51 -340q-29 -14 -66 -14q-13 0 -27.5 3.5t-22.5 6.5l-9 4q0 40 -12.5 124t-24.5 148z" />
<glyph unicode="(" horiz-adv-x="593" d="M61 664q0 114 17 222.5t43.5 191.5t60 156.5t66 124t62 88t48 55.5t23.5 20q20 8 123 8q37 0 61 -4q10 -3 6 -10q-21 -22 -48 -56.5t-73.5 -115.5t-82.5 -172t-63.5 -227.5t-27.5 -280.5q0 -145 27.5 -281.5t63 -227t82.5 -171t73.5 -114t48.5 -56.5q5 -7 -6 -11 q-24 -4 -61 -4q-103 0 -123 8q-9 3 -40.5 37t-80 108.5t-92.5 170t-75.5 240.5t-31.5 301z" />
<glyph unicode=")" horiz-adv-x="593" d="M23 -193.5q-2 3.5 2 7.5q22 24 47 56.5t72.5 114t82.5 171.5t62.5 226.5t27.5 281.5q0 144 -27.5 281t-62.5 227t-82.5 172t-72.5 115t-47 57q-7 6 4 10q24 4 63 4q103 0 123 -8q8 -3 39 -36.5t79 -108t92 -170.5t75.5 -241t31.5 -302q0 -156 -31.5 -301t-75.5 -240.5 t-92 -170.5t-79 -108.5t-39 -36.5q-20 -8 -123 -8q-39 0 -63 4q-4 0 -6 3.5z" />
<glyph unicode="*" horiz-adv-x="509" d="M41 1122l135 68l-131 67q0 25 12 46q7 13 15 22.5t12 12.5l4 3l129 -84l-10 150q13 10 55 10q11 0 21 -1.5t14 -3.5l4 -1l-6 -151l123 79q16 -6 37 -43q5 -9 8.5 -18t4.5 -14l1 -4l-135 -70l131 -66q0 -20 -19 -53q-5 -9 -11 -16.5t-9 -10.5l-4 -4l-127 80l6 -143 q-12 -12 -45 -12q-16 0 -28 1.5t-16 3.5l-5 1l10 149l-125 -78q-15 3 -33 35q-7 13 -11.5 24t-5.5 16z" />
<glyph unicode="+" horiz-adv-x="1105" d="M61 666q0 67 23 90h389v395q25 16 80 16q57 0 80 -18v-393h395q16 -23 16 -80q0 -58 -20 -78h-391v-393q-23 -19 -70 -19q-67 0 -90 23v389h-393q-19 21 -19 68z" />
<glyph unicode="," horiz-adv-x="370" d="M55 104q0 58 34 98t93 40q57 0 87 -46t30 -108q0 -70 -17 -127t-42 -89t-48 -49.5t-40 -21.5q-30 0 -54 16t-32 31q92 64 102 150q-50 0 -81.5 25t-31.5 81z" />
<glyph unicode="-" horiz-adv-x="1175" d="M61 387q0 69 23 90h1014q16 -23 16 -80t-18 -78h-1016q-19 21 -19 68z" />
<glyph unicode="." horiz-adv-x="382" d="M72 113q0 46 36 82t85 36t83.5 -34.5t34.5 -83.5t-37.5 -87t-85.5 -38q-51 0 -83.5 33.5t-32.5 91.5z" />
<glyph unicode="/" horiz-adv-x="1146" d="M0 -84l963 1524q30 6 61 6t62 -5t46 -11l15 -5l-969 -1523q-27 -6 -57 -6q-29 0 -59.5 5t-45.5 10z" />
<glyph unicode="0" horiz-adv-x="1288" d="M61 639q0 101 22.5 203t70.5 197.5t115 169.5t164.5 118.5t211.5 44.5t211 -44.5t164 -118.5t114.5 -169.5t70 -197.5t22.5 -203q0 -108 -19 -200t-51 -159.5t-78 -121t-96.5 -87.5t-109.5 -56.5t-114.5 -32t-113.5 -9.5q-85 0 -163.5 18.5t-156.5 66.5t-135.5 121 t-93 191.5t-35.5 268.5zM334 623q0 -215 81 -328t230 -113t230 113t81 328q0 240 -89.5 387t-221.5 147t-221.5 -147t-89.5 -387z" />
<glyph unicode="1" horiz-adv-x="686" d="M41 1079q0 51 6 96.5t12 51.5q22 22 208 90.5t227 68.5q6 0 6 -2q6 -6 6 -149q0 -97 -4 -384t-4 -407q0 -215 10 -225q34 2 65 2q37 0 41 -4q11 -43 11 -129q0 -78 -11 -78h-51q-89 0 -189 -7.5t-155 -14.5l-55 -8q-10 7 -10 88q0 106 12 118q3 3 24 6.5t40 5.5l20 3 q-2 29 -2 106q0 83 4 288.5t4 289.5q0 182 -14 196q-2 2 -15 2q-20 0 -64 -7.5t-80.5 -15t-37.5 -7.5q-4 0 -4 26z" />
<glyph unicode="2" horiz-adv-x="1079" d="M61 78q0 117 17 141q59 57 116.5 115t160 167.5t176 199.5t130 183t56.5 146q0 38 -17.5 64.5t-47.5 40t-61 19t-67 5.5q-46 0 -84 -11.5t-64 -28t-47 -43t-32.5 -49t-21.5 -53.5t-13.5 -48.5t-7.5 -42.5q-4 -4 -25 -4q-35 0 -85 10t-60 20q-6 6 -6 68q0 79 8 193t14 120 q9 8 70 24.5t162 32t190 15.5q234 0 358 -85t124 -218q0 -48 -23.5 -110t-71 -134.5t-93 -135.5t-116 -144.5t-112 -128t-107.5 -117.5l-57 -64q-2 -4 6 -6q16 -8 111 -8q137 0 274 12t197 31q6 0 6 -4q0 -54 -19.5 -136.5t-46.5 -109.5q-8 -8 -94 -14t-184 -6 q-30 0 -173.5 7t-197.5 7q-67 0 -119.5 -2t-79.5 -4t-32 -2q-11 8 -11 88z" />
<glyph unicode="3" horiz-adv-x="1112" d="M61 328q0 49 2 69q2 11 50.5 26t83.5 15q43 0 43 -4q0 -108 53 -177t170 -69q150 0 226.5 69t76.5 167q0 49 -23 87.5t-64.5 62.5t-88 40t-104 23.5t-101 10.5t-90.5 3q-8 0 -8 4q0 48 14 100t28 81.5t19 29.5l12 -2q13 -2 29 -2q65 0 115 13.5t76.5 32t43.5 42.5 t22 41.5t5 32.5q0 69 -70.5 104t-166.5 35q-63 0 -124.5 -9.5t-91.5 -19.5l-30 -10q-14 0 -14 58q0 41 10 101t22 71q96 28 248 28q79 0 148 -8.5t138.5 -30.5t118.5 -56.5t80 -91.5t31 -130q0 -54 -21.5 -102t-55 -80t-65.5 -52.5t-63 -31.5q-10 -4 0 -8q6 -2 17 -5.5 t43 -17.5t61 -31.5t64 -48.5t60.5 -67t43 -89t17.5 -112q0 -96 -39 -173.5t-103 -128.5t-149.5 -86t-176 -50t-186.5 -15q-88 0 -165.5 10.5t-110.5 20.5l-33 10q-8 9 -17.5 116.5t-9.5 203.5z" />
<glyph unicode="4" horiz-adv-x="1171" d="M41 489q0 55 246.5 428t376.5 517q4 4 26 10.5t70 13t104 6.5q17 0 44.5 -4.5t27.5 -13.5q0 -4 -2 -6q-35 -40 -81 -98t-46 -64q184 -4 184 -31q-10 -310 -10 -624v-78q102 0 139 6q10 4 10 -8q0 -58 -30 -126t-45 -83q-3 -3 -72 -6q0 -64 7 -180t16 -160 q0 -21 -88 -43.5t-152 -22.5q-18 0 -32 1.5t-18 2.5l-5 2q-9 14 -9 129q0 20 1.5 57.5t4 100.5t3.5 107q-136 -7 -383 -7q-231 0 -240 9q-19 19 -31 60.5t-14 73.5zM346 549q0 -10 152 -10q45 0 123.5 1t97.5 1q14 345 14 528q0 92 -6 92q-2 0 -5 -3t-5 -6l-2 -3 q-56 -68 -212.5 -307.5t-156.5 -292.5z" />
<glyph unicode="5" horiz-adv-x="1060" d="M82 170q0 224 14 238q11 13 86.5 35t118.5 22q0 -20 0.5 -37.5t5.5 -56.5t14.5 -67.5t29 -56t46.5 -36.5q2 0 11 -1t16 -1q31 0 63.5 5t75.5 22t75 44t54.5 77t22.5 116q0 50 -20.5 89.5t-57.5 65t-80.5 43.5t-97.5 27.5t-100.5 13t-96.5 3.5q-40 0 -79.5 -2t-58.5 -4 l-20 -2q-2 3 -3 24.5t-1 41.5v20q0 110 11.5 243.5t24 218t18.5 88.5q2 5 22 5q97 0 292.5 10t223.5 10q181 0 191 -10q20 -28 20 -141q0 -64 -10 -74q-65 6 -135 6q-88 0 -173.5 -3.5t-136.5 -8.5t-55 -9t-9 -57t-5 -94q0 -37 4 -39q11 0 29.5 -1t60.5 -6t84 -13t95.5 -25 t100.5 -40t93 -59.5t79 -81t53.5 -107.5t20.5 -136q0 -155 -93.5 -268t-259.5 -170.5t-386 -57.5q-43 0 -82 3.5t-58.5 7.5t-23.5 6q-14 14 -14 180z" />
<glyph unicode="6" horiz-adv-x="1144" d="M61 557q0 93 21 188t61.5 189.5t107 177t151 146.5t200.5 100.5t248 36.5q33 0 37 -4q29 -38 41 -101t12 -108q0 -13 -4 -13l-14 1q-15 2 -33.5 3t-28.5 1q-165 0 -293 -92.5t-176 -229.5q63 14 154 14q252 0 395 -110t143 -289q0 -99 -30.5 -181t-80.5 -136t-116 -91 t-134.5 -53t-137.5 -16q-91 0 -167.5 22.5t-129 59t-94 86.5t-65.5 101.5t-40 108.5t-21.5 102t-5.5 87zM332 539q0 -149 70.5 -233.5t193.5 -84.5q91 0 156 59t65 154q0 31 -5.5 56.5t-25.5 55.5t-54 50t-95 33.5t-143 13.5q-85 0 -158 -22q-4 -50 -4 -82z" />
<glyph unicode="7" horiz-adv-x="1015" d="M63 1168q4 171 15 182q4 4 134 8t181 4q4 0 88.5 -1.5t158 -2t155.5 3t114 12.5q15 4 39 -30.5t41 -78.5t17 -67q-27 -18 -83 -91t-125.5 -194t-132 -259t-105 -304t-42.5 -311v-19q0 -55 6 -75q0 -7 -24 -13t-48 -8l-24 -2q-74 0 -125.5 10.5t-69.5 21t-18 19.5 q0 145 47.5 317.5t108.5 306.5t137 268t113 189.5t57 82.5q0 9 -46 14.5t-91 5.5q-173 0 -226 -53q-26 -25 -45 -70.5t-24 -78.5l-6 -33q-9 -9 -83.5 15t-90.5 50q-7 10 -3 181z" />
<glyph unicode="8" horiz-adv-x="1191" d="M61 348q0 44 12 87t31 77t44.5 66t51 55t52 43.5t45.5 32.5t34 21l15 9q4 4 4 6t-2 3h-2q-215 105 -215 262q0 76 35.5 141t91.5 107.5t125.5 73t136.5 44t127 13.5q81 0 158.5 -20.5t142 -58.5t104.5 -101t40 -140q0 -79 -77 -165.5t-165 -131.5q-8 -6 0 -10 q3 -2 37 -20t62 -34t67.5 -47.5t67 -63.5t47.5 -78t20 -95q0 -121 -75.5 -225t-202 -164t-271.5 -60q-241 0 -391 106.5t-150 266.5zM362 367q0 -60 59.5 -116t160.5 -56q126 0 203 67.5t77 136.5q0 43 -25.5 83.5t-62 68t-76.5 49t-70 31.5t-42 10q-4 0 -27 -12 t-56.5 -36.5t-64.5 -56t-53.5 -77t-22.5 -92.5zM426 1028q0 -41 48 -78t95.5 -55t65.5 -18q8 0 36.5 17t61 42.5t57.5 61.5t25 67q0 38 -49.5 74.5t-136.5 36.5q-74 0 -138.5 -43.5t-64.5 -104.5z" />
<glyph unicode="9" horiz-adv-x="1142" d="M61 903q0 93 30.5 172t81 132.5t116 91.5t134 55.5t136.5 17.5q94 0 171.5 -22.5t130.5 -59t93.5 -87t64 -101.5t38 -108t19.5 -101.5t5 -87.5q0 -112 -28.5 -226t-92 -224.5t-153 -195.5t-223 -137.5t-291.5 -52.5q-31 0 -35 4q-25 31 -39 92.5t-14 110.5q0 19 12 19 q8 0 34 -2.5t34 -2.5q169 0 294 95t185 256q-77 -17 -182 -17q-251 0 -386 103.5t-135 275.5zM328 944q0 -32 5 -56.5t24 -53t52 -46.5t93 -30.5t143 -12.5q116 0 166 27q4 14 4 51q0 151 -69 235.5t-197 84.5q-93 0 -157 -53t-64 -146z" />
<glyph unicode=":" horiz-adv-x="382" d="M72 113q0 46 36 82t85 36t83.5 -34.5t34.5 -83.5t-37.5 -87t-85.5 -38q-51 0 -83.5 33.5t-32.5 91.5zM72 756q0 45 36 81.5t85 36.5t83.5 -34t34.5 -84q0 -49 -37.5 -87t-85.5 -38q-51 0 -83.5 33.5t-32.5 91.5z" />
<glyph unicode=";" horiz-adv-x="370" d="M51 756q0 45 37 81.5t86 36.5q48 0 82.5 -34.5t34.5 -83.5q0 -50 -37 -87.5t-86 -37.5t-83 33.5t-34 91.5zM55 104q0 -56 31.5 -81t81.5 -25q-10 -86 -102 -150q8 -15 32 -31t54 -16q17 4 40 21.5t48 49.5t42 89t17 127q0 62 -30 108t-87 46q-59 0 -93 -40t-34 -98z" />
<glyph unicode="&#x3c;" horiz-adv-x="985" d="M61 598q4 81 27 104q69 38 176.5 95.5t318.5 162.5t279 123q56 -22 56 -127q0 -8 -1.5 -20t-1.5 -16q-27 -7 -244 -111t-329 -162q-12 -6 -12 -8q0 -3 8 -6q579 -221 606 -248v-8q0 -30 -13.5 -75.5t-45.5 -74.5q-84 35 -287 110.5t-364 134.5l-162 58q-11 37 -11 68z " />
<glyph unicode="=" horiz-adv-x="1075" d="M61 479q0 67 23 88h913q17 -23 17 -78t-21 -79h-913q-19 22 -19 69zM61 848q0 67 23 88h913q17 -23 17 -78q0 -56 -21 -80h-913q-19 23 -19 70z" />
<glyph unicode="&#x3e;" horiz-adv-x="985" d="M61 377v8q12 12 163.5 74t297.5 118l146 56q8 3 8 6l-12 8q-111 58 -329 162t-245 111q-10 136 53 163q68 -18 262 -113.5t353 -181.5l160 -86q10 -10 16.5 -36t7.5 -47l2 -21q0 -14 -2.5 -31t-5.5 -27l-2 -10q-625 -225 -813 -303q-32 29 -46 74.5t-14 75.5z" />
<glyph unicode="?" horiz-adv-x="811" d="M51 1206q0 64 19 111q55 24 161 24q119 0 211.5 -19.5t149.5 -51t93.5 -75.5t50.5 -88.5t14 -94.5t-13 -95.5t-33 -79t-48.5 -63.5t-56 -50t-57.5 -37.5t-52 -27t-41.5 -17t-22.5 -9.5q-15 -7 -28 -85t-13 -114q-3 -3 -20.5 -11t-51.5 -17t-67 -9q-31 0 -47 4 q-23 37 -23 195q0 90 10 123q25 6 43 11t62.5 20t77 34.5t67.5 47t54.5 66t19.5 83.5q0 82 -80 121t-215 39q-103 0 -152 -21q-12 20 -12 86zM133 117q0 57 40 97t97 40t97.5 -40t40.5 -97t-40.5 -97t-97.5 -40t-97 40t-40 97z" />
<glyph unicode="@" horiz-adv-x="2031" d="M61 418q0 81 16.5 169t54 182t92 181t135.5 165.5t179.5 136.5t229.5 92t279 34q149 0 276.5 -31t220.5 -83t167 -124.5t121.5 -152.5t79.5 -169.5t45 -173t13 -165.5q0 -91 -19 -184.5t-61 -185.5t-102 -163.5t-151 -116t-199 -44.5q-25 0 -54.5 5t-71 23.5t-74.5 48 t-58.5 84.5t-28.5 126q0 4 -2 4t-6 -4q-4 -3 -12.5 -9t-35 -21t-55 -26t-71.5 -20.5t-86 -9.5q-140 0 -218.5 69.5t-78.5 198.5q0 74 26.5 136t68 102.5t95.5 73t105 50t101 28.5t78.5 14.5t41.5 3.5l2 2q0 46 -62.5 73t-191.5 27q-100 0 -150 -8h-2q0 40 26.5 102.5 t47.5 83.5q0 1 14 4.5t49 6.5t78 3q236 0 346.5 -91t110.5 -283q0 -1 -1 -52.5t-2 -126.5t-1 -133q0 -103 4 -143q8 -67 41.5 -95t75.5 -28q56 0 101 34t72 85t45 115.5t25 120t7 104.5q0 183 -54 323.5t-149.5 226t-218.5 128.5t-268 43q-115 0 -224 -32.5t-204 -97.5 t-166.5 -155.5t-112.5 -215t-41 -267.5q0 -91 20 -179.5t68.5 -176t120.5 -153t187 -106.5t257 -41q72 1 107 9q2 -6 2 -25q0 -48 -22 -116.5t-40 -84.5q-4 -5 -20.5 -8.5t-30.5 -4.5l-14 -1q-134 0 -250 27.5t-203.5 76t-159 116t-119 145.5t-80 167t-47 177.5t-14.5 179.5 zM838 295q0 -42 31.5 -71t95.5 -29q24 0 50.5 6.5t56.5 22t49.5 49.5t19.5 81v78q0 45 -2 45q-34 0 -79.5 -8.5t-98 -27.5t-88 -57t-35.5 -89z" />
<glyph unicode="A" horiz-adv-x="1261" d="M51 -29q0 37 43.5 178t102.5 300q-27 24 -62 93t-35 117q0 2 170 9q62 180 122.5 342.5t68.5 171.5q8 7 73.5 19.5t83.5 12.5q1 0 -3.5 28t-9.5 61.5t-5 44.5q0 7 35.5 24t95 33t111.5 16q7 -44 20 -118.5t54 -278t82.5 -377.5t102 -360.5t116.5 -282.5l14 -24 q0 -10 -39 -34.5t-102.5 -47.5t-116.5 -23q-20 0 -89.5 232t-95.5 352q-29 2 -112 2q-212 0 -236 -8q-109 -363 -123 -514q0 -2 -49 -2q-51 0 -104 7t-83 15t-30 12zM510 674q227 0 229 -4q-73 304 -82 358q0 6 -4 6q-5 0 -10 -8q-18 -35 -68 -167.5t-65 -184.5z" />
<glyph unicode="B" horiz-adv-x="1185" d="M82 1354l2 6q12 10 130 18t245 8q104 0 200.5 -14t188 -45.5t146.5 -91t55 -141.5q0 -55 -22.5 -106.5t-53 -86.5t-69 -65t-63 -44t-42.5 -22q-4 -4 -4 -6q2 -1 30 -10t53 -20t62.5 -29.5t67 -44t57.5 -58t43.5 -77t15.5 -95.5q0 -110 -49 -200t-130.5 -149.5t-190 -99.5 t-223.5 -57.5t-236 -17.5l-105 6q-6 7 -12 148t-6 227q0 138 5 424.5t5 357.5q0 82 -4 86q-23 23 -59.5 99t-36.5 100zM428 561q0 -97 6 -239.5t12 -180.5q5 -2 11 -2q88 0 176 35t147.5 98.5t59.5 135.5q0 60 -35.5 104t-92 67t-115 33.5t-116.5 10.5q-46 0 -51 -5 q-2 0 -2 -57zM432 829q2 -2 12 -2q28 0 73 11t98.5 33t91.5 65.5t38 99.5q0 40 -28 69.5t-72 44t-84 20.5t-76 6t-41 -5q-1 -1 -6.5 -166t-5.5 -176z" />
<glyph unicode="C" horiz-adv-x="1228" d="M72 553q0 72 10.5 146.5t38 158t69 158.5t108.5 144.5t152 120t204.5 80.5t260.5 30q26 0 67 -5.5t71 -12.5t30 -11q0 -43 -6 -129t-13 -153.5t-9 -69.5q-9 -9 -84.5 -32.5t-112.5 -23.5v13q0 93 -24 127q-27 39 -95 39q-52 0 -106.5 -22t-106 -69.5t-92 -113.5 t-65.5 -161t-25 -206q0 -53 9.5 -103.5t34.5 -103t62.5 -91.5t99 -64t138.5 -25q194 0 375 178q9 0 31 -22q29 -29 54.5 -70.5t37.5 -69.5t12 -36q0 -7 -24 -30t-72.5 -55t-109 -61.5t-145 -50t-169.5 -20.5q-152 0 -269.5 47.5t-190 132t-109.5 195t-37 241.5z" />
<glyph unicode="D" horiz-adv-x="1280" d="M84 1362q0 6 2 8q3 3 32 8t86.5 9t123.5 4q425 0 658 -178t233 -478q0 -127 -35.5 -237t-94.5 -190t-139 -145t-166.5 -107t-179 -70t-174 -40t-154.5 -12q-81 0 -92 11q-14 14 -14 366q0 165 3 429t3 380q-23 34 -57.5 123t-34.5 119zM430 584q0 -384 14 -398 q4 -4 21 -4q34 0 86.5 14.5t123 54.5t129.5 99t100.5 160.5t41.5 226.5q0 77 -21.5 140.5t-55 105.5t-79 74.5t-89.5 50.5t-91.5 29t-80 14.5t-58.5 3.5q-27 0 -27 -2q-6 -6 -10 -184.5t-4 -384.5z" />
<glyph unicode="E" horiz-adv-x="1085" d="M82 795q0 3 108 6q0 47 1.5 121.5t1.5 99.5q0 86 -5 96q-23 23 -58.5 108.5t-35.5 110.5q11 11 269.5 17t449.5 6q172 0 172 -8q0 -44 -19.5 -94.5t-40.5 -81t-28 -29.5q-12 4 -61 4q-99 0 -233.5 -10t-145.5 -21q-13 -13 -13 -225l2 -86q82 2 234 2q168 0 168 -6 q0 -36 -16.5 -85.5t-33.5 -82t-22 -31.5q-52 0 -182 -9t-150 -22q-2 -2 -2 -63q0 -84 3.5 -184.5t7.5 -104.5q13 -13 93.5 -21t145 -10t113.5 -2q24 0 48.5 1t45 2t39.5 3t33.5 3.5t25.5 2.5t17 2l6 1q4 0 4 -2q0 -49 -32.5 -116.5t-69.5 -102.5q-3 -3 -47.5 -8t-142 -9 t-216.5 -4t-217.5 5.5t-103.5 11.5q-6 4 -9.5 101t-3.5 187q0 97 4 305q-36 32 -70 102t-34 120z" />
<glyph unicode="F" horiz-adv-x="1038" d="M82 801q0 3 106 6q2 86 2 219q0 92 -2 94q-23 23 -58.5 107.5t-35.5 109.5q11 11 266.5 17t444.5 6q172 0 172 -8q0 -44 -19.5 -94.5t-40.5 -80.5t-28 -28q-6 2 -47 2q-93 0 -235.5 -9.5t-153.5 -19.5q-13 -13 -13 -223l2 -86q192 4 273 4q125 0 125 -6q0 -36 -16 -85.5 t-32.5 -81.5t-21.5 -32h-20q-65 0 -183 -10.5t-125 -17.5q-4 -4 -4 -158q0 -342 27 -436q0 -10 -26.5 -23t-78.5 -24t-110 -11q-22 0 -38 2t-21 4l-5 1q-4 20 -4 340q0 199 2 303q-36 33 -69 101t-33 118z" />
<glyph unicode="G" horiz-adv-x="1292" d="M72 555q0 71 8 140.5t31 153t59 155.5t98 141.5t141.5 119t195.5 79.5t255 30q43 0 119 -10.5t82 -17.5q4 -4 4 -33q0 -48 -11 -117t-22 -80q-7 4 -21.5 9.5t-70 14.5t-123.5 9q-217 0 -346 -145.5t-129 -425.5q0 -118 30.5 -205.5t98 -140t166.5 -52.5q63 0 119.5 21 t91 51t54.5 58t20 46v66q0 124 -13 137q-5 6 -66 12.5t-124 6.5q-38 0 -66.5 -2t-42.5 -3.5t-16 -1.5q-8 0 -8 17q0 38 18 100.5t47 91.5q11 11 154.5 20t329.5 9q23 0 69.5 -3t46.5 -7q0 -48 -25 -128.5t-44 -107.5q-3 -550 -15 -573q-10 -19 -73.5 -44.5t-112.5 -25.5 q-39 0 -39 6q0 111 -10 133l-4 4l-6 -4q-51 -51 -135 -85.5t-181 -34.5q-136 0 -240 47.5t-167.5 132.5t-95 195t-31.5 241z" />
<glyph unicode="H" horiz-adv-x="1286" d="M82 791q0 1 17.5 2.5t41.5 2.5t41 1q2 145 2 333v44q-20 35 -36.5 94.5t-16.5 99.5q0 8 2 10h6q6 1 16.5 1.5t20.5 0.5q61 0 126.5 -13t104.5 -29.5t39 -26.5q-1 -9 -4.5 -79.5t-6.5 -183.5t-3 -204v-41q6 0 107.5 1t165.5 1q151 0 151 -4q0 70 1.5 148t4 140.5t5 113.5 t4 82t1.5 32q0 6 29.5 22t82.5 31.5t103 15.5q27 0 27 -8q-22 -302 -22 -647q0 -336 21 -502.5t89 -234.5q0 -4 -6 -10q-33 -26 -105.5 -49t-136.5 -23l-24 4q-26 26 -39 74t-22 189t-11 411q-35 2 -160 2q-250 0 -268 -6q-2 -57 -2 -168q0 -280 16 -412q0 -9 -22.5 -21 t-65.5 -22t-90 -10q-66 0 -76 10q-12 12 -12 377v242q-26 24 -61 93.5t-35 115.5z" />
<glyph unicode="I" horiz-adv-x="628" d="M92 8q0 124 14 142q3 2 36.5 7t43.5 5q-4 70 -4 239q0 134 2.5 315t5 302.5t3.5 128.5h-5q-56 0 -92 -12q-4 0 -4 47q0 45 4 96t8 55q3 3 56 10.5t156 15t206 7.5q6 0 6 -33q0 -15 -3 -69t-3 -82q0 -8 -6 -8q-68 0 -76 -5q-1 -2 -4 -83t-5.5 -218.5t-2.5 -261.5 q0 -317 16 -426q27 2 84 2q9 0 9 -69q0 -64 -7 -127q-1 -1 -1 -2.5t-1 -2.5t-4 -1q-91 0 -227.5 -8t-198.5 -21q-6 0 -6 57z" />
<glyph unicode="J" horiz-adv-x="1036" d="M41 53q0 130 7.5 240t15.5 155l8 44q13 16 75.5 35.5t112.5 19.5q0 -96 10.5 -164.5t28 -110t46 -65t58.5 -31.5t72 -8q195 0 195 362q0 57 1 166.5t1 155.5q0 249 -23 272q-41 41 -170 41h-8q-8 4 -8 41t10.5 76t18.5 47q6 6 63 17.5t166.5 22.5t224.5 11q29 0 29 -4 q0 -26 -13.5 -75t-26.5 -87.5t-13 -39.5q0 -5 1 -64t2 -151t1 -177q0 -406 -21 -495q-41 -167 -160 -251.5t-280 -84.5q-44 0 -83.5 5.5t-64 12.5t-42.5 14.5t-25 12.5l-8 6q-70 -55 -170 -55q-21 0 -23 2q-3 4 -5 30t-2 50z" />
<glyph unicode="K" horiz-adv-x="1163" d="M82 1317q0 8 41.5 23t106.5 27.5t118 12.5q56 0 60 -6q4 -4 4 -74q0 -52 -11 -387q1 -12 7 -12q3 0 8 8q113 152 275 329t192 177q39 0 92.5 -23t89 -47.5t35.5 -33.5v-2q-80 -51 -178.5 -141.5t-160 -158.5t-61.5 -77q0 -44 76 -233t184 -399t181 -284q1 0 1 -1 q0 -3 -10 -13q-12 -12 -36.5 -26.5t-55 -29.5t-71.5 -25.5t-80 -10.5q-47 47 -101.5 147.5t-99 209.5t-83 212t-63 169.5t-28.5 66.5q-11 0 -65 -85t-54 -102v-133q0 -347 13 -411q2 -6 -23 -18.5t-74.5 -24t-101.5 -11.5q-16 0 -33.5 3t-27.5 5l-9 3q-6 6 -6 100 q0 100 11.5 461t11.5 495q0 145 -11 162q-9 14 -36 76.5t-27 81.5z" />
<glyph unicode="L" horiz-adv-x="1120" d="M82 1346q0 8 43.5 23t110.5 27.5t120 12.5q56 0 60 -6q6 -6 6 -123q0 -89 -6 -395.5t-6 -448.5q0 -156 6 -233q32 -8 110 -8q191 0 270 122q45 69 77 228q2 14 8 43q0 2 16 2q43 0 107.5 -28.5t64.5 -41.5q0 -158 -15.5 -357t-35.5 -218q-2 -2 -6 -2q-22 0 -90 17 t-103 32q-86 -15 -230.5 -23.5t-246.5 -10.5l-102 -1q-22 0 -42.5 2.5t-29.5 4.5l-10 3q-8 8 -8 180q0 100 4 381.5t4 403.5q0 238 -13 256q-9 14 -36 76.5t-27 81.5z" />
<glyph unicode="M" horiz-adv-x="1492" d="M82 1327l2 6q7 7 103 14t163 7q163 0 174 -11q11 -9 99.5 -258t130.5 -380q4 -11 10 -11q7 0 10 13q22 73 128 337.5t140 298.5q3 3 34.5 7.5t98 8t146.5 3.5q100 0 100 -10q0 -35 -27.5 -121t-45.5 -121q8 -73 20 -194.5t31.5 -427t19.5 -527.5q0 -7 -31 -20t-83.5 -24 t-100.5 -11h-21.5t-17.5 1t-14.5 2.5t-3.5 4.5q6 83 6 238q0 219 -10 479t-19 311q-2 10 -6 10q-3 0 -6 -3t-4 -6l-2 -3q-42 -76 -106 -256t-107 -322l-43 -143q-4 -10 -32.5 -16t-53.5 -6q-24 0 -55.5 6t-34.5 12q-6 23 -127 359.5t-139 359.5q-6 12 -11 12q-3 0 -6 -14 q-37 -185 -37 -656q0 -247 11 -311q-28 -27 -90.5 -38t-116.5 -11q-22 0 -40.5 3t-25.5 6l-8 3q0 171 19.5 469t38.5 511l20 212q-28 34 -54 106t-26 101z" />
<glyph unicode="N" horiz-adv-x="1255" d="M82 1333q0 6 2 8q6 7 106 14t168 7q142 0 154 -10q363 -811 373 -834q5 -10 8 -10t5 3.5t2 6.5l1 4v58q0 172 -11 433t-24 324q29 27 106 46.5t122 19.5q80 0 80 -10q0 -22 -7 -59t-14.5 -65.5t-7.5 -29.5q-15 -99 -15 -408q0 -75 1 -161.5t2 -165t3 -155.5t3.5 -140 t2.5 -111.5t2 -76.5t1 -29q0 -6 -27.5 -17t-87 -21.5t-127.5 -10.5q-22 0 -41 2t-27 4l-8 2q-81 231 -239 584.5t-189 398.5q-5 8 -10 8q-2 0 -3.5 -3.5t-1.5 -6.5l-1 -4q-8 -57 -8 -236q0 -198 9.5 -422.5t21.5 -281.5q-29 -26 -89 -37.5t-112 -11.5q-21 0 -39.5 3t-26.5 6 l-8 3v61q0 157 7.5 434t14.5 476l7 198q-27 34 -52.5 109t-25.5 104z" />
<glyph unicode="O" horiz-adv-x="1359" d="M61 557q0 81 12 157t29 127t36 91t31.5 58.5t16.5 21.5q22 12 136 12h38q0 83 27.5 149t68.5 104t93 63t96 33.5t84 8.5q569 0 569 -716q0 -75 -8 -144.5t-28 -143.5t-51.5 -137t-82 -119.5t-115.5 -96.5t-155.5 -63t-198.5 -23q-127 0 -229 33.5t-170 91t-113.5 137 t-65.5 168t-20 188.5zM322 567q0 -112 43 -206.5t121.5 -151.5t175.5 -57q372 0 372 530q0 255 -77 368t-209 113q-82 0 -126 -47t-44 -108q0 -53 19 -113t46 -108t54 -89t46 -64l19 -22q0 -9 -28.5 -25t-76 -29t-92.5 -13q-5 0 -20 14.5t-36.5 44.5t-43.5 68t-43 92 t-33 110q-11 -13 -24.5 -43t-28 -102.5t-14.5 -161.5z" />
<glyph unicode="P" horiz-adv-x="1177" d="M82 1346q0 6 2 8q8 8 133 15t268 7q73 0 140 -6t144.5 -20t140.5 -42t115.5 -68t82 -101.5t29.5 -139.5q0 -75 -25 -141t-67 -114.5t-97 -90t-115.5 -69t-120.5 -49.5t-115 -34t-97 -20.5t-67 -10.5l-25 -3q7 -417 20 -479q-23 -23 -89 -36t-116 -13q-22 0 -40 3t-25 6 l-8 3l12 1182q-28 34 -54 109t-26 104zM408 694q107 10 189.5 32t132.5 50.5t81.5 65t43 71.5t11.5 74q0 83 -85 128.5t-216 45.5q-36 0 -73 -3t-56 -6l-18 -3q-10 -74 -10 -455z" />
<glyph unicode="Q" horiz-adv-x="1359" d="M61 561q0 81 12 157t29 127.5t35.5 91.5t31.5 58.5t17 20.5q25 14 131 14q35 0 43 -2q0 83 27.5 148.5t68.5 103.5t93 63t96 34t84 9q569 0 569 -716q0 -88 -11.5 -169t-37.5 -163.5t-74.5 -154.5t-115.5 -124q55 -112 55 -165q-24 -38 -88.5 -65.5t-112.5 -27.5h-8 q0 28 -9.5 69.5t-19.5 69.5l-10 27q-88 -24 -207 -24q-127 0 -229 33.5t-170 91t-113.5 137t-65.5 168t-20 188.5zM322 571q0 -112 43 -206.5t121.5 -151.5t175.5 -57q64 0 120 16q-67 137 -96 176q7 6 21 15t60.5 23.5t96.5 14.5q9 -4 29 -31.5t35 -53.5l16 -25 q90 130 90 395q0 131 -21.5 226.5t-61.5 150.5t-91 80.5t-115 25.5q-80 0 -123.5 -48t-43.5 -109q0 -53 19 -113t46 -108t54 -89t46 -64l19 -22q0 -9 -28.5 -25t-76 -29t-92.5 -13q-10 0 -42.5 38.5t-73.5 120t-60 171.5q-12 -12 -26 -43.5t-27.5 -103.5t-13.5 -161z" />
<glyph unicode="R" horiz-adv-x="1202" d="M82 1346q0 6 2 8q6 8 131.5 15t267.5 7q62 0 119.5 -3.5t126 -13.5t125.5 -27t112.5 -45.5t93.5 -66t61.5 -92.5t23.5 -122q0 -128 -86 -233t-234 -177q0 -17 58 -146.5t141 -281t135 -203.5q2 -2 2 -4q0 -8 -33 -23.5t-88.5 -28.5t-105.5 -13l-51 4q-46 46 -157 300 t-124 310q-7 -4 -77.5 -19.5t-116.5 -23.5q4 -412 20 -479q-23 -23 -90 -36t-117 -13q-21 0 -39.5 3t-26.5 6l-8 3l13 1182q-27 34 -52.5 109t-25.5 104zM406 694q102 9 185 34t134.5 56.5t86 70t48.5 73t14 67.5q0 82 -88 124t-223 42q-36 0 -72.5 -3t-54.5 -6l-18 -3 q-12 -88 -12 -455z" />
<glyph unicode="S" horiz-adv-x="1062" d="M61 193q0 174 9 219q5 18 70.5 44.5t127.5 26.5q0 -27 1.5 -68.5t14 -121.5t35.5 -103q20 -20 78 -20q131 0 228.5 73.5t97.5 174.5q0 50 -34 91t-88.5 69.5t-120.5 56t-131.5 59.5t-120 70.5t-88.5 97.5t-34 133q0 53 24.5 107t79.5 106.5t134 93.5t198.5 66t262.5 25 q18 0 52.5 -4t37.5 -7q2 -6 2 -12q0 -41 -14 -109t-37 -92l-4 1q-3 0 -8 1t-11.5 1.5t-16 1t-18.5 0.5q-58 0 -119 -8t-125.5 -26.5t-105.5 -55.5t-41 -87q0 -35 26 -64t68.5 -49t96.5 -43.5t111 -45t111 -55.5t96.5 -74t68.5 -101.5t26 -136.5q0 -134 -88 -247.5 t-248.5 -181t-359.5 -67.5q-76 0 -132.5 4t-74.5 8l-18 5q-19 19 -19 244z" />
<glyph unicode="T" horiz-adv-x="964" d="M20 1155q0 48 11.5 97.5t22.5 74.5l12 25q159 2 329 12q234 12 406 12q153 0 153 -8q0 -60 -10 -143t-24 -97q-53 11 -211 11q-91 0 -97 -6q-3 -3 -6 -63.5t-5.5 -165.5t-2.5 -218q0 -609 61 -721v-2q0 -6 -24 -17.5t-80 -22.5t-125 -11q-24 0 -45 4.5t-30 9.5l-9 4 q-14 17 -14 234q0 136 7 449t7 403q0 104 -6 110q-4 4 -29 4q-35 0 -106 -7t-125 -14l-53 -7q-2 2 -3.5 15t-2.5 25z" />
<glyph unicode="U" horiz-adv-x="1210" d="M61 1282q0 8 39 23.5t101.5 28t115.5 12.5q56 -1 60 -5t4 -63q0 -60 -8 -271.5t-8 -291.5q0 -124 12 -218.5t37.5 -167t69.5 -110t106 -37.5q53 0 92.5 16t76.5 61t60 121.5t37 202.5t14 298q0 231 -4 337t-18 195q22 10 57 10q45 0 72.5 -1.5t68 -14.5t64.5 -37 q18 -92 18 -584q0 -202 -29.5 -354.5t-79 -246.5t-123.5 -152t-153 -79.5t-178 -21.5q-121 0 -206 41.5t-144 137.5t-87 255t-28 392q0 152 11 356q0 8 -2 10q-13 25 -30.5 79t-17.5 79z" />
<glyph unicode="V" horiz-adv-x="1226" d="M20 1284q0 4 28 16.5t80.5 25.5t104.5 13q43 0 43 -6q5 -54 56 -271.5t128 -478.5t134 -376q12 -25 22 -27q6 0 14 8t9 15q17 32 56.5 133.5t87 243t83 302.5t35.5 273q0 24 -46 53.5t-83 32.5q-2 4 -2 14q0 26 10.5 66.5t18.5 46.5q189 51 377 51q30 -4 30 -8 q0 -135 -58.5 -382t-133 -475t-142 -405t-88.5 -198q-89 -49 -303 -49q-20 0 -24 4q-41 37 -147 314.5t-198 602t-92 461.5z" />
<glyph unicode="W" horiz-adv-x="1605" d="M20 1319q0 4 22 15.5t73 23.5t112 12q49 -2 49 -6q4 -76 18.5 -231.5t51.5 -389t80 -342.5q4 -14 10 -14q5 0 8 9q1 3 2 5q168 650 205 689q74 28 207 28q74 -4 82 -12q4 -4 38.5 -169t75.5 -363t50 -238q0 -2 1 -4.5t3.5 -7.5t5.5 -6.5t7.5 2.5t8.5 16q35 93 88.5 348.5 t53.5 480.5q0 22 -38 43.5t-77 26.5q-2 6 -2 18q0 27 9 64.5t16 44.5q186 49 372 49q33 -4 33 -6q0 -155 -48 -406.5t-109 -472t-115 -387t-70 -182.5q-27 -26 -115.5 -43.5t-154.5 -17.5q-29 0 -29 6q-4 16 -40 207.5t-73 376.5t-51 219q-6 12 -10 12q-3 0 -5.5 -3t-3.5 -6 l-1 -3q-51 -127 -115.5 -396t-64.5 -309q0 -8 -38.5 -22.5t-98.5 -26.5t-111 -12q-23 0 -29 6q-35 35 -103.5 311.5t-124 597.5t-55.5 465z" />
<glyph unicode="X" horiz-adv-x="1282" d="M10 27q0 5 17 20q152 155 479 662q-232 418 -279 458q-15 13 -56.5 30t-74.5 17q-2 4 -2 17q0 26 14 67t21 48q5 5 37 10.5t99 10.5t145 5q26 0 32 -6q4 -3 30 -53.5t83 -162t104 -200.5q74 117 111 174t85 128.5t72 100.5t34 29q57 0 118 -24.5t96 -51.5t35 -40 q-140 -117 -424 -549q326 -580 486 -697q0 -16 -44 -47t-109.5 -57.5t-114.5 -26.5h-9q-47 46 -135 193t-225 395q-46 -74 -127.5 -206t-126 -203t-70.5 -107q-21 -29 -30 -29q-52 0 -98.5 9t-77 22t-53 27t-32.5 24t-10 13z" />
<glyph unicode="Y" horiz-adv-x="1277" d="M10 1214q0 25 13.5 65t19.5 46q5 5 37.5 11t99.5 11t144 5q24 0 30 -6q3 -3 54.5 -111.5t122 -248.5t114.5 -206h4q13 44 175.5 325t189.5 281q62 0 123.5 -16t95.5 -35.5t33 -31.5q-108 -121 -287.5 -388.5t-212.5 -386.5q-4 -40 -4 -157q0 -331 16 -400 q0 -10 -17 -20.5t-66 -19.5t-122 -9q-25 0 -44 4t-25 8l-6 5q0 129 3 334.5t3 228.5v26q-56 79 -203 343t-160 280q-47 47 -129 47q-2 4 -2 16z" />
<glyph unicode="Z" horiz-adv-x="1175" d="M41 139q0 17 2 25q33 70 204 301t322.5 434.5t151.5 226.5q0 13 -141 13q-162 0 -226 -31q-16 -6 -50 -56t-60 -96l-27 -47q-29 0 -81 30.5t-52 47.5q0 48 21.5 147t46.5 177t34 78q30 0 72.5 -13t74 -26t34.5 -13q184 27 407 27q234 0 270 -12q17 -15 38.5 -64 t21.5 -110q0 -6 -17 -23q-126 -142 -391.5 -517.5t-265.5 -420.5q0 -14 119 -14q83 0 167.5 9.5t108.5 23.5q32 29 89 116.5t77 141.5q0 4 8 4q27 0 81.5 -33t54.5 -57q0 -92 -41.5 -259.5t-59.5 -183.5q-6 -6 -26 -6q-24 0 -67.5 7.5t-74.5 14.5l-32 7q-16 2 -84 2 q-88 0 -248.5 -5t-276.5 -9l-116 -5q-22 0 -45 57.5t-23 110.5z" />
<glyph unicode="[" horiz-adv-x="436" d="M61 492v413q0 487 5 494q12 26 113 86.5t132 60.5q66 -14 105 -61q-16 -13 -40.5 -34t-68.5 -66t-49 -68q-4 -470 -4 -658l4 -651q5 -24 44.5 -66.5t76.5 -73.5l37 -30q-17 -21 -43.5 -35.5t-44.5 -18.5l-17 -5q-31 0 -132 60t-113 85q-5 10 -5 568z" />
<glyph unicode="\" horiz-adv-x="1146" d="M0 1425q53 21 123 21q31 0 61 -6l963 -1524q-55 -20 -121 -20q-30 0 -57 6z" />
<glyph unicode="]" horiz-adv-x="436" d="M20 -162q16 13 40.5 34t68.5 66.5t49 69.5q4 468 4 658l-4 651q-5 23 -44.5 65t-76.5 72l-37 31q17 21 43.5 36t44.5 20l17 5q31 0 132.5 -60.5t113.5 -86.5q4 -12 4 -357v-815q0 -295 -4 -303q-12 -25 -113.5 -85t-132.5 -60q-66 12 -105 59z" />
<glyph unicode="^" horiz-adv-x="595" d="M31 326q0 27 79.5 129t118.5 125q28 0 72 -27q42 27 70 27q39 -23 116.5 -127t77.5 -131q-3 -18 -29.5 -41t-46.5 -23q-11 16 -91.5 97t-96.5 91q-18 -9 -99 -87t-96 -97q-19 0 -44.5 23t-30.5 41z" />
<glyph unicode="_" horiz-adv-x="1103" d="M61 12q0 69 23 90h942q16 -22 16 -79t-18 -78h-944q-19 20 -19 67z" />
<glyph unicode="`" d="M342 1176q0 25 46 58.5t79 33.5q39 -23 95 -100.5t56 -104.5q-3 -18 -28 -41t-45 -23q-21 25 -92 88.5t-111 88.5z" />
<glyph unicode="a" horiz-adv-x="940" d="M51 225q0 73 26.5 135t68 102.5t95 72.5t104.5 49.5t100.5 28.5t78 14.5t41.5 3.5l4 2q0 46 -62.5 73t-191.5 27q-99 0 -149 -8h-2q0 41 26 102.5t46 83.5q2 2 15.5 5t48.5 6.5t79 3.5q233 0 344 -89.5t111 -275.5v-104q0 -256 6 -299q16 -113 69 -162q0 -13 -36 -40 t-91.5 -50t-99.5 -23q-6 0 -18 15t-27.5 54t-20.5 89q0 4 -2 4l-6 -4q-4 -3 -12.5 -9t-35 -21t-55 -26t-71.5 -20.5t-86 -9.5q-139 0 -218 70.5t-79 199.5zM303 264q0 -42 31.5 -71t95.5 -29q24 0 50.5 7t56.5 23t49.5 50.5t19.5 81.5v77q0 46 -2 46q-34 0 -79.5 -9t-98 -28 t-88 -58t-35.5 -90z" />
<glyph unicode="b" horiz-adv-x="954" d="M102 -139q15 61 15 434q0 127 -2 391t-2 365q0 256 10 266q24 24 80 46.5t108 22.5q15 0 33 -2.5t18 -5.5q-4 -20 -12 -232q-5 -151 -5 -220q0 -28 1 -43h33q33 0 67.5 -2.5t87.5 -13t99.5 -27.5t95.5 -49.5t84 -76.5t57.5 -111.5t22.5 -149.5q0 -99 -45 -185.5 t-122 -147t-173.5 -101.5t-204.5 -58q0 -47 -2 -51q-27 -27 -93 -41t-120 -14q-31 0 -31 6zM344 518q0 -277 8 -332q12 0 26.5 1t46 6.5t58.5 16t59.5 31.5t55 49.5t38 74.5t15.5 102t-20 97.5t-52.5 64t-68 33t-72.5 10.5l-94 -6v-148z" />
<glyph unicode="c" horiz-adv-x="790" d="M61 358q0 128 47.5 233.5t128 174t185 106t221.5 37.5q47 0 55 -2q13 -10 13 -69q0 -43 -7.5 -86t-17.5 -50h-14q-24 0 -45 -1.5t-59.5 -8t-70 -18.5t-67.5 -36.5t-60 -57.5t-40.5 -85t-16.5 -116q0 -97 56 -157t178 -60q30 0 59.5 4t49.5 10t36 12.5t25 10.5t10 4 q16 -16 16 -94q0 -110 -22 -129q-8 -4 -23 -10.5t-67 -17.5t-111 -11q-120 0 -211 34t-143.5 93.5t-78.5 132t-26 157.5z" />
<glyph unicode="d" d="M61 313q0 111 34.5 209.5t100.5 177t174 127t244 52.5q0 7 -1 58.5t-2 122t-1 122.5q0 127 6 133q25 25 81.5 48t107.5 23q15 0 33 -2.5t18 -5.5q-16 -340 -16 -766q0 -340 12 -413q15 -111 68 -164q0 -21 -85 -65t-145 -44q-5 0 -18.5 18t-28 56.5t-18.5 81.5q0 6 -4 6 l-7 -4q-87 -123 -256 -123q-70 0 -128 31.5t-94 83t-55.5 113t-19.5 124.5zM307 371q0 -75 36 -123.5t106 -48.5q41 0 75 21.5t51.5 51t27 54t9.5 36.5q0 228 6 302q2 4 -30 4q-132 0 -206.5 -84.5t-74.5 -212.5z" />
<glyph unicode="e" horiz-adv-x="866" d="M61 385q0 102 31.5 192.5t91.5 162t156.5 113.5t216.5 42q32 0 64 -5.5t68 -21t63 -39t45 -64.5t18 -93q0 -134 -112 -259.5t-304 -191.5q0 -4 5 -10.5t17.5 -14t29 -14.5t42.5 -11.5t56 -4.5q157 0 246 55q2 2 4 2q6 0 6 -39q0 -45 -12.5 -98t-38.5 -86q-8 -5 -25 -13 t-86.5 -21t-157.5 -13q-206 0 -315 121t-109 311zM301 418q0 -19 1 -24t7 -5q33 1 78 23t87 57t71.5 84t29.5 98q0 30 -18.5 45t-44.5 15q-84 0 -147.5 -86.5t-63.5 -206.5z" />
<glyph unicode="f" horiz-adv-x="614" d="M41 952q0 38 5.5 76t12.5 45q37 2 80 4l-4 248q-2 20 69.5 64.5t171.5 82t165 37.5q13 0 32 -46t19 -83q0 -14 -2 -20q-6 0 -53.5 -21.5t-98 -55t-53.5 -58.5q-9 -54 -12 -146h8q166 0 166 -6q0 -45 -12 -89.5t-27 -69.5t-25 -25q-66 4 -112 4v-102q0 -166 5 -458.5 t5 -361.5q0 -80 -4 -100q-9 -6 -25.5 -15.5t-70.5 -25.5t-111 -16q-12 0 -26 2.5t-22 5.5l-9 2q30 218 30 840q0 153 -2 225l-90 -4q-10 10 -10 67z" />
<glyph unicode="g" horiz-adv-x="937" d="M55 332q0 118 38.5 219t112 179t192 122.5t268.5 44.5q71 0 71 -10q6 -35 6 -76l-2 -31h23q66 0 88 -12v-260q0 -112 2 -292.5t2 -192.5q0 -116 -22.5 -213.5t-58.5 -164t-85.5 -118.5t-100 -82t-105 -49.5t-97 -26t-80.5 -6.5q-7 0 -25 31.5t-34.5 83.5t-16.5 98h39 q27 0 53 3.5t64 17t70 35t65.5 62.5t57 95.5t38.5 137.5t15 184q0 8 -2 8l-6 -6q-86 -133 -269 -133q-93 0 -163.5 54.5t-104 133.5t-33.5 164zM301 389q0 -63 37.5 -110.5t105.5 -47.5q42 0 78 19.5t56.5 46t31.5 49.5t11 35q0 234 8 299q0 3 -10.5 4.5t-21.5 1.5h-11 q-132 0 -208.5 -85t-76.5 -212z" />
<glyph unicode="h" horiz-adv-x="935" d="M82 -47q16 91 16 444q0 128 -3 376.5t-3 334.5q0 199 10 209q24 24 80 46.5t109 22.5q13 0 31 -2.5t18 -5.5q-2 -17 -8 -267.5t-6 -328.5v-18q0 -10 6 -10l6 4q4 5 12.5 14t35.5 31t56 39t72.5 31t87.5 14q41 0 74 -12t57.5 -30.5t44 -53t32 -65.5t21 -82.5t13 -90 t7 -102.5t3 -105.5t0.5 -112.5q0 -158 -8 -272q-2 -6 -26.5 -15.5t-66 -17.5t-81.5 -8q-17 0 -34 2.5t-26 5.5l-8 2q21 193 21 351q0 84 -4 140t-16.5 108t-38.5 77t-66 25q-32 0 -61 -16t-48 -39t-33.5 -46t-21.5 -39l-6 -16q4 -141 4 -270q0 -195 -10 -203 q-31 -28 -95.5 -41.5t-130.5 -13.5q-16 0 -16 6z" />
<glyph unicode="i" horiz-adv-x="450" d="M102 1085q0 52 45 95t101 43t91.5 -37t35.5 -101q0 -55 -46 -97t-102 -42q-58 0 -91.5 36t-33.5 103zM117 254q0 172 4 350t10 189q5 4 16 10t54 16t96 10q47 0 57 -12q0 -2 -0.5 -30.5t-1.5 -74t-2 -99t-1.5 -116.5t-0.5 -116q0 -159 6 -211q11 -98 56 -164 q0 -21 -84 -65.5t-144 -44.5q-5 0 -16.5 17t-25.5 61.5t-19 101.5q-4 54 -4 178z" />
<glyph unicode="j" horiz-adv-x="595" d="M-133 -424h20q79 0 174 43q191 97 191 449q4 135 4 266q0 223 -16 239q-14 14 -52 28t-69 21l-31 7q-4 8 -4 22q0 33 7.5 71t21.5 52q67 33 168 47.5t172 14.5q36 0 41 -5q-7 -276 -7 -530q0 -61 2.5 -164.5t2.5 -124.5q0 -116 -22.5 -213t-58.5 -162.5t-85.5 -116 t-99.5 -79.5t-105.5 -47.5t-97.5 -24.5t-80 -6q-7 0 -25 31.5t-34.5 83.5t-16.5 98zM209 1085q0 53 45 95.5t100 42.5q56 0 91.5 -37t35.5 -101q0 -55 -45.5 -97t-101.5 -42q-57 0 -91 36.5t-34 102.5z" />
<glyph unicode="k" horiz-adv-x="882" d="M102 -47q17 96 17 444q0 128 -3 376.5t-3 334.5q0 199 10 209q25 25 80 47t108 22q49 0 49 -8q-1 -10 -5 -128t-7.5 -277t-3.5 -250q0 -70 2 -86q3 -6 8 -6l4 2q65 69 195 173.5t166 104.5q14 -9 34 -22.5t53.5 -46.5t33.5 -54q-62 -40 -146.5 -107t-91.5 -85 q0 -10 23 -76t59 -154t91 -184t108 -149q0 -25 -90 -62t-156 -37q-25 0 -95.5 192t-97.5 300l-4 6q-8 0 -51 -59t-43 -80q0 -7 3 -86t3 -123q0 -74 -8 -82q-26 -27 -91.5 -41t-119.5 -14q-31 0 -31 6z" />
<glyph unicode="l" horiz-adv-x="456" d="M102 291q0 90 4.5 326.5t4.5 414.5q0 91 -2.5 155.5t-4.5 93t-2 32.5q0 22 68.5 47.5t124.5 25.5q15 0 33 -2.5t18 -5.5q-3 -23 -6.5 -217.5t-3.5 -314.5q0 -72 -2 -235.5t-2 -266.5q0 -141 4 -174q11 -93 59 -164q0 -21 -83.5 -65.5t-143.5 -44.5q-6 0 -17.5 17 t-26.5 61.5t-20 101.5q-2 33 -2 215z" />
<glyph unicode="m" horiz-adv-x="1370" d="M102 -47q15 94 15 301q0 88 -3 255t-3 226q0 132 10 142q24 23 75 42t103 19q43 0 43 -8q-8 -92 -8 -174q0 -11 4 -11q3 0 8 5q4 5 12.5 13t33.5 28.5t49.5 36.5t59.5 29t66 13q74 0 120.5 -29t80.5 -89q114 163 258 163q53 0 95 -22.5t69 -56t46.5 -94t29 -112t15 -136 t6.5 -142t1 -151.5q0 -60 -2 -120t-4 -90l-2 -30q0 -5 -25 -14.5t-67.5 -18t-83.5 -8.5q-17 0 -33.5 2.5t-24.5 5.5l-8 2q23 212 23 361q0 73 -1.5 118.5t-8.5 96t-20 78t-37 45.5t-58 18q-22 0 -42.5 -8.5t-34.5 -21t-25 -25.5t-16 -22.5t-5 -12.5q6 -66 6 -303 q0 -60 -2 -100.5t-4 -51.5l-2 -10q0 -5 -24 -14.5t-65.5 -18t-82.5 -8.5q-17 0 -33.5 2.5t-24.5 4.5l-8 3q19 175 19 312q0 59 -1 92t-6 70t-14.5 55.5t-27 30.5t-43.5 12q-38 0 -70.5 -22t-51 -52t-28.5 -55t-10 -37q0 -2 0.5 -42.5t1 -102.5t0.5 -115q0 -200 -8 -211 q-51 -49 -215 -49q-17 0 -17 6z" />
<glyph unicode="n" horiz-adv-x="952" d="M102 -47q15 99 15 303q0 86 -3 246t-3 215q0 127 10 137q22 22 77 39.5t109 17.5q43 0 43 -10q-6 -48 -6 -106q0 -41 6 -41l6 4q4 5 11.5 14t32.5 31t52.5 39t70 31t85.5 14q54 0 95.5 -21t68.5 -52t46.5 -88t29.5 -106.5t15 -131t6 -137.5t1 -150q0 -60 -1.5 -120 t-2.5 -90l-2 -30q0 -5 -25 -14.5t-67.5 -18t-83.5 -8.5q-17 0 -34 2.5t-25 5.5l-8 2q20 184 20 351q0 49 -0.5 83t-3.5 74t-8 66.5t-14 53.5t-21.5 42.5t-31 25t-42.5 9.5q-37 0 -68.5 -15t-49.5 -36.5t-30.5 -43t-17.5 -36.5l-4 -15q0 1 0 -13.5t0.5 -40.5t1 -58t0.5 -72 v-76q0 -219 -8 -227q-27 -27 -92.5 -41t-118.5 -14q-31 0 -31 6z" />
<glyph unicode="o" d="M61 393q0 95 35.5 185.5t100 164t166.5 118t225 44.5q98 -4 110 -16q4 -4 4 -29q0 -38 -6 -74q10 -1 32.5 -10t58.5 -35t67 -63.5t53.5 -104t22.5 -147.5q0 -93 -29 -178t-82.5 -152.5t-138.5 -108t-188 -40.5q-201 0 -316 124.5t-115 321.5zM295 399q0 -16 1 -34 t12 -59.5t29.5 -72t59 -55t95.5 -24.5q81 0 141.5 64t60.5 190q0 50 -12.5 87.5t-29.5 56.5t-40.5 30.5t-39.5 14.5t-33 3h-17q-4 8 -4 27q0 35 6 59q-38 0 -77 -17.5t-74 -51.5t-56.5 -91t-21.5 -127z" />
<glyph unicode="p" horiz-adv-x="937" d="M92 -256q0 141 5 481t5 471q0 170 -6 234q24 24 83 46.5t112 22.5q33 0 43 -6q0 -3 -1 -48t-1 -48q32 0 59 -1t70.5 -5.5t79.5 -12.5t80.5 -23.5t79 -36.5t68.5 -53.5t57 -72.5t37 -95.5t14 -121.5q0 -83 -24.5 -155.5t-64 -123.5t-91.5 -92t-105 -66.5t-106.5 -42.5 t-93.5 -23.5t-68 -6.5v-31q0 -86 5 -229.5t11 -179.5q-26 -28 -91.5 -42.5t-117.5 -14.5q-31 0 -31 6q-8 65 -8 270zM324 295q0 -22 1 -56t1 -46q57 0 111 16.5t100 49t74 87.5t28 125q0 64 -26.5 109t-73 68.5t-97.5 33.5t-112 10v-26q-1 -27 -2 -70t-2 -92.5t-1.5 -106.5 t-0.5 -102z" />
<glyph unicode="q" horiz-adv-x="987" d="M61 391q0 85 23 158.5t60.5 124.5t87.5 92t101.5 66t105.5 41.5t96.5 23t76.5 6.5q2 6 2 62q20 27 72.5 43t110.5 16q41 0 47 -6q1 -6 1 -31q0 -32 -1 -94q-3 -112 -6.5 -278.5t-3.5 -272.5q0 -108 2 -145h36q27 0 39 2q4 0 4 -2q0 -32 -18.5 -91.5t-62.5 -117.5 q-7 -14 -7 -86q0 -122 17 -234q8 -61 55 -121q-23 -32 -99 -63t-134 -31q-21 30 -34 67t-20 107q-6 53 -6 342q-43 0 -80.5 2t-96 11.5t-105 25.5t-98 48t-86 75t-57 110t-22.5 150zM299 418q0 -70 28.5 -119t76.5 -72.5t96 -33t102 -9.5q6 204 6 410q0 24 -1 59t-1 45 q-70 0 -139 -31.5t-118.5 -98t-49.5 -150.5z" />
<glyph unicode="r" horiz-adv-x="667" d="M92 -47q14 79 14 323q0 88 -2 249.5t-2 215.5q0 120 9 129q23 23 77.5 40.5t108.5 17.5q43 0 43 -10q-6 -54 -6 -150q0 -47 4 -47t8 4q5 7 13.5 18t39 39t63.5 50t84.5 39.5t104.5 17.5q17 -27 17 -78q0 -61 -9 -107.5t-19 -62.5l-9 -16l-27 4q-59 0 -107.5 -19.5 t-76 -46t-47 -56t-26.5 -48.5t-7 -25v-180q0 -246 -6 -252q-32 -31 -99 -43t-126 -12q-17 0 -17 6z" />
<glyph unicode="s" horiz-adv-x="729" d="M61 57v15q160 0 244 55t84 115q0 32 -34 65t-82 62.5t-96 62t-82 76t-34 92.5q0 82 73.5 160.5t187 126t227.5 47.5q12 0 32 -24t37.5 -65.5t18.5 -82.5q-16 0 -58.5 -9t-95 -25.5t-92 -48t-39.5 -69.5q0 -24 23.5 -48.5t59.5 -46t78 -51t78 -59.5t61 -74.5t26 -94.5 q0 -68 -40.5 -129t-102.5 -102t-136 -71.5t-141 -44.5t-117 -14q-11 0 -29.5 24.5t-34.5 69t-16 88.5z" />
<glyph unicode="t" horiz-adv-x="475" d="M0 965q0 97 18 112q46 2 109 4q-1 68 -4 111t-5.5 60.5t-2.5 23.5q0 22 70 48t126 26q14 0 32.5 -3t18.5 -6q-4 -49 -10 -258q154 0 154 -6q0 -69 -20.5 -123.5t-39.5 -54.5h-81h-15q-4 -304 -4 -457q0 -224 6 -288q12 -106 84 -174q0 -13 -34.5 -39t-90 -48t-102.5 -22 q-6 0 -23 20t-37.5 67.5t-25.5 104.5q-4 33 -4 220q0 366 6 612l-115 -2q-10 10 -10 72z" />
<glyph unicode="u" horiz-adv-x="935" d="M82 430q0 126 5.5 254.5t12.5 144.5q6 5 18 12t56.5 19t97.5 12q48 0 58 -10q0 -2 -3 -53.5t-6.5 -129.5t-3.5 -144q0 -33 5 -125v-18t6 -39.5t17 -50.5t34.5 -40t56.5 -18q48 0 89 36t59.5 71.5t17.5 47.5v70q0 116 4 254.5t8 148.5q11 18 65.5 39t117.5 21q43 0 51 -8 q0 -3 -2 -42.5t-4 -101t-4.5 -133t-4.5 -152t-2 -143.5q0 -130 9 -180q15 -104 55 -164q0 -21 -83.5 -65.5t-143.5 -44.5q-6 0 -17.5 17t-25.5 61.5t-19 101.5l-2 43l-2 4q-49 -75 -123.5 -120.5t-146.5 -45.5q-215 0 -246 334q-4 54 -4 137z" />
<glyph unicode="v" horiz-adv-x="903" d="M20 872q0 5 21.5 18t75.5 27.5t121 14.5q125 -508 188 -649q2 -10 8 0q37 66 113 347t84 367q1 11 45 21t82 10q32 0 56.5 -2t36.5 -5t20 -6t10 -5l2 -2q0 -59 -145.5 -529t-166.5 -491q-12 -12 -61 -20t-92 -10l-43 -3q-28 0 -51.5 3t-33.5 6l-9 3q0 39 -65.5 234.5 t-130.5 401t-65 269.5z" />
<glyph unicode="w" horiz-adv-x="1343" d="M35 862q0 5 21.5 18t76 26.5t121.5 13.5q9 -50 23 -128t51 -237.5t65 -222.5q4 -10 10 0q35 68 72 209t45 227q1 10 49.5 18.5t92.5 8.5q54 0 96.5 -8t44.5 -19q1 -4 9 -51.5t12 -70.5t13 -72.5t16.5 -81.5t17.5 -71.5t20 -69t20 -50.5h9q45 96 99.5 335.5t63.5 340.5 q65 0 121 -14t80.5 -27t24.5 -18q0 -90 -62 -318t-124.5 -412.5t-71.5 -193.5t-72.5 -18t-120.5 -9q-49 0 -65 8q-18 20 -67 199t-69 305q-2 10 -6 0q-30 -124 -82 -294.5t-63 -182.5q-14 -14 -84.5 -27.5t-120.5 -13.5q-31 0 -37 6q-9 8 -65 197.5t-110 409.5t-54 288z" />
<glyph unicode="x" horiz-adv-x="911" d="M20 27q0 36 263 426q-199 276 -199 307q12 42 67.5 96t100.5 66q16 -47 172 -269q199 277 278 336q24 0 97 -44.5t73 -67.5q-140 -143 -311 -406q221 -286 340 -356q0 -40 -71.5 -116.5t-108.5 -76.5q-28 11 -110.5 106t-184.5 230q-164 -276 -205 -369 q-52 0 -118.5 50.5t-82.5 87.5z" />
<glyph unicode="y" horiz-adv-x="935" d="M82 655q0 59 5.5 118.5t10.5 89.5l6 30q0 5 22.5 15t63 19t80.5 9q17 0 33.5 -2.5t24.5 -5.5l8 -2q-2 -14 -6.5 -53t-6.5 -60t-5 -56t-4 -70.5t-1 -74.5q0 -81 5.5 -139.5t19 -109.5t41 -77t67.5 -26q38 0 68.5 16.5t46.5 39.5t27 46t14 40l4 16q-4 129 -4 248 q0 178 10 188q26 26 92.5 40.5t118.5 14.5q31 0 31 -6q-16 -96 -16 -332q0 -119 1 -313.5t1 -230.5q0 -117 -22 -214.5t-57.5 -164t-84 -118t-98 -81.5t-103.5 -49.5t-96 -26t-80 -6.5q-7 0 -25 31t-34.5 83t-16.5 97q25 0 37 2q37 5 61.5 10t65 19.5t68 35t59.5 58.5 t51.5 87.5t33 124.5t13.5 167q0 11 -1 33t-1 26q0 13 -6 13q-2 0 -6 -7q-3 -6 -9.5 -15t-30 -33t-50.5 -42.5t-71.5 -33.5t-92.5 -15q-62 0 -108 21.5t-74 70.5t-45 98t-24 136t-9 149.5t-2 171.5z" />
<glyph unicode="z" horiz-adv-x="897" d="M61 117q21 73 180.5 282t237.5 283q5 5 -2 10q-21 12 -106.5 22.5t-169.5 10.5q-74 0 -92 -2q0 47 9.5 90.5t19 65t16.5 28.5q3 3 24.5 7t74.5 8t120 4q125 0 262.5 -15t148.5 -26q4 -6 10.5 -18.5t17.5 -56t11 -91.5q-72 -54 -166 -166.5t-156.5 -208t-62.5 -119.5 q80 0 233 -14.5t165 -28.5v-22q0 -137 -33 -170q-78 6 -225 6q-112 0 -226 -9t-172 -19l-57 -9q-17 0 -39.5 57.5t-22.5 100.5z" />
<glyph unicode="{" horiz-adv-x="505" d="M10 662q0 9 29 40.5t57 58.5l29 27q8 55 8 220q0 54 -1 157.5t-1 139.5q0 88 4 94q12 26 113.5 86.5t132.5 60.5q65 -14 104 -61q-16 -13 -41 -34t-68.5 -66t-47.5 -68q-6 -205 -6 -363q0 -134 6 -172q-123 -95 -123 -120q0 -10 30.5 -40t61.5 -54l31 -25q-6 -41 -6 -174 l6 -361q4 -24 43.5 -66.5t76.5 -73.5l37 -30q-17 -21 -43 -35.5t-44 -18.5l-17 -5q-31 0 -132.5 60t-113.5 85q-4 8 -4 115q0 36 1 130.5t1 143.5q0 167 -8 224q-115 105 -115 125z" />
<glyph unicode="|" horiz-adv-x="366" d="M104 -86v1507q27 27 78 27q9 0 18 -1t17 -2t15 -2.5t12.5 -3t10 -2.5t5.5 -2l2 -1v-1518q-18 -18 -67 -18q-28 0 -50.5 3.5t-32 7.5t-8.5 5z" />
<glyph unicode="}" horiz-adv-x="505" d="M20 -162q16 13 40.5 34t68.5 66.5t49 69.5q4 203 4 361q0 147 -4 174q121 96 121 119q0 11 -30 41t-61 55l-30 24q4 25 4 172l-4 363q-5 23 -44.5 65t-76.5 72l-37 31q17 21 43.5 36t44.5 20l17 5q31 0 132.5 -60.5t113.5 -86.5q4 -12 4 -103q0 -38 -1 -144t-1 -161 q0 -145 6 -203q117 -106 117 -126q0 -9 -29 -40t-59 -58l-29 -27q-6 -58 -6 -203q0 -55 1 -161t1 -144q0 -89 -4 -105q-12 -25 -113.5 -85t-132.5 -60q-66 12 -105 59z" />
<glyph unicode="~" horiz-adv-x="626" d="M61 438q0 21 2.5 39.5t5.5 28.5t5 12q52 39 125 39q35 0 118.5 -14.5t118.5 -14.5q26 0 62 11t53 24q14 0 14 -82q0 -22 -4 -42t-8 -29l-4 -9q-40 -30 -103 -30q-26 0 -115 14t-128 14q-32 0 -64.5 -8t-48.5 -16l-16 -8q-13 17 -13 71z" />
<glyph unicode="&#xa1;" horiz-adv-x="440" d="M63 -459q0 1 8 38t16 77.5t15 88.5t7 73q0 51 14 303t20 323q39 17 84 17q24 0 45 -2.5t30 -4.5l9 -3q0 -195 17 -424.5t34 -361.5l17 -132q-10 -10 -49 -17.5t-73 -9.5l-34 -2q-47 0 -86 7.5t-57 15.5t-17 14zM84 739q0 57 40 97.5t97 40.5t97 -40.5t40 -97.5t-40 -97 t-97 -40t-97 40t-40 97z" />
<glyph unicode="&#xa2;" horiz-adv-x="792" d="M61 573q0 201 109.5 333.5t284.5 185.5v98q39 39 118 39h2v-111q49 6 99 6q39 0 45 -2q10 -10 10 -69q0 -50 -6.5 -92.5t-17.5 -42.5h-11q-53 0 -119 -13v-522q26 1 52 5t44 9t32.5 10t22.5 8t9 3q17 -17 17 -94q0 -42 -6 -80.5t-15 -48.5q-58 -23 -156 -29v-66 q-17 -17 -47 -27t-52 -11l-21 -1v105q-103 8 -181 44t-123.5 92.5t-67.5 124t-22 146.5zM311 594q0 -71 35.5 -124t108.5 -75v467q-144 -83 -144 -268z" />
<glyph unicode="&#xa3;" horiz-adv-x="1085" d="M20 690q0 11 1.5 28.5t14.5 57t36 62.5h118q0 291 3 309q2 8 10.5 22t29 35.5t48.5 43.5t72.5 44t98 39t129 28t160.5 11q4 -5 10 -15t16.5 -50t10.5 -91q-11 0 -29 -1.5t-67 -10t-90.5 -22.5t-84.5 -42.5t-63 -66.5q-7 -29 -14 -233h275q0 -10 -1.5 -27t-14.5 -57 t-36 -64h-227q-2 -94 -2 -272q0 -209 8 -217q25 -25 166 -25q159 0 225 66q8 8 21 22.5t39 58.5t35 87q33 -2 74.5 -23.5t41.5 -50.5q0 -41 -27 -152t-71 -168q-10 -13 -71.5 -21.5t-127.5 -8.5q-75 0 -167 4.5t-146 9.5l-55 4q-98 -20 -162 -20l-96 8q0 22 15.5 66t30.5 77 l15 33q14 29 18 522h-170z" />
<glyph unicode="&#xa4;" horiz-adv-x="958" d="M61 248l146 229q-49 81 -49 174q0 99 53 176l-150 236q48 18 111 18q28 0 55 -6l90 -145q76 45 164 45q87 0 162 -43l88 139q27 6 55 6t55.5 -4.5t41.5 -8.5l14 -5l-147 -232q53 -77 53 -176q0 -101 -53 -178l147 -229q-48 -19 -111 -19q-28 0 -55 6l-88 140 q-70 -43 -162 -43t-168 45l-86 -137q-32 -7 -55 -7q-28 0 -55.5 4.5t-41.5 9.5zM272 651q0 -88 60.5 -148.5t148.5 -60.5q87 0 148 61t61 148t-61 148t-148 61q-88 0 -148.5 -60.5t-60.5 -148.5z" />
<glyph unicode="&#xa5;" horiz-adv-x="1251" d="M10 1196q0 28 13 74t20 53q5 5 33 10.5t90 11t139 5.5q27 0 31 -7q4 -2 35.5 -60.5t100.5 -185.5t138 -247q1 -2 3 -4.5t8 -5.5t10 8q41 84 165 278.5t199 259.5q62 0 121 -14.5t90.5 -32.5t30.5 -30q-71 -78 -176.5 -213t-188.5 -260h136q0 -10 -1.5 -27t-14.5 -56 t-36 -63h-170q-35 -72 -45 -110q-2 -6 -2 -27h269q0 -10 -1.5 -27t-14.5 -55.5t-36 -62.5h-219q0 -324 17 -394q0 -11 -16 -21.5t-63 -19t-120 -8.5q-25 0 -44.5 4.5t-26.5 8.5l-7 4q0 13 -1 41t-1 43q0 138 8 342h-305q0 11 1.5 28t13.5 55.5t34 61.5h265q2 14 2 35v6 l-64 96h-252q0 11 1.5 28t13.5 56t34 62h111q-24 40 -54.5 92t-48.5 82t-37.5 61.5t-33 50t-23.5 27.5q-15 13 -56.5 30t-74.5 17z" />
<glyph unicode="&#xa6;" horiz-adv-x="366" d="M104 -86v666q26 26 78 26q9 0 18 -1t17 -2t15 -2.5t12.5 -3t10 -2.5t5.5 -2l2 -1v-676q-18 -18 -67 -18q-28 0 -50.5 3.5t-32 7.5t-8.5 5zM104 776v645q27 27 78 27q9 0 18 -1t17 -2t15 -2.5t12.5 -3t10 -2.5t5.5 -2l2 -1v-656q-18 -18 -67 -18q-28 0 -50.5 3.5t-32 7.5 t-8.5 5z" />
<glyph unicode="&#xa7;" horiz-adv-x="1052" d="M61 639q0 49 24 93.5t69 81t83.5 60.5t92.5 52l2 2q-121 76 -121 166q0 65 50.5 115.5t122 78t161 45.5t154 23.5t114.5 5.5h27q3 0 8.5 -14.5t10.5 -41t5 -53.5q0 -29 -10 -71q-7 0 -19.5 -0.5t-48.5 -2.5t-69 -6t-73 -11.5t-69 -18t-49 -27.5t-20 -37q-1 -28 49 -57 t121.5 -58.5t143 -63.5t121.5 -85.5t50 -112.5q0 -49 -24 -93.5t-68 -80.5t-83 -60.5t-93 -51.5q-4 -2 0 -4q119 -76 119 -166q0 -65 -50.5 -115.5t-122 -78.5t-160.5 -46t-153.5 -23.5t-113.5 -5.5h-27q-3 0 -9 15.5t-11 43.5t-5 56q0 32 9 66q7 0 19.5 0.5t49 2.5 t69.5 5.5t73 11.5t69 18t49.5 27t20.5 37q1 28 -49.5 57.5t-122 59t-143.5 64t-122.5 86t-50.5 112.5zM322 664q0 -31 48 -66.5t95.5 -55.5t58.5 -20q42 0 124.5 51.5t82.5 104.5q0 32 -47 66t-94 53.5t-60 19.5q-43 0 -125.5 -50.5t-82.5 -102.5z" />
<glyph unicode="&#xa8;" d="M193 1120q0 40 32 72.5t74 32.5q43 0 73.5 -31t30.5 -74t-32.5 -75.5t-75.5 -32.5q-44 0 -73 28.5t-29 79.5zM578 1120q0 40 32 72.5t74 32.5t72 -31t30 -74t-31.5 -75.5t-74.5 -32.5q-44 0 -73 28.5t-29 79.5z" />
<glyph unicode="&#xa9;" horiz-adv-x="768" d="M61 651q0 133 95.5 228.5t228.5 95.5t227.5 -95t94.5 -229t-94.5 -228.5t-227.5 -94.5q-134 0 -229 95t-95 228zM127 651q0 -107 75.5 -182.5t182.5 -75.5q106 0 182 75.5t76 182.5t-76 182.5t-182 75.5q-107 0 -182.5 -75.5t-75.5 -182.5zM213 641q0 88 51 140.5 t137 52.5q18 0 34.5 -4t24 -7.5t9.5 -5.5q4 -2 4 -20q0 -39 -8 -39q-1 0 -19 6t-36 6q-20 0 -39 -5t-40 -17t-33.5 -37.5t-12.5 -61.5q0 -51 31 -82.5t85 -31.5q13 0 25.5 1.5t20.5 3.5t14.5 4t10.5 4l3 1q6 -6 6 -25q0 -27 -8 -35q-25 -18 -82 -18q-84 0 -131 52t-47 118z " />
<glyph unicode="&#xaa;" horiz-adv-x="649" d="M61 664q0 54 22 98.5t58 71t74.5 46t78 28.5t63 12.5t34.5 3.5l2 2q0 63 -162 63q-20 0 -51.5 -2t-44.5 -2q0 26 16.5 65.5t28.5 51.5q10 10 92 10q149 0 219 -56.5t70 -174.5v-68q0 -163 6 -192q9 -69 43 -103q0 -14 -51 -43t-94 -29q-3 0 -11 9.5t-17.5 34t-12.5 55.5 q0 4 -2 4l-4 -4q-8 -6 -22 -15t-57.5 -23.5t-86.5 -14.5q-89 0 -140 45t-51 127zM223 690q0 -27 20.5 -46t61.5 -19q22 0 45.5 7t45.5 32.5t22 64.5v49q0 29 -2 29q-21 0 -50.5 -5.5t-63 -18t-56.5 -37t-23 -56.5z" />
<glyph unicode="&#xab;" horiz-adv-x="1134" d="M20 461q0 21 99 139t208.5 228t133.5 110q45 8 94 8q51 0 80 -10q2 0 3.5 -3.5t-1.5 -6.5q-65 -53 -226 -242t-161 -223q0 -36 161 -225t226 -240q8 -12 -2 -12q-32 -11 -80 -11q-22 0 -45.5 2.5t-35.5 4.5l-13 2q-28 0 -137 109t-206.5 227t-97.5 143zM485 461 q0 21 99 139t208.5 228t133.5 110q45 8 94 8t78 -10q3 0 4.5 -3.5t-2.5 -6.5q-65 -54 -225 -242.5t-160 -222.5q0 -35 160.5 -224t224.5 -241q4 -4 3 -8t-5 -4q-32 -11 -78 -11q-22 0 -45.5 2.5t-36.5 4.5l-12 2q-28 0 -137 109t-206.5 227t-97.5 143z" />
<glyph unicode="&#xac;" horiz-adv-x="1075" d="M61 848q0 67 23 88h913q17 -23 17 -78v-653q-23 -19 -70 -19q-67 0 -90 23v569h-774q-19 23 -19 70z" />
<glyph unicode="&#xad;" horiz-adv-x="1175" d="M61 387q0 69 23 90h1014q16 -23 16 -80t-18 -78h-1016q-19 21 -19 68z" />
<glyph unicode="&#xae;" horiz-adv-x="768" d="M61 651q0 133 95.5 228.5t228.5 95.5t227.5 -95t94.5 -229t-94.5 -228.5t-227.5 -94.5q-134 0 -229 95t-95 228zM127 651q0 -107 75.5 -182.5t182.5 -75.5q106 0 182 75.5t76 182.5t-76 182.5t-182 75.5q-107 0 -182.5 -75.5t-75.5 -182.5zM260 821q6 6 100 6 q164 0 164 -90q0 -65 -78 -102q0 -6 32.5 -63t51.5 -76q1 -1 -1.5 -2.5t-7.5 -4t-12 -4.5t-16.5 -3.5t-19.5 -2.5h-14q-12 12 -38 67.5t-28 67.5q-9 -4 -53 -10q4 -113 6 -119q-15 -12 -55 -12l-19 4l9 291q-8 8 -14.5 28t-6.5 25zM340 659q59 7 88 29t29 45q0 41 -76 41 l-39 -2q-2 -14 -2 -113z" />
<glyph unicode="&#xaf;" horiz-adv-x="952" d="M225 1100q0 69 23 90h487q17 -23 17 -80q0 -56 -19 -78h-489q-19 21 -19 68z" />
<glyph unicode="&#xb0;" horiz-adv-x="364" d="M20 1135q0 62 49.5 111.5t114.5 49.5q66 0 113 -47.5t47 -113.5t-49.5 -116t-114.5 -50q-69 0 -114.5 43.5t-45.5 122.5zM96 1133q0 -41 24.5 -65t59.5 -24t61.5 27t26.5 62t-25 60.5t-59 25.5q-35 0 -61.5 -26t-26.5 -60z" />
<glyph unicode="&#xb1;" horiz-adv-x="1105" d="M61 274q0 70 23 91h942q16 -23 16 -80t-18 -78h-944q-19 20 -19 67zM61 856q0 67 23 90h389v273q25 16 80 16q57 0 80 -18v-271h395q16 -23 16 -80q0 -58 -20 -78h-391v-270q-23 -18 -70 -18q-68 0 -90 22v266h-393q-19 21 -19 68z" />
<glyph unicode="&#xb2;" horiz-adv-x="628" d="M51 655q0 70 8 78l2 2q26 25 69.5 68.5t114.5 119.5t119 147.5t48 109.5q0 69 -107 69q-33 0 -57.5 -9.5t-39 -22t-25.5 -36t-16 -39.5t-11 -44q-2 -2 -15 -2q-20 0 -46 5t-32 11q-2 2 -2 39q0 44 4 105.5t7 64.5q5 5 38.5 14.5t89 18t103.5 8.5q129 0 197.5 -47.5 t68.5 -120.5q0 -125 -319 -457q-1 -2 2 -3.5t9.5 -2t13 -1.5t16 -1h14h10.5q184 0 258 23h2q3 0 3 -2q0 -28 -11.5 -75t-25.5 -61q-10 -10 -154 -10q-16 0 -95 3t-110 3t-58.5 -1t-44.5 -2t-20 -1h-4q-4 4 -4 49z" />
<glyph unicode="&#xb3;" horiz-adv-x="710" d="M84 782v37q2 6 28 14.5t46 8.5q24 0 24 -2q0 -59 28.5 -97t92.5 -38q83 0 125.5 38t42.5 91q0 63 -69 95t-185 32q-10 0 -10 4q0 26 8 53.5t15.5 43t9.5 15.5l7 -1q7 -1 17 -1q44 0 75 10.5t44.5 26.5t19 29t5.5 24q0 37 -39.5 56.5t-92.5 19.5q-35 0 -68.5 -5t-49.5 -10 l-17 -5q-5 0 -6 30q0 23 5 56.5t12 38.5q53 16 137 16q54 0 100.5 -8t89.5 -26.5t67.5 -54t24.5 -85.5q0 -57 -35.5 -95.5t-74.5 -52.5l-2 -4q7 -2 18.5 -6t40.5 -20t51.5 -36.5t41 -58t18.5 -81.5q0 -65 -32 -115t-85.5 -78.5t-115 -42.5t-128.5 -14q-48 0 -90.5 5.5 t-61.5 10.5l-18 6q-5 5 -9.5 63t-4.5 113z" />
<glyph unicode="&#xb4;" d="M414 1063q0 27 56 104.5t95 100.5q33 0 79 -33.5t46 -58.5q-40 -25 -111 -88.5t-92 -88.5q-20 0 -45 23t-28 41z" />
<glyph unicode="&#xb5;" horiz-adv-x="935" d="M-305 -424h20q79 0 174 43q191 97 191 449q4 124 4 251q-2 29 -2 111q0 126 5.5 254.5t12.5 144.5q6 5 18 12t56.5 19t97.5 12q48 0 58 -10q0 -2 -3 -53.5t-6.5 -129.5t-3.5 -144q0 -33 5 -125q0 -7 0.5 -18t6 -39.5t16.5 -50.5t34.5 -40t56.5 -18q48 0 89 36t59.5 71.5 t17.5 47.5v70q0 116 4 254.5t8 148.5q11 18 65.5 39t117.5 21q43 0 51 -8q0 -3 -2 -42.5t-4 -101t-4.5 -133t-4.5 -152t-2 -143.5q0 -130 9 -180q15 -104 55 -164q0 -21 -83.5 -65.5t-143.5 -44.5q-6 0 -17.5 17t-25.5 61.5t-19 101.5l-2 43l-2 4q-49 -75 -123.5 -120.5 t-146.5 -45.5h-15q-5 -106 -30 -194.5t-61.5 -148.5t-85.5 -107t-97 -73.5t-101 -44t-93.5 -23t-77.5 -5.5q-7 0 -25 31.5t-34.5 83.5t-16.5 98z" />
<glyph unicode="&#xb6;" horiz-adv-x="1064" d="M61 903q0 39 10 78.5t36 84t66 84t104 76.5t145 65t195 46t249 21h16t31 -1t35 -4t13 -7q-13 -225 -13 -537q0 -63 2 -161.5t2 -141.5q0 -83 1 -310t1 -229q-33 -24 -82 -24q-28 0 -51 4.5t-32 8.5l-9 5q13 94 13 498q0 86 -1 252t-1 235q0 225 4 266q-32 0 -64.5 -7 t-48.5 -14l-16 -7q-15 -15 -15 -307q0 -125 3 -386t3 -341q0 -114 -4 -134q-7 -21 -47.5 -34t-87.5 -13h-12.5t-11 0.5t-9.5 2t-2 3.5q6 14 10.5 156.5t4.5 269.5q0 97 -2 117q-61 15 -118 35.5t-116 54t-102.5 74.5t-71 98.5t-27.5 122.5z" />
<glyph unicode="&#xb7;" horiz-adv-x="382" d="M72 434q0 45 36 82t85 37t83.5 -34.5t34.5 -84.5q0 -49 -37.5 -87t-85.5 -38q-51 0 -83.5 33.5t-32.5 91.5z" />
<glyph unicode="&#xb8;" horiz-adv-x="790" d="M383 -285q0 9 2 13q41 0 72.5 17t31.5 34q0 20 -23 34.5t-46 18.5l-23 4q0 25 12 62.5t27 62.5q21 0 42.5 -5t32.5 -10l11 -5q-16 -28 -16 -62l10 -5t22.5 -13.5t29 -21.5t22.5 -28t10 -34q0 -49 -64.5 -84t-125.5 -35q-7 0 -17 19.5t-10 37.5z" />
<glyph unicode="&#xb9;" horiz-adv-x="485" d="M82 1198q0 72 10 82q12 12 116 53t124 41h2q4 -4 4 -74q0 -52 -3 -215t-3 -233q0 -121 6 -127q25 2 41 2t16 -2q8 -25 8 -72q0 -43 -6 -43h-32q-49 0 -103 -4t-83 -8l-29 -4q-7 7 -7 51q0 55 7 62l47 8q0 7 -1 25t-1 30q0 51 4 174.5t4 169.5q0 78 -8 86q0 2 -9 2 q-11 0 -36 -4.5t-46 -9.5l-20 -4q-2 0 -2 14z" />
<glyph unicode="&#xba;" horiz-adv-x="679" d="M61 791q0 61 22.5 119t64 104.5t107 75t144.5 28.5q62 -2 70 -10q4 -4 4 -18q0 -24 -6 -48q7 -1 21.5 -7t37.5 -22.5t43 -40.5t34.5 -66.5t14.5 -94.5q0 -125 -75.5 -216t-206.5 -91q-128 0 -201.5 80.5t-73.5 206.5zM213 795q0 -10 1 -21.5t7.5 -38.5t18 -46.5 t36.5 -35.5t60 -16q53 0 92 41t39 121q0 40 -11 67t-28.5 38t-31 14.5t-27.5 3.5h-13q0 2 -1 7.5t-1 8.5q0 25 4 41q-54 0 -99.5 -48.5t-45.5 -135.5z" />
<glyph unicode="&#xbb;" horiz-adv-x="1134" d="M32.5 -26.5q-1.5 4.5 2.5 8.5q65 52 225 240.5t160 223.5q0 34 -160 222.5t-225 242.5q-4 3 -2.5 7t4.5 4q29 10 78 10q22 0 45.5 -2t35.5 -4l13 -2q24 0 133 -110.5t208 -228.5t99 -139q0 -25 -97 -143t-206 -227t-137 -109q-45 -8 -94 -8t-78 10q-3 0 -4.5 4.5z M496.5 -24q-0.5 3 1.5 6q65 51 226 239.5t161 224.5q0 34 -161 223t-226 242q-3 3 -1.5 7t3.5 4q29 10 80 10q22 0 45.5 -2t36.5 -4l12 -2q24 0 133 -110.5t208 -228.5t99 -139q0 -25 -97 -143t-206 -227t-137 -109q-45 -8 -94 -8q-51 0 -80 10q-1 0 -2 2t-1.5 5z" />
<glyph unicode="&#xbc;" horiz-adv-x="1376" d="M82 1198q0 72 10 82q12 12 116 53t124 41h2q4 -4 4 -74q0 -52 -3 -215t-3 -233q0 -121 6 -127q25 2 41 2t16 -2q8 -25 8 -72q0 -43 -6 -43h-32q-49 0 -103 -4t-83 -8l-29 -4q-7 7 -7 51q0 55 7 62l47 8q0 7 -1 25t-1 30q0 51 4 174.5t4 169.5q0 78 -8 86q0 2 -9 2 q-11 0 -36 -4.5t-46 -9.5l-20 -4q-2 0 -2 14zM96 -55l936 1476q30 9 55 9q24 0 47 -6t34 -12l10 -7l-942 -1477q-34 -6 -60 -6q-25 0 -45 6t-27 12zM696 272q0 30 135.5 235t206.5 284q1 2 13.5 6t39.5 8t58 4q10 0 24.5 -2.5t14.5 -5.5q0 -4 -2 -6q-70 -82 -70 -88 q103 -3 103 -17q-7 -201 -7 -387q58 0 78 4q4 0 4 -6q0 -32 -16.5 -69.5t-24.5 -45.5q-1 -1 -39 -4q0 -129 13 -186q0 -10 -49 -22.5t-84 -12.5l-29 2q-6 6 -6 72q0 13 4 145q-86 -4 -219 -4q-115 0 -123 4q-10 11 -16.5 34t-7.5 40zM862 305q0 -6 84 -6q25 0 68.5 1t54.5 1 q6 150 6 274q0 66 -4 66l-6 -6q-26 -36 -63.5 -90t-88.5 -137t-51 -103z" />
<glyph unicode="&#xbd;" horiz-adv-x="1419" d="M82 1198q0 72 10 82q12 12 116 53t124 41h2q4 -4 4 -74q0 -52 -3 -215t-3 -233q0 -121 6 -127q25 2 41 2t16 -2q8 -25 8 -72q0 -43 -6 -43h-32q-49 0 -103 -4t-83 -8l-29 -4q-7 7 -7 51q0 55 7 62l47 8q0 7 -1 25t-1 30q0 51 4 174.5t4 169.5q0 78 -8 86q0 2 -9 2 q-11 0 -36 -4.5t-46 -9.5l-20 -4q-2 0 -2 14zM96 -55l936 1476q30 9 55 9q24 0 47 -6t34 -12l10 -7l-942 -1477q-34 -6 -60 -6q-25 0 -45 6t-27 12zM831 39q0 69 9 78l2 2q26 25 69.5 68.5t114 119t118.5 147t48 109.5q0 70 -107 70q-33 0 -57.5 -9.5t-39 -22.5t-26 -36.5 t-16 -39.5t-10.5 -44q-2 -2 -14 -2q-19 0 -45.5 5.5t-32.5 11.5q-2 2 -2 39q0 45 3.5 106t6.5 64q5 5 38.5 14t89 17.5t103.5 8.5q129 0 198 -47t69 -120q0 -43 -33 -105t-93 -134.5t-99 -116t-95 -101.5q-1 -2 2 -3.5t10 -2t13.5 -1.5t15.5 -1h14h11q187 0 258 22h2 q2 0 2 -2q0 -28 -11.5 -74.5t-25.5 -60.5q-10 -10 -154 -10q-16 0 -94.5 3t-109.5 3t-58.5 -1t-44.5 -2t-20 -1h-4q-5 5 -5 49z" />
<glyph unicode="&#xbe;" horiz-adv-x="1527" d="M84 782v37q2 6 28 14.5t46 8.5q24 0 24 -2q0 -59 28.5 -97t92.5 -38q83 0 125.5 38t42.5 91q0 63 -69 95t-185 32q-10 0 -10 4q0 26 8 53.5t15.5 43t9.5 15.5l7 -1q7 -1 17 -1q44 0 75 10.5t44.5 26.5t19 29t5.5 24q0 37 -39.5 56.5t-92.5 19.5q-35 0 -68.5 -5t-49.5 -10 l-17 -5q-5 0 -6 30q0 23 5 56.5t12 38.5q53 16 137 16q54 0 100.5 -8t89.5 -26.5t67.5 -54t24.5 -85.5q0 -57 -35.5 -95.5t-74.5 -52.5l-2 -4q7 -2 18.5 -6t40.5 -20t51.5 -36.5t41 -58t18.5 -81.5q0 -65 -32 -115t-85.5 -78.5t-115 -42.5t-128.5 -14q-48 0 -90.5 5.5 t-61.5 10.5l-18 6q-5 5 -9.5 63t-4.5 113zM248 -55l936 1476q30 9 55 9q24 0 46.5 -6t32.5 -12l11 -7l-942 -1477q-34 -6 -59 -6t-45 6t-27 12zM848 272q0 30 135.5 235t206.5 284q1 2 13.5 6t39 8t57.5 4q10 0 24.5 -2.5t14.5 -5.5q0 -4 -2 -6q-69 -81 -69 -88 q102 -3 102 -17q-6 -201 -6 -387q58 0 78 4q4 0 4 -6q0 -32 -16.5 -69.5t-24.5 -45.5q-1 -1 -39 -4q0 -134 12 -186q0 -10 -49 -22.5t-84 -12.5l-28 2q-7 7 -7 72q0 13 4 145q-86 -4 -219 -4q-115 0 -123 4q-10 11 -16 34t-7 40zM1014 305q0 -6 84 -6q25 0 68.5 1t54.5 1 q6 150 6 274q0 66 -4 66l-6 -6q-26 -36 -63.5 -90t-88.5 -137t-51 -103z" />
<glyph unicode="&#xbf;" horiz-adv-x="811" d="M61 -156q0 57 16 107.5t43.5 87t58 65.5t67 50t62 33.5t51.5 22.5t28 11q15 7 27 84.5t12 114.5q4 4 20.5 11.5t50.5 16.5t68 9q33 0 49 -4q23 -37 23 -195q0 -77 -12 -123q-25 -6 -43 -11t-62.5 -20t-77 -34.5t-67.5 -47t-54.5 -66t-19.5 -83.5q0 -82 80 -121t215 -39 q103 0 152 21q12 -20 12 -86q0 -65 -19 -109q-55 -26 -161 -26q-119 0 -211.5 20t-149.5 51.5t-93.5 76t-50.5 89t-14 94.5zM406 737q0 57 40 97t97 40t97 -40t40 -97t-40 -97t-97 -40t-97 40t-40 97z" />
<glyph unicode="&#xc0;" horiz-adv-x="1261" d="M51 -29q0 37 43.5 178t102.5 300q-27 24 -62 93t-35 117q0 2 170 9q62 180 122.5 342.5t68.5 171.5q8 7 73.5 19.5t83.5 12.5q1 0 -3.5 28t-9.5 61.5t-5 44.5q0 7 35.5 24t95 33t111.5 16q7 -44 20 -118.5t54 -278t82.5 -377.5t102 -360.5t116.5 -282.5l14 -24 q0 -10 -39 -34.5t-102.5 -47.5t-116.5 -23q-20 0 -89.5 232t-95.5 352q-29 2 -112 2q-212 0 -236 -8q-109 -363 -123 -514q0 -2 -49 -2q-51 0 -104 7t-83 15t-30 12zM510 674q227 0 229 -4q-73 304 -82 358q0 6 -4 6q-5 0 -10 -8q-18 -35 -68 -167.5t-65 -184.5zM528 1651 q0 25 46 58.5t79 33.5q39 -23 95.5 -100.5t56.5 -104.5q-3 -18 -28.5 -40.5t-45.5 -22.5q-21 25 -92 88t-111 88z" />
<glyph unicode="&#xc1;" horiz-adv-x="1261" d="M51 -29q0 -4 30 -12t83 -15t104 -7q49 0 49 2q14 151 123 514q24 8 236 8q83 0 112 -2q26 -120 95.5 -352t89.5 -232q53 0 116.5 23t102.5 47.5t39 34.5q-12 22 -14 24q-56 96 -115.5 277t-104 371t-81 366.5t-55.5 289.5l-19 113q-52 0 -111.5 -16t-95 -33t-35.5 -24 q0 -11 5 -44.5t9.5 -61.5t3.5 -28q-18 0 -83.5 -12.5t-73.5 -19.5q-8 -9 -68.5 -171.5t-122.5 -342.5q-170 -7 -170 -9q0 -48 35 -117t62 -93q-59 -159 -102.5 -300t-43.5 -178zM492 1473q0 27 56 104t95 100q33 0 79 -33.5t46 -58.5q-40 -25 -111 -88t-92 -88q-20 0 -45 23 t-28 41zM510 674q15 52 65 184.5t68 167.5q5 8 10 8l4 -6q9 -54 82 -358q-2 4 -229 4z" />
<glyph unicode="&#xc2;" horiz-adv-x="1261" d="M51 -29q0 37 43.5 178t102.5 300q-27 24 -62 93t-35 117q0 2 170 9q62 180 122.5 342.5t68.5 171.5q8 7 73.5 19.5t83.5 12.5q1 0 -3.5 28t-9.5 61.5t-5 44.5q0 7 35.5 24t95 33t111.5 16q7 -44 20 -118.5t54 -278t82.5 -377.5t102 -360.5t116.5 -282.5l14 -24 q0 -10 -39 -34.5t-102.5 -47.5t-116.5 -23q-20 0 -89.5 232t-95.5 352q-29 2 -112 2q-212 0 -236 -8q-109 -363 -123 -514q0 -2 -49 -2q-51 0 -104 7t-83 15t-30 12zM428 1518q0 27 56.5 104t95.5 100q28 0 71 -26q41 26 70 26q39 -23 95 -100t56 -104q-3 -18 -29 -41 t-46 -23q-11 15 -70 70t-76 65q-18 -10 -75 -63.5t-72 -71.5q-19 0 -45 23t-31 41zM510 674q227 0 229 -4q-73 304 -82 358q0 6 -4 6q-5 0 -10 -8q-18 -35 -68 -167.5t-65 -184.5z" />
<glyph unicode="&#xc3;" horiz-adv-x="1261" d="M51 -29q0 37 43.5 178t102.5 300q-27 24 -62 93t-35 117q0 2 170 9q62 180 122.5 342.5t68.5 171.5q8 7 73.5 19.5t83.5 12.5q1 0 -3.5 28t-9.5 61.5t-5 44.5q0 7 35.5 24t95 33t111.5 16q7 -44 20 -118.5t54 -278t82.5 -377.5t102 -360.5t116.5 -282.5l14 -24 q0 -10 -39 -34.5t-102.5 -47.5t-116.5 -23q-20 0 -89.5 232t-95.5 352q-29 2 -112 2q-212 0 -236 -8q-109 -363 -123 -514q0 -2 -49 -2q-51 0 -104 7t-83 15t-30 12zM444 1550q0 21 2.5 39.5t5.5 28.5t5 12q52 39 125 39q35 0 77.5 -14.5t77.5 -14.5q26 0 62 11t53 24 q14 0 14 -82q0 -22 -4 -42t-8 -29l-4 -9q-40 -30 -102 -30q-26 0 -74.5 14t-87.5 14q-32 0 -64 -8t-48 -16l-17 -8q-13 17 -13 71zM510 674q227 0 229 -4q-73 304 -82 358q0 6 -4 6q-5 0 -10 -8q-18 -35 -68 -167.5t-65 -184.5z" />
<glyph unicode="&#xc4;" horiz-adv-x="1261" d="M51 -29q0 -4 30 -12t83 -15t104 -7q49 0 49 2q14 151 123 514q24 8 236 8q83 0 112 -2q26 -120 95.5 -352t89.5 -232q53 0 116.5 23t102.5 47.5t39 34.5q-12 22 -14 24q-56 96 -115.5 277t-104 371t-81 366.5t-55.5 289.5l-19 113q-52 0 -111.5 -16t-95 -33t-35.5 -24 q0 -11 5 -44.5t9.5 -61.5t3.5 -28q-18 0 -83.5 -12.5t-73.5 -19.5q-8 -9 -68.5 -171.5t-122.5 -342.5q-170 -7 -170 -9q0 -48 35 -117t62 -93q-59 -159 -102.5 -300t-43.5 -178zM403 1602q0 40 32.5 72t74.5 32q43 0 73.5 -30.5t30.5 -73.5t-32.5 -76t-75.5 -33 q-44 0 -73.5 29t-29.5 80zM510 674q15 52 65 184.5t68 167.5q5 8 10 8l4 -6q9 -54 82 -358q-2 4 -229 4zM788 1602q0 40 32.5 72t74.5 32q43 0 72.5 -30.5t29.5 -73.5t-32 -76t-74 -33q-44 0 -73.5 29t-29.5 80z" />
<glyph unicode="&#xc5;" horiz-adv-x="1261" d="M51 -29q0 -4 30 -12t83 -15t104 -7q49 0 49 2q14 151 123 514q24 8 236 8q83 0 112 -2q26 -120 95.5 -352t89.5 -232q53 0 116.5 23t102.5 47.5t39 34.5q-12 22 -14 24q-56 96 -115.5 277t-104 371t-81 366.5t-55.5 289.5l-19 113q-52 0 -111.5 -16t-95 -33t-35.5 -24 q0 -11 5 -44.5t9.5 -61.5t3.5 -28q-18 0 -83.5 -12.5t-73.5 -19.5q-8 -9 -68.5 -171.5t-122.5 -342.5q-170 -7 -170 -9q0 -48 35 -117t62 -93q-59 -159 -102.5 -300t-43.5 -178zM510 674q15 52 65 184.5t68 167.5q5 8 10 8l4 -6q9 -54 82 -358q-2 4 -229 4zM567 1610 q0 52 41.5 93.5t96.5 41.5t94 -39.5t39 -95.5q0 -55 -42 -97.5t-96 -42.5q-58 0 -95.5 37.5t-37.5 102.5zM643 1608q0 -28 16.5 -45t40.5 -17q25 0 43.5 18.5t18.5 43.5t-17 42t-40 17q-25 0 -43.5 -18t-18.5 -41z" />
<glyph unicode="&#xc6;" horiz-adv-x="1751" d="M51 -70q0 70 152 519q-27 24 -63 92.5t-36 115.5q0 5 170 9q67 190 126.5 348.5t66.5 165.5q8 8 77.5 21t80.5 13q1 0 -4 28t-10 61t-5 43q0 8 34.5 25t92.5 32.5t111 15.5q35 -209 39 -209q6 0 8 4q0 5 1.5 44t4 66.5t6.5 31.5q166 8 578 8q172 0 172 -8 q0 -44 -19.5 -94t-40.5 -80t-28 -29q-12 4 -60 4q-98 0 -232 -10t-145 -21q-12 -12 -12 -223l2 -86q192 4 273 4q125 0 125 -6q0 -36 -16 -85t-32.5 -81t-21.5 -31h-14q-60 0 -183 -11t-131 -19q-2 -2 -2 -90q0 -252 8 -260q31 -31 351 -31q23 0 47.5 1t44.5 2t38.5 2.5 t33 3t25 2.5t16.5 2l6 1q4 0 4 -4q0 -48 -32 -114t-69 -103q-13 -13 -346 -16l12 -23q0 -10 -41 -33.5t-106 -45t-119 -21.5q-20 0 -95 241t-99 357q-29 2 -113 2q-212 0 -236 -8q-116 -386 -129 -555q0 -2 -49 -2q-52 0 -104.5 6.5t-82.5 14.5t-30 13zM516 672q27 0 73 1 t64 1q88 0 92 -4q-60 252 -81 356q-3 6 -7 6q-5 0 -8 -6q-16 -32 -67.5 -168t-65.5 -186z" />
<glyph unicode="&#xc7;" horiz-adv-x="1228" d="M72 553q0 72 10.5 146.5t38 158t69 158.5t108.5 144.5t152 120t204.5 80.5t260.5 30q26 0 67 -5.5t71 -12.5t30 -11q0 -43 -6 -129t-13 -153.5t-9 -69.5q-9 -9 -84.5 -32.5t-112.5 -23.5v13q0 93 -24 127q-27 39 -95 39q-52 0 -106.5 -22t-106 -69.5t-92 -113.5 t-65.5 -161t-25 -206q0 -53 9.5 -103.5t34.5 -103t62.5 -91.5t99 -64t138.5 -25q194 0 375 178q9 0 31 -22q29 -29 54.5 -70.5t37.5 -69.5t12 -36q0 -7 -23 -29t-68 -52.5t-102.5 -59.5t-137 -51t-160.5 -25q-13 -29 -13 -62q5 -2 12.5 -5.5t27.5 -16t35 -25.5t27.5 -34 t12.5 -42q0 -39 -40 -74t-92.5 -53t-98.5 -18q-7 0 -20 25t-13 46q0 2 1 6.5t1 6.5q51 0 89 20.5t38 42.5q0 24 -28 41.5t-56 22.5l-27 6q0 45 33 117q-258 24 -391 191.5t-133 420.5z" />
<glyph unicode="&#xc8;" horiz-adv-x="1085" d="M82 795q0 3 108 6q0 47 1.5 121.5t1.5 99.5q0 86 -5 96q-23 23 -58.5 108.5t-35.5 110.5q11 11 269.5 17t449.5 6q172 0 172 -8q0 -44 -19.5 -94.5t-40.5 -81t-28 -29.5q-12 4 -61 4q-99 0 -233.5 -10t-145.5 -21q-13 -13 -13 -225l2 -86q82 2 234 2q168 0 168 -6 q0 -36 -16.5 -85.5t-33.5 -82t-22 -31.5q-52 0 -182 -9t-150 -22q-2 -2 -2 -63q0 -84 3.5 -184.5t7.5 -104.5q13 -13 93.5 -21t145 -10t113.5 -2q24 0 48.5 1t45 2t39.5 3t33.5 3.5t25.5 2.5t17 2l6 1q4 0 4 -2q0 -49 -32.5 -116.5t-69.5 -102.5q-3 -3 -47.5 -8t-142 -9 t-216.5 -4t-217.5 5.5t-103.5 11.5q-6 4 -9.5 101t-3.5 187q0 97 4 305q-36 32 -70 102t-34 120zM403 1585q0 25 46 58.5t79 33.5q39 -23 95.5 -100t56.5 -104q-3 -18 -28.5 -41t-45.5 -23q-21 25 -92 88t-111 88z" />
<glyph unicode="&#xc9;" horiz-adv-x="1085" d="M82 795q0 3 108 6q0 47 1.5 121.5t1.5 99.5q0 86 -5 96q-23 23 -58.5 108.5t-35.5 110.5q11 11 269.5 17t449.5 6q172 0 172 -8q0 -44 -19.5 -94.5t-40.5 -81t-28 -29.5q-12 4 -61 4q-99 0 -233.5 -10t-145.5 -21q-13 -13 -13 -225l2 -86q82 2 234 2q168 0 168 -6 q0 -36 -16.5 -85.5t-33.5 -82t-22 -31.5q-52 0 -182 -9t-150 -22q-2 -2 -2 -63q0 -84 3.5 -184.5t7.5 -104.5q13 -13 93.5 -21t145 -10t113.5 -2q24 0 48.5 1t45 2t39.5 3t33.5 3.5t25.5 2.5t17 2l6 1q4 0 4 -2q0 -49 -32.5 -116.5t-69.5 -102.5q-3 -3 -47.5 -8t-142 -9 t-216.5 -4t-217.5 5.5t-103.5 11.5q-6 4 -9.5 101t-3.5 187q0 97 4 305q-36 32 -70 102t-34 120zM430 1477q0 27 56.5 104t95.5 100q33 0 79 -33.5t46 -58.5q-40 -25 -111 -88t-92 -88q-20 0 -45.5 23t-28.5 41z" />
<glyph unicode="&#xca;" horiz-adv-x="1085" d="M82 795q0 3 108 6q0 47 1.5 121.5t1.5 99.5q0 86 -5 96q-23 23 -58.5 108.5t-35.5 110.5q11 11 269.5 17t449.5 6q172 0 172 -8q0 -44 -19.5 -94.5t-40.5 -81t-28 -29.5q-12 4 -61 4q-99 0 -233.5 -10t-145.5 -21q-13 -13 -13 -225l2 -86q82 2 234 2q168 0 168 -6 q0 -36 -16.5 -85.5t-33.5 -82t-22 -31.5q-52 0 -182 -9t-150 -22q-2 -2 -2 -63q0 -84 3.5 -184.5t7.5 -104.5q13 -13 93.5 -21t145 -10t113.5 -2q24 0 48.5 1t45 2t39.5 3t33.5 3.5t25.5 2.5t17 2l6 1q4 0 4 -2q0 -49 -32.5 -116.5t-69.5 -102.5q-3 -3 -47.5 -8t-142 -9 t-216.5 -4t-217.5 5.5t-103.5 11.5q-6 4 -9.5 101t-3.5 187q0 97 4 305q-36 32 -70 102t-34 120zM319 1473q0 27 56.5 104t95.5 100q29 0 72 -26q41 26 69 26q39 -23 95.5 -100t56.5 -104q-3 -18 -29.5 -41t-46.5 -23q-11 15 -69.5 70t-75.5 65q-18 -10 -76 -63.5t-72 -71.5 q-19 0 -45 23t-31 41z" />
<glyph unicode="&#xcb;" horiz-adv-x="1085" d="M82 795q0 3 108 6q0 47 1.5 121.5t1.5 99.5q0 86 -5 96q-23 23 -58.5 108.5t-35.5 110.5q11 11 269.5 17t449.5 6q172 0 172 -8q0 -44 -19.5 -94.5t-40.5 -81t-28 -29.5q-12 4 -61 4q-99 0 -233.5 -10t-145.5 -21q-13 -13 -13 -225l2 -86q82 2 234 2q168 0 168 -6 q0 -36 -16.5 -85.5t-33.5 -82t-22 -31.5q-52 0 -182 -9t-150 -22q-2 -2 -2 -63q0 -84 3.5 -184.5t7.5 -104.5q13 -13 93.5 -21t145 -10t113.5 -2q24 0 48.5 1t45 2t39.5 3t33.5 3.5t25.5 2.5t17 2l6 1q4 0 4 -2q0 -49 -32.5 -116.5t-69.5 -102.5q-3 -3 -47.5 -8t-142 -9 t-216.5 -4t-217.5 5.5t-103.5 11.5q-6 4 -9.5 101t-3.5 187q0 97 4 305q-36 32 -70 102t-34 120zM246 1530q0 40 32 72t74 32q43 0 74 -30.5t31 -73.5t-33 -76t-76 -33q-44 0 -73 29t-29 80zM631 1530q0 40 32 72t74 32q43 0 73 -30.5t30 -73.5t-32 -76t-75 -33 q-44 0 -73 29t-29 80z" />
<glyph unicode="&#xcc;" horiz-adv-x="628" d="M92 8q0 124 14 142q3 2 36.5 7t43.5 5q-4 70 -4 239q0 134 2.5 315t5 302.5t3.5 128.5h-5q-56 0 -92 -12q-4 0 -4 47q0 45 4 96t8 55q3 3 56 10.5t156 15t206 7.5q6 0 6 -33q0 -15 -3 -69t-3 -82q0 -8 -6 -8q-68 0 -76 -5q-1 -2 -4 -83t-5.5 -218.5t-2.5 -261.5 q0 -317 16 -426q27 2 84 2q9 0 9 -69q0 -64 -7 -127q-1 -1 -1 -2.5t-1 -2.5t-4 -1q-91 0 -227.5 -8t-198.5 -21q-6 0 -6 57zM176 1585q0 25 46 58.5t79 33.5q39 -23 95.5 -100t56.5 -104q-3 -18 -28.5 -41t-45.5 -23q-21 25 -92 88t-111 88z" />
<glyph unicode="&#xcd;" horiz-adv-x="628" d="M92 8q0 -57 6 -57q62 13 198.5 21t227.5 8q3 0 4 1t1 2.5t1 2.5q7 63 7 127q0 69 -9 69q-57 0 -84 -2q-16 109 -16 426q0 124 2.5 261.5t5.5 218.5t4 83q8 5 76 5q6 0 6 8q0 28 3 82t3 69q0 33 -6 33q-103 0 -206 -7.5t-156 -15t-56 -10.5q-4 -4 -8 -55t-4 -96 q0 -47 4 -47q36 12 92 12h5q-1 -7 -3.5 -128.5t-5 -302.5t-2.5 -315q0 -169 4 -239q-10 0 -43.5 -5t-36.5 -7q-14 -18 -14 -142zM176 1473q0 27 56.5 104t95.5 100q33 0 79 -33.5t46 -58.5q-40 -25 -111 -88t-92 -88q-20 0 -45.5 23t-28.5 41z" />
<glyph unicode="&#xce;" horiz-adv-x="628" d="M92 8q0 124 14 142q3 2 36.5 7t43.5 5q-4 70 -4 239q0 134 2.5 315t5 302.5t3.5 128.5h-5q-56 0 -92 -12q-4 0 -4 47q0 45 4 96t8 55q3 3 56 10.5t156 15t206 7.5q6 0 6 -33q0 -15 -3 -69t-3 -82q0 -8 -6 -8q-68 0 -76 -5q-1 -2 -4 -83t-5.5 -218.5t-2.5 -261.5 q0 -317 16 -426q27 2 84 2q9 0 9 -69q0 -64 -7 -127q-1 -1 -1 -2.5t-1 -2.5t-4 -1q-91 0 -227.5 -8t-198.5 -21q-6 0 -6 57zM92 1473q0 27 56.5 104t95.5 100q28 0 71 -26q41 26 70 26q39 -23 95.5 -100t56.5 -104q-3 -18 -29.5 -41t-46.5 -23q-11 15 -70 70t-76 65 q-18 -10 -75 -63.5t-72 -71.5q-19 0 -45 23t-31 41z" />
<glyph unicode="&#xcf;" horiz-adv-x="628" d="M18 1530q0 40 32.5 72t74.5 32q43 0 73.5 -30.5t30.5 -73.5t-32.5 -76t-75.5 -33q-44 0 -73.5 29t-29.5 80zM92 8q0 -57 6 -57q62 13 198.5 21t227.5 8q3 0 4 1t1 2.5t1 2.5q7 63 7 127q0 69 -9 69q-57 0 -84 -2q-16 109 -16 426q0 124 2.5 261.5t5.5 218.5t4 83 q8 5 76 5q6 0 6 8q0 28 3 82t3 69q0 33 -6 33q-103 0 -206 -7.5t-156 -15t-56 -10.5q-4 -4 -8 -55t-4 -96q0 -47 4 -47q36 12 92 12h5q-1 -7 -3.5 -128.5t-5 -302.5t-2.5 -315q0 -169 4 -239q-10 0 -43.5 -5t-36.5 -7q-14 -18 -14 -142zM403 1530q0 40 32.5 72t74.5 32 q43 0 72.5 -30.5t29.5 -73.5t-32 -76t-74 -33q-44 0 -73.5 29t-29.5 80z" />
<glyph unicode="&#xd0;" horiz-adv-x="1280" d="M47 694q0 23 8.5 43.5t16.5 22.5h100q4 250 4 360q-23 34 -57.5 123t-34.5 119q0 6 2 8q3 3 32 8t86.5 9t123.5 4q425 0 658 -178t233 -478q0 -127 -35.5 -237t-94.5 -190t-139 -145t-166.5 -107t-179 -70t-174 -40t-154.5 -12q-81 0 -92 11q-14 14 -14 366v322h-102 q-21 27 -21 61zM430 614q0 -414 14 -428q4 -4 21 -4q34 0 86.5 14.5t123 54.5t129.5 99t100.5 160.5t41.5 226.5q0 77 -21.5 140.5t-55 105.5t-79 74.5t-89.5 50.5t-91.5 29t-80 14.5t-58.5 3.5q-27 0 -27 -2q-10 -10 -14 -393h193q18 -30 18 -68q0 -33 -20 -59h-191v-19z " />
<glyph unicode="&#xd1;" horiz-adv-x="1255" d="M82 1333q0 6 2 8q6 7 106 14t168 7q142 0 154 -10q363 -811 373 -834q5 -10 8 -10t5 3.5t2 6.5l1 4v58q0 172 -11 433t-24 324q29 27 106 46.5t122 19.5q80 0 80 -10q0 -22 -7 -59t-14.5 -65.5t-7.5 -29.5q-15 -99 -15 -408q0 -75 1 -161.5t2 -165t3 -155.5t3.5 -140 t2.5 -111.5t2 -76.5t1 -29q0 -6 -27.5 -17t-87 -21.5t-127.5 -10.5q-22 0 -41 2t-27 4l-8 2q-81 231 -239 584.5t-189 398.5q-5 8 -10 8q-2 0 -3.5 -3.5t-1.5 -6.5l-1 -4q-8 -57 -8 -236q0 -198 9.5 -422.5t21.5 -281.5q-29 -26 -89 -37.5t-112 -11.5q-21 0 -39.5 3t-26.5 6 l-8 3v61q0 157 7.5 434t14.5 476l7 198q-27 34 -52.5 109t-25.5 104zM479 1483q0 26 4 51.5t9 30.5q6 4 21.5 11.5t44.5 16.5t52 9q26 0 79 -15.5t73 -15.5q24 0 46 4.5t36 11.5t24.5 13.5t16 11t6.5 4.5q4 0 4 -4q4 -12 4 -66q0 -74 -8 -82q-24 -23 -58 -33t-57 -10 q-27 0 -84 16.5t-98 16.5q-24 0 -50 -6.5t-41 -12.5t-16 -5q-8 8 -8 53z" />
<glyph unicode="&#xd2;" horiz-adv-x="1359" d="M61 557q0 81 12 157t29 127t36 91t31.5 58.5t16.5 21.5q22 12 136 12h38q0 83 27.5 149t68.5 104t93 63t96 33.5t84 8.5q569 0 569 -716q0 -75 -8 -144.5t-28 -143.5t-51.5 -137t-82 -119.5t-115.5 -96.5t-155.5 -63t-198.5 -23q-127 0 -229 33.5t-170 91t-113.5 137 t-65.5 168t-20 188.5zM322 567q0 -112 43 -206.5t121.5 -151.5t175.5 -57q372 0 372 530q0 255 -77 368t-209 113q-82 0 -126 -47t-44 -108q0 -53 19 -113t46 -108t54 -89t46 -64l19 -22q0 -9 -28.5 -25t-76 -29t-92.5 -13q-5 0 -20 14.5t-36.5 44.5t-43.5 68t-43 92 t-33 110q-11 -13 -24.5 -43t-28 -102.5t-14.5 -161.5zM541 1585q0 25 46 58.5t79 33.5q39 -23 95 -100t56 -104q-3 -18 -28.5 -41t-45.5 -23q-21 25 -91.5 88t-110.5 88z" />
<glyph unicode="&#xd3;" horiz-adv-x="1359" d="M61 557q0 81 12 157t29 127t36 91t31.5 58.5t16.5 21.5q22 12 136 12h38q0 83 27.5 149t68.5 104t93 63t96 33.5t84 8.5q569 0 569 -716q0 -75 -8 -144.5t-28 -143.5t-51.5 -137t-82 -119.5t-115.5 -96.5t-155.5 -63t-198.5 -23q-127 0 -229 33.5t-170 91t-113.5 137 t-65.5 168t-20 188.5zM322 567q0 -112 43 -206.5t121.5 -151.5t175.5 -57q372 0 372 530q0 255 -77 368t-209 113q-82 0 -126 -47t-44 -108q0 -53 19 -113t46 -108t54 -89t46 -64l19 -22q0 -9 -28.5 -25t-76 -29t-92.5 -13q-5 0 -20 14.5t-36.5 44.5t-43.5 68t-43 92 t-33 110q-11 -13 -24.5 -43t-28 -102.5t-14.5 -161.5zM541 1473q0 27 56 104t95 100q33 0 79 -33.5t46 -58.5q-40 -25 -111 -88t-92 -88q-20 0 -45 23t-28 41z" />
<glyph unicode="&#xd4;" horiz-adv-x="1359" d="M61 557q0 81 12 157t29 127t36 91t31.5 58.5t16.5 21.5q22 12 136 12h38q0 83 27.5 149t68.5 104t93 63t96 33.5t84 8.5q569 0 569 -716q0 -75 -8 -144.5t-28 -143.5t-51.5 -137t-82 -119.5t-115.5 -96.5t-155.5 -63t-198.5 -23q-127 0 -229 33.5t-170 91t-113.5 137 t-65.5 168t-20 188.5zM322 567q0 -112 43 -206.5t121.5 -151.5t175.5 -57q372 0 372 530q0 255 -77 368t-209 113q-82 0 -126 -47t-44 -108q0 -53 19 -113t46 -108t54 -89t46 -64l19 -22q0 -9 -28.5 -25t-76 -29t-92.5 -13q-5 0 -20 14.5t-36.5 44.5t-43.5 68t-43 92 t-33 110q-11 -13 -24.5 -43t-28 -102.5t-14.5 -161.5zM457 1473q0 27 56 104t95 100q29 0 72 -26q41 26 70 26q39 -23 95 -100t56 -104q-3 -18 -29.5 -41t-46.5 -23q-11 15 -69.5 70t-75.5 65q-18 -10 -76 -63.5t-72 -71.5q-19 0 -44.5 23t-30.5 41z" />
<glyph unicode="&#xd5;" horiz-adv-x="1359" d="M61 557q0 81 12 157t29 127t36 91t31.5 58.5t16.5 21.5q22 12 136 12h38q0 83 27.5 149t68.5 104t93 63t96 33.5t84 8.5q569 0 569 -716q0 -75 -8 -144.5t-28 -143.5t-51.5 -137t-82 -119.5t-115.5 -96.5t-155.5 -63t-198.5 -23q-127 0 -229 33.5t-170 91t-113.5 137 t-65.5 168t-20 188.5zM322 567q0 -112 43 -206.5t121.5 -151.5t175.5 -57q372 0 372 530q0 255 -77 368t-209 113q-82 0 -126 -47t-44 -108q0 -53 19 -113t46 -108t54 -89t46 -64l19 -22q0 -9 -28.5 -25t-76 -29t-92.5 -13q-5 0 -20 14.5t-36.5 44.5t-43.5 68t-43 92 t-33 110q-11 -13 -24.5 -43t-28 -102.5t-14.5 -161.5zM500 1522q0 68 12 80q51 38 125 38q35 0 78 -14t78 -14q26 0 61.5 11t52.5 24q15 0 15 -82q0 -22 -4 -42t-8 -29l-5 -9q-41 -31 -102 -31q-26 0 -74.5 14.5t-87.5 14.5q-32 0 -64.5 -8.5t-48.5 -16.5l-16 -8 q-12 16 -12 72z" />
<glyph unicode="&#xd6;" horiz-adv-x="1359" d="M61 557q0 81 12 157t29 127t36 91t31.5 58.5t16.5 21.5q22 12 136 12h38q0 83 27.5 149t68.5 104t93 63t96 33.5t84 8.5q569 0 569 -716q0 -75 -8 -144.5t-28 -143.5t-51.5 -137t-82 -119.5t-115.5 -96.5t-155.5 -63t-198.5 -23q-127 0 -229 33.5t-170 91t-113.5 137 t-65.5 168t-20 188.5zM322 567q0 -112 43 -206.5t121.5 -151.5t175.5 -57q372 0 372 530q0 255 -77 368t-209 113q-82 0 -126 -47t-44 -108q0 -53 19 -113t46 -108t54 -89t46 -64l19 -22q0 -9 -28.5 -25t-76 -29t-92.5 -13q-5 0 -20 14.5t-36.5 44.5t-43.5 68t-43 92 t-33 110q-11 -13 -24.5 -43t-28 -102.5t-14.5 -161.5zM383 1530q0 40 32 72t74 32q43 0 74 -30.5t31 -73.5t-33 -76t-76 -33q-44 0 -73 29t-29 80zM768 1530q0 40 32 72t74 32q43 0 73 -30.5t30 -73.5t-32 -76t-75 -33q-44 0 -73 29t-29 80z" />
<glyph unicode="&#xd7;" horiz-adv-x="833" d="M41 311l270 365l-268 364q6 31 45 60q51 37 92 37l236 -320l237 320q43 0 90 -37q18 -13 30 -28t15 -24l3 -8l-271 -364l273 -365q-11 -28 -58 -65q-48 -31 -80 -31l-239 322l-238 -322q-35 0 -80 31q-22 16 -36 32.5t-18 24.5z" />
<glyph unicode="&#xd8;" horiz-adv-x="1359" d="M61 557q0 81 12 157t29 127t36 91t31.5 58.5t16.5 21.5q22 12 136 12h38q0 83 27.5 149t68.5 104t93 63t96 33.5t84 8.5q178 0 297 -67l57 90q20 4 31 4q28 0 58 -9.5t46 -19.5l15 -10l-94 -147q159 -177 159 -557q0 -75 -8 -144.5t-28 -143.5t-51.5 -137t-82 -119.5 t-115.5 -96.5t-155.5 -63t-198.5 -23q-172 0 -297 61l-59 -94q-20 -4 -29 -4q-27 0 -57 10t-47 20l-16 9l88 139q-92 85 -136.5 209t-44.5 268zM322 567q0 -144 67 -256l510 803q-63 49 -151 49q-81 0 -125.5 -45.5t-44.5 -105.5v-4q2 -41 9 -76t16 -55.5t17.5 -35.5 t14.5 -21l6 -5q0 -9 -28.5 -25t-76 -29t-92.5 -13q-15 20 -28.5 51.5t-19.5 52.5l-7 22q-11 -13 -24.5 -43t-28 -102.5t-14.5 -161.5zM492 203q76 -51 170 -51q372 0 372 530q0 188 -45 303z" />
<glyph unicode="&#xd9;" horiz-adv-x="1210" d="M61 1282q0 8 39 23.5t101.5 28t115.5 12.5q56 -1 60 -5t4 -63q0 -60 -8 -271.5t-8 -291.5q0 -124 12 -218.5t37.5 -167t69.5 -110t106 -37.5q53 0 92.5 16t76.5 61t60 121.5t37 202.5t14 298q0 231 -4 337t-18 195q22 10 57 10q45 0 72.5 -1.5t68 -14.5t64.5 -37 q18 -92 18 -584q0 -202 -29.5 -354.5t-79 -246.5t-123.5 -152t-153 -79.5t-178 -21.5q-121 0 -206 41.5t-144 137.5t-87 255t-28 392q0 152 11 356q0 8 -2 10q-13 25 -30.5 79t-17.5 79zM467 1585q0 25 46 58.5t79 33.5q39 -23 95 -100t56 -104q-3 -18 -28 -41t-45 -23 q-21 25 -92 88t-111 88z" />
<glyph unicode="&#xda;" horiz-adv-x="1210" d="M61 1282q0 8 39 23.5t101.5 28t115.5 12.5q56 -1 60 -5t4 -63q0 -60 -8 -271.5t-8 -291.5q0 -124 12 -218.5t37.5 -167t69.5 -110t106 -37.5q53 0 92.5 16t76.5 61t60 121.5t37 202.5t14 298q0 231 -4 337t-18 195q22 10 57 10q45 0 72.5 -1.5t68 -14.5t64.5 -37 q18 -92 18 -584q0 -202 -29.5 -354.5t-79 -246.5t-123.5 -152t-153 -79.5t-178 -21.5q-121 0 -206 41.5t-144 137.5t-87 255t-28 392q0 152 11 356q0 8 -2 10q-13 25 -30.5 79t-17.5 79zM467 1473q0 27 56 104t95 100q33 0 79 -33.5t46 -58.5q-40 -25 -110.5 -88t-91.5 -88 q-20 0 -45.5 23t-28.5 41z" />
<glyph unicode="&#xdb;" horiz-adv-x="1210" d="M61 1282q0 8 39 23.5t101.5 28t115.5 12.5q56 -1 60 -5t4 -63q0 -60 -8 -271.5t-8 -291.5q0 -124 12 -218.5t37.5 -167t69.5 -110t106 -37.5q53 0 92.5 16t76.5 61t60 121.5t37 202.5t14 298q0 231 -4 337t-18 195q22 10 57 10q45 0 72.5 -1.5t68 -14.5t64.5 -37 q18 -92 18 -584q0 -202 -29.5 -354.5t-79 -246.5t-123.5 -152t-153 -79.5t-178 -21.5q-121 0 -206 41.5t-144 137.5t-87 255t-28 392q0 152 11 356q0 8 -2 10q-13 25 -30.5 79t-17.5 79zM379 1491q0 27 56 104.5t95 100.5q28 0 72 -27q42 27 70 27q39 -23 95 -100.5 t56 -104.5q-3 -18 -29 -41t-46 -23q-11 15 -70 70.5t-76 65.5q-18 -9 -75 -63t-72 -73q-19 0 -45 23t-31 41z" />
<glyph unicode="&#xdc;" horiz-adv-x="1210" d="M61 1282q0 8 39 23.5t101.5 28t115.5 12.5q56 -1 60 -5t4 -63q0 -60 -8 -271.5t-8 -291.5q0 -124 12 -218.5t37.5 -167t69.5 -110t106 -37.5q53 0 92.5 16t76.5 61t60 121.5t37 202.5t14 298q0 231 -4 337t-18 195q22 10 57 10q45 0 72.5 -1.5t68 -14.5t64.5 -37 q18 -92 18 -584q0 -202 -29.5 -354.5t-79 -246.5t-123.5 -152t-153 -79.5t-178 -21.5q-121 0 -206 41.5t-144 137.5t-87 255t-28 392q0 152 11 356q0 8 -2 10q-13 25 -30.5 79t-17.5 79zM301 1567q0 40 32.5 72t74.5 32q43 0 73.5 -30.5t30.5 -73.5t-33 -76t-76 -33 q-44 0 -73 29t-29 80zM686 1567q0 40 32.5 72t74.5 32q43 0 72.5 -30.5t29.5 -73.5t-32 -76t-75 -33q-44 0 -73 29t-29 80z" />
<glyph unicode="&#xdd;" horiz-adv-x="1277" d="M10 1214q0 25 13.5 65t19.5 46q5 5 37.5 11t99.5 11t144 5q24 0 30 -6q3 -3 54.5 -111.5t122 -248.5t114.5 -206h4q13 44 175.5 325t189.5 281q62 0 123.5 -16t95.5 -35.5t33 -31.5q-108 -121 -287.5 -388.5t-212.5 -386.5q-4 -40 -4 -157q0 -331 16 -400 q0 -10 -17 -20.5t-66 -19.5t-122 -9q-25 0 -44 4t-25 8l-6 5q0 129 3 334.5t3 228.5v26q-56 79 -203 343t-160 280q-47 47 -129 47q-2 4 -2 16zM553 1481q0 27 56.5 104.5t95.5 100.5q32 0 78 -34t46 -59q-40 -25 -110.5 -88t-91.5 -88q-20 0 -45.5 23t-28.5 41z" />
<glyph unicode="&#xde;" horiz-adv-x="1198" d="M82 1346q0 8 43.5 23t110.5 27.5t120 12.5q56 0 60 -6q6 -6 6 -123q0 -74 -2 -117q16 2 51 2q95 0 185 -11.5t179 -40t155 -71.5t106.5 -110t40.5 -150q0 -75 -25 -141t-67 -114.5t-97 -90t-115.5 -69t-120.5 -49.5t-115 -34t-97 -20.5t-67 -11.5l-25 -2 q1 -66 2.5 -108.5t4 -69t3.5 -35.5t5 -26t5 -23q-23 -23 -89 -36t-116 -13q-22 0 -40 3t-25 6l-8 3q0 99 5 471t5 518q0 227 -15 248q-9 14 -36 76.5t-27 81.5zM410 477q107 10 189 32t131.5 50.5t81 65t43 71.5t11.5 74q0 83 -85 128.5t-216 45.5q-36 0 -73 -3t-56 -6 l-18 -3q0 -1 -1 -3t-1 -3q-1 -50 -2.5 -144.5t-2.5 -169t-1 -135.5z" />
<glyph unicode="&#xdf;" horiz-adv-x="1193" d="M61 -252q50 190 50 795q0 55 -0.5 110.5t-1.5 97t-1.5 74.5t-1 52t-0.5 20q0 232 135 353.5t406 121.5q54 0 106.5 -7.5t109.5 -29t99.5 -54.5t70.5 -89.5t28 -128.5q0 -43 -16 -87t-49.5 -88t-93 -83t-138.5 -64q-27 -8 0 -14q8 -1 21 -4.5t51.5 -16.5t73.5 -29.5 t77.5 -45.5t73 -64t51.5 -85.5t21 -108.5q0 -76 -29 -140.5t-78 -107.5t-108.5 -75.5t-125.5 -50t-124 -26t-109 -8.5q-29 0 -41 2q-33 32 -51 80t-19 79l-2 32q107 0 187 16.5t122.5 40t68.5 55.5t33 56.5t7 50.5q0 55 -41 98.5t-99 67t-116.5 39t-99.5 20.5l-41 4 q-4 1 -6.5 13.5t-2.5 24.5l-1 13q0 62 22 109t41 57q123 24 207 88.5t84 141.5q0 61 -52.5 93t-144.5 32q-97 0 -169 -52.5t-89 -136.5q-6 -35 -6 -160q0 -91 4 -349.5t4 -375.5q0 -246 -14 -274q-17 -27 -88.5 -56.5t-144.5 -29.5q-18 0 -50 4z" />
<glyph unicode="&#xe0;" horiz-adv-x="940" d="M51 225q0 73 26.5 135t68 102.5t95 72.5t104.5 49.5t100.5 28.5t78 14.5t41.5 3.5l4 2q0 46 -62.5 73t-191.5 27q-99 0 -149 -8h-2q0 41 26 102.5t46 83.5q2 2 15.5 5t48.5 6.5t79 3.5q233 0 344 -89.5t111 -275.5v-104q0 -256 6 -299q16 -113 69 -162q0 -13 -36 -40 t-91.5 -50t-99.5 -23q-6 0 -18 15t-27.5 54t-20.5 89q0 4 -2 4l-6 -4q-4 -3 -12.5 -9t-35 -21t-55 -26t-71.5 -20.5t-86 -9.5q-139 0 -218 70.5t-79 199.5zM303 264q0 -42 31.5 -71t95.5 -29q24 0 50.5 7t56.5 23t49.5 50.5t19.5 81.5v77q0 46 -2 46q-34 0 -79.5 -9t-98 -28 t-88 -58t-35.5 -90zM332 1176q0 25 46 58.5t79 33.5q39 -23 95 -100.5t56 -104.5q-3 -18 -28 -41t-45 -23q-21 25 -92 88.5t-111 88.5z" />
<glyph unicode="&#xe1;" horiz-adv-x="940" d="M51 225q0 73 26.5 135t68 102.5t95 72.5t104.5 49.5t100.5 28.5t78 14.5t41.5 3.5l4 2q0 46 -62.5 73t-191.5 27q-99 0 -149 -8h-2q0 41 26 102.5t46 83.5q2 2 15.5 5t48.5 6.5t79 3.5q233 0 344 -89.5t111 -275.5v-104q0 -256 6 -299q16 -113 69 -162q0 -13 -36 -40 t-91.5 -50t-99.5 -23q-6 0 -18 15t-27.5 54t-20.5 89q0 4 -2 4l-6 -4q-4 -3 -12.5 -9t-35 -21t-55 -26t-71.5 -20.5t-86 -9.5q-139 0 -218 70.5t-79 199.5zM303 264q0 -42 31.5 -71t95.5 -29q24 0 50.5 7t56.5 23t49.5 50.5t19.5 81.5v77q0 46 -2 46q-34 0 -79.5 -9t-98 -28 t-88 -58t-35.5 -90zM379 1063q0 27 56 104.5t95 100.5q33 0 79 -33.5t46 -58.5q-40 -25 -110 -88t-92 -89q-20 0 -45.5 23t-28.5 41z" />
<glyph unicode="&#xe2;" horiz-adv-x="940" d="M51 225q0 73 26.5 135t68 102.5t95 72.5t104.5 49.5t100.5 28.5t78 14.5t41.5 3.5l4 2q0 46 -62.5 73t-191.5 27q-99 0 -149 -8h-2q0 41 26 102.5t46 83.5q2 2 15.5 5t48.5 6.5t79 3.5q233 0 344 -89.5t111 -275.5v-104q0 -256 6 -299q16 -113 69 -162q0 -13 -36 -40 t-91.5 -50t-99.5 -23q-6 0 -18 15t-27.5 54t-20.5 89q0 4 -2 4l-6 -4q-4 -3 -12.5 -9t-35 -21t-55 -26t-71.5 -20.5t-86 -9.5q-139 0 -218 70.5t-79 199.5zM248 1063q0 27 56 104.5t95 100.5q28 0 72 -27q42 27 70 27q39 -23 95 -100.5t56 -104.5q-3 -18 -29.5 -41 t-46.5 -23q-11 15 -69.5 70.5t-75.5 65.5q-18 -9 -75 -63t-72 -73q-19 0 -45 23t-31 41zM303 264q0 -42 31.5 -71t95.5 -29q24 0 50.5 7t56.5 23t49.5 50.5t19.5 81.5v77q0 46 -2 46q-34 0 -79.5 -9t-98 -28t-88 -58t-35.5 -90z" />
<glyph unicode="&#xe3;" horiz-adv-x="940" d="M51 225q0 73 26.5 135t68 102.5t95 72.5t104.5 49.5t100.5 28.5t78 14.5t41.5 3.5l4 2q0 46 -62.5 73t-191.5 27q-99 0 -149 -8h-2q0 41 26 102.5t46 83.5q2 2 15.5 5t48.5 6.5t79 3.5q233 0 344 -89.5t111 -275.5v-104q0 -256 6 -299q16 -113 69 -162q0 -13 -36 -40 t-91.5 -50t-99.5 -23q-6 0 -18 15t-27.5 54t-20.5 89q0 4 -2 4l-6 -4q-4 -3 -12.5 -9t-35 -21t-55 -26t-71.5 -20.5t-86 -9.5q-139 0 -218 70.5t-79 199.5zM270 1083q0 21 2.5 39.5t5.5 28.5t5 12q52 39 125 39q35 0 77.5 -14t77.5 -14q27 0 62.5 10.5t52.5 23.5 q14 0 14 -82q0 -22 -4 -41.5t-8 -28.5l-4 -9q-41 -31 -103 -31q-26 0 -74 14t-87 14q-32 0 -64 -8t-48 -16l-17 -8q-13 17 -13 71zM303 264q0 -42 31.5 -71t95.5 -29q24 0 50.5 7t56.5 23t49.5 50.5t19.5 81.5v77q0 46 -2 46q-34 0 -79.5 -9t-98 -28t-88 -58t-35.5 -90z" />
<glyph unicode="&#xe4;" horiz-adv-x="940" d="M51 225q0 73 26.5 135t68 102.5t95 72.5t104.5 49.5t100.5 28.5t78 14.5t41.5 3.5l4 2q0 46 -62.5 73t-191.5 27q-99 0 -149 -8h-2q0 41 26 102.5t46 83.5q2 2 15.5 5t48.5 6.5t79 3.5q233 0 344 -89.5t111 -275.5v-104q0 -256 6 -299q16 -113 69 -162q0 -13 -36 -40 t-91.5 -50t-99.5 -23q-6 0 -18 15t-27.5 54t-20.5 89q0 4 -2 4l-6 -4q-4 -3 -12.5 -9t-35 -21t-55 -26t-71.5 -20.5t-86 -9.5q-139 0 -218 70.5t-79 199.5zM174 1120q0 40 32.5 72.5t74.5 32.5q43 0 73.5 -31t30.5 -74t-33 -75.5t-76 -32.5q-44 0 -73 28.5t-29 79.5z M303 264q0 -42 31.5 -71t95.5 -29q24 0 50.5 7t56.5 23t49.5 50.5t19.5 81.5v77q0 46 -2 46q-34 0 -79.5 -9t-98 -28t-88 -58t-35.5 -90zM559 1120q0 40 32.5 72.5t74.5 32.5t72 -31t30 -74t-31.5 -75.5t-74.5 -32.5q-45 0 -74 28.5t-29 79.5z" />
<glyph unicode="&#xe5;" horiz-adv-x="940" d="M51 225q0 73 26.5 135t68 102.5t95 72.5t104.5 49.5t100.5 28.5t78 14.5t41.5 3.5l4 2q0 46 -62.5 73t-191.5 27q-99 0 -149 -8h-2q0 41 26 102.5t46 83.5q2 2 15.5 5t48.5 6.5t79 3.5q233 0 344 -89.5t111 -275.5v-104q0 -256 6 -299q16 -113 69 -162q0 -13 -36 -40 t-91.5 -50t-99.5 -23q-6 0 -18 15t-27.5 54t-20.5 89q0 4 -2 4l-6 -4q-4 -3 -12.5 -9t-35 -21t-55 -26t-71.5 -20.5t-86 -9.5q-139 0 -218 70.5t-79 199.5zM303 264q0 -42 31.5 -71t95.5 -29q24 0 50.5 7t56.5 23t49.5 50.5t19.5 81.5v77q0 46 -2 46q-34 0 -79.5 -9t-98 -28 t-88 -58t-35.5 -90zM336 1135q0 52 41 93.5t96 41.5t94 -39.5t39 -95.5q0 -55 -41.5 -97.5t-95.5 -42.5q-58 0 -95.5 37.5t-37.5 102.5zM412 1133q0 -28 16.5 -45t40.5 -17q25 0 43 18.5t18 43.5t-17 42t-40 17q-25 0 -43 -18t-18 -41z" />
<glyph unicode="&#xe6;" horiz-adv-x="1411" d="M61 225q0 73 26.5 135t68 102.5t95 72.5t104.5 49.5t100.5 28.5t78 14.5t41.5 3.5l5 2q0 46 -63.5 73t-190.5 27q-94 0 -152 -8q0 41 25.5 103t46.5 83q2 2 15.5 5t48 6.5t77.5 3.5q146 0 248.5 -36.5t148.5 -105.5q51 49 136 80t182 31q32 0 64 -5.5t68 -21t63 -39 t45 -64.5t18 -93q0 -136 -112 -261.5t-304 -189.5q0 -8 12 -20t46.5 -23.5t82.5 -11.5q152 0 258 57q7 0 7 -39q0 -45 -12.5 -98t-39.5 -88q-8 -5 -25 -13t-86 -21t-157 -13q-67 0 -133 16q-33 -30 -94 -58t-111 -28q-5 0 -17.5 15.5t-27.5 55t-20 89.5q-3 6 -9 0 q-4 -3 -12.5 -9t-35 -21t-55 -26t-71.5 -20.5t-86 -9.5q-140 0 -218.5 70t-78.5 200zM313 264q0 -42 31.5 -71t95.5 -29q24 0 50.5 7t56.5 23t49.5 50.5t19.5 81.5v77q0 46 -2 46q-34 0 -79.5 -9t-98 -28t-88 -58t-35.5 -90zM846 418q0 -4 1 -13t1 -14l6 -4q33 2 78 24.5 t87 57.5t71.5 84t29.5 98q0 30 -18.5 44t-44.5 14q-80 0 -145.5 -90.5t-65.5 -200.5z" />
<glyph unicode="&#xe7;" horiz-adv-x="790" d="M61 358q0 128 47.5 233.5t128 174t185 106t221.5 37.5q47 0 55 -2q13 -10 13 -69q0 -43 -7.5 -86t-17.5 -50h-14q-24 0 -45 -1.5t-59.5 -8t-70 -18.5t-67.5 -36.5t-60 -57.5t-40.5 -85t-16.5 -116q0 -97 56 -157t178 -60q30 0 59.5 4t49.5 10t36 12.5t25 10.5t10 4 q16 -16 16 -94q0 -110 -22 -129q-8 -4 -22.5 -10.5t-66.5 -17.5t-110 -11q-16 -28 -16 -62l10 -5t22.5 -13.5t29 -21.5t22.5 -28t10 -34q0 -49 -64.5 -84t-125.5 -35q-7 0 -17 19.5t-10 37.5q0 9 2 13q41 0 72.5 17t31.5 34q0 20 -23 34.5t-46 18.5l-23 4q0 47 31 111 q-96 13 -168 51t-115 94.5t-63.5 123t-20.5 142.5z" />
<glyph unicode="&#xe8;" horiz-adv-x="866" d="M61 385q0 102 31.5 192.5t91.5 162t156.5 113.5t216.5 42q32 0 64 -5.5t68 -21t63 -39t45 -64.5t18 -93q0 -134 -112 -259.5t-304 -191.5q0 -4 5 -10.5t17.5 -14t29 -14.5t42.5 -11.5t56 -4.5q157 0 246 55q2 2 4 2q6 0 6 -39q0 -45 -12.5 -98t-38.5 -86q-8 -5 -25 -13 t-86.5 -21t-157.5 -13q-206 0 -315 121t-109 311zM301 418q0 -19 1 -24t7 -5q33 1 78 23t87 57t71.5 84t29.5 98q0 30 -18.5 45t-44.5 15q-84 0 -147.5 -86.5t-63.5 -206.5zM340 1159q0 25 46 58.5t79 33.5q39 -23 95 -100t56 -104q-3 -18 -28 -41t-45 -23q-21 25 -92 88 t-111 88z" />
<glyph unicode="&#xe9;" horiz-adv-x="866" d="M61 385q0 102 31.5 192.5t91.5 162t156.5 113.5t216.5 42q32 0 64 -5.5t68 -21t63 -39t45 -64.5t18 -93q0 -134 -112 -259.5t-304 -191.5q0 -4 5 -10.5t17.5 -14t29 -14.5t42.5 -11.5t56 -4.5q157 0 246 55q2 2 4 2q6 0 6 -39q0 -45 -12.5 -98t-38.5 -86q-8 -5 -25 -13 t-86.5 -21t-157.5 -13q-206 0 -315 121t-109 311zM301 418q0 -19 1 -24t7 -5q33 1 78 23t87 57t71.5 84t29.5 98q0 30 -18.5 45t-44.5 15q-84 0 -147.5 -86.5t-63.5 -206.5zM373 1063q0 27 56 104.5t95 100.5q33 0 79 -33.5t46 -58.5q-40 -25 -111 -88.5t-92 -88.5 q-20 0 -45 23t-28 41z" />
<glyph unicode="&#xea;" horiz-adv-x="866" d="M61 385q0 102 31.5 192.5t91.5 162t156.5 113.5t216.5 42q32 0 64 -5.5t68 -21t63 -39t45 -64.5t18 -93q0 -134 -112 -259.5t-304 -191.5q0 -4 5 -10.5t17.5 -14t29 -14.5t42.5 -11.5t56 -4.5q157 0 246 55q2 2 4 2q6 0 6 -39q0 -45 -12.5 -98t-38.5 -86q-8 -5 -25 -13 t-86.5 -21t-157.5 -13q-206 0 -315 121t-109 311zM270 1055q0 27 56.5 104.5t95.5 100.5q28 0 72 -27q42 27 69 27q39 -23 95.5 -100.5t56.5 -104.5q-3 -18 -29.5 -41t-46.5 -23q-11 15 -69.5 70t-75.5 65q-18 -10 -76 -63.5t-72 -71.5q-19 0 -45 23t-31 41zM301 418 q0 -19 1 -24t7 -5q33 1 78 23t87 57t71.5 84t29.5 98q0 30 -18.5 45t-44.5 15q-84 0 -147.5 -86.5t-63.5 -206.5z" />
<glyph unicode="&#xeb;" horiz-adv-x="866" d="M61 385q0 102 31.5 192.5t91.5 162t156.5 113.5t216.5 42q32 0 64 -5.5t68 -21t63 -39t45 -64.5t18 -93q0 -134 -112 -259.5t-304 -191.5q0 -4 5 -10.5t17.5 -14t29 -14.5t42.5 -11.5t56 -4.5q157 0 246 55q2 2 4 2q6 0 6 -39q0 -45 -12.5 -98t-38.5 -86q-8 -5 -25 -13 t-86.5 -21t-157.5 -13q-206 0 -315 121t-109 311zM137 1120q0 40 32.5 72.5t74.5 32.5q43 0 73.5 -31t30.5 -74t-32.5 -75.5t-75.5 -32.5q-45 0 -74 28.5t-29 79.5zM301 418q0 -19 1 -24t7 -5q33 1 78 23t87 57t71.5 84t29.5 98q0 30 -18.5 45t-44.5 15q-84 0 -147.5 -86.5 t-63.5 -206.5zM522 1120q0 40 32.5 72.5t74.5 32.5t72 -31t30 -74t-31.5 -75.5t-74.5 -32.5q-45 0 -74 28.5t-29 79.5z" />
<glyph unicode="&#xec;" horiz-adv-x="450" d="M98 1104q0 25 46 58.5t79 33.5q39 -23 95.5 -100.5t56.5 -104.5q-3 -18 -28.5 -40.5t-45.5 -22.5q-21 25 -92 88t-111 88zM117 254q0 172 4 350t10 189q5 4 16 10t54 16t96 10q47 0 57 -12q0 -2 -0.5 -30.5t-1.5 -74t-2 -99t-1.5 -116.5t-0.5 -116q0 -159 6 -211 q11 -98 56 -164q0 -21 -84 -65.5t-144 -44.5q-5 0 -16.5 17t-25.5 61.5t-19 101.5q-4 54 -4 178z" />
<glyph unicode="&#xed;" horiz-adv-x="450" d="M117 254q0 172 4 350t10 189q5 4 16 10t54 16t96 10q47 0 57 -12q0 -2 -0.5 -30.5t-1.5 -74t-2 -99t-1.5 -116.5t-0.5 -116q0 -159 6 -211q11 -98 56 -164q0 -21 -84 -65.5t-144 -44.5q-5 0 -16.5 17t-25.5 61.5t-19 101.5q-4 54 -4 178zM139 999q0 27 56.5 104.5 t95.5 100.5q33 0 79 -33.5t46 -58.5q-40 -25 -111 -88t-92 -88q-20 0 -45.5 22.5t-28.5 40.5z" />
<glyph unicode="&#xee;" horiz-adv-x="450" d="M20 1001q0 27 56.5 104.5t95.5 100.5q29 0 72 -26q41 26 69 26q39 -23 95.5 -100.5t56.5 -104.5q-3 -18 -29.5 -40.5t-46.5 -22.5q-11 15 -69.5 70t-75.5 65q-18 -10 -76 -63.5t-72 -71.5q-19 0 -45 22.5t-31 40.5zM117 254q0 172 4 350t10 189q5 4 16 10t54 16t96 10 q47 0 57 -12q0 -2 -0.5 -30.5t-1.5 -74t-2 -99t-1.5 -116.5t-0.5 -116q0 -159 6 -211q11 -98 56 -164q0 -21 -84 -65.5t-144 -44.5q-5 0 -16.5 17t-25.5 61.5t-19 101.5q-4 54 -4 178z" />
<glyph unicode="&#xef;" horiz-adv-x="450" d="M-57 1061q0 40 32 72t74 32q43 0 74 -30.5t31 -73.5t-33 -76t-76 -33q-44 0 -73 29t-29 80zM117 254q0 172 4 350t10 189q5 4 16 10t54 16t96 10q47 0 57 -12q0 -2 -0.5 -30.5t-1.5 -74t-2 -99t-1.5 -116.5t-0.5 -116q0 -159 6 -211q11 -98 56 -164q0 -21 -84 -65.5 t-144 -44.5q-5 0 -16.5 17t-25.5 61.5t-19 101.5q-4 54 -4 178zM328 1061q0 40 32 72t74 32q43 0 73 -30.5t30 -73.5t-32 -76t-75 -33q-44 0 -73 29t-29 80z" />
<glyph unicode="&#xf0;" horiz-adv-x="1017" d="M61 313q0 111 34 208.5t100 176.5t173.5 127t245.5 54q2 43 2 161v13l-139 -84q-37 39 -37 86q0 14 2 20l162 96q-14 73 -56 122.5t-124 82.5q5 10 13 24t26.5 38t30.5 24q38 -6 63.5 -11.5t64.5 -18.5t66.5 -30.5t56 -47t48.5 -68.5l116 70q37 -41 37 -86q0 -15 -2 -21 l-117 -69q13 -60 13 -123v-199q0 -573 12 -659q15 -113 66 -164q0 -21 -84 -65t-144 -44q-6 0 -18.5 13.5t-28 55t-20.5 99.5q0 13 -9 0q-86 -133 -256 -133q-71 0 -129 31.5t-94 83t-55 113t-19 124.5zM305 371q0 -65 37 -117.5t104 -52.5q34 0 63.5 14.5t47.5 35t31 44 t18.5 41t5.5 26.5q0 253 6 300q0 3 -7.5 4.5t-14.5 1.5h-8q-132 0 -207.5 -84.5t-75.5 -212.5z" />
<glyph unicode="&#xf1;" horiz-adv-x="952" d="M102 -47q15 99 15 303q0 86 -3 246t-3 215q0 127 10 137q22 22 77 39.5t109 17.5q43 0 43 -10q-6 -48 -6 -106q0 -41 6 -41l6 4q4 5 11.5 14t32.5 31t52.5 39t70 31t85.5 14q54 0 95.5 -21t68.5 -52t46.5 -88t29.5 -106.5t15 -131t6 -137.5t1 -150q0 -60 -1.5 -120 t-2.5 -90l-2 -30q0 -5 -25 -14.5t-67.5 -18t-83.5 -8.5q-17 0 -34 2.5t-25 5.5l-8 2q20 184 20 351q0 49 -0.5 83t-3.5 74t-8 66.5t-14 53.5t-21.5 42.5t-31 25t-42.5 9.5q-37 0 -68.5 -15t-49.5 -36.5t-30.5 -43t-17.5 -36.5l-4 -15q0 1 0 -13.5t0.5 -40.5t1 -58t0.5 -72 v-76q0 -219 -8 -227q-27 -27 -92.5 -41t-118.5 -14q-31 0 -31 6zM276 1083q0 21 2.5 39.5t5.5 28.5t5 12q52 39 125 39q35 0 77.5 -14t77.5 -14q27 0 62.5 10.5t52.5 23.5q14 0 14 -82q0 -22 -4 -41.5t-8 -28.5l-4 -9q-41 -31 -102 -31q-26 0 -74.5 14t-87.5 14 q-32 0 -64 -8t-48 -16l-17 -8q-13 17 -13 71z" />
<glyph unicode="&#xf2;" d="M61 393q0 95 35.5 185.5t100 164t166.5 118t225 44.5q98 -4 110 -16q4 -4 4 -29q0 -38 -6 -74q10 -1 32.5 -10t58.5 -35t67 -63.5t53.5 -104t22.5 -147.5q0 -93 -29 -178t-82.5 -152.5t-138.5 -108t-188 -40.5q-201 0 -316 124.5t-115 321.5zM295 399q0 -16 1 -34 t12 -59.5t29.5 -72t59 -55t95.5 -24.5q81 0 141.5 64t60.5 190q0 50 -12.5 87.5t-29.5 56.5t-40.5 30.5t-39.5 14.5t-33 3h-17q-4 8 -4 27q0 35 6 59q-38 0 -77 -17.5t-74 -51.5t-56.5 -91t-21.5 -127zM356 1176q0 25 46 58.5t79 33.5q39 -23 95.5 -100.5t56.5 -104.5 q-3 -18 -28.5 -41t-45.5 -23q-21 25 -92 88.5t-111 88.5z" />
<glyph unicode="&#xf3;" d="M61 393q0 95 35.5 185.5t100 164t166.5 118t225 44.5q98 -4 110 -16q4 -4 4 -29q0 -38 -6 -74q10 -1 32.5 -10t58.5 -35t67 -63.5t53.5 -104t22.5 -147.5q0 -93 -29 -178t-82.5 -152.5t-138.5 -108t-188 -40.5q-201 0 -316 124.5t-115 321.5zM295 399q0 -16 1 -34 t12 -59.5t29.5 -72t59 -55t95.5 -24.5q81 0 141.5 64t60.5 190q0 50 -12.5 87.5t-29.5 56.5t-40.5 30.5t-39.5 14.5t-33 3h-17q-4 8 -4 27q0 35 6 59q-38 0 -77 -17.5t-74 -51.5t-56.5 -91t-21.5 -127zM358 1063q0 27 56.5 104.5t95.5 100.5q33 0 79 -33.5t46 -58.5 q-40 -25 -111 -88.5t-92 -88.5q-20 0 -45.5 23t-28.5 41z" />
<glyph unicode="&#xf4;" d="M61 393q0 95 35.5 185.5t100 164t166.5 118t225 44.5q98 -4 110 -16q4 -4 4 -29q0 -38 -6 -74q10 -1 32.5 -10t58.5 -35t67 -63.5t53.5 -104t22.5 -147.5q0 -93 -29 -178t-82.5 -152.5t-138.5 -108t-188 -40.5q-201 0 -316 124.5t-115 321.5zM272 1063q0 27 56.5 104.5 t95.5 100.5q28 0 72 -27q42 27 69 27q39 -23 95.5 -100.5t56.5 -104.5q-3 -18 -29.5 -41t-46.5 -23q-11 15 -69.5 70.5t-75.5 65.5q-18 -10 -75.5 -64t-72.5 -72q-19 0 -45 23t-31 41zM295 399q0 -16 1 -34t12 -59.5t29.5 -72t59 -55t95.5 -24.5q81 0 141.5 64t60.5 190 q0 50 -12.5 87.5t-29.5 56.5t-40.5 30.5t-39.5 14.5t-33 3h-17q-4 8 -4 27q0 35 6 59q-38 0 -77 -17.5t-74 -51.5t-56.5 -91t-21.5 -127z" />
<glyph unicode="&#xf5;" d="M61 393q0 95 35.5 185.5t100 164t166.5 118t225 44.5q98 -4 110 -16q4 -4 4 -29q0 -38 -6 -74q10 -1 32.5 -10t58.5 -35t67 -63.5t53.5 -104t22.5 -147.5q0 -93 -29 -178t-82.5 -152.5t-138.5 -108t-188 -40.5q-201 0 -316 124.5t-115 321.5zM295 399q0 -16 1 -34 t12 -59.5t29.5 -72t59 -55t95.5 -24.5q81 0 141.5 64t60.5 190q0 50 -12.5 87.5t-29.5 56.5t-40.5 30.5t-39.5 14.5t-33 3h-17q-4 8 -4 27q0 35 6 59q-38 0 -77 -17.5t-74 -51.5t-56.5 -91t-21.5 -127zM295 1063q0 68 12 80q52 39 125 39q35 0 78 -14.5t78 -14.5 q26 0 61.5 11t52.5 24q15 0 15 -82q0 -22 -4.5 -42t-8.5 -29l-4 -9q-41 -31 -102 -31q-26 0 -74.5 14.5t-87.5 14.5q-32 0 -64 -8t-48 -16l-17 -9q-12 16 -12 72z" />
<glyph unicode="&#xf6;" d="M61 393q0 95 35.5 185.5t100 164t166.5 118t225 44.5q98 -4 110 -16q4 -4 4 -29q0 -38 -6 -74q10 -1 32.5 -10t58.5 -35t67 -63.5t53.5 -104t22.5 -147.5q0 -93 -29 -178t-82.5 -152.5t-138.5 -108t-188 -40.5q-201 0 -316 124.5t-115 321.5zM199 1120q0 40 32 72.5 t74 32.5q43 0 74 -31t31 -74t-33 -75.5t-76 -32.5q-44 0 -73 28.5t-29 79.5zM295 399q0 -16 1 -34t12 -59.5t29.5 -72t59 -55t95.5 -24.5q81 0 141.5 64t60.5 190q0 50 -12.5 87.5t-29.5 56.5t-40.5 30.5t-39.5 14.5t-33 3h-17q-4 8 -4 27q0 35 6 59q-38 0 -77 -17.5 t-74 -51.5t-56.5 -91t-21.5 -127zM584 1120q0 40 32 72.5t74 32.5q43 0 73 -31t30 -74t-32 -75.5t-75 -32.5q-44 0 -73 28.5t-29 79.5z" />
<glyph unicode="&#xf7;" horiz-adv-x="1105" d="M61 666q0 69 23 90h944q16 -23 16 -80q0 -55 -20 -78h-944q-19 21 -19 68zM449 362q0 40 32 72.5t74 32.5t72 -31t30 -74t-31.5 -75.5t-74.5 -32.5q-44 0 -73 28.5t-29 79.5zM449 999q0 41 32 74t74 33q43 0 72.5 -31.5t29.5 -75.5q0 -43 -31.5 -75.5t-74.5 -32.5 q-44 0 -73 28.5t-29 79.5z" />
<glyph unicode="&#xf8;" d="M61 393q0 95 35.5 185.5t100 164t166.5 118t225 44.5q98 -4 110 -16q4 -4 4 -29q0 -38 -6 -74l107 158q30 6 61 6t57 -5t36 -10l10 -5l-146 -217q109 -105 109 -287q0 -93 -29 -178t-82.5 -152.5t-138.5 -108t-188 -40.5q-94 0 -170 28l-41 -61q-30 -6 -64 -6 q-57 0 -98 20l80 119q-138 123 -138 346zM295 399q0 -89 37 -155l289 430q-24 12 -97 12q-38 0 -77 -17.5t-74 -51.5t-56.5 -91t-21.5 -127zM444 158q28 -4 48 -4q81 0 141.5 64t60.5 190q0 52 -14 96z" />
<glyph unicode="&#xf9;" horiz-adv-x="935" d="M82 430q0 126 5.5 254.5t12.5 144.5q6 5 18 12t56.5 19t97.5 12q48 0 58 -10q0 -2 -3 -53.5t-6.5 -129.5t-3.5 -144q0 -33 5 -125q0 -7 0.5 -18t6 -39.5t16.5 -50.5t34.5 -40t56.5 -18q48 0 89 36t59.5 71.5t17.5 47.5v70q0 116 4 254.5t8 148.5q11 18 65.5 39t117.5 21 q43 0 51 -8q0 -3 -2 -42.5t-4 -101t-4.5 -133t-4.5 -152t-2 -143.5q0 -130 9 -180q15 -104 55 -164q0 -21 -83.5 -65.5t-143.5 -44.5q-6 0 -17.5 17t-25.5 61.5t-19 101.5l-2 43l-2 4q-49 -75 -123.5 -120.5t-146.5 -45.5q-215 0 -246 334q-4 54 -4 137zM311 1149 q0 25 46 58.5t79 33.5q39 -23 95.5 -100.5t56.5 -104.5q-3 -18 -28.5 -40.5t-45.5 -22.5q-21 25 -92 88t-111 88z" />
<glyph unicode="&#xfa;" horiz-adv-x="935" d="M82 430q0 -83 4 -137q31 -334 246 -334q72 0 146.5 45.5t123.5 120.5q2 0 2 -4l2 -43q5 -57 19 -101.5t25.5 -61.5t17.5 -17q60 0 143.5 44.5t83.5 65.5q-40 60 -55 164q-9 49 -9 180q0 63 2 143.5t4.5 152t4.5 133t4 101t2 42.5q-8 8 -51 8q-63 0 -117.5 -21t-65.5 -39 q-4 -10 -8 -148.5t-4 -254.5v-70q1 -12 -17.5 -47.5t-59.5 -71.5t-89 -36q-33 0 -56.5 17t-34 41.5t-16.5 49t-7 41.5v17q-5 93 -5 125q0 66 3.5 144t6.5 129.5t3 53.5q-4 4 -18.5 6.5t-27.5 3.5h-12q-53 0 -96 -11t-60 -21l-16 -11q-7 -16 -12.5 -144.5t-5.5 -254.5z M377 1036q0 27 56 104.5t95 100.5q33 0 79 -33.5t46 -58.5q-40 -25 -110.5 -88t-91.5 -88q-20 0 -45.5 22.5t-28.5 40.5z" />
<glyph unicode="&#xfb;" horiz-adv-x="935" d="M82 430q0 126 5.5 254.5t12.5 144.5q6 5 18 12t56.5 19t97.5 12q48 0 58 -10q0 -2 -3 -53.5t-6.5 -129.5t-3.5 -144q0 -33 5 -125q0 -7 0.5 -18t6 -39.5t16.5 -50.5t34.5 -40t56.5 -18q48 0 89 36t59.5 71.5t17.5 47.5v70q0 116 4 254.5t8 148.5q11 18 65.5 39t117.5 21 q43 0 51 -8q0 -3 -2 -42.5t-4 -101t-4.5 -133t-4.5 -152t-2 -143.5q0 -130 9 -180q15 -104 55 -164q0 -21 -83.5 -65.5t-143.5 -44.5q-6 0 -17.5 17t-25.5 61.5t-19 101.5l-2 43l-2 4q-49 -75 -123.5 -120.5t-146.5 -45.5q-215 0 -246 334q-4 54 -4 137zM246 1063 q0 27 56 104.5t95 100.5q28 0 72 -27q42 27 70 27q39 -23 95 -100.5t56 -104.5q-3 -18 -29.5 -41t-46.5 -23q-11 15 -69.5 70.5t-75.5 65.5q-18 -9 -75 -63t-72 -73q-19 0 -45 23t-31 41z" />
<glyph unicode="&#xfc;" horiz-adv-x="935" d="M82 430q0 -83 4 -137q31 -334 246 -334q72 0 146.5 45.5t123.5 120.5q2 0 2 -4l2 -43q5 -57 19 -101.5t25.5 -61.5t17.5 -17q60 0 143.5 44.5t83.5 65.5q-40 60 -55 164q-9 49 -9 180q0 63 2 143.5t4.5 152t4.5 133t4 101t2 42.5q-8 8 -51 8q-63 0 -117.5 -21t-65.5 -39 q-4 -10 -8 -148.5t-4 -254.5v-70q1 -12 -17.5 -47.5t-59.5 -71.5t-89 -36q-33 0 -56.5 17t-34 41.5t-16.5 49t-7 41.5v17q-5 93 -5 125q0 66 3.5 144t6.5 129.5t3 53.5q-4 4 -18.5 6.5t-27.5 3.5h-12q-53 0 -96 -11t-60 -21l-16 -11q-7 -16 -12.5 -144.5t-5.5 -254.5z M172 1120q0 40 32.5 72.5t74.5 32.5q43 0 73.5 -31t30.5 -74t-33 -75.5t-76 -32.5q-44 0 -73 28.5t-29 79.5zM557 1120q0 40 32.5 72.5t74.5 32.5t72 -31t30 -74t-32 -75.5t-75 -32.5q-44 0 -73 28.5t-29 79.5z" />
<glyph unicode="&#xfd;" horiz-adv-x="935" d="M82 655q0 -109 2 -171.5t9 -149.5t24 -136t45 -98t74 -70.5t108 -21.5q48 0 92 14.5t72 34.5t49.5 40.5t30.5 34.5l10 15q4 7 6 7q6 0 6 -13q0 -4 1 -26t1 -33q0 -92 -13.5 -167t-33 -124.5t-51.5 -87.5t-59.5 -58.5t-68 -35t-65 -19.5t-61.5 -10q-12 -2 -37 -2 q0 -45 16.5 -97t34.5 -83t25 -31q38 0 80 6.5t96 26t103.5 49.5t98 81.5t84 118t57.5 164t22 214.5q0 36 -1 230.5t-1 313.5q0 236 16 332q0 6 -31 6q-52 0 -118.5 -14.5t-92.5 -40.5q-10 -10 -10 -188l4 -248q-1 -6 -3.5 -17t-14 -38t-27.5 -48t-46.5 -38t-68.5 -17 q-40 0 -67.5 26t-41 77t-19 109.5t-5.5 139.5q0 39 1 74.5t4 70.5t5 56t6.5 60t6.5 53q-27 10 -66 10q-40 0 -80.5 -9t-63 -19t-22.5 -15q-22 -105 -22 -238zM397 1055q0 27 56.5 104.5t95.5 100.5q32 0 78.5 -34t46.5 -59q-40 -25 -111 -88t-92 -88q-20 0 -45.5 23 t-28.5 41z" />
<glyph unicode="&#xfe;" horiz-adv-x="937" d="M102 -256q0 141 5.5 481t5.5 471q0 542 -7 617q24 24 83 46.5t112 22.5q33 0 43 -6q0 -3 -1 -239.5t-1 -239.5q32 0 59 -1t70.5 -5.5t79.5 -12.5t80.5 -23.5t79 -36.5t68.5 -53.5t57 -72.5t37 -95.5t14 -121.5q0 -83 -24.5 -155.5t-64 -123.5t-91.5 -92t-105 -66.5 t-106.5 -42.5t-93.5 -23.5t-68 -6.5v-31q0 -86 5 -229.5t11 -179.5q-26 -28 -91.5 -42.5t-117.5 -14.5q-30 0 -30 6q-9 74 -9 270zM334 295q0 -22 1 -56t1 -46q57 0 111 16.5t100 49t74 87.5t28 125q0 64 -26.5 109t-73 68.5t-97.5 33.5t-112 10v-26q-1 -27 -2 -70t-2 -92.5 t-1.5 -106.5t-0.5 -102z" />
<glyph unicode="&#xff;" horiz-adv-x="935" d="M82 655q0 -109 2 -171.5t9 -149.5t24 -136t45 -98t74 -70.5t108 -21.5q48 0 92 14.5t72 34.5t49.5 40.5t30.5 34.5l10 15q4 7 6 7q6 0 6 -13q0 -4 1 -26t1 -33q0 -92 -13.5 -167t-33 -124.5t-51.5 -87.5t-59.5 -58.5t-68 -35t-65 -19.5t-61.5 -10q-12 -2 -37 -2 q0 -45 16.5 -97t34.5 -83t25 -31q38 0 80 6.5t96 26t103.5 49.5t98 81.5t84 118t57.5 164t22 214.5q0 36 -1 230.5t-1 313.5q0 236 16 332q0 6 -31 6q-52 0 -118.5 -14.5t-92.5 -40.5q-10 -10 -10 -188l4 -248q-1 -6 -3.5 -17t-14 -38t-27.5 -48t-46.5 -38t-68.5 -17 q-40 0 -67.5 26t-41 77t-19 109.5t-5.5 139.5q0 39 1 74.5t4 70.5t5 56t6.5 60t6.5 53q-27 10 -66 10q-40 0 -80.5 -9t-63 -19t-22.5 -15q-22 -105 -22 -238zM172 1120q0 40 32.5 72.5t74.5 32.5q43 0 73.5 -31t30.5 -74t-33 -75.5t-76 -32.5q-44 0 -73 28.5t-29 79.5z M557 1120q0 40 32.5 72.5t74.5 32.5t72 -31t30 -74t-32 -75.5t-75 -32.5q-44 0 -73 28.5t-29 79.5z" />
<glyph unicode="&#x152;" horiz-adv-x="1937" d="M61 557q0 81 12 157t29 127t36 91t31.5 58.5t16.5 21.5q22 12 136 12h38q0 83 27.5 149t68.5 104t93 63t96 33.5t84 8.5q184 0 311 -77v43q246 12 625 12q172 0 172 -8q0 -44 -19.5 -94.5t-40.5 -81t-28 -29.5q-12 4 -61 4q-99 0 -233.5 -10t-145.5 -21q-13 -13 -13 -225 l2 -86q82 2 234 2q168 0 168 -6q0 -36 -16.5 -85.5t-33.5 -82t-22 -31.5q-52 0 -182 -9t-150 -22q-2 -2 -2 -63q0 -84 3.5 -184.5t7.5 -104.5q13 -13 93.5 -21t145 -10t113.5 -2q24 0 48.5 1t45 2t39.5 3t33.5 3.5t25.5 2.5t17 2l6 1q4 0 4 -2q0 -49 -32.5 -116.5 t-69.5 -102.5q-3 -3 -47.5 -8t-142 -9t-216.5 -4t-217.5 5.5t-103.5 11.5q-6 3 -9 61q-149 -102 -379 -102q-127 0 -229 33.5t-170 91t-113.5 137t-65.5 168t-20 188.5zM322 567q0 -112 43 -206.5t121.5 -151.5t175.5 -57q372 0 372 530q0 255 -77 368t-209 113 q-82 0 -126 -47t-44 -108q0 -53 19 -113t46 -108t54 -89t46 -64l19 -22q0 -9 -28.5 -25t-76 -29t-92.5 -13q-5 0 -20 14.5t-36.5 44.5t-43.5 68t-43 92t-33 110q-11 -13 -24.5 -43t-28 -102.5t-14.5 -161.5z" />
<glyph unicode="&#x153;" horiz-adv-x="1505" d="M61 393q0 95 35.5 185.5t100 164t166.5 118t225 44.5q98 -4 110 -16q4 -4 4 -29q0 -38 -6 -74q55 -14 107 -57q139 166 383 166q32 0 64 -5.5t68 -21t63 -39t45 -64.5t18 -93q0 -134 -112 -259.5t-304 -191.5q0 -4 5 -10.5t17.5 -14t29 -14.5t42.5 -11.5t56 -4.5 q156 0 245 55q2 2 4 2q7 0 7 -39q0 -45 -13 -98t-39 -86q-8 -5 -25 -13t-86 -21t-157 -13q-197 0 -315 121q-124 -127 -307 -127q-201 0 -316 124.5t-115 321.5zM295 399q0 -16 1 -34t12 -59.5t29.5 -72t59 -55t95.5 -24.5q81 0 141.5 64t60.5 190q0 50 -12.5 87.5 t-29.5 56.5t-40.5 30.5t-39.5 14.5t-33 3h-17q-4 8 -4 27q0 35 6 59q-38 0 -77 -17.5t-74 -51.5t-56.5 -91t-21.5 -127zM930 426q0 -37 8 -37q33 1 78 23t87 57t71.5 84t29.5 98q0 30 -18.5 45t-44.5 15q-82 0 -145 -82.5t-66 -198.5v-4z" />
<glyph unicode="&#x178;" horiz-adv-x="1277" d="M10 1214q0 25 13.5 65t19.5 46q5 5 37.5 11t99.5 11t144 5q24 0 30 -6q3 -3 54.5 -111.5t122 -248.5t114.5 -206h4q13 44 175.5 325t189.5 281q62 0 123.5 -16t95.5 -35.5t33 -31.5q-108 -121 -287.5 -388.5t-212.5 -386.5q-4 -40 -4 -157q0 -331 16 -400 q0 -10 -17 -20.5t-66 -19.5t-122 -9q-25 0 -44 4t-25 8l-6 5q0 129 3 334.5t3 228.5v26q-56 79 -203 343t-160 280q-47 47 -129 47q-2 4 -2 16zM342 1530q0 40 32.5 72t74.5 32q43 0 73.5 -30.5t30.5 -73.5t-33 -76t-76 -33q-44 0 -73 29t-29 80zM727 1530q0 40 32.5 72 t74.5 32q43 0 72.5 -30.5t29.5 -73.5t-32 -76t-75 -33q-44 0 -73 29t-29 80z" />
<glyph unicode="&#x2c6;" d="M268 1063q0 27 56.5 104.5t95.5 100.5q28 0 72 -27q42 27 69 27q39 -23 95.5 -100.5t56.5 -104.5q-3 -18 -29.5 -41t-46.5 -23q-11 15 -69.5 70.5t-75.5 65.5q-18 -10 -75.5 -64t-72.5 -72q-19 0 -45 23t-31 41z" />
<glyph unicode="&#x2dc;" horiz-adv-x="952" d="M276 1083q0 21 2.5 39.5t5.5 28.5t5 12q52 39 125 39q35 0 77.5 -14t77.5 -14q27 0 62.5 10.5t52.5 23.5q14 0 14 -82q0 -22 -4 -41.5t-8 -28.5l-4 -9q-41 -31 -102 -31q-26 0 -74.5 14t-87.5 14q-32 0 -64 -8t-48 -16l-17 -8q-13 17 -13 71z" />
<glyph unicode="&#x2000;" horiz-adv-x="872" />
<glyph unicode="&#x2001;" horiz-adv-x="1745" />
<glyph unicode="&#x2002;" horiz-adv-x="872" />
<glyph unicode="&#x2003;" horiz-adv-x="1745" />
<glyph unicode="&#x2004;" horiz-adv-x="581" />
<glyph unicode="&#x2005;" horiz-adv-x="436" />
<glyph unicode="&#x2006;" horiz-adv-x="290" />
<glyph unicode="&#x2007;" horiz-adv-x="290" />
<glyph unicode="&#x2008;" horiz-adv-x="218" />
<glyph unicode="&#x2009;" horiz-adv-x="349" />
<glyph unicode="&#x200a;" horiz-adv-x="96" />
<glyph unicode="&#x2010;" horiz-adv-x="1175" d="M61 387q0 69 23 90h1014q16 -23 16 -80t-18 -78h-1016q-19 21 -19 68z" />
<glyph unicode="&#x2011;" horiz-adv-x="1175" d="M61 387q0 69 23 90h1014q16 -23 16 -80t-18 -78h-1016q-19 21 -19 68z" />
<glyph unicode="&#x2012;" horiz-adv-x="1175" d="M61 387q0 69 23 90h1014q16 -23 16 -80t-18 -78h-1016q-19 21 -19 68z" />
<glyph unicode="&#x2013;" horiz-adv-x="960" d="M61 387q0 69 23 90h799q16 -23 16 -80t-18 -78h-801q-19 21 -19 68z" />
<glyph unicode="&#x2014;" horiz-adv-x="1277" d="M61 387q0 69 23 90h1116q17 -23 17 -80q0 -56 -19 -78h-1118q-19 21 -19 68z" />
<glyph unicode="&#x2018;" horiz-adv-x="376" d="M61 1161q0 86 40.5 155.5t111.5 69.5q53 0 77.5 -33.5t24.5 -84.5q-6 -67 -42.5 -96t-88.5 -29q0 -89 76 -150q-9 -15 -35.5 -30t-58.5 -15q-4 1 -11 4t-25.5 17.5t-32 35t-25 62t-11.5 94.5z" />
<glyph unicode="&#x2019;" horiz-adv-x="696" d="M391 1268q4 54 39 86t88 32q58 0 87.5 -45t29.5 -108q0 -52 -13.5 -100t-32.5 -80.5t-40 -57t-37 -36t-23 -11.5q-32 0 -56 15t-32 30q93 65 103 150q-52 0 -82.5 31t-30.5 94z" />
<glyph unicode="&#x201a;" horiz-adv-x="370" d="M55 104q0 58 34 98t93 40q57 0 87 -46t30 -108q0 -70 -17 -127t-42 -89t-48 -49.5t-40 -21.5q-30 0 -54 16t-32 31q92 64 102 150q-50 0 -81.5 25t-31.5 81z" />
<glyph unicode="&#x201c;" horiz-adv-x="700" d="M61 1161q0 86 40.5 155.5t111.5 69.5q53 0 77.5 -33.5t24.5 -84.5q-6 -67 -42.5 -96t-88.5 -29q0 -89 76 -150q-9 -15 -35.5 -30t-58.5 -15q-4 1 -11 4t-25.5 17.5t-32 35t-25 62t-11.5 94.5zM385 1161q0 86 40.5 155.5t111.5 69.5q53 0 77.5 -33.5t24.5 -84.5 q-6 -67 -42.5 -96t-88.5 -29q0 -89 76 -150q-9 -15 -36 -30t-59 -15q-4 1 -11 4t-25 17.5t-32 35t-25 62t-11 94.5z" />
<glyph unicode="&#x201d;" horiz-adv-x="696" d="M61 1268q4 54 39 86t88 32q58 0 87.5 -45t29.5 -108q0 -52 -13 -100t-32 -80.5t-40 -57t-37 -36t-23 -11.5q-32 0 -56 15t-32 30q92 64 102 150q-52 0 -82.5 31t-30.5 94zM391 1268q4 54 39 86t88 32q58 0 87.5 -45t29.5 -108q0 -52 -13.5 -100t-32.5 -80.5t-40 -57 t-37 -36t-23 -11.5q-32 0 -56 15t-32 30q93 65 103 150q-52 0 -82.5 31t-30.5 94z" />
<glyph unicode="&#x201e;" horiz-adv-x="700" d="M55 125q4 54 39 86.5t88 32.5q57 0 87 -45.5t30 -108.5q0 -52 -13 -100t-32 -80.5t-40 -57t-37 -36t-23 -11.5q-32 0 -56 15t-32 30q92 64 102 150q-52 0 -82.5 31t-30.5 94zM385 125q4 54 39 86.5t88 32.5q57 0 87 -45.5t30 -108.5q0 -52 -13.5 -100t-32.5 -80.5 t-40 -57t-37 -36t-23 -11.5q-32 0 -56 15t-32 30q93 65 103 150q-52 0 -82.5 31t-30.5 94z" />
<glyph unicode="&#x2022;" horiz-adv-x="522" d="M82 453q0 67 56 122.5t128 55.5q71 0 122.5 -52.5t51.5 -125.5q0 -74 -55.5 -131.5t-128.5 -57.5q-74 0 -124 50.5t-50 138.5z" />
<glyph unicode="&#x2026;" horiz-adv-x="1265" d="M72 113q0 46 36 82t85 36t83.5 -34.5t34.5 -83.5t-37.5 -87t-85.5 -38q-51 0 -83.5 33.5t-32.5 91.5zM512 113q0 46 37 82t84 36q50 0 84.5 -34.5t34.5 -83.5q0 -50 -37 -87.5t-86 -37.5t-83 33.5t-34 91.5zM954 113q0 46 36 82t85 36q50 0 84.5 -34.5t34.5 -83.5 q0 -50 -37 -87.5t-86 -37.5q-51 0 -84 33.5t-33 91.5z" />
<glyph unicode="&#x202f;" horiz-adv-x="349" />
<glyph unicode="&#x2039;" horiz-adv-x="669" d="M20 461q0 21 99 139t208.5 228t133.5 110q45 8 94 8t78 -10q3 0 4.5 -3.5t-2.5 -6.5q-65 -54 -225 -242.5t-160 -222.5q0 -35 160.5 -224t224.5 -241q4 -4 2.5 -8t-4.5 -4q-32 -11 -78 -11q-22 0 -45.5 2.5t-35.5 4.5l-13 2q-28 0 -137 109t-206.5 227t-97.5 143z" />
<glyph unicode="&#x203a;" horiz-adv-x="669" d="M32.5 -26.5q-1.5 4.5 2.5 8.5q65 52 225 240.5t160 223.5q0 34 -160 222.5t-225 242.5q-4 3 -2.5 7t4.5 4q29 10 78 10q22 0 45.5 -2t35.5 -4l13 -2q24 0 133 -110.5t208 -228.5t99 -139q0 -25 -97 -143t-206 -227t-137 -109q-45 -8 -94 -8t-78 10q-3 0 -4.5 4.5z" />
<glyph unicode="&#x205f;" horiz-adv-x="436" />
<glyph unicode="&#x20ac;" horiz-adv-x="1116" d="M41 459q0 11 1.5 28t14 55.5t35.5 61.5h101v64v71h-152q0 11 1.5 28t14 56t35.5 62h111q15 122 52 208.5t106.5 151t181 96t268.5 31.5q217 -8 229 -20q4 -4 10 -12.5t15.5 -45t9.5 -84.5q0 -41 -8 -57q-55 23 -205 23q-147 0 -234 -31.5t-127.5 -92.5t-54.5 -167h410 q0 -10 -1.5 -27t-14 -56t-35.5 -63h-369v-67v-68h420q0 -10 -1.5 -27t-14 -55.5t-35.5 -62.5h-359q14 -106 54.5 -167t127.5 -92.5t234 -31.5q67 0 118 5.5t69 10.5l18 6q4 -7 6 -21.5t2 -24.5v-11q0 -48 -8.5 -83.5t-17.5 -46.5l-9 -11q-5 -5 -62.5 -10.5t-111.5 -7.5 l-55 -3q-159 0 -271 31t-181.5 95t-105.5 151t-50 211h-162z" />
<glyph unicode="&#x2122;" horiz-adv-x="755" d="M61 772q0 12 2.5 24t5.5 18l3 7q53 0 94 4q40 4 102 4l43 -2q0 -53 -8 -61q-34 2 -59 2q-23 0 -25 -2q-2 -45 -2 -100q0 -162 14 -191q1 -1 -1.5 -2.5t-7.5 -3.5t-12 -3.5t-17 -3t-21 -1.5q-6 0 -11 1.5t-7 3.5l-2 1q-2 2 -2 31q0 30 3 123.5t3 119.5q0 5 -0.5 9.5 t-0.5 7.5t-0.5 5t-0.5 3l-91 -8zM360 465q0 44 5 118.5t11 127.5l5 53q-5 6 -10.5 19t-8 22.5t-2.5 11.5q4 4 68 4q41 0 43 -2q3 -3 57 -160q0 -4 4 0q5 20 32.5 86t35.5 74q4 4 70 4q24 0 24 -2q0 -9 -6.5 -31t-11.5 -28q18 -164 18 -289q0 -1 -7.5 -4t-20.5 -5.5t-25 -2.5 q-14 0 -14 2q0 5 1 23.5t1 31.5q0 169 -8 201q0 5 -3 3l-2 -3q-10 -19 -26 -64t-26 -81l-11 -35q-3 -7 -23 -7q-17 0 -22 5q0 2 -31 88.5t-35 91.5h-4q-10 -44 -10 -170q0 -21 1 -46t1 -26q-12 -12 -51 -12z" />
<glyph unicode="&#x25fc;" horiz-adv-x="993" d="M0 0v993h993v-993h-993z" />
<glyph unicode="&#xfb01;" horiz-adv-x="1064" d="M41 952q0 38 5.5 76t12.5 45q37 2 80 4l-4 248q-2 20 69.5 64.5t171.5 82t165 37.5q13 0 32 -46t19 -83q0 -14 -2 -20q-6 0 -53.5 -21.5t-98 -55t-53.5 -58.5q-9 -54 -12 -146h8q166 0 166 -6q0 -45 -12 -89.5t-27 -69.5t-25 -25q-66 4 -112 4v-102q0 -166 5 -458.5 t5 -361.5q0 -80 -4 -100q-9 -6 -25.5 -15.5t-70.5 -25.5t-111 -16q-12 0 -26 2.5t-22 5.5l-9 2q30 218 30 840q0 153 -2 225l-90 -4q-10 10 -10 67zM635 1085q0 53 45 95.5t100 42.5q56 0 91.5 -37t35.5 -101q0 -55 -45.5 -97t-101.5 -42q-58 0 -91.5 36t-33.5 103zM649 254 q0 169 4.5 348.5t10.5 190.5q5 4 16 10t53.5 16t95.5 10q48 0 58 -12q0 -2 -0.5 -30.5t-1.5 -74t-2 -99t-1.5 -116.5t-0.5 -116q0 -159 6 -211q12 -100 55 -164q0 -21 -83.5 -65.5t-143.5 -44.5q-5 0 -16.5 17t-26 61.5t-19.5 101.5q-4 54 -4 178z" />
<glyph unicode="&#xfb02;" horiz-adv-x="1001" d="M41 952q0 38 5.5 76t12.5 45q37 2 80 4l-4 248q-2 20 69.5 64.5t171.5 82t165 37.5q13 0 32 -46t19 -83q0 -14 -2 -20q-6 0 -53.5 -21.5t-98 -55t-53.5 -58.5q-9 -54 -12 -146h8q166 0 166 -6q0 -45 -12 -89.5t-27 -69.5t-25 -25q-66 4 -112 4v-102q0 -166 5 -458.5 t5 -361.5q0 -80 -4 -100q-9 -6 -25.5 -15.5t-70.5 -25.5t-111 -16q-12 0 -26 2.5t-22 5.5l-9 2q30 218 30 840q0 153 -2 225l-90 -4q-10 10 -10 67zM647 291q0 -182 2 -215q5 -57 20 -101.5t26.5 -61.5t17.5 -17q60 0 143.5 44.5t83.5 65.5q-48 71 -59 164q-4 33 -4 174 q0 103 2 266.5t2 235.5q0 120 3.5 314.5t6.5 217.5q0 3 -18 5.5t-33 2.5q-56 0 -124.5 -25.5t-68.5 -47.5q0 -4 2 -32.5t4 -93t2 -155.5q0 -178 -4 -414.5t-4 -326.5z" />
</font>
</defs>
</svg>
